<?xml version="1.0" encoding="UTF-8" standalone="no"?>
<svg width="125px" height="22px" viewBox="0 0 125 22" version="1.1" xmlns="http://www.w3.org/2000/svg" xmlns:xlink="http://www.w3.org/1999/xlink">
    <!-- Generator: sketchtool 42 (36780) - http://www.bohemiancoding.com/sketch -->
    <title>B914F2AF-D909-40B1-A7F1-327DA0F38BC1</title>
    <desc>Created with sketchtool.</desc>
    <defs>
        <polygon id="path-1" points="20.5533353 0.066125 0 0.066125 0 21.7396053 20.5533353 21.7396053 20.5533353 0.066125"></polygon>
    </defs>
    <g id="Page-1" stroke="none" stroke-width="1" fill="none" fill-rule="evenodd">
        <g id="desktop1-open" transform="translate(-16.000000, -8.000000)">
            <g id="logo-nav">
                <g id="ag-sig" transform="translate(16.000000, 8.000000)">
                    <g id="Group-3" transform="translate(0.000000, 0.235906)">
                        <mask id="mask-2" fill="white">
                            <use xlink:href="#path-1"></use>
                        </mask>
                        <g id="Clip-2"></g>
                        <path d="M11.9631911,12.8999911 C11.9631911,12.8999911 10.6588041,14.5217143 9.79552284,15.6087006 C9.74053486,14.2119232 9.66150841,12.1318541 9.66150841,12.1318541 C9.66150841,12.1318541 7.73482572,11.389986 6.43103966,10.8932936 C7.73482572,10.4147177 9.67773437,9.69760868 9.67773437,9.69760868 L9.70147236,9.2921024 C9.70147236,9.2921024 9.77839543,7.62206872 9.8523137,6.22861267 C10.7152945,7.32646884 11.988131,8.9629871 11.988131,8.9629871 C11.988131,8.9629871 13.98753,8.41858813 15.324369,8.05173025 C14.5488281,9.21088037 13.403095,10.9406983 13.403095,10.9406983 C13.403095,10.9406983 14.5283954,12.6834997 15.2895132,13.8529158 C13.9559796,13.4709608 11.9631911,12.8999911 11.9631911,12.8999911 L11.9631911,12.8999911 Z M16.0993089,10.9570031 L20.5533353,4.29166347 L12.8363882,6.38743345 L7.89798678,0.0660042237 L7.50976562,8.08735925 L-0.000150240385,10.8534374 L7.47010216,13.7122114 L7.76337139,21.7396053 L12.7771935,15.4833952 L20.4670974,17.6827308 L16.0993089,10.9570031 Z" id="Fill-1" fill="#C61E4E" mask="url(#mask-2)"></path>
                    </g>
                    <path d="M58.0086538,12.8339567 C58.0086538,10.655153 56.4740986,8.68650006 54.2493389,8.68650006 C51.7553486,8.68650006 50.1730168,11.1198397 50.1730168,13.4801096 C50.1730168,16.0001062 51.9879207,18.1055383 54.4780048,18.1055383 C55.9383413,18.1055383 57.1871394,17.2000183 57.936238,15.9279424 L57.6315505,15.6308328 C56.9398438,16.626633 55.904988,17.3105286 54.7129808,17.3105286 C52.4864183,17.3105286 51.9704928,14.6410714 51.9704928,12.8339567 L58.0086538,12.8339567 Z M52.0654447,12.1349641 C52.1021034,10.8785891 52.7228966,9.28826775 54.2355168,9.28826775 C55.7826923,9.28826775 56.3121394,10.8583591 56.2048678,12.1349641 L52.0654447,12.1349641 Z" id="Fill-4" fill="#C61E4E"></path>
                    <path d="M61.0909255,15.375391 C61.0909255,17.11004 61.0909255,17.2175309 62.2838341,17.3691051 L62.2838341,17.9089749 L58.3493389,17.9089749 L58.3493389,17.3691051 C59.5227163,17.2175309 59.5227163,17.11004 59.5227163,15.375391 L59.5227163,11.4169493 C59.4695313,10.4383596 59.4515024,10.0890143 58.3652644,10.0890143 L58.3652644,9.65180428 L61.0909255,8.56451604 L61.0909255,10.7430178 C61.7667067,9.877052 62.4767428,8.57689561 63.6498197,8.57689561 C64.239363,8.57689561 64.7546875,9.00021638 64.7546875,9.64938876 C64.7546875,10.2173391 64.3811899,10.6796102 63.7955529,10.6796102 C63.1705529,10.6796102 63.1732572,10.141552 62.6026442,10.141552 C61.9770433,10.141552 61.3938101,11.036806 61.0909255,11.5528225 L61.0909255,15.375391 Z" id="Fill-6" fill="#C61E4E"></path>
                    <path d="M77.1009014,15.7088845 C76.2463341,17.0525203 74.9659856,18.1053873 73.3457933,18.1053873 C71.0131611,18.1053873 69.3599159,15.9102789 69.3599159,13.6242863 C69.3599159,10.8926293 71.1591947,8.68634909 73.8995793,8.68634909 C74.9140024,8.68634909 76.8172476,9.3261613 76.8172476,10.6157498 C76.8172476,11.1510905 76.3734375,11.5399901 75.8566106,11.5399901 C74.5378005,11.5399901 75.0543269,9.28811678 73.3457933,9.28811678 C71.513762,9.28811678 71.1591947,11.7981493 71.1591947,13.2172703 C71.1591947,14.9694318 72.0987981,17.1283074 74.076863,17.1283074 C75.2862981,17.1283074 76.0744591,16.3136716 76.8346755,15.451933 L77.1009014,15.7088845 Z" id="Fill-8" fill="#C61E4E"></path>
                    <path d="M82.805649,12.4609694 C80.9865385,12.8296389 77.8930889,13.454958 77.8930889,15.9103393 C77.8930889,17.2174403 78.7416466,18.1054477 79.9874399,18.1054477 C81.0577524,18.1054477 82.0240986,17.4979432 82.8399038,16.8134437 C82.9141226,17.5157576 83.3254808,18.1054477 84.0547476,18.1054477 C84.8909856,18.1054477 85.4255409,17.4979432 85.8672476,16.8134437 L85.6388822,16.4272616 C85.4255409,16.664587 85.2103966,16.8862114 84.9114183,16.8862114 C84.3747596,16.8862114 84.3747596,16.0739911 84.3747596,15.6307422 L84.3747596,11.4268227 C84.3747596,10.6541566 84.3747596,9.87847112 83.7344351,9.32622169 C83.1274639,8.81503619 82.2179087,8.68640947 81.4745192,8.68640947 C80.3134615,8.68640947 78.2341346,9.27157043 78.2341346,10.8008998 C78.2341346,11.2966863 78.5721755,11.6125162 79.0697716,11.6125162 C79.7085938,11.6125162 79.9435697,11.2631709 80.1019231,10.6882759 C80.2996394,9.89749338 80.6710337,9.28817717 81.5628606,9.28817717 C82.6298678,9.28817717 82.805649,10.3428558 82.805649,11.2444506 L82.805649,12.4609694 Z M82.805649,16.0739911 C82.3630409,16.5927251 81.5415264,17.1283678 80.8777644,17.1283678 C80.1641226,17.1283678 79.5748798,16.5740048 79.5748798,15.7089449 C79.5748798,14.1784078 81.5415264,13.2900984 82.805649,13.0690779 L82.805649,16.0739911 Z" id="Fill-10" fill="#C61E4E"></path>
                    <path d="M88.8443209,15.375391 C88.8443209,17.11004 88.8443209,17.2175309 90.0369291,17.3691051 L90.0369291,17.9089749 L86.0681791,17.9089749 L86.0681791,17.3691051 C87.2773137,17.2175309 87.2773137,17.11004 87.2773137,15.375391 L87.2773137,11.4169493 C87.2232272,10.4383596 87.2073017,10.0890143 86.1210637,10.0890143 L86.1210637,9.65180428 L88.8443209,8.56451604 L88.8443209,10.1294744 C89.5192007,9.37130143 90.6396935,8.69042529 91.6339844,8.69042529 C92.2604868,8.69042529 92.8830829,8.94888647 93.3256911,9.40693042 C93.9155349,10.0926376 93.9320613,10.940185 93.9320613,11.804641 L93.9320613,15.375391 C93.9320613,17.11004 93.9320613,17.2175309 95.1228666,17.3691051 L95.1228666,17.9089749 L91.1369892,17.9089749 L91.1369892,17.3691051 C92.3650541,17.2175309 92.3650541,17.11004 92.3650541,15.375391 L92.3650541,12.155798 C92.3650541,11.047072 92.2947416,9.66720325 90.890595,9.66720325 C90.1069411,9.66720325 89.3770733,10.3311707 88.8443209,10.8837221 L88.8443209,15.375391 Z" id="Fill-12" fill="#C61E4E"></path>
                    <path d="M107.788672,7.58242392 L107.274249,7.82337255 C106.381821,6.34718476 105.026653,4.82117677 103.192218,4.82117677 C100.092758,4.82117677 99.184405,9.09122129 99.184405,11.6320518 C99.184405,14.102832 100.465655,17.5072127 103.316316,17.5072127 C105.347867,17.5072127 105.919381,16.1569342 105.919381,14.2516888 C105.919381,12.6426471 105.403155,12.4771836 103.938311,12.4771836 L103.938311,11.874812 L109.016737,11.874812 L109.016737,12.4771836 C107.486689,12.5321368 107.486689,13.4932139 107.486689,14.8419827 L107.486689,17.5796785 C107.254417,17.5072127 107.005018,17.4329353 106.738492,17.4329353 C105.526653,17.4329353 104.440415,18.1056591 102.944621,18.1056591 C99.2039363,18.1056591 97.13753,15.1019536 97.13753,11.4690038 C97.13753,8.09874241 99.184405,4.21669161 102.835847,4.21669161 C103.833444,4.21669161 104.597566,4.54459914 105.240595,4.54459914 C105.761929,4.54459914 106.15015,4.36403864 106.598167,4.12550554 L107.788672,7.58242392 Z" id="Fill-14" fill="#C61E4E"></path>
                    <path d="M120.58759,6.98092797 C120.58759,5.37641541 120.338191,5.45069281 119.07497,5.35467568 L119.07497,4.82144852 L122.155499,3.98779041 L122.155499,15.5898595 C122.155499,17.3202813 122.155499,17.2173195 123.383263,17.3688937 L123.383263,17.9087636 L119.396184,17.9087636 L119.396184,17.3688937 C120.58759,17.2173195 120.58759,17.1101306 120.58759,15.3803127 L120.58759,6.98092797 Z" id="Fill-16" fill="#C61E4E"></path>
                    <path d="M27.0558894,12.1820064 L29.0685096,5.97561661 L31.0634014,12.1732502 L27.0558894,12.1820064 Z M48.749399,15.3753307 L48.749399,12.2481314 C48.749399,11.4193044 48.7692308,10.40418 48.3774038,9.70579127 C47.9675481,8.96694252 47.2358774,8.69066684 46.4705529,8.69066684 C45.2067308,8.69066684 44.2779447,9.51768225 43.4209736,10.3821383 C43.0853365,9.42498647 42.320012,8.69066684 41.3019832,8.69066684 C40.1234976,8.69066684 39.0375601,9.44551844 38.3419471,10.3821383 L38.3419471,8.56475759 L35.6177885,9.65174389 L35.6177885,10.0889539 C36.7064303,10.0889539 36.7202524,10.4386012 36.7755409,11.4168889 L36.7755409,15.3753307 C36.7755409,16.9620287 36.7734375,17.1779163 35.8506611,17.3177148 C35.4122596,17.2968809 34.9975962,17.1214534 34.6932091,16.7693906 C34.2133413,16.2337479 33.7478966,14.7013991 33.5201322,13.9785533 L30.2785457,3.95714344 L28.6063702,4.36415942 L25.3650841,14.4770572 C24.9561298,15.7554739 24.4777644,17.286313 22.9453125,17.3056372 L22.9453125,17.9089146 L27.5036058,17.9089146 L27.5036058,17.3056372 C26.7755409,17.3056372 25.8299279,17.1779163 25.8299279,16.2337479 C25.8299279,15.6956897 26.3626803,14.2569425 26.5408654,13.7200921 L26.7755409,13.0189859 L31.3121995,13.0189859 L32.0426683,15.292297 C32.1484375,15.5682707 32.3410457,16.1781908 32.3410457,16.4746965 C32.3410457,17.4330561 31.2229567,17.2494762 30.6153846,17.3056372 L30.6153846,17.9089146 L39.5537861,17.9089146 L39.5537861,17.3690447 C38.3419471,17.2174705 38.3419471,17.1099796 38.3419471,15.3753307 L38.3419471,11.0113826 C38.8762019,10.3471132 39.6974159,9.66714287 40.6234976,9.66714287 C41.9441106,9.66714287 41.9807692,11.085358 41.9807692,12.0832719 L41.9807692,15.3753307 C41.9807692,17.1099796 41.9807692,17.2174705 40.7869591,17.3690447 L40.7869591,17.9089146 L44.757512,17.9089146 L44.757512,17.3690447 C43.5480769,17.2174705 43.5480769,17.1099796 43.5480769,15.3753307 L43.5480769,11.0113826 C44.1343149,10.3471132 44.9576322,9.66714287 45.883113,9.66714287 C47.1998197,9.66714287 47.1856971,11.085358 47.1856971,12.0832719 L47.1856971,15.3753307 C47.1856971,17.1099796 47.1856971,17.2174705 45.9723558,17.3690447 L45.9723558,17.9089146 L49.9429087,17.9089146 L49.9429087,17.3690447 C48.749399,17.2174705 48.749399,17.1099796 48.749399,15.3753307 L48.749399,15.3753307 Z" id="Fill-18" fill="#C61E4E"></path>
                    <path d="M67.9585337,15.375391 C67.9585337,17.11004 67.9585337,17.2175309 69.172476,17.3691051 L69.172476,17.9089749 L65.1841947,17.9089749 L65.1841947,17.3503848 C66.3942308,17.2042455 66.3942308,17.0719955 66.3942308,15.3578785 L66.3942308,11.4169493 C66.3392428,10.4383596 66.4792668,10.0890143 65.3903245,10.0890143 L65.3903245,9.65180428 L67.9585337,8.56451604 L67.9585337,15.375391 Z" id="Fill-20" fill="#C61E4E"></path>
                    <path d="M67.840024,6.16985502 C67.840024,6.71636758 67.3995192,7.15901256 66.8559495,7.15901256 C66.3123798,7.15901256 65.871875,6.71636758 65.871875,6.16985502 C65.871875,5.62394635 66.3123798,5.18069749 66.8559495,5.18069749 C67.3995192,5.18069749 67.840024,5.62394635 67.840024,6.16985502" id="Fill-22" fill="#C61E4E"></path>
                    <path d="M118.609225,8.56874321 C117.433744,8.56874321 116.726112,9.87131513 116.05003,10.7369789 L116.05003,8.55998693 L113.324069,9.64123636 L113.324069,10.0838813 C114.413612,10.0838813 114.431641,10.4329247 114.483624,11.4100046 L114.483624,15.3699561 C114.483624,17.1043031 114.483624,17.2148134 113.301232,17.3657837 C112.094201,17.2148134 112.094201,17.1073225 112.094201,15.375391 L112.094201,8.56451604 L109.525691,9.65180428 L109.525691,10.0890143 C110.613732,10.0890143 110.474609,10.4383596 110.528395,11.4169493 L110.528395,15.3578785 C110.528395,17.0719955 110.528395,17.2042455 109.316857,17.3503848 L109.316857,17.9089749 L117.241136,17.8990109 L117.241136,17.3606507 C116.05003,17.2139076 116.05003,17.1043031 116.05003,15.3699561 L116.05003,11.5476896 C116.352614,11.0301633 116.936148,10.1361171 117.559645,10.1361171 C118.128155,10.1361171 118.128155,10.6747792 118.753155,10.6747792 C119.341496,10.6747792 119.714093,10.2097906 119.714093,9.63851889 C119.714093,8.99538533 119.195463,8.56874321 118.609225,8.56874321" id="Fill-24" fill="#C61E4E"></path>
                    <path d="M111.972837,6.16985502 C111.972837,6.71636758 111.531731,7.15901256 110.988462,7.15901256 C110.444892,7.15901256 110.004387,6.71636758 110.004387,6.16985502 C110.004387,5.62394635 110.444892,5.18069749 110.988462,5.18069749 C111.531731,5.18069749 111.972837,5.62394635 111.972837,6.16985502" id="Fill-26" fill="#C61E4E"></path>
                    <path d="M124.077133,4.43091849 L123.994201,4.43091849 L123.994201,4.67730205 L124.077133,4.67730205 C124.170883,4.67730205 124.224669,4.63019932 124.224669,4.55411027 C124.224669,4.47802123 124.170883,4.43091849 124.077133,4.43091849 L124.077133,4.43091849 Z M124.336448,5.18788368 L124.102374,4.8291782 L123.994201,4.8291782 L123.994201,5.18426039 L123.821124,5.18426039 L123.821124,4.27904235 L124.102374,4.27904235 C124.24991,4.27904235 124.397746,4.38381575 124.397746,4.55411027 C124.397746,4.65918562 124.34396,4.73889795 124.268239,4.7823774 L124.480679,5.09005491 L124.336448,5.18788368 Z M124.098768,4.14498071 C123.767338,4.14498071 123.51854,4.38381575 123.51854,4.73165137 C123.51854,5.07918505 123.767338,5.31802009 124.098768,5.31802009 C124.422987,5.31802009 124.671785,5.07918505 124.671785,4.73165137 C124.671785,4.38381575 124.422987,4.14498071 124.098768,4.14498071 L124.098768,4.14498071 Z M124.098768,5.46657489 C123.680799,5.46657489 123.359886,5.16252066 123.359886,4.73165137 C123.359886,4.30048014 123.680799,3.99642591 124.098768,3.99642591 C124.509525,3.99642591 124.83735,4.30048014 124.83735,4.73165137 C124.83735,5.16252066 124.509525,5.46657489 124.098768,5.46657489 L124.098768,5.46657489 Z" id="Fill-28" fill="#C61E4E"></path>
                </g>
            </g>
        </g>
    </g>
</svg>