<svg id="Layer_1" data-name="Layer 1" xmlns="http://www.w3.org/2000/svg" viewBox="0 0 1307.8 1662">
  <title>Character</title>
  <g>
    <path d="M1037.62,247.55C669.8,239.38,370.1,547.25,370.1,915.07v558.54c0,103.54,95.36,193.45,245.21,253.39,103.54-106.26,247.94-171.65,408.69-171.65s305.15,65.39,408.69,171.65c149.85-59.94,245.21-152.58,245.21-253.39V901.45C1677.9,544.53,1391.82,253,1037.62,247.55ZM1024,1473.61c-316,0-572.16-256.11-572.16-572.16H1351v-188l92.64,188h152.57C1596.16,1217.5,1340.05,1473.61,1024,1473.61Z" transform="translate(-370.1 -65)" style="fill: #fff"/>
    <path d="M1024,1310.14c89.91,0,163.48-73.57,163.48-163.48h-327C860.52,1236.57,934.09,1310.14,1024,1310.14Z" transform="translate(-370.1 -65)" style="fill: #fff"/>
    <polygon points="280.63 0 280.63 89.91 280.63 182.55 653.9 89.91 280.63 0" style="fill: #fff"/>
    <polygon points="1027.17 89.91 1027.17 0 653.9 89.91 1027.17 182.55 1027.17 89.91" style="fill: #fff"/>
    <path d="M697.05,988.64c-32.7,0-59.94,27.24-59.94,59.94H759.72C757,1015.88,729.74,988.64,697.05,988.64Z" transform="translate(-370.1 -65)" style="fill: #fff"/>
    <path d="M1351,988.64c-32.69,0-59.94,27.24-59.94,59.94h122.61C1410.89,1015.88,1383.65,988.64,1351,988.64Z" transform="translate(-370.1 -65)" style="fill: #fff"/>
  </g>
</svg>
