<?xml version="1.0" encoding="utf-8"?>
<!-- Generator: Adobe Illustrator 23.0.3, SVG Export Plug-In . SVG Version: 6.00 Build 0)  -->
<svg version="1.1" id="Layer_1" xmlns="http://www.w3.org/2000/svg" xmlns:xlink="http://www.w3.org/1999/xlink" x="0px" y="0px"
	 viewBox="0 0 2048 1792" style="enable-background:new 0 0 2048 1792;" xml:space="preserve">
<style type="text/css">
	.st0{fill:#FFFFFF;}
	.st1{display:none;fill:#FFFFFF;}
	.st2{display:none;}
	.st3{display:inline;fill:#FFFFFF;}
</style>
<path class="st0" d="M896,960V832c0-9.3-3-17-9-23s-13.7-9-23-9H672V608c0-9.3-3-17-9-23s-13.7-9-23-9H512c-9.3,0-17,3-23,9
	s-9,13.7-9,23v192H288c-9.3,0-17,3-23,9s-9,13.7-9,23v128c0,9.3,3,17,9,23s13.7,9,23,9h192v192c0,9.3,3,17,9,23s13.7,9,23,9h128
	c9.3,0,17-3,23-9s9-13.7,9-23V992h192c9.3,0,17-3,23-9S896,969.3,896,960z M1472,1024c0-35.3-12.5-65.5-37.5-90.5
	S1379.3,896,1344,896s-65.5,12.5-90.5,37.5s-37.5,55.2-37.5,90.5s12.5,65.5,37.5,90.5s55.2,37.5,90.5,37.5s65.5-12.5,90.5-37.5
	S1472,1059.3,1472,1024z M1728,768c0-35.3-12.5-65.5-37.5-90.5S1635.3,640,1600,640s-65.5,12.5-90.5,37.5S1472,732.7,1472,768
	s12.5,65.5,37.5,90.5s55.2,37.5,90.5,37.5s65.5-12.5,90.5-37.5S1728,803.3,1728,768z M1984,896c0,141.3-50,262-150,362
	s-220.7,150-362,150c-128,0-240.7-42.7-338-128H914c-97.3,85.3-210,128-338,128c-141.3,0-262-50-362-150S64,1037.3,64,896
	s50-262,150-362s220.7-150,362-150h896c141.3,0,262,50,362,150S1984,754.7,1984,896z"/>
<path class="st1" d="M1964.7,1348.1c-56.8-32.4-152.1-113.5-152.1-281.8c0-2,0-2,0-4.1c-10.1-103.4-95.3-182.5-200.7-182.5
	c-14.2,0-26.4,2-40.5,4.1v-2c-2-300.1-247.3-545.4-547.4-545.4c-302.1,0-547.4,245.3-547.4,547.4c-14.2-2-28.4-4.1-42.6-4.1
	c-103.4,0-190.6,77-198.7,182.5c0,0,0,2,0,4.1c0,168.3-95.3,247.3-152.1,279.8c-10.1,6.1-16.2,16.2-16.2,28.4
	c0,12.2,6.1,22.3,16.2,28.4c54.7,32.4,119.6,48.7,184.5,48.7c156.1,0,283.8-89.2,338.6-223c99.3,121.6,249.4,198.7,417.6,198.7
	c166.2,0,316.3-77,415.6-194.6c54.7,133.8,182.5,223,340.6,223c64.9,0,129.8-16.2,184.5-48.7c10.1-6.1,16.2-16.2,16.2-28.4
	C1980.9,1364.3,1974.8,1354.2,1964.7,1348.1z M1024,1362.3c-251.4,0-458.2-196.7-476.4-444c219-16.2,403.4-162.2,476.4-360.9
	c71,198.7,255.4,344.7,476.4,360.9C1482.2,1165.6,1275.4,1362.3,1024,1362.3z"/>
<g class="st2">
	<path class="st3" d="M1840.6,841.3c84.3,89.6-47.4,221.3-131.7,131.7L1024,293.4C786.9,530.5,570.9,741.2,339.1,973
		c-84.3,89.6-216-42.1-131.7-131.7l115.9-110.6V340.9h274v110.6L955.5,93.2c36.9-36.9,100.1-36.9,137,0L1840.6,841.3z"/>
	<path class="st3" d="M1682.5,1041.5v684.9H365.5v-684.9c5.3-5.3,15.8-10.5,21.1-21.1L1024,388.3l637.5,632.2
		C1666.7,1031,1677.3,1036.3,1682.5,1041.5z M918.6,1152.2h210.7c31.6,0,58,26.3,58,63.2v374.1c0,31.6-26.3,63.2-58,63.2H918.6
		c-31.6,0-58-31.6-58-63.2v-374.1C860.7,1178.5,887,1152.2,918.6,1152.2z"/>
</g>
<path class="st1" d="M1024,89.5C497.5,89.5,70.6,392,70.6,765.2c0,226.2,157,426.4,397.9,549c-22.3,107.2-75.4,289.3-190.3,388.4
	c0,0,341.6-115.1,527.2-279.7c70.2,11.7,143.3,18.1,218.6,18.1c526.5,0,953.3-302.5,953.3-675.7S1550.5,89.5,1024,89.5z
	 M922.6,741.7c0,6.4-1.2,12.5-2.9,18.4c-30,230.1-295.7,350.6-295.7,350.6c87.7-74.4,124.1-210.6,139.1-301.4h-71.5
	c-37.3,0-67.6-30.3-67.6-67.6V578.4c0-37.3,30.3-67.6,67.6-67.6H855c37.3,0,67.6,30.3,67.6,67.6V741.7z M1424,741.7
	c0,6.4-1.2,12.5-2.9,18.4c-30,230.1-295.7,350.6-295.7,350.6c87.6-74.4,124.1-210.6,139.1-301.4H1193c-37.3,0-67.6-30.3-67.6-67.6
	V578.4c0-37.3,30.3-67.6,67.6-67.6h163.4c37.3,0,67.6,30.3,67.6,67.6C1424,578.4,1424,741.7,1424,741.7z"/>
<g class="st2">
	<path class="st3" d="M1037.6,247.5c-367.8-8.2-667.5,299.7-667.5,667.5v558.5c0,103.5,95.4,193.4,245.2,253.4
		c103.5-106.3,247.9-171.6,408.7-171.6s305.2,65.4,408.7,171.6c149.9-59.9,245.2-152.6,245.2-253.4V901.4
		C1677.9,544.5,1391.8,253,1037.6,247.5z M1024,1473.6c-316.1,0-572.2-256.1-572.2-572.2H1351v-188l92.6,188h152.6
		C1596.2,1217.5,1340.1,1473.6,1024,1473.6z"/>
	<path class="st3" d="M1024,1310.1c89.9,0,163.5-73.6,163.5-163.5h-327C860.5,1236.6,934.1,1310.1,1024,1310.1z"/>
	<polygon class="st3" points="650.7,65 650.7,154.9 650.7,247.5 1024,154.9 	"/>
	<polygon class="st3" points="1397.3,154.9 1397.3,65 1024,154.9 1397.3,247.5 	"/>
	<path class="st3" d="M697,988.6c-32.7,0-59.9,27.2-59.9,59.9h122.6C757,1015.9,729.7,988.6,697,988.6z"/>
	<path class="st3" d="M1351,988.6c-32.7,0-59.9,27.2-59.9,59.9h122.6C1410.9,1015.9,1383.6,988.6,1351,988.6z"/>
</g>
</svg>
