<?xml version="1.0" encoding="UTF-8" standalone="no"?>
<svg width="45px" height="32px" viewBox="0 0 45 32" version="1.1" xmlns="http://www.w3.org/2000/svg" xmlns:xlink="http://www.w3.org/1999/xlink">
    <!-- Generator: sketchtool 42 (36780) - http://www.bohemiancoding.com/sketch -->
    <title>4E86D576-772C-4954-BB08-4B36425E96CA</title>
    <desc>Created with sketchtool.</desc>
    <defs></defs>
    <g id="Page-1" stroke="none" stroke-width="1" fill="none" fill-rule="evenodd">
        <g id="mobile2-open" transform="translate(-73.000000, -61.000000)" fill="#E21777">
            <g id="category-nav" transform="translate(0.000000, 50.000000)">
                <g id="home">
                    <g id="play-logo" transform="translate(73.000000, 11.000000)">
                        <path d="M13.2111522,18.9313702 C13.2453913,20.1582638 12.8648478,21.3534979 11.6873478,22.1827745 C10.9741957,22.6845617 10.2209348,22.8949447 9.48821739,22.9174128 C8.7705,22.9398809 8.07234783,22.7826043 7.45343478,22.5432851 L4.0605,16.5031149 C4.308,15.2013277 5.07626087,14.1112851 6.27984783,13.263966 C6.84658696,12.8649872 7.42832609,12.6886468 7.99734783,12.6706043 C9.65223913,12.6171574 11.2106087,13.9182638 11.9191957,15.0171574 C12.5195217,15.9461787 13.169087,17.4586894 13.2111522,18.9313702 M13.8078913,13.5233702 C12.7670217,11.9111149 11.0697391,10.8401362 9.11843478,10.9014128 C8.0456087,10.9351149 6.89647826,11.3109447 5.74017391,12.1252426 C4.57669565,12.9443064 3.70702174,13.9952 3.3555,15.277583 L2.15028261,13.1740936 L6.52173912e-05,14.7560511 L10.8382174,30.6682213 L11.6847391,30.0020085 L7.97647826,23.4900085 C8.49397826,23.6748596 9.03528261,23.7606468 9.58506522,23.743966 C10.521587,23.7146894 11.4828913,23.3861787 12.4005,22.7400511 C14.3847391,21.3436255 15.0926739,19.3708596 15.0375652,17.4740085 C14.9955,16.0193702 14.508,14.6076255 13.8078913,13.5233702" id="Fill-1"></path>
                        <path d="M24.864913,18.9696 C24.6102391,19.0162383 24.3735,19.0349617 24.1537174,19.0291745 C23.0127391,18.9910468 22.3436087,18.3142809 22.1528478,17.3035574 C22.1085,17.0584511 22.0876304,16.8177702 22.0931739,16.5852596 C22.1085,16.0324085 22.2702391,15.5336851 22.6198043,15.1323234 C22.9700217,14.7309617 23.5142609,14.4225362 24.3128478,14.2747915 C24.7488261,14.1947915 25.1854565,14.1546213 25.6008913,14.1661957 C26.5035,14.1913872 27.2994783,14.4579404 27.8085,15.0621957 L27.9943696,16.7166638 C27.3187174,17.7699404 26.2817609,18.7084936 24.864913,18.9696 M33.0562174,16.951217 L32.9326304,16.9760681 L33.0562174,16.951217 C32.9036087,16.1256851 32.3437174,15.0880681 31.4508913,14.6210043 L31.3426304,14.564834 L30.5368696,16.0844936 L30.6578478,16.1450894 C31.1394783,16.3810043 31.6635,16.8756426 31.727087,17.2739404 C31.734587,17.3154723 31.7375217,17.3614298 31.7362174,17.4114723 C31.7313261,17.6715574 31.5911087,18.023217 31.367413,18.3136 C31.1440435,18.6050043 30.8404565,18.8341106 30.5326304,18.8896 C30.4279565,18.9086638 30.3314348,18.9164936 30.2417609,18.9141106 C29.8188261,18.9001532 29.5498043,18.6764936 29.3675217,18.3633021 C29.1875217,18.0504511 29.1128478,17.6470468 29.1213261,17.3335149 L29.1757826,9.91019574 C29.1800217,8.83581277 28.7319783,7.95649362 28.0067609,7.3522383 C27.2812174,6.7469617 26.2840435,6.4082383 25.176,6.37725957 C24.7462174,6.36568511 24.2994783,6.40006809 23.844913,6.48381277 C21.6682826,6.88653617 20.259587,8.64857872 20.214587,10.267983 C20.2100217,10.4524936 20.2233913,10.6353021 20.2556739,10.8136851 C20.327087,11.2038128 20.5204565,11.6603234 20.8344783,12.0334298 C21.1475217,12.404834 21.5903478,12.692834 22.1456739,12.7074723 C22.2666522,12.711217 22.3931739,12.7010043 22.5242609,12.6771745 C23.1826304,12.5542809 23.6773043,12.0412596 23.6962174,11.4645787 C23.6981739,11.3985362 23.6932826,11.3321532 23.6812174,11.2664511 C23.5775217,10.7204085 23.0466522,10.3748766 22.4531739,10.3585362 C22.3413261,10.3551319 22.2262174,10.363983 22.1104565,10.3854298 C21.7273043,10.4579404 21.3673043,10.6553872 21.1478478,10.9420255 C21.107413,10.8324085 21.0761087,10.7187064 21.0568696,10.612834 C21.0346957,10.4896 21.0255652,10.3690894 21.0285,10.2509617 C21.0431739,9.65930213 21.3653478,9.1108766 21.9089348,8.66389787 C22.4508913,8.21794043 23.2106739,7.8816 24.0673043,7.7243234 C24.3594783,7.67053617 24.6301304,7.64908936 24.879587,7.65589787 C25.7143696,7.68040851 26.3127391,8.01266383 26.7301304,8.52091915 C27.1462174,9.02985532 27.3761087,9.72398298 27.4335,10.4661106 L27.6933913,13.7525787 C27.0438261,13.3505362 26.1594783,13.1061106 25.2650217,13.0805787 C24.9183913,13.0707064 24.5704565,13.0945362 24.2342609,13.1561532 C22.1313261,13.5500255 20.2755652,15.3849191 20.2188261,17.1936 C20.2142609,17.3651745 20.2266522,17.5364085 20.2573043,17.7056 C20.5462174,19.2477277 22.209913,20.3789617 23.8635,20.4286638 C24.1093696,20.4354723 24.3555652,20.4181106 24.5975217,20.3735149 C26.117087,20.0923234 27.332413,19.0179404 28.1861087,18.0123234 C28.3005652,18.3745362 28.5027391,18.7571745 28.7913261,19.076834 C29.1435,19.4693447 29.6339348,19.7658553 30.2417609,19.7825362 C30.3842609,19.7862809 30.5316522,19.7750468 30.6852391,19.7471319 C31.9905652,19.5030468 33.047413,18.4419404 33.0836087,17.3093447 C33.0865435,17.1898553 33.0780652,17.0700255 33.0562174,16.951217" id="Fill-3"></path>
                        <path d="M44.7743804,10.4406809 L35.911663,24.2857872 C35.0615543,25.5923404 33.5119891,26.744 31.5192717,26.3024681 C29.9110109,25.9460426 28.9529674,24.9094468 29.2320978,23.5371915 C29.4398152,22.515234 30.4405761,21.5470638 31.8039457,21.8493617 C32.4336196,21.9885957 32.874163,22.5135319 32.7678587,23.0391489 C32.6609022,23.564766 32.0475326,23.8868085 31.4181848,23.747234 C30.788837,23.6076596 30.3593804,23.0241702 30.5012283,22.506383 C30.1562283,22.7654468 29.8803587,23.2226383 29.7972065,23.6321702 C29.6015543,24.5955745 30.473837,25.1555745 31.5228587,25.3877447 C32.9207935,25.6978723 33.8465543,24.5598298 34.4214457,23.7108085 L35.7936196,21.635234 L32.8849239,7.55114894 L35.0654674,7.86502128 L36.7079674,20.3729362 L42.9724239,9.83642553 L44.7743804,10.4406809 Z" id="Fill-5"></path>
                        <polygon id="Fill-8" points="18.7358152 21.6730553 11.3639674 0.957140426 14.1911413 -0.000136170213 19.8852717 21.2665872"></polygon>
                        <path d="M21.300913,28.056034 C21.300913,28.056034 20.7742826,28.7365447 20.4250435,29.1927149 C20.4035217,28.6061617 20.3712391,27.7333106 20.3712391,27.7333106 C20.3712391,27.7333106 19.5928696,27.4218213 19.065913,27.2131404 C19.5928696,27.0129702 20.378087,26.7116936 20.378087,26.7116936 L20.3872174,26.5418213 C20.3872174,26.5418213 20.4185217,25.8402043 20.4478696,25.256034 C20.7971087,25.7162894 21.3110217,26.4032681 21.3110217,26.4032681 C21.3110217,26.4032681 22.1190652,26.1748426 22.6590652,26.0202894 C22.3453696,26.5074383 21.8826522,27.233566 21.8826522,27.233566 C21.8826522,27.233566 22.3372174,27.9651404 22.6447174,28.456034 C22.1060217,28.2950128 21.300913,28.056034 21.300913,28.056034 L21.300913,28.056034 Z M22.9721087,27.2403745 L24.7714565,24.4427574 L21.653413,25.322417 L19.6590652,22.6691404 L19.5022174,26.0356085 L16.4683043,27.1968 L19.485913,28.3964596 L19.6042826,31.7656511 L21.6302609,29.1399489 L24.7365652,30.0628426 L22.9721087,27.2403745 Z" id="Fill-11"></path>
                    </g>
                </g>
            </g>
        </g>
    </g>
</svg>