<?xml version="1.0" encoding="UTF-8"?>
<svg width="208px" height="303px" viewBox="0 0 208 303" version="1.1" xmlns="http://www.w3.org/2000/svg" xmlns:xlink="http://www.w3.org/1999/xlink">
    <!-- Generator: Sketch 63.1 (92452) - https://sketch.com -->
    <title>Sprite_Sheet_Theme-Light-ALT_Desktop_V-2</title>
    <desc>Created with Sketch.</desc>
    <defs>
        <path d="M59.9516129,29.9758065 C59.9516129,46.532878 46.5302714,59.9516129 29.9758065,59.9516129 C13.4213415,59.9516129 0,46.532878 0,29.9758065 C0,13.4187349 13.4213415,0 29.9758065,0 C46.5302714,0 59.9516129,13.4187349 59.9516129,29.9758065 Z" id="path-1"></path>
        <filter x="-5.0%" y="-5.0%" width="110.0%" height="110.0%" filterUnits="objectBoundingBox" id="filter-2">
            <feGaussianBlur stdDeviation="1.5" in="SourceAlpha" result="shadowBlurInner1"></feGaussianBlur>
            <feOffset dx="0" dy="1" in="shadowBlurInner1" result="shadowOffsetInner1"></feOffset>
            <feComposite in="shadowOffsetInner1" in2="SourceAlpha" operator="arithmetic" k2="-1" k3="1" result="shadowInnerInner1"></feComposite>
            <feColorMatrix values="0 0 0 0 0   0 0 0 0 0   0 0 0 0 0  0 0 0 0.5 0" type="matrix" in="shadowInnerInner1"></feColorMatrix>
        </filter>
        <path d="M37.2083333,19 C37.2083333,29.0573333 29.05575,37.2083333 19,37.2083333 C8.94425,37.2083333 0.791666667,29.0573333 0.791666667,19 C0.791666667,8.94266667 8.94425,0.791666667 19,0.791666667 C29.05575,0.791666667 37.2083333,8.94266667 37.2083333,19 Z" id="path-3"></path>
        <filter x="-8.2%" y="-8.2%" width="116.5%" height="116.5%" filterUnits="objectBoundingBox" id="filter-4">
            <feGaussianBlur stdDeviation="1.5" in="SourceAlpha" result="shadowBlurInner1"></feGaussianBlur>
            <feOffset dx="0" dy="1" in="shadowBlurInner1" result="shadowOffsetInner1"></feOffset>
            <feComposite in="shadowOffsetInner1" in2="SourceAlpha" operator="arithmetic" k2="-1" k3="1" result="shadowInnerInner1"></feComposite>
            <feColorMatrix values="0 0 0 0 0   0 0 0 0 0   0 0 0 0 0  0 0 0 0.5 0" type="matrix" in="shadowInnerInner1"></feColorMatrix>
        </filter>
        <path d="M165,83 C165,127.746789 128.509261,164.011976 83.5,164.011976 C38.4907391,164.011976 2,127.746789 2,83 C2,38.2532111 38.4907391,1.98802395 83.5,1.98802395 C128.509261,1.98802395 165,38.2532111 165,83 Z" id="path-5"></path>
        <filter x="-2.1%" y="-2.2%" width="104.3%" height="104.3%" filterUnits="objectBoundingBox" id="filter-6">
            <feGaussianBlur stdDeviation="1.5" in="SourceAlpha" result="shadowBlurInner1"></feGaussianBlur>
            <feOffset dx="0" dy="1" in="shadowBlurInner1" result="shadowOffsetInner1"></feOffset>
            <feComposite in="shadowOffsetInner1" in2="SourceAlpha" operator="arithmetic" k2="-1" k3="1" result="shadowInnerInner1"></feComposite>
            <feColorMatrix values="0 0 0 0 0   0 0 0 0 0   0 0 0 0 0  0 0 0 0.5 0" type="matrix" in="shadowInnerInner1"></feColorMatrix>
        </filter>
    </defs>
    <g id="Sprite_Sheet_Theme-Light-ALT_Desktop_V-2" stroke="none" stroke-width="1" fill="none" fill-rule="evenodd">
        <g id="Carousel_Dot-Black" transform="translate(36.000000, 50.000000)" fill="#000000">
            <circle id="Oval-Copy-2" cx="4" cy="4" r="4"></circle>
        </g>
        <g id="Carousel_Dot-Black-20-opacity" transform="translate(44.000000, 50.000000)" fill="#000000" fill-opacity="0.2">
            <circle id="Oval-Copy-2" cx="4" cy="4" r="4"></circle>
        </g>
        <g id="Carousel_Pause-Black" transform="translate(0.000000, 50.000000)" fill="#000000">
            <path d="M8.99947267,0.995605555 C4.58569169,0.995605555 0.995605555,4.58674635 0.995605555,8.99947267 C0.995605555,13.4132536 4.58569169,17.0043944 8.99947267,17.0043944 C13.4132536,17.0043944 17.0033398,13.4132536 17.0033398,8.99947267 C17.0033398,4.58674635 13.4132536,0.995605555 8.99947267,0.995605555 M8.99947267,18.0010547 C4.0372649,18.0010547 0,13.9627351 0,8.99947267 C0,4.0372649 4.0372649,0 8.99947267,0 C13.9616804,0 18,4.0372649 18,8.99947267 C18,13.9627351 13.9616804,18.0010547 8.99947267,18.0010547" id="Fill-1"></path>
            <path d="M6.72012656,12.8451046 C6.26240112,12.8451046 5.89010371,12.4728072 5.89010371,12.0150817 L5.89010371,5.98555106 C5.89010371,5.52782563 6.26240112,5.15552821 6.72012656,5.15552821 L7.39933204,5.15552821 C7.85705748,5.15552821 8.2293549,5.52782563 8.2293549,5.98555106 L8.2293549,12.0150817 C8.2293549,12.4728072 7.85705748,12.8451046 7.39933204,12.8451046 L6.72012656,12.8451046 Z" id="Fill-4"></path>
            <path d="M10.6009844,12.8451046 C10.1432589,12.8451046 9.7709615,12.4728072 9.7709615,12.0150817 L9.7709615,5.98555106 C9.7709615,5.52782563 10.1432589,5.15552821 10.6009844,5.15552821 L11.2801898,5.15552821 C11.7379153,5.15552821 12.1102127,5.52782563 12.1102127,5.98555106 L12.1102127,12.0150817 C12.1102127,12.4728072 11.7379153,12.8451046 11.2801898,12.8451046 L10.6009844,12.8451046 Z" id="Fill-6"></path>
        </g>
        <g id="Carousel_Play-Black" transform="translate(18.000000, 50.000000)" fill="#000000">
            <path d="M7.22759235,12.8963607 C6.79951091,12.8963607 6.5,12.5552104 6.5,12.0668616 L6.5,5.93492362 C6.5,5.44620949 6.79951091,5.104694 7.22722709,5.104694 C7.38319192,5.104694 7.5420788,5.15108166 7.69986991,5.24203071 L13.0103444,8.30763442 C13.2974366,8.47346119 13.4621676,8.72585392 13.4621676,9.00016208 C13.4621676,9.27483549 13.2974366,9.52722822 13.0099791,9.69268973 L7.69986991,12.7593892 C7.5420788,12.8503383 7.38319192,12.8963607 7.22759235,12.8963607" id="Fill-14-Copy"></path>
            <path d="M8.99947267,0.995605555 C4.58569169,0.995605555 0.995605555,4.58674635 0.995605555,8.99947267 C0.995605555,13.4132536 4.58569169,17.0043944 8.99947267,17.0043944 C13.4132536,17.0043944 17.0033398,13.4132536 17.0033398,8.99947267 C17.0033398,4.58674635 13.4132536,0.995605555 8.99947267,0.995605555 M8.99947267,18.0010547 C4.0372649,18.0010547 0,13.9627351 0,8.99947267 C0,4.0372649 4.0372649,0 8.99947267,0 C13.9616804,0 18,4.0372649 18,8.99947267 C18,13.9627351 13.9616804,18.0010547 8.99947267,18.0010547" id="Fill-1-Copy"></path>
        </g>
        <g id="Icon_Times-Black" transform="translate(100.000000, 50.000000)" fill="#000000">
            <path d="M3.558875,20.44075 C3.167875,20.04975 3.167875,19.41775 3.558875,19.02675 L19.027875,3.55875 C19.417875,3.16875 20.050875,3.16875 20.441875,3.55875 C20.831875,3.94975 20.831875,4.58275 20.441875,4.97275 L4.972875,20.44075 C4.777875,20.63575 4.521875,20.73375 4.265875,20.73375 C4.009875,20.73375 3.753875,20.63575 3.558875,20.44075 Z" id="Fill-1"></path>
            <path d="M3.558875,20.44075 C3.167875,20.04975 3.167875,19.41775 3.558875,19.02675 L19.027875,3.55875 C19.417875,3.16875 20.050875,3.16875 20.441875,3.55875 C20.831875,3.94975 20.831875,4.58275 20.441875,4.97275 L4.972875,20.44075 C4.777875,20.63575 4.521875,20.73375 4.265875,20.73375 C4.009875,20.73375 3.753875,20.63575 3.558875,20.44075 Z" id="Fill-1" transform="translate(12.000000, 12.000000) rotate(-90.000000) translate(-12.000000, -12.000000) "></path>
        </g>
        <g id="Icon_Play-CIrcle_Lg" transform="translate(0.000000, 74.000000)" stroke-linecap="round">
            <g id="Group-12" transform="translate(2.032258, 2.032258)">
                <g id="Stroke-1">
                    <use fill="black" fill-opacity="1" filter="url(#filter-2)" xlink:href="#path-1"></use>
                    <use stroke="#FFFFFF" stroke-width="2" xlink:href="#path-1"></use>
                </g>
                <polygon id="Stroke-3" stroke="#FFFFFF" stroke-width="2" fill="#FFFFFF" stroke-linejoin="round" points="43.6935484 29.9758065 20.3225806 14.2258065 20.3225806 45.7258065"></polygon>
            </g>
        </g>
        <g id="Icon_Play-Circle_Md" transform="translate(63.000000, 74.000000)" stroke-linecap="round">
            <g id="Group-5-Copy" transform="translate(1.000000, 1.000000)">
                <g id="Stroke-1">
                    <use fill="black" fill-opacity="1" filter="url(#filter-4)" xlink:href="#path-3"></use>
                    <use stroke="#FFFFFF" stroke-width="2" xlink:href="#path-3"></use>
                </g>
                <polygon id="Stroke-3" stroke="#FFFFFF" stroke-width="2" fill="#FFFFFF" stroke-linejoin="round" points="27.7083333 19 13.4583333 9.5 13.4583333 28.5"></polygon>
            </g>
        </g>
        <g id="Icon_Play-Circle_XL" transform="translate(0.000000, 137.000000)" stroke-linecap="round">
            <g id="Stroke-1">
                <use fill="black" fill-opacity="1" filter="url(#filter-6)" xlink:href="#path-5"></use>
                <use stroke="#FFFFFF" stroke-width="3" xlink:href="#path-5"></use>
            </g>
            <polygon id="Stroke-3" stroke="#FFFFFF" stroke-width="2" fill="#FFFFFF" fill-rule="evenodd" stroke-linejoin="round" points="121 83.497006 57 40.754491 57 126.239521"></polygon>
        </g>
        <g id="Icon_Plus-White" transform="translate(76.000000, 50.000000)" fill="#FFFFFF">
            <path d="M11.999598,22 C11.3346734,22 10.7935678,21.4588945 10.7935678,20.7939698 L10.7935678,13.2056281 L3.20603015,13.2056281 C2.54110553,13.2056281 2,12.6653266 2,11.999598 C2,11.3346734 2.54110553,10.7935678 3.20603015,10.7935678 L10.7935678,10.7935678 L10.7935678,3.20603015 C10.7935678,2.54110553 11.3346734,2 11.999598,2 C12.6645226,2 13.2056281,2.54110553 13.2056281,3.20603015 L13.2056281,10.7935678 L20.7939698,10.7935678 C21.4596985,10.7935678 22,11.3346734 22,11.999598 C22,12.6653266 21.4596985,13.2056281 20.7939698,13.2056281 L13.2056281,13.2056281 L13.2056281,20.7939698 C13.2056281,21.4588945 12.6645226,22 11.999598,22" id="Fill-3-Copy-9"></path>
        </g>
        <g id="Icon_Minus-White" transform="translate(52.000000, 50.000000)" fill="#FFFFFF">
            <path d="M20.7939698,13 L3.20603015,13 C2.54110553,13 2,12.5513333 2,12 C2,11.4486667 2.54110553,11 3.20603015,11 L20.7939698,11 C21.4588945,11 22,11.4486667 22,12 C22,12.5513333 21.4588945,13 20.7939698,13" id="Fill-1"></path>
        </g>
        <g id="Icon_Minus-Circle" transform="translate(160.000000, 50.000000)" fill="#000000">
            <path d="M12.0026256,0.224 C15.1486256,0.224 18.1066256,1.449 20.3296256,3.672 C24.9206256,8.264 24.9216256,15.735 20.3306256,20.327 C18.1056256,22.551 15.1476256,23.776 12.0006256,23.776 C8.85562559,23.776 5.89862559,22.552 3.67462559,20.328 C1.44962559,18.104 0.225625591,15.147 0.226624979,12 C0.226624979,8.854 1.45162559,5.896 3.67662559,3.672 C5.89962559,1.449 8.85662559,0.224 12.0026256,0.224 Z M12.0026256,2.224 C9.39162559,2.224 6.93662559,3.241 5.09062559,5.086 C3.24362559,6.933 2.22662559,9.388 2.22662559,12 C2.22662559,14.613 3.24262559,17.068 5.08862559,18.914 C6.93462559,20.76 9.38962559,21.776 12.0006256,21.776 C14.6126256,21.776 17.0686256,20.759 18.9166256,18.912 C22.7276256,15.101 22.7276256,8.898 18.9156256,5.086 C17.0686256,3.241 14.6136256,2.224 12.0026256,2.224 Z M15.9375003,11 C16.4905003,11 16.9375003,11.448 16.9375003,12 C16.9375003,12.552 16.4905003,13 15.9375003,13 L8.06250031,13 C7.50950031,13 7.06250031,12.552 7.06250031,12 C7.06250031,11.448 7.50950031,11 8.06250031,11 L15.9375003,11 Z" id="Combined-Shape"></path>
        </g>
        <g id="Icon_Plus-Circle" transform="translate(184.000000, 50.000000)" fill="#000000">
            <path d="M12.0000626,0.224 C15.1460478,0.224 18.1059747,1.449 20.3306714,3.672 C24.9231095,8.265 24.9231095,15.736 20.3306714,20.327 C18.1039741,22.551 15.1450474,23.776 11.9980619,23.776 C8.85107643,23.776 5.89315013,22.552 3.66945376,20.328 C-0.923984724,15.736 -0.92298441,8.264 3.67145438,3.672 C5.89515075,1.449 8.85307706,0.224 12.0000626,0.224 Z M12.0000626,2.224 C9.38824465,2.224 6.9324756,3.241 5.08589733,5.086 C1.27170288,8.898 1.27070256,15.101 5.0838967,18.914 C6.93047498,20.76 9.38624402,21.776 11.9980619,21.776 C14.6108802,21.776 17.0676495,20.759 18.9162284,18.912 C22.7284223,15.101 22.7284223,8.899 18.9162284,5.086 C17.0686498,3.241 14.6128808,2.224 12.0000626,2.224 Z M11.9999812,7.0625 C12.5529812,7.0625 12.9999812,7.5105 12.9999812,8.0625 L12.999,11 L15.9374812,11 C16.4904812,11 16.9374812,11.448 16.9374812,12 C16.9374812,12.552 16.4904812,13 15.9374812,13 L12.999,13 L12.9999812,15.9375 C12.9999812,16.4895 12.5529812,16.9375 11.9999812,16.9375 C11.4469812,16.9375 10.9999812,16.4895 10.9999812,15.9375 L10.999,13 L8.06248123,13 C7.51048123,13 7.06248123,12.552 7.06248123,12 C7.06248123,11.448 7.51048123,11 8.06248123,11 L10.999,11 L10.9999812,8.0625 C10.9999812,7.5105 11.4469812,7.0625 11.9999812,7.0625 Z" id="Combined-Shape"></path>
        </g>
        <g id="CTA_Arrow-Right-Red" transform="translate(142.000000, 50.000000)" fill="#E51C06" fill-rule="nonzero">
            <path d="M8.49364774,4.1995069 C8.81595468,3.89455897 9.49889629,3.9754973 9.72721407,4.1995069 L14.3269096,8.59590733 C14.5576968,8.81991693 14.5576968,9.18211155 14.3269096,9.40374747 L9.85326747,13.7870103 C9.62250419,14.0110199 8.86425086,14.1252829 8.49364774,13.7870103 C8.09400555,13.3740833 8.09400555,12.6932935 8.49364774,12.3514838 L11.1451335,9.95420697 L4.51283863,9.95420697 C3.94111015,9.95420697 3.5,9.49182429 3.5,9.00101424 C3.5,8.48240567 3.94924263,8.0478215 4.51283863,8.0478215 L11.1451335,8.0478215 L8.38504849,5.49771381 C8.14443132,5.27610116 8.04693692,4.54429541 8.49364774,4.1995069 Z" id=""></path>
        </g>
        <g id="CTA_Arrow-Right-Black" transform="translate(124.000000, 50.000000)" fill="#000000" fill-rule="nonzero">
            <path d="M8.49364774,4.1995069 C8.81595468,3.89455897 9.49889629,3.9754973 9.72721407,4.1995069 L14.3269096,8.59590733 C14.5576968,8.81991693 14.5576968,9.18211155 14.3269096,9.40374747 L9.85326747,13.7870103 C9.62250419,14.0110199 8.86425086,14.1252829 8.49364774,13.7870103 C8.09400555,13.3740833 8.09400555,12.6932935 8.49364774,12.3514838 L11.1451335,9.95420697 L4.51283863,9.95420697 C3.94111015,9.95420697 3.5,9.49182429 3.5,9.00101424 C3.5,8.48240567 3.94924263,8.0478215 4.51283863,8.0478215 L11.1451335,8.0478215 L8.38504849,5.49771381 C8.14443132,5.27610116 8.04693692,4.54429541 8.49364774,4.1995069 Z" id=""></path>
        </g>
        <g id="carousel-circle-arrow-left-alt">
            <ellipse id="Oval" fill="#CACACA" opacity="0.801339286" cx="24.86" cy="25" rx="24.86" ry="25"></ellipse>
            <path d="M24.7220308,0 C12.168786,-0.000783011776 1.8017101,9.2685104 0.0234903533,21.3315898 L27.0749812,21.3315898 L15.6821599,9.8870897 L25.7775307,9.88630669 L40.6594525,24.9240479 L25.5167878,40.1152593 L15.6829429,40.1160423 L27.1799048,28.5149399 L0,28.5165059 C1.71088073,40.6524054 12.1092771,49.999217 24.7251629,50 C38.5288775,49.999217 49.7243799,38.8068467 49.7235968,25.001566 C49.7228138,11.1955024 38.5296605,0.00234903533 24.7220308,0 Z" id="Fill-1" fill="#000000" opacity="0.749767485" transform="translate(24.861798, 25.000000) scale(-1, 1) translate(-24.861798, -25.000000) "></path>
        </g>
        <g id="carousel-circle-arrow-right-alt" transform="translate(50.000000, 0.000000)">
            <ellipse id="Oval" fill="#CACACA" opacity="0.798525856" cx="24.86" cy="25" rx="24.86" ry="25"></ellipse>
            <path d="M24.7220308,0 C12.168786,-0.000783011776 1.8017101,9.2685104 0.0234903533,21.3315898 L27.0749812,21.3315898 L15.6821599,9.8870897 L25.7775307,9.88630669 L40.6594525,24.9240479 L25.5167878,40.1152593 L15.6829429,40.1160423 L27.1799048,28.5149399 L0,28.5165059 C1.71088073,40.6524054 12.1092771,49.999217 24.7251629,50 C38.5288775,49.999217 49.7243799,38.8068467 49.7235968,25.001566 C49.7228138,11.1955024 38.5296605,0.00234903533 24.7220308,0 Z" id="Fill-1" fill="#000000" opacity="0.749767485"></path>
        </g>
        <g id="carousel-circle-arrow-left-alt-disabled" transform="translate(100.000000, 0.000000)">
            <ellipse id="Oval" fill="#CACACA" opacity="0.801339286" cx="24.86" cy="25" rx="24.86" ry="25"></ellipse>
            <path d="M24.7220308,0 C12.168786,-0.000783011776 1.8017101,9.2685104 0.0234903533,21.3315898 L27.0749812,21.3315898 L15.6821599,9.8870897 L25.7775307,9.88630669 L40.6594525,24.9240479 L25.5167878,40.1152593 L15.6829429,40.1160423 L27.1799048,28.5149399 L0,28.5165059 C1.71088073,40.6524054 12.1092771,49.999217 24.7251629,50 C38.5288775,49.999217 49.7243799,38.8068467 49.7235968,25.001566 C49.7228138,11.1955024 38.5296605,0.00234903533 24.7220308,0 Z" id="Fill-1" fill="#000000" opacity="0.247279576" transform="translate(24.861798, 25.000000) scale(-1, 1) translate(-24.861798, -25.000000) "></path>
        </g>
        <g id="carousel-circle-arrow-right-alt-disabled" transform="translate(150.000000, 0.000000)">
            <ellipse id="Oval" fill="#CACACA" opacity="0.798525856" cx="24.86" cy="25" rx="24.86" ry="25"></ellipse>
            <path d="M24.7220308,0 C12.168786,-0.000783011776 1.8017101,9.2685104 0.0234903533,21.3315898 L27.0749812,21.3315898 L15.6821599,9.8870897 L25.7775307,9.88630669 L40.6594525,24.9240479 L25.5167878,40.1152593 L15.6829429,40.1160423 L27.1799048,28.5149399 L0,28.5165059 C1.71088073,40.6524054 12.1092771,49.999217 24.7251629,50 C38.5288775,49.999217 49.7243799,38.8068467 49.7235968,25.001566 C49.7228138,11.1955024 38.5296605,0.00234903533 24.7220308,0 Z" id="Fill-1" fill="#000000" opacity="0.252069382"></path>
        </g>
    </g>
</svg>