<?xml version="1.0" encoding="UTF-8"?>
<svg width="273px" height="506px" viewBox="0 0 273 506" version="1.1" xmlns="http://www.w3.org/2000/svg" xmlns:xlink="http://www.w3.org/1999/xlink">
    <!-- Generator: Sketch 64 (93537) - https://sketch.com -->
    <title>Sprite_Sheet_Extras_Desktop_v5</title>
    <desc>Created with Sketch.</desc>
    <defs>
        <polygon id="path-1" points="0 0 22.529 0 22.529 19.999 0 19.999"></polygon>
        <path d="M59.9516129,29.9758065 C59.9516129,46.532878 46.5302714,59.9516129 29.9758065,59.9516129 C13.4213415,59.9516129 0,46.532878 0,29.9758065 C0,13.4187349 13.4213415,0 29.9758065,0 C46.5302714,0 59.9516129,13.4187349 59.9516129,29.9758065 Z" id="path-3"></path>
        <filter x="-5.0%" y="-5.0%" width="110.0%" height="110.0%" filterUnits="objectBoundingBox" id="filter-4">
            <feGaussianBlur stdDeviation="1.5" in="SourceAlpha" result="shadowBlurInner1"></feGaussianBlur>
            <feOffset dx="0" dy="1" in="shadowBlurInner1" result="shadowOffsetInner1"></feOffset>
            <feComposite in="shadowOffsetInner1" in2="SourceAlpha" operator="arithmetic" k2="-1" k3="1" result="shadowInnerInner1"></feComposite>
            <feColorMatrix values="0 0 0 0 0   0 0 0 0 0   0 0 0 0 0  0 0 0 0.5 0" type="matrix" in="shadowInnerInner1"></feColorMatrix>
        </filter>
        <path d="M37.2083333,19 C37.2083333,29.0573333 29.05575,37.2083333 19,37.2083333 C8.94425,37.2083333 0.791666667,29.0573333 0.791666667,19 C0.791666667,8.94266667 8.94425,0.791666667 19,0.791666667 C29.05575,0.791666667 37.2083333,8.94266667 37.2083333,19 Z" id="path-5"></path>
        <filter x="-8.2%" y="-8.2%" width="116.5%" height="116.5%" filterUnits="objectBoundingBox" id="filter-6">
            <feGaussianBlur stdDeviation="1.5" in="SourceAlpha" result="shadowBlurInner1"></feGaussianBlur>
            <feOffset dx="0" dy="1" in="shadowBlurInner1" result="shadowOffsetInner1"></feOffset>
            <feComposite in="shadowOffsetInner1" in2="SourceAlpha" operator="arithmetic" k2="-1" k3="1" result="shadowInnerInner1"></feComposite>
            <feColorMatrix values="0 0 0 0 0   0 0 0 0 0   0 0 0 0 0  0 0 0 0.5 0" type="matrix" in="shadowInnerInner1"></feColorMatrix>
        </filter>
        <path d="M165,83 C165,127.746789 128.509261,164.011976 83.5,164.011976 C38.4907391,164.011976 2,127.746789 2,83 C2,38.2532111 38.4907391,1.98802395 83.5,1.98802395 C128.509261,1.98802395 165,38.2532111 165,83 Z" id="path-7"></path>
        <filter x="-2.1%" y="-2.2%" width="104.3%" height="104.3%" filterUnits="objectBoundingBox" id="filter-8">
            <feGaussianBlur stdDeviation="1.5" in="SourceAlpha" result="shadowBlurInner1"></feGaussianBlur>
            <feOffset dx="0" dy="1" in="shadowBlurInner1" result="shadowOffsetInner1"></feOffset>
            <feComposite in="shadowOffsetInner1" in2="SourceAlpha" operator="arithmetic" k2="-1" k3="1" result="shadowInnerInner1"></feComposite>
            <feColorMatrix values="0 0 0 0 0   0 0 0 0 0   0 0 0 0 0  0 0 0 0.5 0" type="matrix" in="shadowInnerInner1"></feColorMatrix>
        </filter>
    </defs>
    <g id="Sprite_Sheet_Extras_Desktop_v5" stroke="none" stroke-width="1" fill="none" fill-rule="evenodd">
        <g id="M-Corp_Icon_Angle-Up_Red_Lg" transform="translate(176.000000, 0.000000)" fill="#FF0028">
            <path d="M0.8565,8.36840721 C0.3615,7.87340721 0.3615,7.07240721 0.8565,6.57890721 L2.052,5.38340721 C2.5455,4.88990721 3.345,4.88840721 3.84,5.38040721 L12,13.5029072 L20.1615,5.38040721 C20.655,4.88840721 21.4545,4.88990721 21.948,5.38340721 L23.1435,6.57890721 C23.6385,7.07240721 23.6385,7.87340721 23.1435,8.36840721 L12.8955,18.6164072 C12.4005,19.1114072 11.5995,19.1114072 11.106,18.6164072 L0.8565,8.36840721 Z" id="Fill-1" transform="translate(12.000000, 12.000000) scale(1, -1) translate(-12.000000, -12.000000) "></path>
        </g>
        <g id="M-Corp_Icon_Angle-Down_Red_Lg" transform="translate(200.000000, 0.000000)" fill="#FF0028">
            <path d="M0.8565,8.36840721 C0.3615,7.87340721 0.3615,7.07240721 0.8565,6.57890721 L2.052,5.38340721 C2.5455,4.88990721 3.345,4.88840721 3.84,5.38040721 L12,13.5029072 L20.1615,5.38040721 C20.655,4.88840721 21.4545,4.88990721 21.948,5.38340721 L23.1435,6.57890721 C23.6385,7.07240721 23.6385,7.87340721 23.1435,8.36840721 L12.8955,18.6164072 C12.4005,19.1114072 11.5995,19.1114072 11.106,18.6164072 L0.8565,8.36840721 Z" id="Fill-1"></path>
        </g>
        <g id="Icon_Hamburger-Menu" transform="translate(160.000000, 24.000000)" stroke="#000000" stroke-linecap="round" stroke-linejoin="round" stroke-width="2">
            <line x1="2.19117647" y1="4.92647059" x2="21.8088235" y2="4.92647059" id="Stroke-1"></line>
            <line x1="2.19117647" y1="18.5735294" x2="21.8088235" y2="18.5735294" id="Stroke-3"></line>
            <line x1="2.19117647" y1="11.75" x2="21.8088235" y2="11.75" id="Stroke-5"></line>
        </g>
        <g id="Icon_Chevron-Down" transform="translate(28.000000, 0.000000)" stroke="#000000" stroke-linecap="round" stroke-linejoin="round" stroke-width="2">
            <polyline id="Stroke-1" transform="translate(14.000000, 12.000000) rotate(90.000000) translate(-14.000000, -12.000000) " points="7.9995 23.5 20.0005 12 7.9995 0.5"></polyline>
        </g>
        <g id="Icon_Chevron-Up" stroke="#000000" stroke-linecap="round" stroke-linejoin="round" stroke-width="2">
            <polyline id="Stroke-1" transform="translate(14.000000, 12.000000) scale(1, -1) rotate(90.000000) translate(-14.000000, -12.000000) " points="7.9995 23.5 20.0005 12 7.9995 0.5"></polyline>
        </g>
        <g id="M-Corp_Accordion_Icon_Angle-R" transform="translate(104.000000, 0.000000)" fill="#FF0028">
            <path d="M4.571,9.57893814 C4.241,9.24893814 4.241,8.71493814 4.571,8.38593814 L5.368,7.58893814 C5.697,7.25993814 6.23,7.25893814 6.56,7.58693814 L12,13.0019381 L17.441,7.58693814 C17.77,7.25893814 18.303,7.25993814 18.632,7.58893814 L19.429,8.38593814 C19.759,8.71493814 19.759,9.24893814 19.429,9.57893814 L12.597,16.4109381 C12.267,16.7409381 11.733,16.7409381 11.404,16.4109381 L4.571,9.57893814 Z" id="Fill-1-Copy-2" transform="translate(12.000000, 12.000000) scale(-1, 1) rotate(90.000000) translate(-12.000000, -12.000000) "></path>
        </g>
        <g id="M-Corp_Accordion_Icon_Angle-Down" transform="translate(128.000000, 0.000000)" fill="#FF0028">
            <path d="M4.571,9.57893814 C4.241,9.24893814 4.241,8.71493814 4.571,8.38593814 L5.368,7.58893814 C5.697,7.25993814 6.23,7.25893814 6.56,7.58693814 L12,13.0019381 L17.441,7.58693814 C17.77,7.25893814 18.303,7.25993814 18.632,7.58893814 L19.429,8.38593814 C19.759,8.71493814 19.759,9.24893814 19.429,9.57893814 L12.597,16.4109381 C12.267,16.7409381 11.733,16.7409381 11.404,16.4109381 L4.571,9.57893814 Z" id="Fill-1"></path>
        </g>
        <g id="Icon_Calendar" transform="translate(184.000000, 24.000000)">
            <g id="Group-16" transform="translate(0.500000, 2.000000)">
                <mask id="mask-2" fill="white">
                    <use xlink:href="#path-1"></use>
                </mask>
                <g id="Clip-2"></g>
                <path d="M2,17.999 L20.529,17.999 L20.529,3.667 L2,3.667 L2,17.999 Z M21.529,19.999 L1,19.999 C0.447,19.999 0,19.551 0,18.999 L0,2.667 C0,2.115 0.447,1.667 1,1.667 L21.529,1.667 C22.082,1.667 22.529,2.115 22.529,2.667 L22.529,18.999 C22.529,19.551 22.082,19.999 21.529,19.999 L21.529,19.999 Z" id="Fill-1" fill="#000000" mask="url(#mask-2)"></path>
                <path d="M17.6954,5.333 C17.1424,5.333 16.6954,4.885 16.6954,4.333 L16.6954,1 C16.6954,0.448 17.1424,-3.55271368e-15 17.6954,-3.55271368e-15 C18.2484,-3.55271368e-15 18.6954,0.448 18.6954,1 L18.6954,4.333 C18.6954,4.885 18.2484,5.333 17.6954,5.333" id="Fill-3" fill="#000000" mask="url(#mask-2)"></path>
                <path d="M4.9454,5.333 C4.3924,5.333 3.9454,4.885 3.9454,4.333 L3.9454,1 C3.9454,0.448 4.3924,-3.55271368e-15 4.9454,-3.55271368e-15 C5.4984,-3.55271368e-15 5.9454,0.448 5.9454,1 L5.9454,4.333 C5.9454,4.885 5.4984,5.333 4.9454,5.333" id="Fill-4" fill="#000000" mask="url(#mask-2)"></path>
                <path d="M21.4727,8.5693 L1.1407,8.5693 C0.8637,8.5693 0.6407,8.3453 0.6407,8.0693 C0.6407,7.7933 0.8637,7.5693 1.1407,7.5693 L21.4727,7.5693 C21.7497,7.5693 21.9727,7.7933 21.9727,8.0693 C21.9727,8.3453 21.7497,8.5693 21.4727,8.5693" id="Fill-5" fill="#000000" mask="url(#mask-2)"></path>
                <polygon id="Fill-6" fill="#000000" mask="url(#mask-2)" points="3.739 12.539 5.678 12.539 5.678 10.6 3.739 10.6"></polygon>
                <polygon id="Fill-7" fill="#000000" mask="url(#mask-2)" points="7.096 12.539 9.035 12.539 9.035 10.6 7.096 10.6"></polygon>
                <polygon id="Fill-8" fill="#000000" mask="url(#mask-2)" points="10.454 12.539 12.395 12.539 12.395 10.6 10.454 10.6"></polygon>
                <polygon id="Fill-9" fill="#000000" mask="url(#mask-2)" points="13.811 12.539 15.752 12.539 15.752 10.6 13.811 10.6"></polygon>
                <polygon id="Fill-10" fill="#000000" mask="url(#mask-2)" points="17.17 12.539 19.108 12.539 19.108 10.6 17.17 10.6"></polygon>
                <polygon id="Fill-11" fill="#000000" mask="url(#mask-2)" points="3.739 15.655 5.678 15.655 5.678 13.716 3.739 13.716"></polygon>
                <polygon id="Fill-12" fill="#000000" mask="url(#mask-2)" points="7.096 15.655 9.035 15.655 9.035 13.716 7.096 13.716"></polygon>
                <polygon id="Fill-13" fill="#000000" mask="url(#mask-2)" points="10.454 15.655 12.395 15.655 12.395 13.716 10.454 13.716"></polygon>
                <polygon id="Fill-14" fill="#000000" mask="url(#mask-2)" points="13.811 15.655 15.752 15.655 15.752 13.716 13.811 13.716"></polygon>
                <polygon id="Fill-15" fill="#000000" mask="url(#mask-2)" points="17.17 15.655 19.108 15.655 19.108 13.716 17.17 13.716"></polygon>
            </g>
        </g>
        <g id="Icon_Play-CIrcle_Lg" transform="translate(0.000000, 78.000000)" stroke-linecap="round">
            <g id="Group-12" transform="translate(2.032258, 2.032258)">
                <g id="Stroke-1">
                    <use fill="black" fill-opacity="1" filter="url(#filter-4)" xlink:href="#path-3"></use>
                    <use stroke="#FFFFFF" stroke-width="2" xlink:href="#path-3"></use>
                </g>
                <polygon id="Stroke-3" stroke="#FFFFFF" stroke-width="2" fill="#FFFFFF" stroke-linejoin="round" points="43.6935484 29.9758065 20.3225806 14.2258065 20.3225806 45.7258065"></polygon>
            </g>
        </g>
        <g id="Icon_Tools-Blue" transform="translate(76.000000, 24.000000)" fill="#147BD1">
            <path d="M7.94271365,1.24344979e-14 C9.69871365,1.24344979e-14 11.3487136,0.683 12.5887136,1.924 C14.0807136,3.415 14.7587136,5.555 14.4267136,7.627 L16.2288864,9.429 L20.6977448,4.96382337 C20.3739775,4.09926416 20.5596274,3.08681858 21.2531136,2.3948 L22.9191136,0.7258 C23.2941136,0.3518 23.9581136,0.3508 24.3331136,0.7258 L26.3491136,2.7418 C26.5361136,2.9298 26.6421136,3.1838 26.6421136,3.4488 C26.6421136,3.7138 26.5361136,3.9688 26.3491136,4.1558 L24.6811136,5.8248 C24.2221136,6.2828 23.6141136,6.5348 22.9661136,6.5348 C22.6696634,6.5348 22.3811908,6.48189512 22.1114696,6.38041404 L17.6438864,10.844 L23.9957136,17.195 C24.7217136,17.921 25.1237136,18.888 25.1237136,19.917 C25.1237136,20.945 24.7237136,21.912 23.9957136,22.639 C23.3246367,23.3100769 22.4490628,23.7033787 21.5089936,23.7599158 L21.2727136,23.767 C20.2457136,23.767 19.2787136,23.367 18.5497136,22.64 L13.7148864,17.805 L9.47361365,22.0452 C8.64961365,22.8712 7.58361365,23.3452 6.54961365,23.3452 C5.76261365,23.3452 5.04561365,23.0612 4.53061365,22.5452 C3.28461365,21.3002 3.50361365,19.1272 5.02861365,17.6002 L9.26988635,13.36 L8.98171365,13.071 C6.90171365,13.408 4.76871365,12.722 3.28071365,11.234 C1.46371365,9.417 0.871713648,6.684 1.77471365,4.272 C1.89371365,3.953 2.16471365,3.716 2.49871365,3.645 C2.83271365,3.57 3.17671365,3.674 3.41671365,3.915 L6.11071365,6.609 L7.57371365,6.217 L7.96371365,4.755 L5.27071365,2.061 C5.03071365,1.82 4.92871365,1.474 5.00071365,1.142 C5.07371365,0.809 5.30971365,0.537 5.62771365,0.418 C6.37071365,0.14 7.14771365,1.24344979e-14 7.94271365,1.24344979e-14 Z M8.03871365,2.001 L9.78671365,3.75 C10.0397136,4.002 10.1377136,4.37 10.0457136,4.715 L9.35471365,7.292 C9.26271365,7.637 8.99371365,7.907 8.64771365,7.999 L6.07171365,8.69 C5.72571365,8.783 5.35671365,8.683 5.10471365,8.431 L3.35871365,6.684 C3.38571365,7.843 3.84871365,8.974 4.69471365,9.819 C5.82571365,10.951 7.50471365,11.409 9.06371365,11.014 C9.14571365,10.994 9.22771365,10.984 9.30971365,10.984 C9.57171365,10.984 9.82771365,11.087 10.0167136,11.277 L19.9637136,21.226 C20.6637136,21.922 21.8817136,21.924 22.5807136,21.224 C22.9307136,20.875 23.1237136,20.411 23.1237136,19.917 C23.1237136,19.423 22.9307136,18.959 22.5807136,18.609 L12.6317136,8.661 C12.3837136,8.412 12.2847136,8.049 12.3707136,7.708 C12.7727136,6.122 12.3257136,4.488 11.1747136,3.339 C10.3347136,2.498 9.22371365,2.025 8.03871365,2.001 Z M10.6496136,14.8092 L6.44261365,19.0142 C5.67261365,19.7852 5.56161365,20.7492 5.94461365,21.1322 C6.12261365,21.3082 6.37261365,21.3452 6.54961365,21.3452 C7.04961365,21.3452 7.61461365,21.0792 8.05961365,20.6322 L12.2666136,16.4262 L10.6496136,14.8092 Z M21.1261136,18.8653 C21.5871136,18.8653 21.9601136,19.2383 21.9601136,19.6983 C21.9601136,20.1593 21.5871136,20.5323 21.1261136,20.5323 C20.6651136,20.5323 20.2921136,20.1593 20.2921136,19.6983 C20.2921136,19.2383 20.6651136,18.8653 21.1261136,18.8653 Z M23.6261136,2.8478 L22.6651136,3.8088 C22.5003525,3.97356119 22.5010932,4.23979081 22.6634246,4.40704424 C22.6652126,4.40800272 22.6661639,4.4089502 22.6671136,4.4099 L22.6708864,4.414 L22.737698,4.4748 C22.9216322,4.62413333 23.0742248,4.6028 23.2671136,4.4108 L24.2281136,3.4488 L23.6261136,2.8478 Z" id="Combined-Shape"></path>
        </g>
        <g id="Icon_Warning-Traiangle-Black_Md" transform="translate(132.000000, 24.000000)" fill="#000000">
            <path d="M14.007,19.0254 C13.73,19.0254 13.487,18.9354 13.278,18.7544 C13.071,18.5754 12.968,18.3234 12.968,18.0004 C12.968,17.7174 13.068,17.4774 13.265,17.2784 C13.464,17.0814 13.706,16.9814 13.993,16.9814 C14.28,16.9814 14.527,17.0814 14.728,17.2784 C14.931,17.4774 15.032,17.7174 15.032,18.0004 C15.032,18.3194 14.931,18.5694 14.726,18.7524 C14.521,18.9344 14.28,19.0254 14.007,19.0254 M13.249,14.5274 L13.03,11.2534 C12.989,10.6154 12.968,10.1574 12.968,9.8794 C12.968,9.5014 13.068,9.2064 13.265,8.9934 C13.464,8.7824 13.726,8.6754 14.048,8.6754 C14.441,8.6754 14.702,8.8114 14.835,9.0834 C14.966,9.3534 15.032,9.7444 15.032,10.2544 C15.032,10.5554 15.017,10.8614 14.986,11.1714 L14.691,14.5414 C14.659,14.9424 14.591,15.2504 14.486,15.4634 C14.382,15.6774 14.208,15.7854 13.966,15.7854 C13.72,15.7854 13.55,15.6814 13.454,15.4734 C13.359,15.2664 13.29,14.9514 13.249,14.5274" id="Fill-1"></path>
            <path d="M3.449125,21.6792 L24.551125,21.6792 L14.000125,3.4052 L3.449125,21.6792 Z M26.283125,23.6792 L1.717125,23.6792 C1.359125,23.6792 1.029125,23.4892 0.851125,23.1792 C0.672125,22.8692 0.672125,22.4892 0.851125,22.1792 L13.133125,0.9052 C13.490125,0.2852 14.508125,0.2852 14.865125,0.9052 L27.148125,22.1792 C27.328125,22.4892 27.328125,22.8692 27.148125,23.1792 C26.970125,23.4892 26.640125,23.6792 26.283125,23.6792 L26.283125,23.6792 Z" id="Fill-3"></path>
        </g>
        <g id="Icon_Warning-Triangle-Red_Sm" transform="translate(129.000000, 48.000000)" fill="#F93822">
            <path d="M8.9795,11.6469 C8.7345,11.6469 8.5445,11.5289 8.4475,11.3149 C8.3775,11.1639 8.3315,10.9539 8.3035,10.6709 L8.3035,10.6639 L8.1725,8.7119 C8.1475,8.3239 8.1345,8.0459 8.1345,7.8759 C8.1345,7.5879 8.2165,7.3529 8.3775,7.1789 C8.5455,7.0019 8.7695,6.9089 9.0285,6.9089 C9.4475,6.9089 9.6365,7.1169 9.7225,7.2919 C9.8185,7.4899 9.8655,7.7539 9.8655,8.1009 C9.8655,8.2879 9.8565,8.4789 9.8365,8.6709 L9.6615,10.6769 C9.6395,10.9489 9.5915,11.1589 9.5125,11.3169 C9.4105,11.5289 9.2205,11.6469 8.9795,11.6469 M9.0035,13.5789 C8.7775,13.5789 8.5775,13.5039 8.4065,13.3559 C8.2835,13.2499 8.1345,13.0519 8.1345,12.7169 C8.1345,12.4859 8.2205,12.2759 8.3835,12.1109 C8.7205,11.7769 9.2785,11.7819 9.6095,12.1089 C9.7765,12.2729 9.8655,12.4829 9.8655,12.7169 C9.8655,12.9809 9.7755,13.1939 9.5985,13.3519 C9.4305,13.5019 9.2305,13.5789 9.0035,13.5789" id="Fill-1"></path>
            <path d="M3.1435,14.361 L14.8565,14.361 L8.9995,4.217 L3.1435,14.361 Z M16.3225,16.053 L1.6775,16.053 C1.3765,16.053 1.0955,15.891 0.9455,15.63 C0.7935,15.369 0.7935,15.045 0.9465,14.783 L8.2665,2.102 C8.4105,1.854 8.6905,1.7 8.9985,1.7 C9.3085,1.7 9.5885,1.854 9.7325,2.102 L17.0545,14.784 C17.2065,15.045 17.2065,15.369 17.0535,15.631 C16.9055,15.891 16.6245,16.053 16.3225,16.053 L16.3225,16.053 Z" id="Fill-3"></path>
        </g>
        <g id="Icon_Zoom-In" transform="translate(224.000000, 0.000000)" fill="#000000">
            <g id="Group" transform="translate(-0.000200, -0.000100)">
                <path d="M9.969,2 C5.576,2.001 2.002,5.577 2,9.972 C2.002,14.363 5.575,17.937 9.967,17.937 C14.363,17.937 17.938,14.363 17.938,9.97 C17.936,5.575 14.362,2 9.969,2 M9.967,19.937 C4.474,19.937 0.002,15.466 5.15143483e-14,9.972 C0.002,4.474 4.474,0.001 9.969,-5.15143483e-14 C15.463,-5.15143483e-14 19.936,4.472 19.938,9.969 C19.938,15.465 15.465,19.937 9.967,19.937" id="Fill-1"></path>
                <path d="M21.8459,23.2325 C21.5899,23.2325 21.3339,23.1345 21.1389,22.9395 L15.5709,17.3725 C15.1799,16.9825 15.1799,16.3485 15.5709,15.9585 C15.9609,15.5675 16.5939,15.5675 16.9849,15.9585 L22.5529,21.5255 C22.9439,21.9155 22.9439,22.5485 22.5529,22.9395 C22.3579,23.1345 22.1019,23.2325 21.8459,23.2325" id="Fill-4"></path>
                <path d="M9.9709,14.7911 C9.4179,14.7911 8.9709,14.3431 8.9709,13.7911 L8.9709,5.9161 C8.9709,5.3641 9.4179,4.9161 9.9709,4.9161 C10.5239,4.9161 10.9709,5.3641 10.9709,5.9161 L10.9709,13.7911 C10.9709,14.3431 10.5239,14.7911 9.9709,14.7911" id="Fill-6"></path>
                <path d="M13.9084,10.8536 L6.0334,10.8536 C5.4804,10.8536 5.0334,10.4056 5.0334,9.8536 C5.0334,9.3016 5.4804,8.8536 6.0334,8.8536 L13.9084,8.8536 C14.4614,8.8536 14.9084,9.3016 14.9084,9.8536 C14.9084,10.4056 14.4614,10.8536 13.9084,10.8536" id="Fill-8"></path>
            </g>
        </g>
        <g id="Icon_Zoom-Out" transform="translate(248.000000, 0.000000)" fill="#000000">
            <g id="Group" transform="translate(-0.000000, -0.000000)">
                <path d="M9.969,2 C5.576,2.001 2.002,5.577 2,9.972 C2.002,14.363 5.575,17.937 9.967,17.937 C14.363,17.937 17.938,14.363 17.938,9.97 C17.936,5.575 14.362,2 9.969,2 M9.967,19.937 C4.474,19.937 0.002,15.466 5.15143483e-14,9.972 C0.002,4.474 4.474,0.001 9.969,-5.15143483e-14 C15.463,-5.15143483e-14 19.936,4.472 19.938,9.969 C19.938,15.465 15.465,19.937 9.967,19.937" id="Fill-1"></path>
                <path d="M21.8459,23.2325 C21.5899,23.2325 21.3339,23.1345 21.1389,22.9395 L15.5709,17.3725 C15.1799,16.9825 15.1799,16.3485 15.5709,15.9585 C15.9609,15.5675 16.5939,15.5675 16.9849,15.9585 L22.5529,21.5255 C22.9439,21.9155 22.9439,22.5485 22.5529,22.9395 C22.3579,23.1345 22.1019,23.2325 21.8459,23.2325" id="Fill-4"></path>
                <path d="M13.9084,10.8536 L6.0334,10.8536 C5.4804,10.8536 5.0334,10.4056 5.0334,9.8536 C5.0334,9.3016 5.4804,8.8536 6.0334,8.8536 L13.9084,8.8536 C14.4614,8.8536 14.9084,9.3016 14.9084,9.8536 C14.9084,10.4056 14.4614,10.8536 13.9084,10.8536" id="Fill-6"></path>
            </g>
        </g>
        <g id="Icon_Play-Circle_Md" transform="translate(63.000000, 78.000000)" stroke-linecap="round">
            <g id="Group-5-Copy" transform="translate(1.000000, 1.000000)">
                <g id="Stroke-1">
                    <use fill="black" fill-opacity="1" filter="url(#filter-6)" xlink:href="#path-5"></use>
                    <use stroke="#FFFFFF" stroke-width="2" xlink:href="#path-5"></use>
                </g>
                <polygon id="Stroke-3" stroke="#FFFFFF" stroke-width="2" fill="#FFFFFF" stroke-linejoin="round" points="27.7083333 19 13.4583333 9.5 13.4583333 28.5"></polygon>
            </g>
        </g>
        <g id="Icon_Warning-Triangle-White_Lg" transform="translate(0.000000, 48.000000)" fill="#FFFFFF">
            <g id="Group-6" transform="translate(0.250000, 0.250000)">
                <path d="M16.758,22.5946 C16.421,22.5946 16.127,22.4856 15.872,22.2656 C15.621,22.0476 15.495,21.7406 15.495,21.3476 C15.495,21.0046 15.616,20.7126 15.856,20.4706 C16.099,20.2306 16.393,20.1096 16.741,20.1096 C17.091,20.1096 17.39,20.2306 17.635,20.4706 C17.882,20.7126 18.005,21.0046 18.005,21.3476 C18.005,21.7366 17.882,22.0396 17.632,22.2616 C17.383,22.4846 17.091,22.5946 16.758,22.5946 M15.837,17.1256 L15.571,13.1456 C15.522,12.3696 15.495,11.8126 15.495,11.4746 C15.495,11.0156 15.616,10.6566 15.856,10.3976 C16.099,10.1416 16.416,10.0116 16.808,10.0116 C17.285,10.0116 17.604,10.1776 17.765,10.5076 C17.924,10.8356 18.005,11.3106 18.005,11.9316 C18.005,12.2976 17.987,12.6696 17.948,13.0456 L17.589,17.1426 C17.552,17.6306 17.468,18.0046 17.34,18.2646 C17.214,18.5246 17.003,18.6556 16.708,18.6556 C16.409,18.6556 16.202,18.5296 16.086,18.2766 C15.97,18.0246 15.887,17.6416 15.837,17.1256" id="Fill-1"></path>
                <path d="M3.923375,25.8207 L29.577375,25.8207 L16.750375,3.6037 L3.923375,25.8207 Z M31.683375,28.2527 L1.817375,28.2527 C1.382375,28.2527 0.981375,28.0207 0.765375,27.6447 C0.546375,27.2677 0.546375,26.8047 0.765375,26.4287 L15.695375,0.5647 C16.130375,-0.1883 17.367375,-0.1883 17.802375,0.5647 L32.735375,26.4287 C32.953375,26.8047 32.953375,27.2677 32.735375,27.6447 C32.519375,28.0207 32.117375,28.2527 31.683375,28.2527 L31.683375,28.2527 Z" id="Fill-3"></path>
            </g>
        </g>
        <g id="Icon_Question-Circle" transform="translate(232.000000, 24.000000)" fill="#000000">
            <path d="M11.912,17.6335 C11.609,17.6335 11.344,17.5355 11.119,17.3395 C10.892,17.1435 10.779,16.8695 10.779,16.5165 C10.779,16.2045 10.889,15.9415 11.107,15.7285 C11.326,15.5145 11.594,15.4085 11.912,15.4085 C12.224,15.4085 12.486,15.5145 12.701,15.7285 C12.914,15.9415 13.019,16.2045 13.019,16.5165 C13.019,16.8645 12.908,17.1375 12.685,17.3355 C12.463,17.5335 12.203,17.6335 11.912,17.6335 M8.279,9.4775 C8.279,9.0065 8.432,8.5285 8.734,8.0445 C9.037,7.5605 9.478,7.1605 10.058,6.8425 C10.639,6.5255 11.316,6.3665 12.09,6.3665 C12.808,6.3665 13.445,6.4995 13.994,6.7645 C14.545,7.0295 14.971,7.3915 15.271,7.8475 C15.572,8.3035 15.721,8.8005 15.721,9.3355 C15.721,9.7575 15.637,10.1275 15.465,10.4445 C15.293,10.7625 15.09,11.0365 14.855,11.2665 C14.619,11.4975 14.195,11.8855 13.586,12.4315 C13.418,12.5855 13.281,12.7205 13.18,12.8375 C13.078,12.9535 13.002,13.0605 12.953,13.1565 C12.904,13.2535 12.865,13.3505 12.838,13.4475 C12.81,13.5445 12.769,13.7145 12.715,13.9575 C12.621,14.4735 12.326,14.7315 11.83,14.7315 C11.572,14.7315 11.353,14.6465 11.178,14.4785 C11.002,14.3095 10.914,14.0585 10.914,13.7265 C10.914,13.3095 10.978,12.9485 11.107,12.6435 C11.236,12.3385 11.408,12.0705 11.621,11.8405 C11.834,11.6095 12.123,11.3355 12.484,11.0175 C12.803,10.7395 13.031,10.5295 13.172,10.3885 C13.314,10.2475 13.433,10.0905 13.529,9.9165 C13.627,9.7425 13.676,9.5545 13.676,9.3505 C13.676,8.9535 13.527,8.6185 13.232,8.3455 C12.937,8.0735 12.557,7.9365 12.09,7.9365 C11.545,7.9365 11.142,8.0745 10.885,8.3495 C10.627,8.6255 10.408,9.0305 10.23,9.5665 C10.06,10.1275 9.74,10.4075 9.269,10.4075 C8.992,10.4075 8.758,10.3095 8.566,10.1135 C8.375,9.9175 8.279,9.7055 8.279,9.4775" id="Fill-1"></path>
            <path d="M12.003375,2.224 C9.39237498,2.224 6.93737498,3.241 5.09137498,5.086 C3.24337498,6.933 2.22637498,9.388 2.22637498,12 C2.22637498,14.613 3.24337498,17.068 5.08937498,18.914 C6.93537498,20.76 9.39037498,21.776 12.001375,21.776 C14.612375,21.776 17.069375,20.759 18.917375,18.912 C22.728375,15.101 22.728375,8.898 18.915375,5.086 C17.069375,3.241 14.614375,2.224 12.003375,2.224 M12.001375,23.776 C8.85537498,23.776 5.89837498,22.552 3.67537498,20.328 C1.45037498,18.104 0.22637498,15.147 0.22637498,12 C0.22637498,8.854 1.45237498,5.896 3.67737498,3.672 C5.89937498,1.449 8.85737498,0.224 12.003375,0.224 C15.148375,0.224 18.107375,1.449 20.329375,3.672 C24.921375,8.264 24.921375,15.735 20.331375,20.327 C18.105375,22.551 15.148375,23.776 12.001375,23.776" id="Fill-3"></path>
        </g>
        <g id="M-Corp_Icon_Times-Circle" transform="translate(152.000000, 0.000000)">
            <g id="Group-2" stroke-width="1" transform="translate(-0.000000, 0.000000)" fill="#828282">
                <path d="M24.0001032,12 C24.0001032,18.629232 18.6290581,24 11.9994839,24 C5.37114838,24 0.000103220478,18.629232 0.000103220478,12 C0.000103220478,5.37076796 5.37114838,0 11.9994839,0 C18.6290581,0 24.0001032,5.37076796 24.0001032,12 L24.0001032,12 Z" id="Path"></path>
            </g>
            <path d="M7.93712213,6.02912827 L17.9708717,16.0628779 C18.361396,16.4534022 18.361396,17.0865671 17.9708717,17.4770914 L17.4770914,17.9708717 C17.0865671,18.361396 16.4534022,18.361396 16.0628779,17.9708717 L6.02912827,7.93712213 C5.63860397,7.54659784 5.63860397,6.91343286 6.02912827,6.52290856 L6.52290856,6.02912827 C6.91343286,5.63860397 7.54659784,5.63860397 7.93712213,6.02912827 Z" id="Rectangle-Copy-14" fill="#FFFFFF"></path>
            <path d="M6.02912827,16.0628779 L16.0628779,6.02912827 C16.4534022,5.63860397 17.0865671,5.63860397 17.4770914,6.02912827 L17.9708717,6.52290856 C18.361396,6.91343286 18.361396,7.54659784 17.9708717,7.93712213 L7.93712213,17.9708717 C7.54659784,18.361396 6.91343286,18.361396 6.52290856,17.9708717 L6.02912827,17.4770914 C5.63860397,17.0865671 5.63860397,16.4534022 6.02912827,16.0628779 Z" id="Rectangle-Copy-14" fill="#FFFFFF"></path>
        </g>
        <g id="M-Corp_CTA_Back-to-Top" transform="translate(103.000000, 78.000000)">
            <g id="Group-2">
                <circle id="Oval" stroke="#4D4D4D" stroke-width="2" fill="#EBEBEB" fill-rule="nonzero" cx="25" cy="25" r="24"></circle>
                <polygon id="Triangle" fill="#FF0028" points="25 7.51590909 31.75 17.9659091 18.25 17.9659091"></polygon>
            </g>
        </g>
        <g id="Icon_Plus-Black" transform="translate(52.000000, 24.000000)" fill="#000000">
            <path d="M11.999598,22 C11.3346734,22 10.7935678,21.4588945 10.7935678,20.7939698 L10.7935678,13.2056281 L3.20603015,13.2056281 C2.54110553,13.2056281 2,12.6653266 2,11.999598 C2,11.3346734 2.54110553,10.7935678 3.20603015,10.7935678 L10.7935678,10.7935678 L10.7935678,3.20603015 C10.7935678,2.54110553 11.3346734,2 11.999598,2 C12.6645226,2 13.2056281,2.54110553 13.2056281,3.20603015 L13.2056281,10.7935678 L20.7939698,10.7935678 C21.4596985,10.7935678 22,11.3346734 22,11.999598 C22,12.6653266 21.4596985,13.2056281 20.7939698,13.2056281 L13.2056281,13.2056281 L13.2056281,20.7939698 C13.2056281,21.4588945 12.6645226,22 11.999598,22" id="Fill-3-Copy-8"></path>
        </g>
        <g id="Icon_File-PDF" transform="translate(208.000000, 24.000000)" fill="#000000">
            <g id="Group-2" stroke-width="1" fill-rule="evenodd" transform="translate(2.500000, 0.500000)">
                <path d="M2,20.528 L11.3885215,20.528 L16.332,15.6224744 L16.332,2 L2,2 L2,20.528 Z M1,22.528 C0.447,22.528 -2.87769808e-13,22.081 -2.87769808e-13,21.528 L-2.87769808e-13,1 C-2.87769808e-13,0.447 0.447,1.0658141e-14 1,1.0658141e-14 L17.332,1.0658141e-14 C17.885,1.0658141e-14 18.332,0.447 18.332,1 L18.332,16.0364744 C18.332,16.3024744 18.227,16.5564744 18.039,16.7434744 L12.5095215,22.235 C12.3225215,22.423 12.0685215,22.528 11.8025215,22.528 L1,22.528 Z" id="Fill-3"></path>
                <path d="M11.3321,22.028 C11.0561,22.028 10.8321,21.804 10.8321,21.528 L10.8321,15.528 C10.8321,15.252 11.0561,15.028 11.3321,15.028 L17.3321,15.028 C17.6081,15.028 17.8321,15.252 17.8321,15.528 C17.8321,15.804 17.6081,16.028 17.3321,16.028 L11.8321,16.028 L11.8321,21.528 C11.8321,21.804 11.6081,22.028 11.3321,22.028" id="Fill-1"></path>
            </g>
            <text id="PDF" font-family="Maax-Bold, Maax" font-size="6" font-weight="bold">
                <tspan x="5.53" y="10.1240234">PDF</tspan>
            </text>
        </g>
        <g id="M-Corp_Icon_Angle-Down_Red_Md" transform="translate(56.000000, 0.000000)" fill="#FF0028">
            <path d="M4.571,9.57893814 C4.241,9.24893814 4.241,8.71493814 4.571,8.38593814 L5.368,7.58893814 C5.697,7.25993814 6.23,7.25893814 6.56,7.58693814 L12,13.0019381 L17.441,7.58693814 C17.77,7.25893814 18.303,7.25993814 18.632,7.58893814 L19.429,8.38593814 C19.759,8.71493814 19.759,9.24893814 19.429,9.57893814 L12.597,16.4109381 C12.267,16.7409381 11.733,16.7409381 11.404,16.4109381 L4.571,9.57893814 Z" id="Fill-1"></path>
        </g>
        <g id="M-Corp_Icon_Angle-Up-Red_Md" transform="translate(80.000000, 0.000000)" fill="#FF0028">
            <path d="M4.571,9.57893814 C4.241,9.24893814 4.241,8.71493814 4.571,8.38593814 L5.368,7.58893814 C5.697,7.25993814 6.23,7.25893814 6.56,7.58693814 L12,13.0019381 L17.441,7.58693814 C17.77,7.25893814 18.303,7.25993814 18.632,7.58893814 L19.429,8.38593814 C19.759,8.71493814 19.759,9.24893814 19.429,9.57893814 L12.597,16.4109381 C12.267,16.7409381 11.733,16.7409381 11.404,16.4109381 L4.571,9.57893814 Z" id="Fill-1" transform="translate(12.000000, 12.000000) scale(1, -1) translate(-12.000000, -12.000000) "></path>
        </g>
        <g id="M-Corp_Icon_Search_Sm" transform="translate(28.000000, 24.000000)" fill="#000000">
            <g id="Group-3">
                <path d="M15.6726861,9.795875 C15.6726861,6.545875 13.0426861,3.920875 9.79768614,3.920875 C6.54768614,3.920875 3.92268614,6.550875 3.92268614,9.795875 C3.92268614,13.045875 6.55268614,15.670875 9.79768614,15.670875 C13.0466861,15.670875 15.6726861,13.040875 15.6726861,9.795875 M23.4246861,22.128875 L22.1256861,23.427875 C21.6986861,23.858875 21.0016861,23.858875 20.5696861,23.427875 L15.9936861,18.851875 C15.7866861,18.644875 15.6726861,18.364875 15.6726861,18.070875 L15.6726861,17.322875 C14.0526861,18.589875 12.0146861,19.342875 9.79768614,19.342875 C4.52368614,19.342875 0.250686136,15.068875 0.250686136,9.795875 C0.250686136,4.521875 4.52368614,0.248875 9.79768614,0.248875 C15.0706861,0.248875 19.3446861,4.521875 19.3446861,9.795875 C19.3446861,12.012875 18.5916861,14.049875 17.3246861,15.670875 L18.0726861,15.670875 C18.3666861,15.670875 18.6466861,15.784875 18.8536861,15.991875 L23.4296861,20.567875 C23.8566861,20.998875 23.8566861,21.696875 23.4246861,22.128875" id="Fill-1"></path>
            </g>
        </g>
        <g id="Icon_Radio-Button_Default-off" transform="translate(66.000000, 48.000000)" fill="#FFFFFF" stroke="#000000">
            <circle id="Oval" cx="12" cy="12" r="10.5"></circle>
        </g>
        <g id="Icon_Radio-Button_On" transform="translate(90.000000, 48.000000)">
            <circle id="Oval-Copy" stroke="#000000" stroke-width="1" fill="#FFFFFF" cx="12" cy="12" r="10.5"></circle>
            <circle id="Oval-Copy-2" fill="#000000" cx="12" cy="12" r="5.08837891"></circle>
        </g>
        <g id="Icon_Eyes-Blue_Md" transform="translate(34.000000, 48.000000)" stroke="#1377C9" stroke-linecap="round" stroke-linejoin="round">
            <g id="Group-5" transform="translate(2.000000, 2.500000)">
                <path d="M27.1798047,9.28350458 C27.1798047,9.28350458 22.4528822,18.1464844 13.5899024,18.1464844 C4.72692256,18.1464844 -4.24549285e-13,9.28350458 -4.24549285e-13,9.28350458 C-4.24549285e-13,9.28350458 4.72692256,0.420524779 13.5899024,0.420524779 C22.4528822,0.420524779 27.1798047,9.28350458 27.1798047,9.28350458 Z" id="Stroke-1" stroke-width="2"></path>
                <path d="M11.5195103,4.38345848 C12.1564631,4.11402389 12.8560476,3.96512583 13.5899024,3.96512583 C16.526503,3.96512583 18.9076902,6.34631307 18.9076902,9.28291371 C18.9076902,12.2206961 16.526503,14.6007016 13.5899024,14.6007016 C10.6533017,14.6007016 8.27211448,12.2206961 8.27211448,9.28291371" id="Stroke-3" stroke-width="2" transform="translate(13.589902, 9.282914) rotate(16.000000) translate(-13.589902, -9.282914) "></path>
            </g>
        </g>
        <g id="Icon_Times-Black_Sm" transform="translate(114.000000, 48.000000)" fill="#000000">
            <path d="M12.9778447,14.3600561 L0.63943188,2.0215581 C0.258260561,1.64035574 0.258260561,1.02163497 0.63943188,0.639455165 C1.02158056,0.258252799 1.64025093,0.258252799 2.02142225,0.639455165 L14.3598351,12.9779532 C14.7419838,13.360133 14.7419838,13.9778763 14.3598351,14.3600561 C14.1692494,14.5506573 13.9190447,14.6464466 13.6688399,14.6464466 C13.4186352,14.6464466 13.1684304,14.5506573 12.9778447,14.3600561 Z" id="Fill-4-Copy-6" transform="translate(7.500000, 7.500000) rotate(-360.000000) translate(-7.500000, -7.500000) "></path>
            <path d="M12.9778447,14.3600561 L0.63943188,2.0215581 C0.258260561,1.64035574 0.258260561,1.02163497 0.63943188,0.639455165 C1.02158056,0.258252799 1.64025093,0.258252799 2.02142225,0.639455165 L14.3598351,12.9779532 C14.7419838,13.360133 14.7419838,13.9778763 14.3598351,14.3600561 C14.1692494,14.5506573 13.9190447,14.6464466 13.6688399,14.6464466 C13.4186352,14.6464466 13.1684304,14.5506573 12.9778447,14.3600561 Z" id="Fill-4-Copy-7" transform="translate(7.500000, 7.500000) rotate(-90.000000) translate(-7.500000, -7.500000) "></path>
        </g>
        <g id="Icon_Times-White" transform="translate(242.000000, 48.000000)" fill="#FFFFFF">
            <path d="M10.7174277,13.1298901 L3.12989006,13.1298901 C2.46496544,13.1298901 1.92385991,12.5895886 1.92385991,11.9238599 C1.92385991,11.2589353 2.46496544,10.7178298 3.12989006,10.7178298 L10.7174277,10.7178298 L13.1294881,10.7178298 L20.7178298,10.7178298 C21.3835584,10.7178298 21.9238599,11.2589353 21.9238599,11.9238599 C21.9238599,12.5895886 21.3835584,13.1298901 20.7178298,13.1298901 L13.1294881,13.1298901 L10.7174277,13.1298901 Z" id="Fill-3-Copy-11" transform="translate(11.923860, 11.923860) rotate(-45.000000) translate(-11.923860, -11.923860) "></path>
            <path d="M10.7174277,13.1298901 L3.12989006,13.1298901 C2.46496544,13.1298901 1.92385991,12.5895886 1.92385991,11.9238599 C1.92385991,11.2589353 2.46496544,10.7178298 3.12989006,10.7178298 L10.7174277,10.7178298 L13.1294881,10.7178298 L20.7178298,10.7178298 C21.3835584,10.7178298 21.9238599,11.2589353 21.9238599,11.9238599 C21.9238599,12.5895886 21.3835584,13.1298901 20.7178298,13.1298901 L13.1294881,13.1298901 L10.7174277,13.1298901 Z" id="Fill-3-Copy-12" transform="translate(11.923860, 11.923860) rotate(-135.000000) translate(-11.923860, -11.923860) "></path>
        </g>
        <g id="Icon_Play-Circle_XL" transform="translate(0.000000, 171.000000)" stroke-linecap="round">
            <g id="Stroke-1">
                <use fill="black" fill-opacity="1" filter="url(#filter-8)" xlink:href="#path-7"></use>
                <use stroke="#FFFFFF" stroke-width="3" xlink:href="#path-7"></use>
            </g>
            <polygon id="Stroke-3" stroke="#FFFFFF" stroke-width="2" fill="#FFFFFF" fill-rule="evenodd" stroke-linejoin="round" points="121 83.497006 57 40.754491 57 126.239521"></polygon>
        </g>
        <g id="Icon_Tools-White" transform="translate(104.000000, 24.000000)" fill="#FFFFFF">
            <path d="M7.94271365,1.24344979e-14 C9.69871365,1.24344979e-14 11.3487136,0.683 12.5887136,1.924 C14.0807136,3.415 14.7587136,5.555 14.4267136,7.627 L16.2288864,9.429 L20.6977448,4.96382337 C20.3739775,4.09926416 20.5596274,3.08681858 21.2531136,2.3948 L22.9191136,0.7258 C23.2941136,0.3518 23.9581136,0.3508 24.3331136,0.7258 L26.3491136,2.7418 C26.5361136,2.9298 26.6421136,3.1838 26.6421136,3.4488 C26.6421136,3.7138 26.5361136,3.9688 26.3491136,4.1558 L24.6811136,5.8248 C24.2221136,6.2828 23.6141136,6.5348 22.9661136,6.5348 C22.6696634,6.5348 22.3811908,6.48189512 22.1114696,6.38041404 L17.6438864,10.844 L23.9957136,17.195 C24.7217136,17.921 25.1237136,18.888 25.1237136,19.917 C25.1237136,20.945 24.7237136,21.912 23.9957136,22.639 C23.3246367,23.3100769 22.4490628,23.7033787 21.5089936,23.7599158 L21.2727136,23.767 C20.2457136,23.767 19.2787136,23.367 18.5497136,22.64 L13.7148864,17.805 L9.47361365,22.0452 C8.64961365,22.8712 7.58361365,23.3452 6.54961365,23.3452 C5.76261365,23.3452 5.04561365,23.0612 4.53061365,22.5452 C3.28461365,21.3002 3.50361365,19.1272 5.02861365,17.6002 L9.26988635,13.36 L8.98171365,13.071 C6.90171365,13.408 4.76871365,12.722 3.28071365,11.234 C1.46371365,9.417 0.871713648,6.684 1.77471365,4.272 C1.89371365,3.953 2.16471365,3.716 2.49871365,3.645 C2.83271365,3.57 3.17671365,3.674 3.41671365,3.915 L6.11071365,6.609 L7.57371365,6.217 L7.96371365,4.755 L5.27071365,2.061 C5.03071365,1.82 4.92871365,1.474 5.00071365,1.142 C5.07371365,0.809 5.30971365,0.537 5.62771365,0.418 C6.37071365,0.14 7.14771365,1.24344979e-14 7.94271365,1.24344979e-14 Z M8.03871365,2.001 L9.78671365,3.75 C10.0397136,4.002 10.1377136,4.37 10.0457136,4.715 L9.35471365,7.292 C9.26271365,7.637 8.99371365,7.907 8.64771365,7.999 L6.07171365,8.69 C5.72571365,8.783 5.35671365,8.683 5.10471365,8.431 L3.35871365,6.684 C3.38571365,7.843 3.84871365,8.974 4.69471365,9.819 C5.82571365,10.951 7.50471365,11.409 9.06371365,11.014 C9.14571365,10.994 9.22771365,10.984 9.30971365,10.984 C9.57171365,10.984 9.82771365,11.087 10.0167136,11.277 L19.9637136,21.226 C20.6637136,21.922 21.8817136,21.924 22.5807136,21.224 C22.9307136,20.875 23.1237136,20.411 23.1237136,19.917 C23.1237136,19.423 22.9307136,18.959 22.5807136,18.609 L12.6317136,8.661 C12.3837136,8.412 12.2847136,8.049 12.3707136,7.708 C12.7727136,6.122 12.3257136,4.488 11.1747136,3.339 C10.3347136,2.498 9.22371365,2.025 8.03871365,2.001 Z M10.6496136,14.8092 L6.44261365,19.0142 C5.67261365,19.7852 5.56161365,20.7492 5.94461365,21.1322 C6.12261365,21.3082 6.37261365,21.3452 6.54961365,21.3452 C7.04961365,21.3452 7.61461365,21.0792 8.05961365,20.6322 L12.2666136,16.4262 L10.6496136,14.8092 Z M21.1261136,18.8653 C21.5871136,18.8653 21.9601136,19.2383 21.9601136,19.6983 C21.9601136,20.1593 21.5871136,20.5323 21.1261136,20.5323 C20.6651136,20.5323 20.2921136,20.1593 20.2921136,19.6983 C20.2921136,19.2383 20.6651136,18.8653 21.1261136,18.8653 Z M23.6261136,2.8478 L22.6651136,3.8088 C22.5003525,3.97356119 22.5010932,4.23979081 22.6634246,4.40704424 C22.6652126,4.40800272 22.6661639,4.4089502 22.6671136,4.4099 L22.6708864,4.414 L22.737698,4.4748 C22.9216322,4.62413333 23.0742248,4.6028 23.2671136,4.4108 L24.2281136,3.4488 L23.6261136,2.8478 Z" id="Combined-Shape"></path>
        </g>
        <g id="Icon_all-stars" transform="translate(0.000000, 141.000000)">
            <g id="Group">
                <polygon id="★" fill="#E5E0DC" fill-rule="nonzero" points="92.9558442 15 91.0545455 9.25357873 96 5.71574642 89.8909091 5.71574642 88 0 86.0987013 5.71574642 80 5.71574642 84.9350649 9.25357873 83.0337662 15 88 11.4519427"></polygon>
                <polygon id="★-copy-20" fill="#E5E0DC" fill-rule="nonzero" points="76.9558442 15 75.0545455 9.25357873 80 5.71574642 73.8909091 5.71574642 72 0 72 11.4519427"></polygon>
                <polygon id="★-copy-5" fill="#E5E0DC" fill-rule="nonzero" points="92.9558442 30 91.0545455 24.2535787 96 20.7157464 89.8909091 20.7157464 88 15 86.0987013 20.7157464 80 20.7157464 84.9350649 24.2535787 83.0337662 30 88 26.4519427"></polygon>
                <polygon id="★-copy-10" fill="#F93822" fill-rule="nonzero" points="12.9558442 30 11.0545455 24.2535787 16 20.7157464 9.89090909 20.7157464 8 15 6.0987013 20.7157464 0 20.7157464 4.93506494 24.2535787 3.03376623 30 8 26.4519427"></polygon>
                <polygon id="★-copy-15" fill="#F93822" fill-rule="nonzero" points="12.9558442 15 11.0545455 9.25357873 16 5.71574642 9.89090909 5.71574642 8 0 6.0987013 5.71574642 0 5.71574642 4.93506494 9.25357873 3.03376623 15 8 11.4519427"></polygon>
                <polygon id="★-copy-2" fill="#E5E0DC" fill-rule="nonzero" points="124.955844 15 123.054545 9.25357873 128 5.71574642 121.890909 5.71574642 120 0 118.098701 5.71574642 112 5.71574642 116.935065 9.25357873 115.033766 15 120 11.4519427"></polygon>
                <polygon id="★-copy-6" fill="#E5E0DC" fill-rule="nonzero" points="124.955844 30 123.054545 24.2535787 128 20.7157464 121.890909 20.7157464 120 15 118.098701 20.7157464 112 20.7157464 116.935065 24.2535787 115.033766 30 120 26.4519427"></polygon>
                <polygon id="★-copy-11" fill="#F93822" fill-rule="nonzero" points="44.9558442 30 43.0545455 24.2535787 48 20.7157464 41.8909091 20.7157464 40 15 38.0987013 20.7157464 32 20.7157464 36.9350649 24.2535787 35.0337662 30 40 26.4519427"></polygon>
                <polygon id="★-copy-16" fill="#F93822" fill-rule="nonzero" points="44.9558442 15 43.0545455 9.25357873 48 5.71574642 41.8909091 5.71574642 40 0 38.0987013 5.71574642 32 5.71574642 36.9350649 9.25357873 35.0337662 15 40 11.4519427"></polygon>
                <polygon id="★-copy" fill="#E5E0DC" fill-rule="nonzero" points="108.955844 15 107.054545 9.25357873 112 5.71574642 105.890909 5.71574642 104 0 102.098701 5.71574642 96 5.71574642 100.935065 9.25357873 99.0337662 15 104 11.4519427"></polygon>
                <polygon id="★-copy-7" fill="#E5E0DC" fill-rule="nonzero" points="108.955844 30 107.054545 24.2535787 112 20.7157464 105.890909 20.7157464 104 15 102.098701 20.7157464 96 20.7157464 100.935065 24.2535787 99.0337662 30 104 26.4519427"></polygon>
                <polygon id="★-copy-12" fill="#F93822" fill-rule="nonzero" points="28.9558442 30 27.0545455 24.2535787 32 20.7157464 25.8909091 20.7157464 24 15 22.0987013 20.7157464 16 20.7157464 20.9350649 24.2535787 19.0337662 30 24 26.4519427"></polygon>
                <polygon id="★-copy-17" fill="#F93822" fill-rule="nonzero" points="28.9558442 15 27.0545455 9.25357873 32 5.71574642 25.8909091 5.71574642 24 0 22.0987013 5.71574642 16 5.71574642 20.9350649 9.25357873 19.0337662 15 24 11.4519427"></polygon>
                <polygon id="★-copy-3" fill="#E5E0DC" fill-rule="nonzero" points="140.955844 15 139.054545 9.25357873 144 5.71574642 137.890909 5.71574642 136 0 134.098701 5.71574642 128 5.71574642 132.935065 9.25357873 131.033766 15 136 11.4519427"></polygon>
                <polygon id="★-copy-8" fill="#E5E0DC" fill-rule="nonzero" points="140.955844 30 139.054545 24.2535787 144 20.7157464 137.890909 20.7157464 136 15 134.098701 20.7157464 128 20.7157464 132.935065 24.2535787 131.033766 30 136 26.4519427"></polygon>
                <polygon id="★-copy-13" fill="#F93822" fill-rule="nonzero" points="60.9558442 30 59.0545455 24.2535787 64 20.7157464 57.8909091 20.7157464 56 15 54.0987013 20.7157464 48 20.7157464 52.9350649 24.2535787 51.0337662 30 56 26.4519427"></polygon>
                <polygon id="★-copy-18" fill="#F93822" fill-rule="nonzero" points="60.9558442 15 59.0545455 9.25357873 64 5.71574642 57.8909091 5.71574642 56 0 54.0987013 5.71574642 48 5.71574642 52.9350649 9.25357873 51.0337662 15 56 11.4519427"></polygon>
                <polygon id="★-copy-4" fill="#E5E0DC" fill-rule="nonzero" points="156.955844 15 155.054545 9.25357873 160 5.71574642 153.890909 5.71574642 152 0 150.098701 5.71574642 144 5.71574642 148.935065 9.25357873 147.033766 15 152 11.4519427"></polygon>
                <polygon id="★-copy-9" fill="#E5E0DC" fill-rule="nonzero" points="156.955844 30 155.054545 24.2535787 160 20.7157464 153.890909 20.7157464 152 15 150.098701 20.7157464 144 20.7157464 148.935065 24.2535787 147.033766 30 152 26.4519427"></polygon>
                <polygon id="★-copy-14" fill="#F93822" fill-rule="nonzero" points="76.9558442 30 75.0545455 24.2535787 80 20.7157464 73.8909091 20.7157464 72 15 70.0987013 20.7157464 64 20.7157464 68.9350649 24.2535787 67.0337662 30 72 26.4519427"></polygon>
                <polygon id="★-copy-19" fill="#F93822" fill-rule="nonzero" points="72 0 70.0987013 5.71574642 64 5.71574642 68.9350649 9.25357873 67.0337662 15 72 11.4519427"></polygon>
            </g>
        </g>
        <g id="Icon_Search_Md" transform="translate(0.000000, 24.000000)" fill="#000000">
            <g id="Group" transform="translate(2.500000, -0.000025)">
                <path d="M9.969,2 C5.576,2.001 2.002,5.577 2,9.972 C2.002,14.363 5.575,17.937 9.967,17.937 C14.363,17.937 17.939,14.363 17.939,9.97 C17.937,5.575 14.362,2 9.969,2 M9.967,19.937 C4.474,19.937 0.002,15.466 1.52766688e-13,9.972 C0.002,4.474 4.474,0.001 9.969,5.32907052e-15 C15.464,5.32907052e-15 19.937,4.472 19.939,9.969 C19.939,15.465 15.465,19.937 9.967,19.937" id="Fill-1"></path>
                <path d="M4.3625,9.9668 L3.3625,9.9668 C3.3635,6.3238 6.3275,3.3608 9.9685,3.3608 L9.9685,4.3608 C6.8785,4.3608 4.3635,6.8758 4.3625,9.9668" id="Fill-4"></path>
                <path d="M21.8469,23.2325 C21.5909,23.2325 21.3349,23.1345 21.1399,22.9395 L15.5719,17.3725 C15.1809,16.9825 15.1809,16.3485 15.5719,15.9585 C15.9619,15.5675 16.5949,15.5675 16.9859,15.9585 L22.5539,21.5255 C22.9449,21.9155 22.9449,22.5485 22.5539,22.9395 C22.3589,23.1345 22.1029,23.2325 21.8469,23.2325" id="Fill-6"></path>
            </g>
        </g>
        <g id="Icon_Minus-Black" transform="translate(147.000000, 48.000000)">
            <path d="M20.7939698,13 L3.20603015,13 C2.54110553,13 2,12.5513333 2,12 C2,11.4486667 2.54110553,11 3.20603015,11 L20.7939698,11 C21.4588945,11 22,11.4486667 22,12 C22,12.5513333 21.4588945,13 20.7939698,13" id="Fill-1" fill="#FFFFFF"></path>
            <path d="M10.7935678,13.2056281 L3.20603015,13.2056281 C2.54110553,13.2056281 2,12.6653266 2,11.999598 C2,11.3346734 2.54110553,10.7935678 3.20603015,10.7935678 L10.7935678,10.7935678 L13.2056281,10.7935678 L20.7939698,10.7935678 C21.4596985,10.7935678 22,11.3346734 22,11.999598 C22,12.6653266 21.4596985,13.2056281 20.7939698,13.2056281 L13.2056281,13.2056281 L10.7935678,13.2056281 Z" id="Fill-3-Copy-11" fill="#000000"></path>
        </g>
        <g id="M-Corp_Icon_Angle-Down_Red_Lg" transform="translate(170.000000, 48.000000)" fill="#FF0028">
            <path d="M0.8565,8.36840721 C0.3615,7.87340721 0.3615,7.07240721 0.8565,6.57890721 L2.052,5.38340721 C2.5455,4.88990721 3.345,4.88840721 3.84,5.38040721 L12,13.5029072 L20.1615,5.38040721 C20.655,4.88840721 21.4545,4.88990721 21.948,5.38340721 L23.1435,6.57890721 C23.6385,7.07240721 23.6385,7.87340721 23.1435,8.36840721 L12.8955,18.6164072 C12.4005,19.1114072 11.5995,19.1114072 11.106,18.6164072 L0.8565,8.36840721 Z" id="Fill-1"></path>
        </g>
        <g id="Icon_Check-Box-Off" transform="translate(194.000000, 48.000000)" stroke="#000000">
            <rect id="Rectangle-Copy-5" x="0.5" y="0.5" width="23" height="23"></rect>
        </g>
        <g id="M-Corp_Icon_Check-Box-On" transform="translate(218.000000, 48.000000)">
            <g id="Check-Box:-On">
                <rect id="Rectangle-Copy-6" stroke="#000000" stroke-width="1" fill="#FFFFFF" fill-rule="nonzero" x="0.5" y="0.5" width="23" height="23"></rect>
                <rect id="Rectangle-Copy-6" stroke="#000000" stroke-width="1" fill-rule="nonzero" x="0.5" y="0.5" width="23" height="23"></rect>
                <path d="M7.93712213,6.02912827 L17.9708717,16.0628779 C18.361396,16.4534022 18.361396,17.0865671 17.9708717,17.4770914 L17.4770914,17.9708717 C17.0865671,18.361396 16.4534022,18.361396 16.0628779,17.9708717 L6.02912827,7.93712213 C5.63860397,7.54659784 5.63860397,6.91343286 6.02912827,6.52290856 L6.52290856,6.02912827 C6.91343286,5.63860397 7.54659784,5.63860397 7.93712213,6.02912827 Z" id="Rectangle-Copy-14" fill="#000000" fill-rule="evenodd"></path>
                <path d="M6.02912827,16.0628779 L16.0628779,6.02912827 C16.4534022,5.63860397 17.0865671,5.63860397 17.4770914,6.02912827 L17.9708717,6.52290856 C18.361396,6.91343286 18.361396,7.54659784 17.9708717,7.93712213 L7.93712213,17.9708717 C7.54659784,18.361396 6.91343286,18.361396 6.52290856,17.9708717 L6.02912827,17.4770914 C5.63860397,17.0865671 5.63860397,16.4534022 6.02912827,16.0628779 Z" id="Rectangle-Copy-14" fill="#000000" fill-rule="evenodd"></path>
            </g>
        </g>
        <g id="Icon_sort-dropdown-caret" transform="translate(153.000000, 78.000000)" fill="#000000">
            <path d="M7.99643007,0.365320942 C6.94907011,-0.724836258 5.33062814,0.863721115 6.43045186,2.00638151 L15.8652663,11.596504 L6.43045186,21.3594089 C5.20346682,22.6341833 6.87655479,23.9930409 7.99643007,22.8274052 L18.2788884,12.1247849 C18.4259509,11.9717131 18.4993467,11.7955255 18.4993467,11.596504 C18.4993467,11.3974825 18.4262217,11.221295 18.2791592,11.0679413 L7.99643007,0.365320942 Z" id="caret-copy-2" transform="translate(12.249673, 11.635415) rotate(90.000000) translate(-12.249673, -11.635415) "></path>
        </g>
        <g id="Icon_Times-Black" transform="translate(177.000000, 78.000000)" fill="#000000">
            <path d="M3.558875,20.44075 C3.167875,20.04975 3.167875,19.41775 3.558875,19.02675 L19.027875,3.55875 C19.417875,3.16875 20.050875,3.16875 20.441875,3.55875 C20.831875,3.94975 20.831875,4.58275 20.441875,4.97275 L4.972875,20.44075 C4.777875,20.63575 4.521875,20.73375 4.265875,20.73375 C4.009875,20.73375 3.753875,20.63575 3.558875,20.44075 Z" id="Fill-1"></path>
            <path d="M3.558875,20.44075 C3.167875,20.04975 3.167875,19.41775 3.558875,19.02675 L19.027875,3.55875 C19.417875,3.16875 20.050875,3.16875 20.441875,3.55875 C20.831875,3.94975 20.831875,4.58275 20.441875,4.97275 L4.972875,20.44075 C4.777875,20.63575 4.521875,20.73375 4.265875,20.73375 C4.009875,20.73375 3.753875,20.63575 3.558875,20.44075 Z" id="Fill-1" transform="translate(12.000000, 12.000000) rotate(-90.000000) translate(-12.000000, -12.000000) "></path>
        </g>
        <g id="CTA_Arrow-Right-Red" transform="translate(219.000000, 78.000000)" fill="#E51C06" fill-rule="nonzero">
            <path d="M8.49364774,4.1995069 C8.81595468,3.89455897 9.49889629,3.9754973 9.72721407,4.1995069 L14.3269096,8.59590733 C14.5576968,8.81991693 14.5576968,9.18211155 14.3269096,9.40374747 L9.85326747,13.7870103 C9.62250419,14.0110199 8.86425086,14.1252829 8.49364774,13.7870103 C8.09400555,13.3740833 8.09400555,12.6932935 8.49364774,12.3514838 L11.1451335,9.95420697 L4.51283863,9.95420697 C3.94111015,9.95420697 3.5,9.49182429 3.5,9.00101424 C3.5,8.48240567 3.94924263,8.0478215 4.51283863,8.0478215 L11.1451335,8.0478215 L8.38504849,5.49771381 C8.14443132,5.27610116 8.04693692,4.54429541 8.49364774,4.1995069 Z" id=""></path>
        </g>
        <g id="CTA_Arrow-Right-Black" transform="translate(201.000000, 78.000000)" fill="#000000" fill-rule="nonzero">
            <path d="M8.49364774,4.1995069 C8.81595468,3.89455897 9.49889629,3.9754973 9.72721407,4.1995069 L14.3269096,8.59590733 C14.5576968,8.81991693 14.5576968,9.18211155 14.3269096,9.40374747 L9.85326747,13.7870103 C9.62250419,14.0110199 8.86425086,14.1252829 8.49364774,13.7870103 C8.09400555,13.3740833 8.09400555,12.6932935 8.49364774,12.3514838 L11.1451335,9.95420697 L4.51283863,9.95420697 C3.94111015,9.95420697 3.5,9.49182429 3.5,9.00101424 C3.5,8.48240567 3.94924263,8.0478215 4.51283863,8.0478215 L11.1451335,8.0478215 L8.38504849,5.49771381 C8.14443132,5.27610116 8.04693692,4.54429541 8.49364774,4.1995069 Z" id=""></path>
        </g>
        <g id="Icon_Plus-White" transform="translate(184.000000, 141.000000)" fill="#FFFFFF">
            <path d="M11.999598,22 C11.3346734,22 10.7935678,21.4588945 10.7935678,20.7939698 L10.7935678,13.2056281 L3.20603015,13.2056281 C2.54110553,13.2056281 2,12.6653266 2,11.999598 C2,11.3346734 2.54110553,10.7935678 3.20603015,10.7935678 L10.7935678,10.7935678 L10.7935678,3.20603015 C10.7935678,2.54110553 11.3346734,2 11.999598,2 C12.6645226,2 13.2056281,2.54110553 13.2056281,3.20603015 L13.2056281,10.7935678 L20.7939698,10.7935678 C21.4596985,10.7935678 22,11.3346734 22,11.999598 C22,12.6653266 21.4596985,13.2056281 20.7939698,13.2056281 L13.2056281,13.2056281 L13.2056281,20.7939698 C13.2056281,21.4588945 12.6645226,22 11.999598,22" id="Fill-3-Copy-9"></path>
        </g>
        <g id="M-Corp_Icon_Angle-Up_Red_Lg" transform="translate(160.000000, 141.000000)" fill="#FF0028">
            <path d="M0.8565,8.36840721 C0.3615,7.87340721 0.3615,7.07240721 0.8565,6.57890721 L2.052,5.38340721 C2.5455,4.88990721 3.345,4.88840721 3.84,5.38040721 L12,13.5029072 L20.1615,5.38040721 C20.655,4.88840721 21.4545,4.88990721 21.948,5.38340721 L23.1435,6.57890721 C23.6385,7.07240721 23.6385,7.87340721 23.1435,8.36840721 L12.8955,18.6164072 C12.4005,19.1114072 11.5995,19.1114072 11.106,18.6164072 L0.8565,8.36840721 Z" id="Fill-1" transform="translate(12.000000, 12.000000) scale(1, -1) translate(-12.000000, -12.000000) "></path>
        </g>
        <g id="Carousel_Circle-Arrow_L" transform="translate(167.000000, 171.000000)">
            <circle id="Oval" fill-opacity="0.5" fill="#EFECE8" fill-rule="evenodd" cx="25" cy="25" r="25"></circle>
            <polyline id="Stroke-1-Copy-2" stroke="#000000" stroke-width="2" stroke-linecap="round" stroke-linejoin="round" transform="translate(24.500000, 25.000000) scale(-1, 1) translate(-24.500000, -25.000000) " points="17.4559348 38.5 31.5440652 25 17.4559348 11.5"></polyline>
        </g>
        <g id="Carousel_Circle-Arrow_R" transform="translate(217.000000, 171.000000)">
            <g id="Group-36" stroke-width="1" fill-rule="evenodd" fill="#EFECE8" fill-opacity="0.5">
                <circle id="Oval-Copy-7" transform="translate(25.000000, 25.000000) scale(-1, 1) translate(-25.000000, -25.000000) " cx="25" cy="25" r="25"></circle>
            </g>
            <polyline id="Stroke-1-Copy" stroke="#000000" stroke-width="2" stroke-linecap="round" stroke-linejoin="round" points="19.4559348 38.5 33.5440652 25 19.4559348 11.5"></polyline>
        </g>
        <g id="Carousel_Circle-Arrow_L_Disabled" transform="translate(167.000000, 224.000000)">
            <circle id="Oval" fill-opacity="0.5" fill="#EFECE8" fill-rule="evenodd" cx="25" cy="25" r="25"></circle>
            <polyline id="Stroke-1-Copy-2" stroke="#B8B6B6" stroke-width="2" stroke-linecap="round" stroke-linejoin="round" transform="translate(24.500000, 25.000000) scale(-1, 1) translate(-24.500000, -25.000000) " points="17.4559348 38.5 31.5440652 25 17.4559348 11.5"></polyline>
        </g>
        <g id="Carousel_Circle-Arrow_R_Disabled" transform="translate(217.000000, 224.000000)">
            <g id="Group-36" stroke-width="1" fill-rule="evenodd" fill="#EFECE8" fill-opacity="0.5">
                <circle id="Oval-Copy-7" transform="translate(25.000000, 25.000000) scale(-1, 1) translate(-25.000000, -25.000000) " cx="25" cy="25" r="25"></circle>
            </g>
            <polyline id="Stroke-1-Copy" stroke="#B8B6B6" stroke-width="2" stroke-linecap="round" stroke-linejoin="round" points="19.4559348 38.5 33.5440652 25 19.4559348 11.5"></polyline>
        </g>
        <g id="Icon_Check-Black_SM" transform="translate(237.000000, 78.000000)" stroke="#000000" stroke-linecap="round" stroke-linejoin="round" stroke-width="2">
            <polyline id="Stroke-1" points="4 12.7913475 9.24019829 18 19.3429473 6"></polyline>
        </g>
        <g id="Icon_Check-white_SM" transform="translate(201.000000, 102.000000)" stroke="#FFFFFF" stroke-linecap="round" stroke-linejoin="round" stroke-width="2">
            <polyline id="Stroke-1" points="4 12.7913475 9.24019829 18 19.3429473 6"></polyline>
        </g>
        <g id="Icon_check-circle-grey" transform="translate(153.000000, 102.000000)" fill="#000000">
            <path d="M11.7710002,-4.61852778e-14 C14.9170002,-4.61852778e-14 17.8750002,1.225 20.0970002,3.448 C24.6890002,8.039 24.6890002,15.51 20.0990002,20.103 C17.8750002,22.327 14.9160002,23.552 11.7690002,23.552 C8.62300016,23.552 5.66600016,22.328 3.44300016,20.104 C-1.14899984,15.512 -1.14699984,8.04 3.44500016,3.448 C5.66900016,1.225 8.62600016,-4.61852778e-14 11.7710002,-4.61852778e-14 Z M11.7710002,2 C9.16000016,2 6.70500016,3.017 4.85900016,4.862 C1.04600016,8.674 1.04600016,14.877 4.85700016,18.69 C6.70300016,20.536 9.15800016,21.552 11.7690002,21.552 C14.3820002,21.552 16.8370002,20.535 18.6850002,18.688 C22.4960002,14.876 22.4960002,8.674 18.6830002,4.862 C16.8370002,3.017 14.3820002,2 11.7710002,2 Z M16.9347002,7.0444 C17.3627002,7.3954 17.4237002,8.0254 17.0737002,8.4524 L11.3487002,15.4314 C11.1677002,15.6534 10.8997002,15.7864 10.6127002,15.7974 L10.5757002,15.7974 L10.5757002,15.7974 C10.3027002,15.7974 10.0407002,15.6854 9.85070016,15.4864 L7.25770016,12.7634 C6.87670016,12.3634 6.89170016,11.7304 7.29270016,11.3494 C7.69070016,10.9684 8.32370016,10.9834 8.70670016,11.3844 L10.5207002,13.2884 L15.5267002,7.1834 C15.8767002,6.7584 16.5077002,6.6934 16.9347002,7.0444 Z" id="Combined-Shape"></path>
        </g>
        <g id="Icon_check-circle-white" transform="translate(177.000000, 102.000000)" fill="#FFFFFF">
            <path d="M11.7710002,-4.61852778e-14 C14.9170002,-4.61852778e-14 17.8750002,1.225 20.0970002,3.448 C24.6890002,8.039 24.6890002,15.51 20.0990002,20.103 C17.8750002,22.327 14.9160002,23.552 11.7690002,23.552 C8.62300016,23.552 5.66600016,22.328 3.44300016,20.104 C-1.14899984,15.512 -1.14699984,8.04 3.44500016,3.448 C5.66900016,1.225 8.62600016,-4.61852778e-14 11.7710002,-4.61852778e-14 Z M11.7710002,2 C9.16000016,2 6.70500016,3.017 4.85900016,4.862 C1.04600016,8.674 1.04600016,14.877 4.85700016,18.69 C6.70300016,20.536 9.15800016,21.552 11.7690002,21.552 C14.3820002,21.552 16.8370002,20.535 18.6850002,18.688 C22.4960002,14.876 22.4960002,8.674 18.6830002,4.862 C16.8370002,3.017 14.3820002,2 11.7710002,2 Z M16.9347002,7.0444 C17.3627002,7.3954 17.4237002,8.0254 17.0737002,8.4524 L11.3487002,15.4314 C11.1677002,15.6534 10.8997002,15.7864 10.6127002,15.7974 L10.5757002,15.7974 L10.5757002,15.7974 C10.3027002,15.7974 10.0407002,15.6854 9.85070016,15.4864 L7.25770016,12.7634 C6.87670016,12.3634 6.89170016,11.7304 7.29270016,11.3494 C7.69070016,10.9684 8.32370016,10.9834 8.70670016,11.3844 L10.5207002,13.2884 L15.5267002,7.1834 C15.8767002,6.7584 16.5077002,6.6934 16.9347002,7.0444 Z" id="Combined-Shape"></path>
        </g>
        <g id="Icon_Times-Circle_white" transform="translate(225.000000, 102.000000)" fill="#FFFFFF">
            <path d="M12.0000626,2.224 C9.38824465,2.224 6.9324756,3.241 5.08589733,5.086 C1.27170288,8.898 1.27070256,15.101 5.0838967,18.914 C6.93047498,20.76 9.38624402,21.776 11.9980619,21.776 C14.6108802,21.776 17.0676495,20.759 18.9162284,18.912 C22.7284223,15.101 22.7284223,8.899 18.9162284,5.086 C17.0686498,3.241 14.6128808,2.224 12.0000626,2.224 M11.9980619,23.776 C8.85107643,23.776 5.89315013,22.552 3.66945376,20.328 C-0.923984724,15.736 -0.92298441,8.264 3.67145438,3.672 C5.89515075,1.449 8.85307706,0.224 12.0000626,0.224 C15.1460478,0.224 18.1059747,1.449 20.3306714,3.672 C24.9231095,8.265 24.9231095,15.736 20.3306714,20.327 C18.1039741,22.551 15.1450474,23.776 11.9980619,23.776" id="Combined-Shape"></path>
            <path d="M9.923,8.509125 L11.99975,10.585875 L14.077,8.509125 C14.468,8.118125 15.101,8.118125 15.491,8.509125 C15.882,8.899125 15.882,9.532125 15.491,9.923125 L13.41375,11.999875 L15.491,14.077125 C15.882,14.468125 15.882,15.100125 15.491,15.491125 C15.296,15.686125 15.04,15.784125 14.784,15.784125 C14.528,15.784125 14.272,15.686125 14.077,15.491125 L11.99975,13.413875 L9.923,15.491125 C9.728,15.686125 9.472,15.784125 9.216,15.784125 C8.96,15.784125 8.704,15.686125 8.509,15.491125 C8.118,15.100125 8.118,14.468125 8.509,14.077125 L10.58575,11.999875 L8.509,9.923125 C8.118,9.532125 8.118,8.899125 8.509,8.509125 C8.899,8.118125 9.532,8.118125 9.923,8.509125 Z" id="Combined-Shape"></path>
        </g>
        <g id="Icon_Times-Circle_blue" transform="translate(249.000000, 102.000000)" fill="#1377C9">
            <path d="M12.0000626,2.224 C9.38824465,2.224 6.9324756,3.241 5.08589733,5.086 C1.27170288,8.898 1.27070256,15.101 5.0838967,18.914 C6.93047498,20.76 9.38624402,21.776 11.9980619,21.776 C14.6108802,21.776 17.0676495,20.759 18.9162284,18.912 C22.7284223,15.101 22.7284223,8.899 18.9162284,5.086 C17.0686498,3.241 14.6128808,2.224 12.0000626,2.224 M11.9980619,23.776 C8.85107643,23.776 5.89315013,22.552 3.66945376,20.328 C-0.923984724,15.736 -0.92298441,8.264 3.67145438,3.672 C5.89515075,1.449 8.85307706,0.224 12.0000626,0.224 C15.1460478,0.224 18.1059747,1.449 20.3306714,3.672 C24.9231095,8.265 24.9231095,15.736 20.3306714,20.327 C18.1039741,22.551 15.1450474,23.776 11.9980619,23.776" id="Combined-Shape"></path>
            <path d="M9.923,8.509125 L11.99975,10.585875 L14.077,8.509125 C14.468,8.118125 15.101,8.118125 15.491,8.509125 C15.882,8.899125 15.882,9.532125 15.491,9.923125 L13.41375,11.999875 L15.491,14.077125 C15.882,14.468125 15.882,15.100125 15.491,15.491125 C15.296,15.686125 15.04,15.784125 14.784,15.784125 C14.528,15.784125 14.272,15.686125 14.077,15.491125 L11.99975,13.413875 L9.923,15.491125 C9.728,15.686125 9.472,15.784125 9.216,15.784125 C8.96,15.784125 8.704,15.686125 8.509,15.491125 C8.118,15.100125 8.118,14.468125 8.509,14.077125 L10.58575,11.999875 L8.509,9.923125 C8.118,9.532125 8.118,8.899125 8.509,8.509125 C8.899,8.118125 9.532,8.118125 9.923,8.509125 Z" id="Combined-Shape"></path>
        </g>
        <g id="Icon_Plus-Circle_Tiny" transform="translate(208.000000, 141.000000)" fill="#000000">
            <path d="M8.99947267,0.995605555 C4.58569169,0.995605555 0.995605555,4.58674635 0.995605555,8.99947267 C0.995605555,13.4132536 4.58569169,17.0043944 8.99947267,17.0043944 C13.4132536,17.0043944 17.0033398,13.4132536 17.0033398,8.99947267 C17.0033398,4.58674635 13.4132536,0.995605555 8.99947267,0.995605555 M8.99947267,18.0010547 C4.0372649,18.0010547 0,13.9627351 0,8.99947267 C0,4.0372649 4.0372649,0 8.99947267,0 C13.9616804,0 18,4.0372649 18,8.99947267 C18,13.9627351 13.9616804,18.0010547 8.99947267,18.0010547" id="Fill-1-Copy"></path>
            <path d="M9,13.9380273 C8.447,13.9380273 8,13.4900273 8,12.9380273 L8,5.06302733 C8,4.51102733 8.447,4.06302733 9,4.06302733 C9.553,4.06302733 10,4.51102733 10,5.06302733 L10,12.9380273 C10,13.4900273 9.553,13.9380273 9,13.9380273" id="Fill-1"></path>
            <path d="M12.9375,10.0005273 L5.0625,10.0005273 C4.5105,10.0005273 4.0625,9.55252733 4.0625,9.00052733 C4.0625,8.44852733 4.5105,8.00052733 5.0625,8.00052733 L12.9375,8.00052733 C13.4905,8.00052733 13.9375,8.44852733 13.9375,9.00052733 C13.9375,9.55252733 13.4905,10.0005273 12.9375,10.0005273" id="Fill-3"></path>
        </g>
        <g id="Icon_Check-Circle_Tiny" transform="translate(226.000000, 141.000000)" fill="#000000">
            <path d="M8.99947267,0.995605555 C4.58569169,0.995605555 0.995605555,4.58674635 0.995605555,8.99947267 C0.995605555,13.4132536 4.58569169,17.0043944 8.99947267,17.0043944 C13.4132536,17.0043944 17.0033398,13.4132536 17.0033398,8.99947267 C17.0033398,4.58674635 13.4132536,0.995605555 8.99947267,0.995605555 M8.99947267,18.0010547 C4.0372649,18.0010547 0,13.9627351 0,8.99947267 C0,4.0372649 4.0372649,0 8.99947267,0 C13.9616804,0 18,4.0372649 18,8.99947267 C18,13.9627351 13.9616804,18.0010547 8.99947267,18.0010547" id="Fill-1-Copy"></path>
            <path d="M7.59404967,13.9795119 C7.32104967,13.9795119 7.05904967,13.8675119 6.86904967,13.6685119 L4.27604967,10.9455119 C3.89504967,10.5455119 3.91004967,9.91251192 4.31104967,9.53151192 C4.70904967,9.15051192 5.34204967,9.16551192 5.72504967,9.56651192 L7.53904967,11.4705119 L12.5450497,5.36551192 C12.8950497,4.94051192 13.5260497,4.87551192 13.9530497,5.22651192 C14.3810497,5.57751192 14.4420497,6.20751192 14.0920497,6.63451192 L8.36704967,13.6135119 C8.18604967,13.8355119 7.91804967,13.9685119 7.63104967,13.9795119 C7.61904967,13.9795119 7.60804967,13.9795119 7.59404967,13.9795119" id="Fill-1"></path>
        </g>
        <g id="M-Corp_Icon_Chevron-Down_White_Lg-" transform="translate(167.000000, 274.000000)" fill="#FFFFFF">
            <path d="M8.91412182,0.280654286 C8.73089253,0.0936662157 8.51999325,0 8.28176143,0 C8.04352961,0 7.83263034,0.0936662157 7.64940105,0.280654286 L6.27501265,1.68358136 C6.09144593,1.87056943 6,2.08545074 6,2.32891403 C6,2.57237732 6.09144593,2.78725864 6.27501265,2.97424671 L17.0794668,14.0003444 L6.27501265,25.0267864 C6.09144593,25.2137744 6,25.4290001 6,25.6717747 C6,25.915238 6.09144593,26.1304637 6.27501265,26.3174517 L7.64940105,27.7196901 C7.83263034,27.9070225 8.04352961,28 8.28176143,28 C8.51999325,28 8.73089253,27.9066781 8.91412182,27.7196901 L21.7253248,14.645677 C21.9085541,14.458689 22,14.2434633 22,14.0003444 C22,13.7572254 21.9088915,13.5419998 21.7256622,13.3546673 L8.91412182,0.280654286 Z" id="Mask-Copy-5" transform="translate(14.000000, 14.000000) rotate(-270.000000) translate(-14.000000, -14.000000) "></path>
        </g>
        <g id="M-Corp_Icon_Chevron-Down_Up_White_Lg" transform="translate(195.000000, 274.000000)" fill="#FFFFFF">
            <path d="M8.91412182,0.280654286 C8.73089253,0.0936662157 8.51999325,0 8.28176143,0 C8.04352961,0 7.83263034,0.0936662157 7.64940105,0.280654286 L6.27501265,1.68358136 C6.09144593,1.87056943 6,2.08545074 6,2.32891403 C6,2.57237732 6.09144593,2.78725864 6.27501265,2.97424671 L17.0794668,14.0003444 L6.27501265,25.0267864 C6.09144593,25.2137744 6,25.4290001 6,25.6717747 C6,25.915238 6.09144593,26.1304637 6.27501265,26.3174517 L7.64940105,27.7196901 C7.83263034,27.9070225 8.04352961,28 8.28176143,28 C8.51999325,28 8.73089253,27.9066781 8.91412182,27.7196901 L21.7253248,14.645677 C21.9085541,14.458689 22,14.2434633 22,14.0003444 C22,13.7572254 21.9088915,13.5419998 21.7256622,13.3546673 L8.91412182,0.280654286 Z" id="Mask-Copy-6" transform="translate(14.000000, 14.000000) scale(1, -1) rotate(-270.000000) translate(-14.000000, -14.000000) "></path>
        </g>
        <g id="M-Corp_Circle-WebPage_L" transform="translate(0.000000, 337.000000)">
            <circle id="Oval-Copy-19" fill="#F4F4F4" cx="55" cy="55" r="55"></circle>
            <g id="Group-3" stroke-width="1" transform="translate(30.000000, 36.000000)">
                <g id="Group-3-Copy-2">
                    <g id="Icon-web-MC" transform="translate(0.800000, 0.666667)">
                        <g id="Icon-web" stroke="#FF0028">
                            <g id="Group" transform="translate(0.000000, 0.619931)">
                                <g id="Group-3-Copy-6">
                                    <rect id="Rectangle" stroke-width="2.5" fill="#FFFFFF" x="1.25" y="1.25" width="45.9" height="32.9268041" rx="6"></rect>
                                    <line x1="0.498969072" y1="8.5797354" x2="47.4020619" y2="8.5797354" id="Path-2" stroke-width="4.4"></line>
                                </g>
                            </g>
                        </g>
                        <text id="WWW." font-family="HelveticaNeue-Bold, Helvetica Neue" font-size="10.2666667" font-weight="bold" letter-spacing="0.0886666641" fill="#FF0028">
                            <tspan x="8.70661236" y="26.4825268">WWW.</tspan>
                        </text>
                    </g>
                </g>
                <g id="Group-2" transform="translate(0.483398, 0.753265)">
                    <path d="M5.44384766,0.534333051 L41.2499349,0.534333051 C44.5636434,0.534333051 47.2499349,3.22062455 47.2499349,6.53433305 L47.2499349,10.0666667 L47.2499349,10.0666667 L0.443847656,10.0666667 L0.443847656,5.53433305 C0.443847656,2.7729093 2.68242391,0.534333051 5.44384766,0.534333051 Z" id="Rectangle" fill="#FF0028"></path>
                    <circle id="Oval" fill="#FFFFFF" cx="43.3175784" cy="6.03333333" r="2.87972011"></circle>
                </g>
                <path d="M6.89758696,3.90687783 L36.9713867,3.90687783 C38.1864132,3.90687783 39.1713867,4.89185138 39.1713867,6.10687783 L39.1713867,9.86633333 L39.1713867,9.86633333 L3.39758696,9.86633333 L3.39758696,7.40687783 C3.39758696,5.4738812 4.96459033,3.90687783 6.89758696,3.90687783 Z" id="Rectangle" fill="#FFFFFF"></path>
            </g>
        </g>
        <g id="M-Corp_Circle-PDF_L" transform="translate(110.000000, 337.000000)">
            <g id="Group-2" fill="#F4F4F4">
                <g id="Group" transform="translate(-0.000000, 0.000000)">
                    <circle id="Oval-Copy-20" cx="55" cy="55" r="55"></circle>
                </g>
            </g>
            <g id="icon-pdf---MC-Copy" transform="translate(38.076923, 35.000000)">
                <g id="Group" transform="translate(0.355974, 0.562602)">
                    <g id="Group-9" transform="translate(2.846154, 0.000000)">
                        <path d="M1.4080011,10.2023022 L1.4080011,35.3294304 C1.4080011,37.0072766 2.75473221,38.3674304 4.41558214,38.3674304 L26.827462,38.3674304 C28.488312,38.3674304 29.8350431,37.0072766 29.8350431,35.3294304 L29.8350431,3.71348172 C29.8350431,2.03563557 28.488312,0.67512275 26.827462,0.67512275 L10.990757,0.67512275 L1.4080011,10.2023022 Z" id="Fill-1" fill="#FFFFFF" transform="translate(15.621522, 19.521277) scale(-1, 1) translate(-15.621522, -19.521277) "></path>
                        <g id="Group-2" transform="translate(15.348698, 19.790507) scale(-1, 1) translate(-15.348698, -19.790507) translate(0.348698, 0.290507)" stroke="#FF0028">
                            <path d="M0,11.2600733 L0,35.3615385 C0,37.0736264 1.37421542,38.4615385 3.06896025,38.4615385 L25.9382255,38.4615385 C27.6329703,38.4615385 29.0071857,37.0736264 29.0071857,35.3615385 L29.0071857,3.1003663 C29.0071857,1.38827839 27.6329703,0 25.9382255,0 L11.3167838,0 L0,11.2600733 Z" id="Stroke-3" stroke-width="2.5"></path>
                            <g id="Group-8" transform="translate(0.181295, 0.183297)" fill="#FF0028" stroke-width="0.769230769">
                                <path d="M11.2871264,0.411515425 L11.2871264,7.92741009 C11.2871264,9.87083185 9.71528088,11.4466916 7.77680969,11.4466916 L0.10255406,11.4466916" id="Stroke-7"></path>
                            </g>
                        </g>
                    </g>
                    <rect id="Rectangle" fill="#FF0028" x="0.261575541" y="17.3930101" width="24.6153846" height="13.0769231" rx="1.53846154"></rect>
                    <text id="PDF" font-family="HelveticaNeue-Bold, Helvetica Neue" font-size="10" font-weight="bold" letter-spacing="0.0863636342" fill="#FFFFFF">
                        <tspan x="3.14959748" y="27.3930101">PDF</tspan>
                    </text>
                </g>
            </g>
        </g>
        <g id="M-Corp_Circle-PDF_Sm" transform="translate(223.000000, 316.000000)">
            <g id="Web-R12-110-PDF-icon-Copy-4" fill="#F4F4F4">
                <g id="Group-2">
                    <circle id="Oval-Copy-20" cx="25" cy="25" r="25"></circle>
                </g>
            </g>
            <g id="icon-pdf---MC-Copy" transform="translate(15.083333, 13.000000)">
                <g id="Group" transform="translate(0.207961, 0.328674)">
                    <g id="Group-9" transform="translate(1.662732, 0.000000)">
                        <path d="M0.822558674,5.96021707 L0.822558674,20.6395644 C0.822558674,21.6197674 1.60932323,22.4143736 2.57959698,22.4143736 L15.6726878,22.4143736 C16.6429615,22.4143736 17.4297261,21.6197674 17.4297261,20.6395644 L17.4297261,2.16942771 C17.4297261,1.18922471 16.6429615,0.394408835 15.6726878,0.394408835 L6.4208348,0.394408835 L0.822558674,5.96021707 Z" id="Fill-1" fill="#FFFFFF" transform="translate(9.126142, 11.404391) scale(-1, 1) translate(-9.126142, -11.404391) "></path>
                        <g id="Group-2" transform="translate(9.229805, 11.669715) scale(-1, 1) translate(-9.229805, -11.669715) translate(0.729805, 0.169715)" stroke="#FF0028">
                            <path d="M0,6.57817023 L0,20.658322 C0,21.6585292 0.802820974,22.4693518 1.79289623,22.4693518 L15.1531929,22.4693518 C16.1432682,22.4693518 16.9460892,21.6585292 16.9460892,20.658322 L16.9460892,1.81124375 C16.9460892,0.811036603 16.1432682,0 15.1531929,0 L6.61130073,0 L0,6.57817023 Z" id="Stroke-3" stroke-width="1.46050787"></path>
                            <g id="Group-8" transform="translate(0.105913, 0.107083)" fill="#FF0028" stroke-width="0.5">
                                <path d="M6.59397474,0.240408606 L6.59397474,4.63121792 C6.59397474,5.76657103 5.67569766,6.68719325 4.54323669,6.68719325 L0.0599124046,6.68719325" id="Stroke-7"></path>
                            </g>
                        </g>
                    </g>
                    <rect id="Rectangle" fill="#FF0028" x="0.152813254" y="10.1610512" width="14.3803852" height="7.63957961" rx="0.898774072"></rect>
                    <text id="PDF" font-family="HelveticaNeue-Bold, Helvetica Neue" font-size="5.84203147" font-weight="bold" letter-spacing="0.0504539082" fill="#FFFFFF">
                        <tspan x="1.84000475" y="16.1610512">PDF</tspan>
                    </text>
                </g>
            </g>
        </g>
        <g id="M-Corp_Circle-WebPage_Sm" transform="translate(223.000000, 366.000000)">
            <g id="Web-R12-110-PDF-icon-Copy-2" fill="#F4F4F4">
                <circle id="Oval-Copy-19" cx="25" cy="25" r="25"></circle>
            </g>
            <g id="Group-3-Copy" transform="translate(10.000000, 14.000000)">
                <g id="Group-3-Copy-2">
                    <g id="Icon-web-MC" transform="translate(0.467363, 0.389469)">
                        <g id="Group-3-Copy-6" transform="translate(0.000000, 0.362166)" stroke="#FF0028">
                            <rect id="Rectangle" stroke-width="1.46050787" fill="#FFFFFF" x="0.730253934" y="0.730253934" width="26.8149244" height="19.2359426" rx="3.50521888"></rect>
                            <line x1="0.291499302" y1="5.01230842" x2="27.6924337" y2="5.01230842" id="Path-2" stroke-width="2.57049385"></line>
                        </g>
                        <text id="WWW." font-family="HelveticaNeue-Bold, Helvetica Neue" font-size="5.99781897" font-weight="bold" letter-spacing="0.0517993434" fill="#FF0028">
                            <tspan x="5.08643034" y="15.629144">WWW.</tspan>
                        </text>
                    </g>
                </g>
                <g id="Group-2" transform="translate(0.282403, 0.440060)">
                    <path d="M3.15267621,0.384131706 L24.0707051,0.384131706 C26.006584,0.384131706 27.5759239,1.95347165 27.5759239,3.88935059 L27.5759239,5.952951 L27.5759239,5.952951 L0.231660479,5.952951 L0.231660479,3.30514744 C0.231660479,1.691915 1.53944377,0.384131706 3.15267621,0.384131706 Z" id="Rectangle" fill="#FF0028"></path>
                    <circle id="Oval" fill="#FFFFFF" cx="25.3062656" cy="3.52469232" r="1.68234155"></circle>
                </g>
                <path d="M4.02959201,2.28241032 L21.5988005,2.28241032 C22.3086227,2.28241032 22.8840474,2.85783497 22.8840474,3.56765725 L22.8840474,5.76394298 L22.8840474,5.76394298 L1.98488099,5.76394298 L1.98488099,4.32712134 C1.98488099,3.19785863 2.9003293,2.28241032 4.02959201,2.28241032 Z" id="Rectangle" fill="#FFFFFF"></path>
            </g>
        </g>
        <g id="M-Corp_Icon_PDF_L" transform="translate(223.000000, 274.000000)">
            <g id="Group-9" transform="translate(3.202128, 1.562602)">
                <path d="M1.4080011,10.2023022 L1.4080011,35.3294304 C1.4080011,37.0072766 2.75473221,38.3674304 4.41558214,38.3674304 L26.827462,38.3674304 C28.488312,38.3674304 29.8350431,37.0072766 29.8350431,35.3294304 L29.8350431,3.71348172 C29.8350431,2.03563557 28.488312,0.67512275 26.827462,0.67512275 L10.990757,0.67512275 L1.4080011,10.2023022 Z" id="Fill-1" fill="#FFFFFF" transform="translate(15.621522, 19.521277) scale(-1, 1) translate(-15.621522, -19.521277) "></path>
                <g id="Group-2" transform="translate(15.348698, 19.790507) scale(-1, 1) translate(-15.348698, -19.790507) translate(0.348698, 0.290507)" stroke="#FF0028">
                    <path d="M0,11.2600733 L0,35.3615385 C0,37.0736264 1.37421542,38.4615385 3.06896025,38.4615385 L25.9382255,38.4615385 C27.6329703,38.4615385 29.0071857,37.0736264 29.0071857,35.3615385 L29.0071857,3.1003663 C29.0071857,1.38827839 27.6329703,0 25.9382255,0 L11.3167838,0 L0,11.2600733 Z" id="Stroke-3" stroke-width="2.5" fill="#FFFFFF"></path>
                    <g id="Group-8" transform="translate(0.181295, 0.183297)" fill="#FF0028" stroke-width="0.769230769">
                        <path d="M11.2871264,0.411515425 L11.2871264,7.92741009 C11.2871264,9.87083185 9.71528088,11.4466916 7.77680969,11.4466916 L0.10255406,11.4466916" id="Stroke-7"></path>
                    </g>
                </g>
            </g>
            <g id="Group" transform="translate(0.617549, 18.955612)">
                <rect id="Rectangle" fill="#FF0028" x="-8.41993142e-13" y="0" width="24.6153846" height="13.0769231" rx="1.53846154"></rect>
                <text id="PDF" font-family="HelveticaNeue-Bold, Helvetica Neue" font-size="10" font-weight="bold" letter-spacing="0.0863636342" fill="#FFFFFF">
                    <tspan x="2.88802193" y="10">PDF</tspan>
                </text>
            </g>
        </g>
        <g id="M-Corp_Icon_CTA_Cheveron-RIght_Red_Md" transform="translate(167.000000, 302.000000)" fill="#FF0028">
            <path d="M-1.429,6.57893814 C-1.759,6.24893814 -1.759,5.71493814 -1.429,5.38593814 L-0.632,4.58893814 C-0.303,4.25993814 0.23,4.25893814 0.56,4.58693814 L6,10.0019381 L11.441,4.58693814 C11.77,4.25893814 12.303,4.25993814 12.632,4.58893814 L13.429,5.38593814 C13.759,5.71493814 13.759,6.24893814 13.429,6.57893814 L6.597,13.4109381 C6.267,13.7409381 5.733,13.7409381 5.404,13.4109381 L-1.429,6.57893814 Z" id="Fill-1-Copy" transform="translate(6.000000, 9.000000) scale(-1, 1) rotate(90.000000) translate(-6.000000, -9.000000) "></path>
        </g>
        <g id="M-Corp_Icon_Nav-Menu" transform="translate(231.000000, 416.000000)" fill="#000000">
            <g id="Group" transform="translate(0.000000, 9.000000)">
                <rect id="Rectangle" x="0" y="0" width="42" height="4" rx="1"></rect>
                <rect id="Rectangle-Copy" x="0" y="10" width="42" height="4" rx="1"></rect>
                <rect id="Rectangle-Copy-2" x="0" y="20" width="42" height="4" rx="1"></rect>
            </g>
        </g>
        <g id="M-Corp_Icon_Nav-Close" transform="translate(231.000000, 458.000000)" fill="#000000">
            <rect id="Rectangle" transform="translate(21.000000, 21.000000) rotate(-45.000000) translate(-21.000000, -21.000000) " x="6.02308515" y="19" width="29.9538297" height="4" rx="1"></rect>
            <rect id="Rectangle" transform="translate(21.000000, 21.000000) rotate(45.000000) translate(-21.000000, -21.000000) " x="6.02308515" y="19" width="29.9538297" height="4" rx="1"></rect>
        </g>
    </g>
</svg>