<?xml version="1.0" standalone="no"?><!DOCTYPE svg PUBLIC "-//W3C//DTD SVG 1.1//EN" "http://www.w3.org/Graphics/SVG/1.1/DTD/svg11.dtd" ><svg version="1.1" xmlns="http://www.w3.org/2000/svg"><defs><font horiz-adv-x="0" id="font"><font-face ascent="750" bbox="-53 -222 1527 996" cap-height="700" descent="-250" font-family="Maax" font-stretch="normal" font-style="normal" font-weight="250" units-per-em="1000" x-height="490" /><missing-glyph d="M323 202C305 202 292 188 292 171C292 153 305 139 323 139C340 139 353 153 353 171C353 188 340 202 323 202ZM332 153 324 165H317V153H309V190H326C334 190 339 185 339 178C339 172 336 168 331 166L340 153ZM175 400C165 417 145 422 128 412C112 402 106 383 115 366C125 349 145 345 162 354C178 364 184 384 175 400ZM324 184H317V171H324C329 171 332 173 332 178C332 181 329 184 324 184ZM290 412C267 399 269 368 288 334C293 326 297 320 303 314L332 406C318 417 303 420 290 412ZM344 394 316 302C329 291 343 289 357 296C379 310 377 340 358 374C354 382 349 388 344 394ZM324 684 40 520V192L324 28L609 192V520ZM338 561H385V553H346V528H382V520H346V486H338ZM260 561H315V553H291V486H283V553H260ZM157 259 150 272 170 342 166 339C144 326 115 334 101 358C87 382 96 412 120 426C145 440 175 433 189 409C199 392 196 374 190 354L170 285L238 325L246 310ZM323 130C300 130 283 148 283 171C283 193 300 211 323 211C345 211 363 193 363 171C363 148 345 130 323 130ZM365 282C329 262 294 289 273 326C252 362 247 406 282 426C317 446 352 420 373 383C394 347 400 303 365 282ZM523 281C503 269 483 272 468 278L473 295C486 288 500 287 516 296C535 307 541 328 531 348C520 365 499 370 482 360C467 352 462 338 464 326L450 318L403 400L481 445L489 431L426 394L452 348C456 359 463 368 475 375C497 388 529 385 545 356C560 332 555 299 523 281Z" horiz-adv-x="649" /><glyph d="M345 657 517 213H174ZM378 700H313L40 0H91L155 165H536L602 0H651Z" glyph-name="A" horiz-adv-x="691" unicode="A" /><glyph d="M260 652H390L508 213H145ZM425 700H229L40 0H91L134 165H520L566 0H614Z" glyph-name="A.ss01" horiz-adv-x="654" /><glyph d="M362 596 537 214H186ZM362 701 40 0H88L164 166H559L636 0H684Z" glyph-name="A.ss02" horiz-adv-x="724" /><glyph d="M345 657 498 261H192ZM378 700H313L40 0H91L173 213H517L602 0H651Z" glyph-name="A.ss03" horiz-adv-x="691" /><glyph d="M345 657 517 213H174ZM815 700H313L40 0H91L155 165H536L602 0H815V48H633L522 333H796V381H503L397 652H815Z" glyph-name="AE" horiz-adv-x="865" unicode="&#198;" /><glyph d="M260 652H390L508 213H145ZM809 0V48H601L524 333H790V381H511L438 652H809V700H229L40 0H91L134 165H520L566 0Z" glyph-name="AE.ss01" horiz-adv-x="859" /><glyph d="M362 596 537 214H186ZM362 701 40 0H88L164 166H559L636 0H841V48H662L531 333H822V381H509L384 653H841V701Z" glyph-name="AE.ss02" horiz-adv-x="891" /><glyph d="M345 657 499 261H192ZM602 0H823V48H632L521 333H804V381H502L396 652H823V700H313L40 0H91L173 213H519Z" glyph-name="AE.ss03" horiz-adv-x="873" /><glyph d="M345 657 517 213H174ZM815 700H313L40 0H91L155 165H536L602 0H815V48H633L522 333H796V381H503L397 652H815ZM606 769 720 872H642L551 769Z" glyph-name="AEacute" horiz-adv-x="865" unicode="&#508;" /><glyph d="M260 652H390L508 213H145ZM809 0V48H601L524 333H790V381H511L438 652H809V700H229L40 0H91L134 165H520L566 0ZM501 769 615 872H537L446 769Z" glyph-name="AEacute.ss01" horiz-adv-x="859" /><glyph d="M362 596 537 214H186ZM362 701 40 0H88L164 166H559L636 0H841V48H662L531 333H822V381H509L384 653H841V701ZM611 769 725 872H647L556 769Z" glyph-name="AEacute.ss02" horiz-adv-x="891" /><glyph d="M345 657 499 261H192ZM602 0H823V48H632L521 333H804V381H502L396 652H823V700H313L40 0H91L173 213H519ZM601 769 715 872H637L546 769Z" glyph-name="AEacute.ss03" horiz-adv-x="873" /><glyph d="M345 657 517 213H174ZM378 700H313L40 0H91L155 165H536L602 0H651ZM356 769 470 872H392L301 769Z" glyph-name="Aacute" horiz-adv-x="691" unicode="&#193;" /><glyph d="M260 652H390L508 213H145ZM425 700H229L40 0H91L134 165H520L566 0H614ZM338 769 452 872H374L283 769Z" glyph-name="Aacute.ss01" horiz-adv-x="654" /><glyph d="M362 596 537 214H186ZM362 701 40 0H88L164 166H559L636 0H684ZM373 769 487 872H409L318 769Z" glyph-name="Aacute.ss02" horiz-adv-x="724" /><glyph d="M345 657 498 261H192ZM378 700H313L40 0H91L173 213H517L602 0H651ZM356 769 470 872H392L301 769Z" glyph-name="Aacute.ss03" horiz-adv-x="691" /><glyph d="M345 657 517 213H174ZM378 700H313L40 0H91L155 165H536L602 0H651ZM467 872H420C414 829 393 806 345 806C298 806 274 830 270 872H223C230 798 271 759 346 759C422 759 461 802 467 872Z" glyph-name="Abreve" horiz-adv-x="691" unicode="&#258;" /><glyph d="M260 652H390L508 213H145ZM425 700H229L40 0H91L134 165H520L566 0H614ZM449 872H402C396 829 375 806 327 806C280 806 256 830 252 872H205C212 798 253 759 328 759C404 759 443 802 449 872Z" glyph-name="Abreve.ss01" horiz-adv-x="654" /><glyph d="M362 596 537 214H186ZM362 701 40 0H88L164 166H559L636 0H684ZM484 872H437C431 829 410 806 362 806C315 806 291 830 287 872H240C247 798 288 759 363 759C439 759 478 802 484 872Z" glyph-name="Abreve.ss02" horiz-adv-x="724" /><glyph d="M345 657 498 261H192ZM378 700H313L40 0H91L173 213H517L602 0H651ZM467 872H420C414 829 393 806 345 806C298 806 274 830 270 872H223C230 798 271 759 346 759C422 759 461 802 467 872Z" glyph-name="Abreve.ss03" horiz-adv-x="691" /><glyph d="M345 657 517 213H174ZM378 700H313L40 0H91L155 165H536L602 0H651ZM209 769H270L346 837L420 769H482L378 872H312Z" glyph-name="Acircumflex" horiz-adv-x="691" unicode="&#194;" /><glyph d="M260 652H390L508 213H145ZM425 700H229L40 0H91L134 165H520L566 0H614ZM191 769H252L328 837L402 769H464L360 872H294Z" glyph-name="Acircumflex.ss01" horiz-adv-x="654" /><glyph d="M362 596 537 214H186ZM362 701 40 0H88L164 166H559L636 0H684ZM226 769H287L363 837L437 769H499L395 872H329Z" glyph-name="Acircumflex.ss02" horiz-adv-x="724" /><glyph d="M345 657 498 261H192ZM378 700H313L40 0H91L173 213H517L602 0H651ZM209 769H270L346 837L420 769H482L378 872H312Z" glyph-name="Acircumflex.ss03" horiz-adv-x="691" /><glyph d="M345 657 517 213H174ZM378 700H313L40 0H91L155 165H536L602 0H651ZM433 769C458 769 478 789 478 814C478 839 458 859 433 859C408 859 388 839 388 814C388 789 408 769 433 769ZM257 769C282 769 302 789 302 814C302 839 282 859 257 859C232 859 212 839 212 814C212 789 232 769 257 769Z" glyph-name="Adieresis" horiz-adv-x="691" unicode="&#196;" /><glyph d="M260 652H390L508 213H145ZM425 700H229L40 0H91L134 165H520L566 0H614ZM415 769C440 769 460 789 460 814C460 839 440 859 415 859C390 859 370 839 370 814C370 789 390 769 415 769ZM239 769C264 769 284 789 284 814C284 839 264 859 239 859C214 859 194 839 194 814C194 789 214 769 239 769Z" glyph-name="Adieresis.ss01" horiz-adv-x="654" /><glyph d="M362 596 537 214H186ZM362 701 40 0H88L164 166H559L636 0H684ZM450 769C475 769 495 789 495 814C495 839 475 859 450 859C425 859 405 839 405 814C405 789 425 769 450 769ZM274 769C299 769 319 789 319 814C319 839 299 859 274 859C249 859 229 839 229 814C229 789 249 769 274 769Z" glyph-name="Adieresis.ss02" horiz-adv-x="724" /><glyph d="M345 657 498 261H192ZM378 700H313L40 0H91L173 213H517L602 0H651ZM217 780H297V861H217ZM394 780H474V861H394Z" glyph-name="Adieresis.ss03" horiz-adv-x="691" /><glyph d="M345 657 517 213H174ZM378 700H313L40 0H91L155 165H536L602 0H651ZM390 769 299 872H221L335 769Z" glyph-name="Agrave" horiz-adv-x="691" unicode="&#192;" /><glyph d="M260 652H390L508 213H145ZM425 700H229L40 0H91L134 165H520L566 0H614ZM372 769 281 872H203L317 769Z" glyph-name="Agrave.ss01" horiz-adv-x="654" /><glyph d="M362 596 537 214H186ZM362 701 40 0H88L164 166H559L636 0H684ZM407 769 316 872H238L352 769Z" glyph-name="Agrave.ss02" horiz-adv-x="724" /><glyph d="M345 657 498 261H192ZM378 700H313L40 0H91L173 213H517L602 0H651ZM390 769 299 872H221L335 769Z" glyph-name="Agrave.ss03" horiz-adv-x="691" /><glyph d="M345 657 517 213H174ZM378 700H313L40 0H91L155 165H536L602 0H651ZM459 797V844H231V797Z" glyph-name="Amacron" horiz-adv-x="691" unicode="&#256;" /><glyph d="M260 652H390L508 213H145ZM425 700H229L40 0H91L134 165H520L566 0H614ZM441 797V844H213V797Z" glyph-name="Amacron.ss01" horiz-adv-x="654" /><glyph d="M362 596 537 214H186ZM362 701 40 0H88L164 166H559L636 0H684ZM476 797V844H248V797Z" glyph-name="Amacron.ss02" horiz-adv-x="724" /><glyph d="M345 657 498 261H192ZM378 700H313L40 0H91L173 213H517L602 0H651ZM459 797V844H231V797Z" glyph-name="Amacron.ss03" horiz-adv-x="691" /><glyph d="M604 0C556 -28 532 -66 532 -101C532 -144 560 -172 612 -172C635 -172 650 -166 650 -166V-134H643C600 -134 581 -116 581 -91C581 -60 599 -39 650 0H651L378 700H313L40 0H91L155 165H536L602 0ZM345 657 517 213H174Z" glyph-name="Aogonek" horiz-adv-x="691" unicode="&#260;" /><glyph d="M569 0C521 -28 497 -66 497 -101C497 -144 525 -172 577 -172C600 -172 615 -166 615 -166V-134H608C565 -134 546 -116 546 -91C546 -60 564 -39 615 0H614L425 700H229L40 0H91L134 165H520L566 0ZM260 652H390L508 213H145Z" glyph-name="Aogonek.ss01" horiz-adv-x="654" /><glyph d="M639 0C591 -28 567 -66 567 -101C567 -144 595 -172 647 -172C670 -172 685 -166 685 -166V-134H678C635 -134 616 -116 616 -91C616 -60 634 -39 685 0H684L362 701L40 0H88L164 166H559L636 0ZM362 596 537 214H186Z" glyph-name="Aogonek.ss02" horiz-adv-x="724" /><glyph d="M604 0C556 -28 532 -66 532 -101C532 -144 560 -172 612 -172C635 -172 650 -166 650 -166V-134H643C600 -134 581 -116 581 -91C581 -60 599 -39 650 0H651L378 700H313L40 0H91L173 213H517L602 0ZM345 657 498 261H192Z" glyph-name="Aogonek.ss03" horiz-adv-x="691" /><glyph d="M91 0 155 165H536L602 0H651L379 698C403 710 420 735 420 764C420 806 387 839 345 839C305 839 270 806 270 764C270 735 287 710 312 698L40 0ZM345 657 517 213H174ZM345 801C366 801 382 785 382 764C382 744 366 728 345 728C325 728 308 744 308 764C308 785 325 801 345 801Z" glyph-name="Aring" horiz-adv-x="691" unicode="&#197;" /><glyph d="M425 700H364C387 713 402 737 402 764C402 806 369 839 327 839C287 839 252 806 252 764C252 737 268 713 290 700H229L40 0H91L134 165H520L566 0H614ZM260 652H390L508 213H145ZM327 801C348 801 364 785 364 764C364 744 348 728 327 728C307 728 290 744 290 764C290 785 307 801 327 801Z" glyph-name="Aring.ss01" horiz-adv-x="654" /><glyph d="M88 0 164 166H559L636 0H684L367 690C406 692 437 725 437 764C437 806 404 839 362 839C322 839 287 806 287 764C287 725 319 692 357 690L40 0ZM362 596 537 214H186ZM362 801C383 801 399 785 399 764C399 744 383 728 362 728C342 728 325 744 325 764C325 785 342 801 362 801Z" glyph-name="Aring.ss02" horiz-adv-x="724" /><glyph d="M91 0 173 213H517L602 0H651L379 698C403 710 420 735 420 764C420 806 387 839 345 839C305 839 270 806 270 764C270 735 287 710 312 698L40 0ZM345 657 498 261H192ZM345 801C366 801 382 785 382 764C382 744 366 728 345 728C325 728 308 744 308 764C308 785 325 801 345 801Z" glyph-name="Aring.ss03" horiz-adv-x="691" /><glyph d="M91 0 155 165H536L602 0H651L379 698C403 710 420 735 420 764C420 806 387 839 345 839C305 839 270 806 270 764C270 735 287 710 312 698L40 0ZM345 657 517 213H174ZM356 893 470 996H392L301 893ZM345 801C366 801 382 785 382 764C382 744 366 728 345 728C325 728 308 744 308 764C308 785 325 801 345 801Z" glyph-name="Aringacute" horiz-adv-x="691" unicode="&#506;" /><glyph d="M425 700H364C387 713 402 737 402 764C402 806 369 839 327 839C287 839 252 806 252 764C252 737 268 713 290 700H229L40 0H91L134 165H520L566 0H614ZM260 652H390L508 213H145ZM321 893 435 996H357L266 893ZM327 801C348 801 364 785 364 764C364 744 348 728 327 728C307 728 290 744 290 764C290 785 307 801 327 801Z" glyph-name="Aringacute.ss01" horiz-adv-x="654" /><glyph d="M88 0 164 166H559L636 0H684L367 690C406 692 437 725 437 764C437 806 404 839 362 839C322 839 287 806 287 764C287 725 319 692 357 690L40 0ZM362 596 537 214H186ZM373 893 487 996H409L318 893ZM362 801C383 801 399 785 399 764C399 744 383 728 362 728C342 728 325 744 325 764C325 785 342 801 362 801Z" glyph-name="Aringacute.ss02" horiz-adv-x="724" /><glyph d="M91 0 173 213H517L602 0H651L379 698C403 710 420 735 420 764C420 806 387 839 345 839C305 839 270 806 270 764C270 735 287 710 312 698L40 0ZM345 657 498 261H192ZM348 893 462 996H384L293 893ZM345 801C366 801 382 785 382 764C382 744 366 728 345 728C325 728 308 744 308 764C308 785 325 801 345 801Z" glyph-name="Aringacute.ss03" horiz-adv-x="691" /><glyph d="M345 657 517 213H174ZM378 700H313L40 0H91L155 165H536L602 0H651ZM440 862C434 844 426 828 401 828C383 828 364 836 345 844C323 853 306 862 281 862C244 862 215 830 211 780H249C254 799 263 814 288 814C305 814 321 806 337 800C360 791 384 780 409 780C446 780 475 812 479 862Z" glyph-name="Atilde" horiz-adv-x="691" unicode="&#195;" /><glyph d="M260 652H390L508 213H145ZM425 700H229L40 0H91L134 165H520L566 0H614ZM422 862C416 844 408 828 383 828C365 828 346 836 327 844C305 853 288 862 263 862C226 862 197 830 193 780H231C236 799 245 814 270 814C287 814 303 806 319 800C342 791 366 780 391 780C428 780 457 812 461 862Z" glyph-name="Atilde.ss01" horiz-adv-x="654" /><glyph d="M362 596 537 214H186ZM362 701 40 0H88L164 166H559L636 0H684ZM457 862C451 844 443 828 418 828C400 828 381 836 362 844C340 853 323 862 298 862C261 862 232 830 228 780H266C271 799 280 814 305 814C322 814 338 806 354 800C377 791 401 780 426 780C463 780 492 812 496 862Z" glyph-name="Atilde.ss02" horiz-adv-x="724" /><glyph d="M345 657 498 261H192ZM378 700H313L40 0H91L173 213H517L602 0H651ZM440 862C434 844 426 828 401 828C383 828 364 836 345 844C323 853 306 862 281 862C244 862 215 830 211 780H249C254 799 263 814 288 814C305 814 321 806 337 800C360 791 384 780 409 780C446 780 475 812 479 862Z" glyph-name="Atilde.ss03" horiz-adv-x="691" /><glyph d="M90 0H363C517 0 599 73 599 192C599 258 570 336 483 365C545 395 580 450 580 522C580 636 495 700 346 700H90ZM358 652C453 652 532 615 532 519C532 424 454 381 359 381H138V652ZM138 48V333H378C472 333 551 290 551 195C551 94 476 48 374 48Z" glyph-name="B" horiz-adv-x="649" unicode="B" /><glyph d="M315 75C466 75 590 198 590 350C590 501 466 625 315 625C163 625 40 501 40 350C40 198 163 75 315 75Z" glyph-name="BlackCircle" horiz-adv-x="630" unicode="&#9679;" /><glyph d="M80 137H571V628H80Z" glyph-name="BlackSquare" horiz-adv-x="651" unicode="&#9632;" /><glyph d="M658 145C605 77 520 37 423 37C251 37 121 174 121 350C121 530 251 664 423 664C521 664 588 621 642 556L676 590C612 664 529 712 420 712C227 712 70 551 70 350C70 148 226 -11 420 -11C527 -11 626 32 690 109Z" glyph-name="C" horiz-adv-x="740" unicode="C" /><glyph d="M556 149C512 81 448 37 366 37C217 37 121 169 121 350C121 535 217 664 366 664C449 664 501 620 546 555L583 594C530 668 461 712 364 712C191 712 70 561 70 350C70 138 190 -11 364 -11C462 -11 538 32 591 109Z" glyph-name="C.ss03" horiz-adv-x="642" /><glyph d="M658 145C605 77 520 37 423 37C251 37 121 174 121 350C121 530 251 664 423 664C521 664 588 621 642 556L676 590C612 664 529 712 420 712C227 712 70 551 70 350C70 148 226 -11 420 -11C527 -11 626 32 690 109ZM411 769 525 872H447L356 769Z" glyph-name="Cacute" horiz-adv-x="740" unicode="&#262;" /><glyph d="M556 149C512 81 448 37 366 37C217 37 121 169 121 350C121 535 217 664 366 664C449 664 501 620 546 555L583 594C530 668 461 712 364 712C191 712 70 561 70 350C70 138 190 -11 364 -11C462 -11 538 32 591 109ZM369 769 483 872H405L314 769Z" glyph-name="Cacute.ss03" horiz-adv-x="642" /><glyph d="M658 145C605 77 520 37 423 37C251 37 121 174 121 350C121 530 251 664 423 664C521 664 588 621 642 556L676 590C612 664 529 712 420 712C227 712 70 551 70 350C70 148 226 -11 420 -11C527 -11 626 32 690 109ZM567 872H505L431 804L355 872H294L397 769H463Z" glyph-name="Ccaron" horiz-adv-x="740" unicode="&#268;" /><glyph d="M556 149C512 81 448 37 366 37C217 37 121 169 121 350C121 535 217 664 366 664C449 664 501 620 546 555L583 594C530 668 461 712 364 712C191 712 70 561 70 350C70 138 190 -11 364 -11C462 -11 538 32 591 109ZM495 872H433L359 804L283 872H222L325 769H391Z" glyph-name="Ccaron.ss03" horiz-adv-x="642" /><glyph d="M658 145C605 77 520 37 423 37C251 37 121 174 121 350C121 530 251 664 423 664C521 664 588 621 642 556L676 590C612 664 529 712 420 712C227 712 70 551 70 350C70 157 212 3 394 -10L334 -137H390L445 -10C542 -4 631 38 690 109Z" glyph-name="Ccedilla" horiz-adv-x="740" unicode="&#199;" /><glyph d="M658 145C605 77 520 37 423 37C251 37 121 174 121 350C121 530 251 664 423 664C521 664 588 621 642 556L676 590C612 664 529 712 420 712C227 712 70 551 70 350C70 165 200 17 370 -7V-137H415V-11H420C527 -11 626 32 690 109Z" glyph-name="Ccedilla.ss01" horiz-adv-x="740" /><glyph d="M556 149C512 81 448 37 366 37C217 37 121 169 121 350C121 535 217 664 366 664C449 664 501 620 546 555L583 594C530 668 461 712 364 712C191 712 70 561 70 350C70 143 183 -2 350 -10L290 -137H346L401 -8C481 1 545 42 591 109Z" glyph-name="Ccedilla.ss03" horiz-adv-x="642" /><glyph d="M658 145C605 77 520 37 423 37C251 37 121 174 121 350C121 530 251 664 423 664C521 664 588 621 642 556L676 590C612 664 529 712 420 712C227 712 70 551 70 350C70 148 226 -11 420 -11C527 -11 626 32 690 109ZM294 769H355L431 837L505 769H567L463 872H397Z" glyph-name="Ccircumflex" horiz-adv-x="740" unicode="&#264;" /><glyph d="M556 149C512 81 448 37 366 37C217 37 121 169 121 350C121 535 217 664 366 664C449 664 501 620 546 555L583 594C530 668 461 712 364 712C191 712 70 561 70 350C70 138 190 -11 364 -11C462 -11 538 32 591 109ZM222 769H283L359 837L433 769H495L391 872H325Z" glyph-name="Ccircumflex.ss03" horiz-adv-x="642" /><glyph d="M658 145C605 77 520 37 423 37C251 37 121 174 121 350C121 530 251 664 423 664C521 664 588 621 642 556L676 590C612 664 529 712 420 712C227 712 70 551 70 350C70 148 226 -11 420 -11C527 -11 626 32 690 109ZM420 775C445 775 465 795 465 820C465 845 445 865 420 865C395 865 375 845 375 820C375 795 395 775 420 775Z" glyph-name="Cdotaccent" horiz-adv-x="740" unicode="&#266;" /><glyph d="M556 149C512 81 448 37 366 37C217 37 121 169 121 350C121 535 217 664 366 664C449 664 501 620 546 555L583 594C530 668 461 712 364 712C191 712 70 561 70 350C70 138 190 -11 364 -11C462 -11 538 32 591 109ZM318 780H398V861H318Z" glyph-name="Cdotaccent.ss03" horiz-adv-x="642" /><glyph d="M90 0H262C495 0 638 121 638 355C638 602 475 700 262 700H90ZM271 652C436 652 587 575 587 355C587 128 436 48 272 48H138V652Z" glyph-name="D" horiz-adv-x="708" unicode="D" /><glyph d="M90 0H247C490 0 598 121 598 355C598 602 470 700 247 700H90ZM256 652C431 652 550 575 550 355C550 128 431 48 257 48H138V652Z" glyph-name="D.ss03" horiz-adv-x="668" /><glyph d="M90 0H262C495 0 638 121 638 355C638 602 475 700 262 700H90ZM271 652C436 652 587 575 587 355C587 128 436 48 272 48H138V652ZM497 872H435L361 804L285 872H224L327 769H393Z" glyph-name="Dcaron" horiz-adv-x="708" unicode="&#270;" /><glyph d="M90 0H247C490 0 598 121 598 355C598 602 470 700 247 700H90ZM256 652C431 652 550 575 550 355C550 128 431 48 257 48H138V652ZM469 872H407L333 804L257 872H196L299 769H365Z" glyph-name="Dcaron.ss03" horiz-adv-x="668" /><glyph d="M90 0H262C495 0 638 121 638 355C638 602 475 700 262 700H90V379H10V335H90ZM271 652C436 652 587 575 587 355C587 128 436 48 272 48H138V335H316V379H138V652Z" glyph-name="Dcroat" horiz-adv-x="708" unicode="&#272;" /><glyph d="M90 0H247C490 0 598 121 598 355C598 602 470 700 247 700H90V379H10V335H90ZM256 652C431 652 550 575 550 355C550 128 431 48 257 48H138V335H316V379H138V652Z" glyph-name="Dcroat.ss03" horiz-adv-x="668" /><glyph d="M324 700 80 50V0H613V50L370 700ZM347 637 566 46H128Z" glyph-name="Delta" horiz-adv-x="693" unicode="&#8710;" /><glyph d="M324 700 80 50V0H613V50L370 700ZM347 637 566 46H128Z" glyph-name="Deltagreek" horiz-adv-x="693" unicode="&#916;" /><glyph d="M40 385 359 66 678 385 359 704Z" glyph-name="Diamond" horiz-adv-x="718" unicode="&#9670;" /><glyph d="M380 80 720 620H40Z" glyph-name="DownTriangle" horiz-adv-x="760" unicode="&#9660;" /><glyph d="M362 -12 674 299 639 335 386 81V701H338V81L85 335L50 299Z" glyph-name="DownwArrow" horiz-adv-x="724" unicode="&#8595;" /><glyph d="M90 0H535V48H138V333H516V381H138V652H535V700H90Z" glyph-name="E" horiz-adv-x="585" unicode="E" /><glyph d="M90 0H535V48H138V333H516V381H138V652H535V700H90ZM336 769 450 872H372L281 769Z" glyph-name="Eacute" horiz-adv-x="585" unicode="&#201;" /><glyph d="M90 0H535V48H138V333H516V381H138V652H535V700H90ZM447 872H400C394 829 373 806 325 806C278 806 254 830 250 872H203C210 798 251 759 326 759C402 759 441 802 447 872Z" glyph-name="Ebreve" horiz-adv-x="585" unicode="&#276;" /><glyph d="M90 0H535V48H138V333H516V381H138V652H535V700H90ZM462 872H400L326 804L250 872H189L292 769H358Z" glyph-name="Ecaron" horiz-adv-x="585" unicode="&#282;" /><glyph d="M90 0H535V48H138V333H516V381H138V652H535V700H90ZM189 769H250L326 837L400 769H462L358 872H292Z" glyph-name="Ecircumflex" horiz-adv-x="585" unicode="&#202;" /><glyph d="M90 0H535V48H138V333H516V381H138V652H535V700H90ZM413 769C438 769 458 789 458 814C458 839 438 859 413 859C388 859 368 839 368 814C368 789 388 769 413 769ZM237 769C262 769 282 789 282 814C282 839 262 859 237 859C212 859 192 839 192 814C192 789 212 769 237 769Z" glyph-name="Edieresis" horiz-adv-x="585" unicode="&#203;" /><glyph d="M90 0H535V48H138V333H516V381H138V652H535V700H90ZM197 780H277V861H197ZM374 780H454V861H374Z" glyph-name="Edieresis.ss03" horiz-adv-x="585" /><glyph d="M90 0H535V48H138V333H516V381H138V652H535V700H90ZM325 775C350 775 370 795 370 820C370 845 350 865 325 865C300 865 280 845 280 820C280 795 300 775 325 775Z" glyph-name="Edotaccent" horiz-adv-x="585" unicode="&#278;" /><glyph d="M90 0H535V48H138V333H516V381H138V652H535V700H90ZM285 780H365V861H285Z" glyph-name="Edotaccent.ss03" horiz-adv-x="585" /><glyph d="M90 0H535V48H138V333H516V381H138V652H535V700H90ZM370 769 279 872H201L315 769Z" glyph-name="Egrave" horiz-adv-x="585" unicode="&#200;" /><glyph d="M90 0H535V48H138V333H516V381H138V652H535V700H90ZM439 797V844H211V797Z" glyph-name="Emacron" horiz-adv-x="585" unicode="&#274;" /><glyph d="M498 -205C588 -205 636 -168 636 -65V700H588V81L151 700H90V0H138V634L588 1V-48C588 -123 570 -157 491 -157H460V-204C470 -205 481 -205 498 -205Z" glyph-name="Eng" horiz-adv-x="726" unicode="&#330;" /><glyph d="M638 700H590V132L90 701V0H138V567L590 54V-48C590 -123 572 -157 493 -157H462V-204C472 -205 483 -205 500 -205C590 -205 638 -168 638 -65Z" glyph-name="Eng.ss02" horiz-adv-x="728" /><glyph d="M90 0H488C440 -28 416 -66 416 -101C416 -144 444 -172 496 -172C519 -172 534 -166 534 -166V-134H527C484 -134 465 -116 465 -91C465 -60 483 -39 534 0H535V48H138V333H516V381H138V652H535V700H90Z" glyph-name="Eogonek" horiz-adv-x="585" unicode="&#280;" /><glyph d="M90 0H262C495 0 638 121 638 355C638 602 475 700 262 700H90V379H10V335H90ZM271 652C436 652 587 575 587 355C587 128 436 48 272 48H138V335H316V379H138V652Z" glyph-name="Eth" horiz-adv-x="708" unicode="&#208;" /><glyph d="M90 0H247C490 0 598 121 598 355C598 602 470 700 247 700H90V379H10V335H90ZM256 652C431 652 550 575 550 355C550 128 431 48 257 48H138V335H316V379H138V652Z" glyph-name="Eth.ss03" horiz-adv-x="668" /><glyph d="M657 84 627 117C584 65 525 37 458 37C344 37 259 129 229 249H487V296H220C217 314 216 332 216 350C216 366 217 382 219 398H487V445H227C256 570 342 664 458 664C529 664 577 632 618 578L649 610C599 672 536 712 455 712C322 712 210 599 177 445H88V398H169C168 382 167 366 167 350C167 332 168 314 170 296H88V249H178C213 97 323 -11 455 -11C532 -11 605 23 657 84Z" glyph-name="Euro" horiz-adv-x="735" unicode="&#8364;" /><glyph d="M657 84 627 117C584 65 525 37 458 37C344 37 259 129 229 249H487V296H220C217 314 216 332 216 350C216 366 217 382 219 398H487V445H227C256 570 342 664 458 664C529 664 577 632 618 578L649 610C599 672 536 712 455 712C322 712 210 599 177 445H88V398H169C168 382 167 366 167 350C167 332 168 314 170 296H88V249H178C213 97 323 -11 455 -11C532 -11 605 23 657 84Z" glyph-name="Euro.osf" horiz-adv-x="735" /><glyph d="M41 249H106C126 114 193 -11 362 -11C475 -11 530 61 555 97L522 130C479 65 425 37 361 37C229 37 174 140 156 249H389V296H150C148 314 148 332 148 350C148 365 149 381 150 398H389V445H157C177 551 236 664 364 664C430 664 481 635 524 569L558 603C530 644 469 712 374 712C216 712 133 585 107 445H41V398H101C99 382 99 366 99 350C99 332 99 314 101 296H41Z" glyph-name="Euro.tf" horiz-adv-x="600" /><glyph d="M41 249H106C126 114 193 -11 362 -11C475 -11 530 61 555 97L522 130C479 65 425 37 361 37C229 37 174 140 156 249H389V296H150C148 314 148 332 148 350C148 365 149 381 150 398H389V445H157C177 551 236 664 364 664C430 664 481 635 524 569L558 603C530 644 469 712 374 712C216 712 133 585 107 445H41V398H101C99 382 99 366 99 350C99 332 99 314 101 296H41Z" glyph-name="Euro.to" horiz-adv-x="600" /><glyph d="M138 0V332H491V380H138V652H513V700H90V0Z" glyph-name="F" horiz-adv-x="563" unicode="F" /><glyph d="M427 289H631V111C578 62 504 37 423 37C250 37 121 174 121 350C121 530 250 664 423 664C521 664 591 613 641 554L676 590C612 664 529 712 420 712C227 712 70 551 70 350C70 148 226 -11 420 -11C521 -11 615 27 679 96V337H427Z" glyph-name="G" horiz-adv-x="759" unicode="G" /><glyph d="M631 0H679V337H427V289H631V111C578 62 504 37 423 37C249 37 118 174 118 350C118 530 249 664 423 664C521 664 591 623 645 558L681 595C617 669 529 712 420 712C227 712 70 551 70 350C70 148 226 -11 420 -11C498 -11 572 11 631 53Z" glyph-name="G.ss01" horiz-adv-x="771" /><glyph d="M588 0H636V335H389V287H584C573 142 504 37 373 37C209 37 118 183 118 350C118 526 209 664 373 664C469 664 548 615 588 544L623 582C572 662 484 712 374 712C178 712 70 551 70 350C70 148 176 -11 370 -11C485 -11 565 70 588 145Z" glyph-name="G.ss03" horiz-adv-x="726" /><glyph d="M427 289H631V111C578 62 504 37 423 37C250 37 121 174 121 350C121 530 250 664 423 664C521 664 591 613 641 554L676 590C612 664 529 712 420 712C227 712 70 551 70 350C70 148 226 -11 420 -11C521 -11 615 27 679 96V337H427ZM519 872H472C466 829 445 806 397 806C350 806 326 830 322 872H275C282 798 323 759 398 759C474 759 513 802 519 872Z" glyph-name="Gbreve" horiz-adv-x="759" unicode="&#286;" /><glyph d="M631 0H679V337H427V289H631V111C578 62 504 37 423 37C249 37 118 174 118 350C118 530 249 664 423 664C521 664 591 623 645 558L681 595C617 669 529 712 420 712C227 712 70 551 70 350C70 148 226 -11 420 -11C498 -11 572 11 631 53ZM519 872H472C466 829 445 806 397 806C350 806 326 830 322 872H275C282 798 323 759 398 759C474 759 513 802 519 872Z" glyph-name="Gbreve.ss01" horiz-adv-x="771" /><glyph d="M588 0H636V335H389V287H584C573 142 504 37 373 37C209 37 118 183 118 350C118 526 209 664 373 664C469 664 548 615 588 544L623 582C572 662 484 712 374 712C178 712 70 551 70 350C70 148 176 -11 370 -11C485 -11 565 70 588 145ZM518 872H471C465 829 444 806 396 806C349 806 325 830 321 872H274C281 798 322 759 397 759C473 759 512 802 518 872Z" glyph-name="Gbreve.ss03" horiz-adv-x="726" /><glyph d="M427 289H631V111C578 62 504 37 423 37C250 37 121 174 121 350C121 530 250 664 423 664C521 664 591 613 641 554L676 590C612 664 529 712 420 712C227 712 70 551 70 350C70 148 226 -11 420 -11C521 -11 615 27 679 96V337H427ZM261 769H322L398 837L472 769H534L430 872H364Z" glyph-name="Gcircumflex" horiz-adv-x="759" unicode="&#284;" /><glyph d="M631 0H679V337H427V289H631V111C578 62 504 37 423 37C249 37 118 174 118 350C118 530 249 664 423 664C521 664 591 623 645 558L681 595C617 669 529 712 420 712C227 712 70 551 70 350C70 148 226 -11 420 -11C498 -11 572 11 631 53ZM261 769H322L398 837L472 769H534L430 872H364Z" glyph-name="Gcircumflex.ss01" horiz-adv-x="771" /><glyph d="M588 0H636V335H389V287H584C573 142 504 37 373 37C209 37 118 183 118 350C118 526 209 664 373 664C469 664 548 615 588 544L623 582C572 662 484 712 374 712C178 712 70 551 70 350C70 148 176 -11 370 -11C485 -11 565 70 588 145ZM260 769H321L397 837L471 769H533L429 872H363Z" glyph-name="Gcircumflex.ss03" horiz-adv-x="726" /><glyph d="M427 289H631V111C578 62 504 37 423 37C250 37 121 174 121 350C121 530 250 664 423 664C521 664 591 613 641 554L676 590C612 664 529 712 420 712C227 712 70 551 70 350C70 148 226 -11 420 -11C521 -11 615 27 679 96V337H427ZM344 -194 391 -57H456L393 -194Z" glyph-name="Gcommaaccent" horiz-adv-x="759" unicode="&#290;" /><glyph d="M631 0H679V337H427V289H631V111C578 62 504 37 423 37C249 37 118 174 118 350C118 530 249 664 423 664C521 664 591 623 645 558L681 595C617 669 529 712 420 712C227 712 70 551 70 350C70 148 226 -11 420 -11C498 -11 572 11 631 53ZM334 -194 381 -57H446L383 -194Z" glyph-name="Gcommaaccent.ss01" horiz-adv-x="771" /><glyph d="M588 0H636V335H389V287H584C573 142 504 37 373 37C209 37 118 183 118 350C118 526 209 664 373 664C469 664 548 615 588 544L623 582C572 662 484 712 374 712C178 712 70 551 70 350C70 148 176 -11 370 -11C485 -11 565 70 588 145ZM327 -194 374 -57H439L376 -194Z" glyph-name="Gcommaaccent.ss03" horiz-adv-x="726" /><glyph d="M427 289H631V111C578 62 504 37 423 37C250 37 121 174 121 350C121 530 250 664 423 664C521 664 591 613 641 554L676 590C612 664 529 712 420 712C227 712 70 551 70 350C70 148 226 -11 420 -11C521 -11 615 27 679 96V337H427ZM397 775C422 775 442 795 442 820C442 845 422 865 397 865C372 865 352 845 352 820C352 795 372 775 397 775Z" glyph-name="Gdotaccent" horiz-adv-x="759" unicode="&#288;" /><glyph d="M631 0H679V337H427V289H631V111C578 62 504 37 423 37C249 37 118 174 118 350C118 530 249 664 423 664C521 664 591 623 645 558L681 595C617 669 529 712 420 712C227 712 70 551 70 350C70 148 226 -11 420 -11C498 -11 572 11 631 53ZM397 775C422 775 442 795 442 820C442 845 422 865 397 865C372 865 352 845 352 820C352 795 372 775 397 775Z" glyph-name="Gdotaccent.ss01" horiz-adv-x="771" /><glyph d="M588 0H636V335H389V287H584C573 142 504 37 373 37C209 37 118 183 118 350C118 526 209 664 373 664C469 664 548 615 588 544L623 582C572 662 484 712 374 712C178 712 70 551 70 350C70 148 176 -11 370 -11C485 -11 565 70 588 145ZM356 780H436V861H356Z" glyph-name="Gdotaccent.ss03" horiz-adv-x="726" /><glyph d="M567 0H615V700H567V381H138V700H90V0H138V333H567Z" glyph-name="H" horiz-adv-x="705" unicode="H" /><glyph d="M695 518V562H615V700H567V562H138V700H90V562H10V518H90V0H138V333H567V0H615V518ZM138 381V518H567V381Z" glyph-name="Hbar" horiz-adv-x="705" unicode="&#294;" /><glyph d="M567 0H615V700H567V381H138V700H90V0H138V333H567ZM216 769H277L353 837L427 769H489L385 872H319Z" glyph-name="Hcircumflex" horiz-adv-x="705" unicode="&#292;" /><glyph d="M461 626C374 626 342 568 330 522H315C303 568 271 626 185 626C116 626 30 591 30 470C30 315 254 281 322 74H323C392 281 616 315 616 470C616 591 529 626 461 626Z" glyph-name="HeavyBlackHeart" horiz-adv-x="646" unicode="&#10084;" /><glyph d="M90 0H138V700H90Z" glyph-name="I" horiz-adv-x="228" unicode="I" /><glyph d="M90 652H232V48H90V0H421V48H280V652H421V700H90Z" glyph-name="I.ss01" horiz-adv-x="511" /><glyph d="M90 0H138V700H90ZM274 84C307 29 368 -11 453 -11C580 -11 654 77 654 225V700H606V225C606 104 550 34 452 34C381 34 337 71 308 118Z" glyph-name="IJ" horiz-adv-x="734" unicode="&#306;" /><glyph d="M90 652H232V48H90V0H421V48H280V652H421V700H90ZM566 238V219C566 90 639 -11 779 -11C936 -11 984 111 984 262V700H680V652H936V268C936 145 909 37 779 37C666 37 614 120 614 219V238Z" glyph-name="IJ.ss01" horiz-adv-x="1064" /><glyph d="M90 0H138V700H90ZM646 212C646 101 602 31 489 31C404 31 331 88 331 200V217H283V200C283 85 358 -11 489 -11C626 -11 695 79 695 212V700H646Z" glyph-name="IJ.ss03" horiz-adv-x="775" /><glyph d="M90 0H138V700H90ZM125 769 239 872H161L70 769Z" glyph-name="Iacute" horiz-adv-x="228" unicode="&#205;" /><glyph d="M90 652H232V48H90V0H421V48H280V652H421V700H90ZM267 769 381 872H303L212 769Z" glyph-name="Iacute.ss01" horiz-adv-x="511" /><glyph d="M90 0H138V700H90ZM236 872H189C183 829 162 806 114 806C67 806 43 830 39 872H-8C-1 798 40 759 115 759C191 759 230 802 236 872Z" glyph-name="Ibreve" horiz-adv-x="228" unicode="&#300;" /><glyph d="M90 652H232V48H90V0H421V48H280V652H421V700H90ZM378 872H331C325 829 304 806 256 806C209 806 185 830 181 872H134C141 798 182 759 257 759C333 759 372 802 378 872Z" glyph-name="Ibreve.ss01" horiz-adv-x="511" /><glyph d="M90 0H138V700H90ZM-22 769H39L115 837L189 769H251L147 872H81Z" glyph-name="Icircumflex" horiz-adv-x="228" unicode="&#206;" /><glyph d="M90 652H232V48H90V0H421V48H280V652H421V700H90ZM120 769H181L257 837L331 769H393L289 872H223Z" glyph-name="Icircumflex.ss01" horiz-adv-x="511" /><glyph d="M90 0H138V700H90ZM202 769C227 769 247 789 247 814C247 839 227 859 202 859C177 859 157 839 157 814C157 789 177 769 202 769ZM26 769C51 769 71 789 71 814C71 839 51 859 26 859C1 859 -19 839 -19 814C-19 789 1 769 26 769Z" glyph-name="Idieresis" horiz-adv-x="228" unicode="&#207;" /><glyph d="M90 652H232V48H90V0H421V48H280V652H421V700H90ZM344 769C369 769 389 789 389 814C389 839 369 859 344 859C319 859 299 839 299 814C299 789 319 769 344 769ZM168 769C193 769 213 789 213 814C213 839 193 859 168 859C143 859 123 839 123 814C123 789 143 769 168 769Z" glyph-name="Idieresis.ss01" horiz-adv-x="511" /><glyph d="M90 0H138V700H90ZM-14 780H66V861H-14ZM163 780H243V861H163Z" glyph-name="Idieresis.ss03" horiz-adv-x="228" /><glyph d="M90 0H138V700H90ZM114 775C139 775 159 795 159 820C159 845 139 865 114 865C89 865 69 845 69 820C69 795 89 775 114 775Z" glyph-name="Idotaccent" horiz-adv-x="228" unicode="&#304;" /><glyph d="M90 652H232V48H90V0H421V48H280V652H421V700H90ZM256 775C281 775 301 795 301 820C301 845 281 865 256 865C231 865 211 845 211 820C211 795 231 775 256 775Z" glyph-name="Idotaccent.ss01" horiz-adv-x="511" /><glyph d="M90 0H138V700H90ZM74 780H154V861H74Z" glyph-name="Idotaccent.ss03" horiz-adv-x="228" /><glyph d="M90 0H138V700H90ZM159 769 68 872H-10L104 769Z" glyph-name="Igrave" horiz-adv-x="228" unicode="&#204;" /><glyph d="M90 652H232V48H90V0H421V48H280V652H421V700H90ZM301 769 210 872H132L246 769Z" glyph-name="Igrave.ss01" horiz-adv-x="511" /><glyph d="M90 0H138V700H90ZM228 797V844H0V797Z" glyph-name="Imacron" horiz-adv-x="228" unicode="&#298;" /><glyph d="M90 652H232V48H90V0H421V48H280V652H421V700H90ZM370 797V844H142V797Z" glyph-name="Imacron.ss01" horiz-adv-x="511" /><glyph d="M90 0H92C44 -28 20 -66 20 -101C20 -144 48 -172 100 -172C123 -172 138 -166 138 -166V-134H131C88 -134 69 -116 69 -91C69 -60 87 -39 138 0V700H90Z" glyph-name="Iogonek" horiz-adv-x="228" unicode="&#302;" /><glyph d="M239 0C191 -28 167 -66 167 -101C167 -144 195 -172 247 -172C270 -172 285 -166 285 -166V-134H278C235 -134 216 -116 216 -91C216 -60 234 -39 285 0H421V48H280V652H421V700H90V652H232V48H90V0Z" glyph-name="Iogonek.ss01" horiz-adv-x="511" /><glyph d="M90 0H138V700H90ZM209 862C203 844 195 828 170 828C152 828 133 836 114 844C92 853 75 862 50 862C13 862 -16 830 -20 780H18C23 799 32 814 57 814C74 814 90 806 106 800C129 791 153 780 178 780C215 780 244 812 248 862Z" glyph-name="Itilde" horiz-adv-x="228" unicode="&#296;" /><glyph d="M90 652H232V48H90V0H421V48H280V652H421V700H90ZM351 862C345 844 337 828 312 828C294 828 275 836 256 844C234 853 217 862 192 862C155 862 126 830 122 780H160C165 799 174 814 199 814C216 814 232 806 248 800C271 791 295 780 320 780C357 780 386 812 390 862Z" glyph-name="Itilde.ss01" horiz-adv-x="511" /><glyph d="M46 84C79 29 140 -11 225 -11C352 -11 426 77 426 225V700H378V225C378 104 322 34 224 34C153 34 109 71 80 118Z" glyph-name="J" horiz-adv-x="506" unicode="J" /><glyph d="M55 238V219C55 90 128 -11 268 -11C425 -11 473 111 473 262V700H169V652H425V268C425 145 398 37 268 37C155 37 103 120 103 219V238Z" glyph-name="J.ss01" horiz-adv-x="553" /><glyph d="M418 212C418 101 374 31 261 31C176 31 103 88 103 200V217H55V200C55 85 130 -11 261 -11C398 -11 467 79 467 212V700H418Z" glyph-name="J.ss03" horiz-adv-x="547" /><glyph d="M46 84C79 29 140 -11 225 -11C352 -11 426 77 426 225V700H378V225C378 104 322 34 224 34C153 34 109 71 80 118ZM268 769H329L405 837L479 769H541L437 872H371Z" glyph-name="Jcircumflex" horiz-adv-x="506" unicode="&#308;" /><glyph d="M55 238V219C55 90 128 -11 268 -11C425 -11 473 111 473 262V700H169V652H425V268C425 145 398 37 268 37C155 37 103 120 103 219V238ZM184 769H245L321 837L395 769H457L353 872H287Z" glyph-name="Jcircumflex.ss01" horiz-adv-x="553" /><glyph d="M418 212C418 101 374 31 261 31C176 31 103 88 103 200V217H55V200C55 85 130 -11 261 -11C398 -11 467 79 467 212V700H418ZM308 769H369L445 837L519 769H581L477 872H411Z" glyph-name="Jcircumflex.ss03" horiz-adv-x="547" /><glyph d="M90 0H138V183L281 361L518 0H576L315 402L555 700H493L138 258V700H90Z" glyph-name="K" horiz-adv-x="616" unicode="K" /><glyph d="M90 0H138V340H272L493 0H555L315 362L547 700H483L275 388H138V700H90Z" glyph-name="K.ss01" horiz-adv-x="595" /><glyph d="M452 700 138 362V700H90V0H138V362L463 0H528L203 363L517 700Z" glyph-name="K.ss02" horiz-adv-x="568" /><glyph d="M90 0H138V183L281 361L518 0H576L315 402L555 700H493L138 258V700H90ZM245 -194 292 -57H357L294 -194Z" glyph-name="Kcommaaccent" horiz-adv-x="616" unicode="&#310;" /><glyph d="M90 0H138V340H272L493 0H555L315 362L547 700H483L275 388H138V700H90ZM244 -194 291 -57H356L293 -194Z" glyph-name="Kcommaaccent.ss01" horiz-adv-x="595" /><glyph d="M452 700 138 362V700H90V0H138V362L463 0H528L203 363L517 700ZM229 -194 276 -57H341L278 -194Z" glyph-name="Kcommaaccent.ss02" horiz-adv-x="568" /><glyph d="M90 0H494V48H138V700H90Z" glyph-name="L" horiz-adv-x="534" unicode="L" /><glyph d="M90 0H494V48H138V700H90ZM149 769 263 872H185L94 769Z" glyph-name="Lacute" horiz-adv-x="534" unicode="&#313;" /><glyph d="M90 0H494V48H138V700H90ZM339 511 381 700H326L299 511Z" glyph-name="Lcaron" horiz-adv-x="534" unicode="&#317;" /><glyph d="M90 0H494V48H138V700H90ZM239 -194 286 -57H351L288 -194Z" glyph-name="Lcommaaccent" horiz-adv-x="534" unicode="&#315;" /><glyph d="M90 0H494V48H138V700H90ZM386 301C411 301 431 321 431 346C431 371 411 391 386 391C361 391 341 371 341 346C341 321 361 301 386 301Z" glyph-name="Ldot" horiz-adv-x="534" unicode="&#319;" /><glyph d="M90 0H494V48H138V700H90ZM346 305H426V386H346Z" glyph-name="Ldot.ss03" horiz-adv-x="534" /><glyph d="M361 -22 397 13 143 266H763V314H143L397 567L361 602L50 290Z" glyph-name="LeftArrow" horiz-adv-x="813" unicode="&#8592;" /><glyph d="M580 10V690L40 350Z" glyph-name="LeftTriangle" horiz-adv-x="660" unicode="&#9664;" /><glyph d="M10 285 90 320V0H494V48H138V341L329 424V472L138 389V700H90V368L10 333Z" glyph-name="Lslash" horiz-adv-x="534" unicode="&#321;" /><glyph d="M434 160 677 631V0H725V700H658L407 211L156 700H90V0H138V630L380 160Z" glyph-name="M" horiz-adv-x="815" unicode="M" /><glyph d="M374 0H461L603 652H701V0H749V700H566L423 48H411L269 700H90V0H138V652H231Z" glyph-name="M.ss01" horiz-adv-x="839" /><glyph d="M677 534V0H725V701L407 205L90 701V0H138V534L408 112Z" glyph-name="M.ss02" horiz-adv-x="815" /><glyph d="M384 0H456L701 635V0H749V700H674L420 41L166 700H90V0H138V638Z" glyph-name="M.ss03" horiz-adv-x="839" /><glyph d="M90 0H138V634L575 0H636V700H588V65L151 700H90Z" glyph-name="N" horiz-adv-x="726" unicode="N" /><glyph d="M638 0V700H590V132L90 701V0H138V567Z" glyph-name="N.ss02" horiz-adv-x="728" /><glyph glyph-name="NULL" horiz-adv-x="0" /><glyph d="M90 0H138V634L575 0H636V700H588V65L151 700H90ZM394 769 508 872H430L339 769Z" glyph-name="Nacute" horiz-adv-x="726" unicode="&#323;" /><glyph d="M638 0V700H590V132L90 701V0H138V567ZM384 769 498 872H420L329 769Z" glyph-name="Nacute.ss02" horiz-adv-x="728" /><glyph d="M90 0H138V634L575 0H636V700H588V65L151 700H90ZM520 872H458L384 804L308 872H247L350 769H416Z" glyph-name="Ncaron" horiz-adv-x="726" unicode="&#327;" /><glyph d="M638 0V700H590V132L90 701V0H138V567ZM510 872H448L374 804L298 872H237L340 769H406Z" glyph-name="Ncaron.ss02" horiz-adv-x="728" /><glyph d="M90 0H138V634L575 0H636V700H588V65L151 700H90ZM297 -194 344 -57H409L346 -194Z" glyph-name="Ncommaaccent" horiz-adv-x="726" unicode="&#325;" /><glyph d="M638 0V700H590V132L90 701V0H138V567ZM317 -194 364 -57H429L366 -194Z" glyph-name="Ncommaaccent.ss02" horiz-adv-x="728" /><glyph d="M592 521H151V472H509L70 34L104 0L542 438V80H592Z" glyph-name="NorthEastArrow" horiz-adv-x="672" unicode="&#8599;" /><glyph d="M80 80H130V438L568 0L602 34L163 472H521V521H80Z" glyph-name="NorthWestArrow" horiz-adv-x="672" unicode="&#8598;" /><glyph d="M90 0H138V634L575 0H636V700H588V65L151 700H90ZM478 862C472 844 464 828 439 828C421 828 402 836 383 844C361 853 344 862 319 862C282 862 253 830 249 780H287C292 799 301 814 326 814C343 814 359 806 375 800C398 791 422 780 447 780C484 780 513 812 517 862Z" glyph-name="Ntilde" horiz-adv-x="726" unicode="&#209;" /><glyph d="M638 0V700H590V132L90 701V0H138V567ZM468 862C462 844 454 828 429 828C411 828 392 836 373 844C351 853 334 862 309 862C272 862 243 830 239 780H277C282 799 291 814 316 814C333 814 349 806 365 800C388 791 412 780 437 780C474 780 503 812 507 862Z" glyph-name="Ntilde.ss02" horiz-adv-x="728" /><glyph d="M420 -11C616 -11 770 149 770 350C770 551 616 712 420 712C227 712 70 551 70 350C70 148 226 -11 420 -11ZM420 664C592 664 719 529 719 350C719 175 591 37 420 37C249 37 121 171 121 350C121 529 248 664 420 664Z" glyph-name="O" horiz-adv-x="840" unicode="O" /><glyph d="M370 -11C566 -11 670 149 670 350C670 551 566 712 370 712C177 712 70 551 70 350C70 148 176 -11 370 -11ZM373 664C541 664 621 531 621 350C621 174 541 37 373 37C205 37 119 169 119 350C119 531 205 664 373 664Z" glyph-name="O.ss03" horiz-adv-x="740" /><glyph d="M855 0V48H458V333H836V381H458V652H855V700H410C223 700 70 544 70 350C70 155 222 0 410 0ZM410 654V47C243 48 121 181 121 350C121 524 243 652 410 654Z" glyph-name="OE" horiz-adv-x="905" unicode="&#338;" /><glyph d="M855 0V48H458V333H836V381H458V652H855V700H410C223 700 70 544 70 350C70 155 222 0 410 0ZM410 654V47C243 48 121 181 121 350C121 524 243 652 410 654Z" glyph-name="OE.ss03" horiz-adv-x="905" /><glyph d="M420 -11C616 -11 770 149 770 350C770 551 616 712 420 712C227 712 70 551 70 350C70 148 226 -11 420 -11ZM420 664C592 664 719 529 719 350C719 175 591 37 420 37C249 37 121 171 121 350C121 529 248 664 420 664ZM431 769 545 872H467L376 769Z" glyph-name="Oacute" horiz-adv-x="840" unicode="&#211;" /><glyph d="M370 -11C566 -11 670 149 670 350C670 551 566 712 370 712C177 712 70 551 70 350C70 148 176 -11 370 -11ZM373 664C541 664 621 531 621 350C621 174 541 37 373 37C205 37 119 169 119 350C119 531 205 664 373 664ZM381 769 495 872H417L326 769Z" glyph-name="Oacute.ss03" horiz-adv-x="740" /><glyph d="M420 -11C616 -11 770 149 770 350C770 551 616 712 420 712C227 712 70 551 70 350C70 148 226 -11 420 -11ZM420 664C592 664 719 529 719 350C719 175 591 37 420 37C249 37 121 171 121 350C121 529 248 664 420 664ZM542 872H495C489 829 468 806 420 806C373 806 349 830 345 872H298C305 798 346 759 421 759C497 759 536 802 542 872Z" glyph-name="Obreve" horiz-adv-x="840" unicode="&#334;" /><glyph d="M370 -11C566 -11 670 149 670 350C670 551 566 712 370 712C177 712 70 551 70 350C70 148 176 -11 370 -11ZM373 664C541 664 621 531 621 350C621 174 541 37 373 37C205 37 119 169 119 350C119 531 205 664 373 664ZM492 872H445C439 829 418 806 370 806C323 806 299 830 295 872H248C255 798 296 759 371 759C447 759 486 802 492 872Z" glyph-name="Obreve.ss03" horiz-adv-x="740" /><glyph d="M420 -11C616 -11 770 149 770 350C770 551 616 712 420 712C227 712 70 551 70 350C70 148 226 -11 420 -11ZM420 664C592 664 719 529 719 350C719 175 591 37 420 37C249 37 121 171 121 350C121 529 248 664 420 664ZM284 769H345L421 837L495 769H557L453 872H387Z" glyph-name="Ocircumflex" horiz-adv-x="840" unicode="&#212;" /><glyph d="M370 -11C566 -11 670 149 670 350C670 551 566 712 370 712C177 712 70 551 70 350C70 148 176 -11 370 -11ZM373 664C541 664 621 531 621 350C621 174 541 37 373 37C205 37 119 169 119 350C119 531 205 664 373 664ZM234 769H295L371 837L445 769H507L403 872H337Z" glyph-name="Ocircumflex.ss03" horiz-adv-x="740" /><glyph d="M420 -11C616 -11 770 149 770 350C770 551 616 712 420 712C227 712 70 551 70 350C70 148 226 -11 420 -11ZM420 664C592 664 719 529 719 350C719 175 591 37 420 37C249 37 121 171 121 350C121 529 248 664 420 664ZM508 769C533 769 553 789 553 814C553 839 533 859 508 859C483 859 463 839 463 814C463 789 483 769 508 769ZM332 769C357 769 377 789 377 814C377 839 357 859 332 859C307 859 287 839 287 814C287 789 307 769 332 769Z" glyph-name="Odieresis" horiz-adv-x="840" unicode="&#214;" /><glyph d="M370 -11C566 -11 670 149 670 350C670 551 566 712 370 712C177 712 70 551 70 350C70 148 176 -11 370 -11ZM373 664C541 664 621 531 621 350C621 174 541 37 373 37C205 37 119 169 119 350C119 531 205 664 373 664ZM242 780H322V861H242ZM419 780H499V861H419Z" glyph-name="Odieresis.ss03" horiz-adv-x="740" /><glyph d="M420 -11C616 -11 770 149 770 350C770 551 616 712 420 712C227 712 70 551 70 350C70 148 226 -11 420 -11ZM420 664C592 664 719 529 719 350C719 175 591 37 420 37C249 37 121 171 121 350C121 529 248 664 420 664ZM465 769 374 872H296L410 769Z" glyph-name="Ograve" horiz-adv-x="840" unicode="&#210;" /><glyph d="M370 -11C566 -11 670 149 670 350C670 551 566 712 370 712C177 712 70 551 70 350C70 148 176 -11 370 -11ZM373 664C541 664 621 531 621 350C621 174 541 37 373 37C205 37 119 169 119 350C119 531 205 664 373 664ZM415 769 324 872H246L360 769Z" glyph-name="Ograve.ss03" horiz-adv-x="740" /><glyph d="M420 -11C616 -11 770 149 770 350C770 551 616 712 420 712C227 712 70 551 70 350C70 148 226 -11 420 -11ZM420 664C592 664 719 529 719 350C719 175 591 37 420 37C249 37 121 171 121 350C121 529 248 664 420 664ZM359 769 440 872H374L314 769ZM512 769 593 872H527L467 769Z" glyph-name="Ohungarumlaut" horiz-adv-x="840" unicode="&#336;" /><glyph d="M370 -11C566 -11 670 149 670 350C670 551 566 712 370 712C177 712 70 551 70 350C70 148 176 -11 370 -11ZM373 664C541 664 621 531 621 350C621 174 541 37 373 37C205 37 119 169 119 350C119 531 205 664 373 664ZM309 769 390 872H324L264 769ZM462 769 543 872H477L417 769Z" glyph-name="Ohungarumlaut.ss03" horiz-adv-x="740" /><glyph d="M420 -11C616 -11 770 149 770 350C770 551 616 712 420 712C227 712 70 551 70 350C70 148 226 -11 420 -11ZM420 664C592 664 719 529 719 350C719 175 591 37 420 37C249 37 121 171 121 350C121 529 248 664 420 664ZM534 797V844H306V797Z" glyph-name="Omacron" horiz-adv-x="840" unicode="&#332;" /><glyph d="M370 -11C566 -11 670 149 670 350C670 551 566 712 370 712C177 712 70 551 70 350C70 148 176 -11 370 -11ZM373 664C541 664 621 531 621 350C621 174 541 37 373 37C205 37 119 169 119 350C119 531 205 664 373 664ZM484 797V844H256V797Z" glyph-name="Omacron.ss03" horiz-adv-x="740" /><glyph d="M650 48H521V146C620 185 688 288 688 411C688 584 553 713 389 713C221 713 90 584 90 411C90 287 155 184 256 146V48H127V0H302V180C191 209 136 296 136 411C136 565 248 666 390 666C532 666 642 565 642 411C642 296 587 209 475 180V0H650Z" glyph-name="Omega" horiz-adv-x="778" unicode="&#8486;" /><glyph d="M650 48H521V146C620 185 688 288 688 411C688 584 553 713 389 713C221 713 90 584 90 411C90 287 155 184 256 146V48H127V0H302V180C191 209 136 296 136 411C136 565 248 666 390 666C532 666 642 565 642 411C642 296 587 209 475 180V0H650Z" glyph-name="Omegagreek" horiz-adv-x="778" unicode="&#937;" /><glyph d="M181 -21 229 47C284 10 349 -11 420 -11C616 -11 770 149 770 350C770 464 720 565 641 631L687 696L647 723L602 660C549 693 487 712 420 712C227 712 70 551 70 350C70 240 116 143 189 77L139 7ZM719 350C719 175 591 37 420 37C358 37 302 54 256 85L614 593C679 536 719 450 719 350ZM420 664C478 664 530 648 575 621L216 116C157 172 121 255 121 350C121 529 248 664 420 664Z" glyph-name="Oslash" horiz-adv-x="840" unicode="&#216;" /><glyph d="M138 -21 189 51C236 12 296 -11 370 -11C566 -11 670 149 670 350C670 455 641 549 586 615L644 696L604 723L552 649C505 689 444 712 370 712C177 712 70 551 70 350C70 245 98 152 152 87L96 7ZM621 350C621 174 541 37 373 37C308 37 256 56 216 90L559 576C600 520 621 441 621 350ZM373 664C436 664 487 645 525 612L181 127C140 183 119 260 119 350C119 531 205 664 373 664Z" glyph-name="Oslash.ss03" horiz-adv-x="740" /><glyph d="M181 -21 229 47C284 10 349 -11 420 -11C616 -11 770 149 770 350C770 464 720 565 641 631L687 696L647 723L602 660C549 693 487 712 420 712C227 712 70 551 70 350C70 240 116 143 189 77L139 7ZM719 350C719 175 591 37 420 37C358 37 302 54 256 85L614 593C679 536 719 450 719 350ZM420 664C478 664 530 648 575 621L216 116C157 172 121 255 121 350C121 529 248 664 420 664ZM431 769 545 872H467L376 769Z" glyph-name="Oslashacute" horiz-adv-x="840" unicode="&#510;" /><glyph d="M138 -21 189 51C236 12 296 -11 370 -11C566 -11 670 149 670 350C670 455 641 549 586 615L644 696L604 723L552 649C505 689 444 712 370 712C177 712 70 551 70 350C70 245 98 152 152 87L96 7ZM621 350C621 174 541 37 373 37C308 37 256 56 216 90L559 576C600 520 621 441 621 350ZM373 664C436 664 487 645 525 612L181 127C140 183 119 260 119 350C119 531 205 664 373 664ZM381 769 495 872H417L326 769Z" glyph-name="Oslashacute.ss03" horiz-adv-x="740" /><glyph d="M420 -11C616 -11 770 149 770 350C770 551 616 712 420 712C227 712 70 551 70 350C70 148 226 -11 420 -11ZM420 664C592 664 719 529 719 350C719 175 591 37 420 37C249 37 121 171 121 350C121 529 248 664 420 664ZM515 862C509 844 501 828 476 828C458 828 439 836 420 844C398 853 381 862 356 862C319 862 290 830 286 780H324C329 799 338 814 363 814C380 814 396 806 412 800C435 791 459 780 484 780C521 780 550 812 554 862Z" glyph-name="Otilde" horiz-adv-x="840" unicode="&#213;" /><glyph d="M370 -11C566 -11 670 149 670 350C670 551 566 712 370 712C177 712 70 551 70 350C70 148 176 -11 370 -11ZM373 664C541 664 621 531 621 350C621 174 541 37 373 37C205 37 119 169 119 350C119 531 205 664 373 664ZM465 862C459 844 451 828 426 828C408 828 389 836 370 844C348 853 331 862 306 862C269 862 240 830 236 780H274C279 799 288 814 313 814C330 814 346 806 362 800C385 791 409 780 434 780C471 780 500 812 504 862Z" glyph-name="Otilde.ss03" horiz-adv-x="740" /><glyph d="M322 267C481 267 577 351 577 484C577 614 480 700 322 700H90V0H138V267ZM337 652C452 652 526 593 526 483C526 369 452 315 337 315H138V652Z" glyph-name="P" horiz-adv-x="647" unicode="P" /><glyph d="M738 -15 771 19 681 108C737 172 770 257 770 350C770 551 616 712 420 712C227 712 70 551 70 350C70 148 226 -11 420 -11C508 -11 587 21 648 75ZM420 37C249 37 121 171 121 350C121 529 248 664 420 664C592 664 719 529 719 350C719 270 692 198 647 143L553 236L520 203L614 109C563 64 495 37 420 37Z" glyph-name="Q" horiz-adv-x="841" unicode="Q" /><glyph d="M420 -11C616 -11 770 149 770 350C770 550 616 712 420 712C227 712 70 551 70 350C70 148 226 -11 420 -11ZM615 106C564 62 498 37 423 37C249 37 118 174 118 350C118 530 249 664 423 664C596 664 722 530 722 350C722 270 696 198 652 144L460 335L423 298Z" glyph-name="Q.ss01" horiz-adv-x="840" /><glyph d="M747 -26 783 12 684 111C738 175 770 258 770 350C770 551 616 712 420 712C227 712 70 551 70 350C70 148 226 -11 420 -11C507 -11 586 21 647 74ZM420 664C592 664 719 529 719 350C719 175 591 37 420 37C249 37 121 171 121 350C121 529 248 664 420 664Z" glyph-name="Q.ss02" horiz-adv-x="853" /><glyph d="M355 0H674V54L524 45C614 106 661 221 661 355C661 552 559 712 365 712C175 712 70 553 70 355C70 159 170 0 355 0ZM368 664C539 664 613 533 613 355C613 182 540 48 368 48C197 48 118 182 118 355C118 533 197 664 368 664Z" glyph-name="Q.ss03" horiz-adv-x="744" /><glyph d="M336 652C456 652 526 593 526 483C526 369 456 316 336 316H138V652ZM339 268 525 0H585L395 273C513 293 577 362 577 483C577 627 486 700 322 700H90V0H138V268Z" glyph-name="R" horiz-adv-x="645" unicode="R" /><glyph d="M339 652C454 652 529 593 529 483C529 369 454 316 339 316H138V652ZM529 0H594L376 271C507 286 578 356 578 484C578 629 487 700 322 700H90V0H138V268H312Z" glyph-name="R.ss02" horiz-adv-x="644" /><glyph d="M339 652C454 652 530 614 530 504C530 390 454 356 339 356H138V652ZM322 308C433 308 487 265 502 159L524 0H576L553 155C540 239 510 294 455 325C535 350 578 406 578 505C578 650 487 700 322 700H90V0H138V308Z" glyph-name="R.ss03" horiz-adv-x="638" /><glyph d="M336 652C456 652 526 593 526 483C526 369 456 316 336 316H138V652ZM339 268 525 0H585L395 273C513 293 577 362 577 483C577 627 486 700 322 700H90V0H138V268ZM346 769 460 872H382L291 769Z" glyph-name="Racute" horiz-adv-x="645" unicode="&#340;" /><glyph d="M339 652C454 652 529 593 529 483C529 369 454 316 339 316H138V652ZM529 0H594L376 271C507 286 578 356 578 484C578 629 487 700 322 700H90V0H138V268H312ZM357 769 471 872H393L302 769Z" glyph-name="Racute.ss02" horiz-adv-x="644" /><glyph d="M339 652C454 652 530 614 530 504C530 390 454 356 339 356H138V652ZM322 308C433 308 487 265 502 159L524 0H576L553 155C540 239 510 294 455 325C535 350 578 406 578 505C578 650 487 700 322 700H90V0H138V308ZM351 769 465 872H387L296 769Z" glyph-name="Racute.ss03" horiz-adv-x="638" /><glyph d="M336 652C456 652 526 593 526 483C526 369 456 316 336 316H138V652ZM339 268 525 0H585L395 273C513 293 577 362 577 483C577 627 486 700 322 700H90V0H138V268ZM472 872H410L336 804L260 872H199L302 769H368Z" glyph-name="Rcaron" horiz-adv-x="645" unicode="&#344;" /><glyph d="M339 652C454 652 529 593 529 483C529 369 454 316 339 316H138V652ZM529 0H594L376 271C507 286 578 356 578 484C578 629 487 700 322 700H90V0H138V268H312ZM483 872H421L347 804L271 872H210L313 769H379Z" glyph-name="Rcaron.ss02" horiz-adv-x="644" /><glyph d="M339 652C454 652 530 614 530 504C530 390 454 356 339 356H138V652ZM322 308C433 308 487 265 502 159L524 0H576L553 155C540 239 510 294 455 325C535 350 578 406 578 505C578 650 487 700 322 700H90V0H138V308ZM477 872H415L341 804L265 872H204L307 769H373Z" glyph-name="Rcaron.ss03" horiz-adv-x="638" /><glyph d="M336 652C456 652 526 593 526 483C526 369 456 316 336 316H138V652ZM339 268 525 0H585L395 273C513 293 577 362 577 483C577 627 486 700 322 700H90V0H138V268ZM269 -194 316 -57H381L318 -194Z" glyph-name="Rcommaaccent" horiz-adv-x="645" unicode="&#342;" /><glyph d="M339 652C454 652 529 593 529 483C529 369 454 316 339 316H138V652ZM529 0H594L376 271C507 286 578 356 578 484C578 629 487 700 322 700H90V0H138V268H312ZM250 -194 297 -57H362L299 -194Z" glyph-name="Rcommaaccent.ss02" horiz-adv-x="644" /><glyph d="M339 652C454 652 530 614 530 504C530 390 454 356 339 356H138V652ZM322 308C433 308 487 265 502 159L524 0H576L553 155C540 239 510 294 455 325C535 350 578 406 578 505C578 650 487 700 322 700H90V0H138V308ZM249 -194 296 -57H361L298 -194Z" glyph-name="Rcommaaccent.ss03" horiz-adv-x="638" /><glyph d="M763 290 452 602 416 567 670 314H50V266H670L416 13L452 -22Z" glyph-name="RightArrow" horiz-adv-x="813" unicode="&#8594;" /><glyph d="M620 350 80 690V10Z" glyph-name="RightTriangle" horiz-adv-x="660" unicode="&#9658;" /><glyph d="M339 324C432 307 500 264 500 184C500 100 426 37 305 37C196 37 122 84 74 138L40 102C96 34 187 -11 301 -11C466 -11 550 79 550 183C550 287 474 350 343 372L272 384C177 400 106 447 106 527C106 606 177 664 286 664C384 664 444 619 487 572L521 609C467 664 395 712 292 712C168 712 56 644 56 525C56 415 147 358 249 340Z" glyph-name="S" horiz-adv-x="590" unicode="S" /><glyph d="M314 316C388 288 451 249 451 168C451 92 390 37 282 37C188 37 124 76 75 148L40 112C90 39 173 -11 279 -11C419 -11 502 70 502 168C502 273 437 324 328 364L266 387C186 417 114 454 114 536C114 612 179 664 276 664C365 664 407 622 440 575L476 610C438 665 372 712 278 712C167 712 63 646 63 531C63 432 142 381 237 345Z" glyph-name="S.ss02" horiz-adv-x="542" /><glyph d="M339 324C432 307 500 264 500 184C500 100 426 37 305 37C196 37 122 84 74 138L40 102C96 34 187 -11 301 -11C466 -11 550 79 550 183C550 287 474 350 343 372L272 384C177 400 106 447 106 527C106 606 177 664 286 664C384 664 444 619 487 572L521 609C467 664 395 712 292 712C168 712 56 644 56 525C56 415 147 358 249 340ZM311 769 425 872H347L256 769Z" glyph-name="Sacute" horiz-adv-x="590" unicode="&#346;" /><glyph d="M314 316C388 288 451 249 451 168C451 92 390 37 282 37C188 37 124 76 75 148L40 112C90 39 173 -11 279 -11C419 -11 502 70 502 168C502 273 437 324 328 364L266 387C186 417 114 454 114 536C114 612 179 664 276 664C365 664 407 622 440 575L476 610C438 665 372 712 278 712C167 712 63 646 63 531C63 432 142 381 237 345ZM296 769 410 872H332L241 769Z" glyph-name="Sacute.ss02" horiz-adv-x="542" /><glyph d="M339 324C432 307 500 264 500 184C500 100 426 37 305 37C196 37 122 84 74 138L40 102C96 34 187 -11 301 -11C466 -11 550 79 550 183C550 287 474 350 343 372L272 384C177 400 106 447 106 527C106 606 177 664 286 664C384 664 444 619 487 572L521 609C467 664 395 712 292 712C168 712 56 644 56 525C56 415 147 358 249 340ZM437 872H375L301 804L225 872H164L267 769H333Z" glyph-name="Scaron" horiz-adv-x="590" unicode="&#352;" /><glyph d="M314 316C388 288 451 249 451 168C451 92 390 37 282 37C188 37 124 76 75 148L40 112C90 39 173 -11 279 -11C419 -11 502 70 502 168C502 273 437 324 328 364L266 387C186 417 114 454 114 536C114 612 179 664 276 664C365 664 407 622 440 575L476 610C438 665 372 712 278 712C167 712 63 646 63 531C63 432 142 381 237 345ZM422 872H360L286 804L210 872H149L252 769H318Z" glyph-name="Scaron.ss02" horiz-adv-x="542" /><glyph d="M339 324C432 307 500 264 500 184C500 100 426 37 305 37C196 37 122 84 74 138L40 102C96 34 187 -11 301 -11H312L252 -137H308L364 -6C487 14 550 93 550 183C550 287 474 350 343 372L272 384C177 400 106 447 106 527C106 606 177 664 286 664C384 664 444 619 487 572L521 609C467 664 395 712 292 712C168 712 56 644 56 525C56 415 147 358 249 340Z" glyph-name="Scedilla" horiz-adv-x="590" unicode="&#350;" /><glyph d="M339 324C432 307 500 264 500 184C500 100 426 37 305 37C196 37 122 84 74 138L40 102C94 36 180 -7 288 -10V-137H333V-10C477 1 550 86 550 183C550 287 474 350 343 372L272 384C177 400 106 447 106 527C106 606 177 664 286 664C384 664 444 619 487 572L521 609C467 664 395 712 292 712C168 712 56 644 56 525C56 415 147 358 249 340Z" glyph-name="Scedilla.ss01" horiz-adv-x="590" /><glyph d="M314 316C388 288 451 249 451 168C451 92 390 37 282 37C188 37 124 76 75 148L40 112C90 39 173 -11 279 -11H282L222 -137H278L334 -6C440 12 502 83 502 168C502 273 437 324 328 364L266 387C186 417 114 454 114 536C114 612 179 664 276 664C365 664 407 622 440 575L476 610C438 665 372 712 278 712C167 712 63 646 63 531C63 432 142 381 237 345Z" glyph-name="Scedilla.ss02" horiz-adv-x="542" /><glyph d="M339 324C432 307 500 264 500 184C500 100 426 37 305 37C196 37 122 84 74 138L40 102C96 34 187 -11 301 -11C466 -11 550 79 550 183C550 287 474 350 343 372L272 384C177 400 106 447 106 527C106 606 177 664 286 664C384 664 444 619 487 572L521 609C467 664 395 712 292 712C168 712 56 644 56 525C56 415 147 358 249 340ZM164 769H225L301 837L375 769H437L333 872H267Z" glyph-name="Scircumflex" horiz-adv-x="590" unicode="&#348;" /><glyph d="M314 316C388 288 451 249 451 168C451 92 390 37 282 37C188 37 124 76 75 148L40 112C90 39 173 -11 279 -11C419 -11 502 70 502 168C502 273 437 324 328 364L266 387C186 417 114 454 114 536C114 612 179 664 276 664C365 664 407 622 440 575L476 610C438 665 372 712 278 712C167 712 63 646 63 531C63 432 142 381 237 345ZM149 769H210L286 837L360 769H422L318 872H252Z" glyph-name="Scircumflex.ss02" horiz-adv-x="542" /><glyph d="M339 324C432 307 500 264 500 184C500 100 426 37 305 37C196 37 122 84 74 138L40 102C96 34 187 -11 301 -11C466 -11 550 79 550 183C550 287 474 350 343 372L272 384C177 400 106 447 106 527C106 606 177 664 286 664C384 664 444 619 487 572L521 609C467 664 395 712 292 712C168 712 56 644 56 525C56 415 147 358 249 340ZM254 -194 301 -57H366L303 -194Z" glyph-name="Scommaaccent" horiz-adv-x="590" unicode="&#536;" /><glyph d="M314 316C388 288 451 249 451 168C451 92 390 37 282 37C188 37 124 76 75 148L40 112C90 39 173 -11 279 -11C419 -11 502 70 502 168C502 273 437 324 328 364L266 387C186 417 114 454 114 536C114 612 179 664 276 664C365 664 407 622 440 575L476 610C438 665 372 712 278 712C167 712 63 646 63 531C63 432 142 381 237 345ZM224 -194 271 -57H336L273 -194Z" glyph-name="Scommaaccent.ss02" horiz-adv-x="542" /><glyph d="M592 441H542V83L104 521L70 487L509 49H151V0H592Z" glyph-name="SouthEastArrow" horiz-adv-x="672" unicode="&#8600;" /><glyph d="M80 0H521V49H163L602 487L568 521L130 83V441H80Z" glyph-name="SouthWestArrow" horiz-adv-x="672" unicode="&#8601;" /><glyph d="M40 700V653H272V0H320V653H558V700Z" glyph-name="T" horiz-adv-x="598" unicode="T" /><glyph d="M480 350H320V653H558V700H40V653H272V350H112V306H272V0H320V306H480Z" glyph-name="Tbar" horiz-adv-x="598" unicode="&#358;" /><glyph d="M40 700V653H272V0H320V653H558V700ZM434 872H372L298 804L222 872H161L264 769H330Z" glyph-name="Tcaron" horiz-adv-x="598" unicode="&#356;" /><glyph d="M40 700V653H272V0H320V653H558V700ZM218 -194 265 -57H330L267 -194Z" glyph-name="Tcommaaccent" horiz-adv-x="598" unicode="&#538;" /><glyph d="M322 143C481 143 578 227 578 360C578 490 480 576 322 576H138V700H90V0H138V143ZM339 528C454 528 526 467 526 359C526 252 454 191 339 191H138V528Z" glyph-name="Thorn" horiz-adv-x="648" unicode="&#222;" /><glyph d="M557 275C557 144 482 37 342 37C202 37 128 144 128 274V700H80V273C80 110 176 -11 342 -11C509 -11 605 110 605 273V700H557Z" glyph-name="U" horiz-adv-x="685" unicode="U" /><glyph d="M557 275C557 144 482 37 342 37C202 37 128 144 128 274V700H80V273C80 110 176 -11 342 -11C509 -11 605 110 605 273V700H557ZM353 769 467 872H389L298 769Z" glyph-name="Uacute" horiz-adv-x="685" unicode="&#218;" /><glyph d="M557 275C557 144 482 37 342 37C202 37 128 144 128 274V700H80V273C80 110 176 -11 342 -11C509 -11 605 110 605 273V700H557ZM464 872H417C411 829 390 806 342 806C295 806 271 830 267 872H220C227 798 268 759 343 759C419 759 458 802 464 872Z" glyph-name="Ubreve" horiz-adv-x="685" unicode="&#364;" /><glyph d="M557 275C557 144 482 37 342 37C202 37 128 144 128 274V700H80V273C80 110 176 -11 342 -11C509 -11 605 110 605 273V700H557ZM206 769H267L343 837L417 769H479L375 872H309Z" glyph-name="Ucircumflex" horiz-adv-x="685" unicode="&#219;" /><glyph d="M557 275C557 144 482 37 342 37C202 37 128 144 128 274V700H80V273C80 110 176 -11 342 -11C509 -11 605 110 605 273V700H557ZM430 769C455 769 475 789 475 814C475 839 455 859 430 859C405 859 385 839 385 814C385 789 405 769 430 769ZM254 769C279 769 299 789 299 814C299 839 279 859 254 859C229 859 209 839 209 814C209 789 229 769 254 769Z" glyph-name="Udieresis" horiz-adv-x="685" unicode="&#220;" /><glyph d="M557 275C557 144 482 37 342 37C202 37 128 144 128 274V700H80V273C80 110 176 -11 342 -11C509 -11 605 110 605 273V700H557ZM214 780H294V861H214ZM391 780H471V861H391Z" glyph-name="Udieresis.ss03" horiz-adv-x="685" /><glyph d="M557 275C557 144 482 37 342 37C202 37 128 144 128 274V700H80V273C80 110 176 -11 342 -11C509 -11 605 110 605 273V700H557ZM387 769 296 872H218L332 769Z" glyph-name="Ugrave" horiz-adv-x="685" unicode="&#217;" /><glyph d="M557 275C557 144 482 37 342 37C202 37 128 144 128 274V700H80V273C80 110 176 -11 342 -11C509 -11 605 110 605 273V700H557ZM281 769 362 872H296L236 769ZM434 769 515 872H449L389 769Z" glyph-name="Uhungarumlaut" horiz-adv-x="685" unicode="&#368;" /><glyph d="M557 275C557 144 482 37 342 37C202 37 128 144 128 274V700H80V273C80 110 176 -11 342 -11C509 -11 605 110 605 273V700H557ZM456 797V844H228V797Z" glyph-name="Umacron" horiz-adv-x="685" unicode="&#362;" /><glyph d="M557 275C557 144 482 37 342 37C202 37 128 144 128 274V700H80V273C80 111 174 -9 338 -11C301 -37 283 -70 283 -101C283 -144 311 -172 363 -172C386 -172 401 -166 401 -166V-134H394C351 -134 332 -116 332 -91C332 -62 347 -41 391 -7C527 14 605 126 605 273V700H557Z" glyph-name="Uogonek" horiz-adv-x="685" unicode="&#370;" /><glyph d="M50 402 85 366 338 620V0H386V620L639 366L674 402L362 713Z" glyph-name="UpArrow" horiz-adv-x="724" unicode="&#8593;" /><glyph d="M40 80H720L380 620Z" glyph-name="UpTriangle" horiz-adv-x="760" unicode="&#9650;" /><glyph d="M557 275C557 144 482 37 342 37C202 37 128 144 128 274V700H80V273C80 110 176 -11 342 -11C509 -11 605 110 605 273V700H557ZM342 703C384 703 417 737 417 777C417 819 384 852 342 852C302 852 267 819 267 777C267 737 302 703 342 703ZM342 814C363 814 379 798 379 777C379 757 363 741 342 741C322 741 305 757 305 777C305 798 322 814 342 814Z" glyph-name="Uring" horiz-adv-x="685" unicode="&#366;" /><glyph d="M557 275C557 144 482 37 342 37C202 37 128 144 128 274V700H80V273C80 110 176 -11 342 -11C509 -11 605 110 605 273V700H557ZM437 862C431 844 423 828 398 828C380 828 361 836 342 844C320 853 303 862 278 862C241 862 212 830 208 780H246C251 799 260 814 285 814C302 814 318 806 334 800C357 791 381 780 406 780C443 780 472 812 476 862Z" glyph-name="Utilde" horiz-adv-x="685" unicode="&#360;" /><glyph d="M550 700 324 48 98 700H40L292 0H356L608 700Z" glyph-name="V" horiz-adv-x="648" unicode="V" /><glyph d="M428 0 628 700H577L391 48H277L91 700H40L240 0Z" glyph-name="V.ss01" horiz-adv-x="668" /><glyph d="M327 -17 605 700H548L322 108L97 700H40L318 -17Z" glyph-name="V.ss02" horiz-adv-x="645" /><glyph d="M629 0H698L892 700H835L666 49L498 700H434L266 49L97 700H40L234 0H303L466 630Z" glyph-name="W" horiz-adv-x="932" unicode="W" /><glyph d="M412 0 485 255 558 0H730L930 700H879L693 48H595L510 345L612 700H561L485 434L409 700H358L459 345L375 48H277L91 700H40L240 0Z" glyph-name="W.ss01" horiz-adv-x="970" /><glyph d="M656 -17 885 700H828L650 120L462 675L275 120L97 700H40L269 -17H278L462 513L647 -17Z" glyph-name="W.ss02" horiz-adv-x="925" /><glyph d="M629 0H698L892 700H835L666 49L498 700H434L266 49L97 700H40L234 0H303L466 630ZM477 769 591 872H513L422 769Z" glyph-name="Wacute" horiz-adv-x="932" unicode="&#7810;" /><glyph d="M412 0 485 255 558 0H730L930 700H879L693 48H595L510 345L612 700H561L485 434L409 700H358L459 345L375 48H277L91 700H40L240 0ZM497 769 611 872H533L442 769Z" glyph-name="Wacute.ss01" horiz-adv-x="970" /><glyph d="M656 -17 885 700H828L650 120L462 675L275 120L97 700H40L269 -17H278L462 513L647 -17ZM473 769 587 872H509L418 769Z" glyph-name="Wacute.ss02" horiz-adv-x="925" /><glyph d="M629 0H698L892 700H835L666 49L498 700H434L266 49L97 700H40L234 0H303L466 630ZM330 769H391L467 837L541 769H603L499 872H433Z" glyph-name="Wcircumflex" horiz-adv-x="932" unicode="&#372;" /><glyph d="M412 0 485 255 558 0H730L930 700H879L693 48H595L510 345L612 700H561L485 434L409 700H358L459 345L375 48H277L91 700H40L240 0ZM350 769H411L487 837L561 769H623L519 872H453Z" glyph-name="Wcircumflex.ss01" horiz-adv-x="970" /><glyph d="M656 -17 885 700H828L650 120L462 675L275 120L97 700H40L269 -17H278L462 513L647 -17ZM326 769H387L463 837L537 769H599L495 872H429Z" glyph-name="Wcircumflex.ss02" horiz-adv-x="925" /><glyph d="M629 0H698L892 700H835L666 49L498 700H434L266 49L97 700H40L234 0H303L466 630ZM554 769C579 769 599 789 599 814C599 839 579 859 554 859C529 859 509 839 509 814C509 789 529 769 554 769ZM378 769C403 769 423 789 423 814C423 839 403 859 378 859C353 859 333 839 333 814C333 789 353 769 378 769Z" glyph-name="Wdieresis" horiz-adv-x="932" unicode="&#7812;" /><glyph d="M412 0 485 255 558 0H730L930 700H879L693 48H595L510 345L612 700H561L485 434L409 700H358L459 345L375 48H277L91 700H40L240 0ZM574 769C599 769 619 789 619 814C619 839 599 859 574 859C549 859 529 839 529 814C529 789 549 769 574 769ZM398 769C423 769 443 789 443 814C443 839 423 859 398 859C373 859 353 839 353 814C353 789 373 769 398 769Z" glyph-name="Wdieresis.ss01" horiz-adv-x="970" /><glyph d="M656 -17 885 700H828L650 120L462 675L275 120L97 700H40L269 -17H278L462 513L647 -17ZM550 769C575 769 595 789 595 814C595 839 575 859 550 859C525 859 505 839 505 814C505 789 525 769 550 769ZM374 769C399 769 419 789 419 814C419 839 399 859 374 859C349 859 329 839 329 814C329 789 349 769 374 769Z" glyph-name="Wdieresis.ss02" horiz-adv-x="925" /><glyph d="M629 0H698L892 700H835L666 49L498 700H434L266 49L97 700H40L234 0H303L466 630ZM338 780H418V861H338ZM515 780H595V861H515Z" glyph-name="Wdieresis.ss03" horiz-adv-x="932" /><glyph d="M629 0H698L892 700H835L666 49L498 700H434L266 49L97 700H40L234 0H303L466 630ZM511 769 420 872H342L456 769Z" glyph-name="Wgrave" horiz-adv-x="932" unicode="&#7808;" /><glyph d="M412 0 485 255 558 0H730L930 700H879L693 48H595L510 345L612 700H561L485 434L409 700H358L459 345L375 48H277L91 700H40L240 0ZM531 769 440 872H362L476 769Z" glyph-name="Wgrave.ss01" horiz-adv-x="970" /><glyph d="M656 -17 885 700H828L650 120L462 675L275 120L97 700H40L269 -17H278L462 513L647 -17ZM507 769 416 872H338L452 769Z" glyph-name="Wgrave.ss02" horiz-adv-x="925" /><glyph d="M52 700 281 358 40 0H99L317 326L536 0H595L354 358L584 700H525L317 392L110 700Z" glyph-name="X" horiz-adv-x="635" unicode="X" /><glyph d="M55 700 195 362 45 0H96L236 335H379L519 0H570L420 362L560 700H509L377 383H237L106 700Z" glyph-name="X.ss01" horiz-adv-x="615" /><glyph d="M532 700 315 381 97 700H40L291 333V0H339V333L590 700Z" glyph-name="Y" horiz-adv-x="630" unicode="Y" /><glyph d="M532 700 315 381 97 700H40L291 333V0H339V333L590 700ZM326 770 440 873H362L271 770Z" glyph-name="Yacute" horiz-adv-x="630" unicode="&#221;" /><glyph d="M532 700 315 381 97 700H40L291 333V0H339V333L590 700ZM179 770H240L316 838L390 770H452L348 873H282Z" glyph-name="Ycircumflex" horiz-adv-x="630" unicode="&#374;" /><glyph d="M532 700 315 381 97 700H40L291 333V0H339V333L590 700ZM403 770C428 770 448 790 448 815C448 840 428 860 403 860C378 860 358 840 358 815C358 790 378 770 403 770ZM227 770C252 770 272 790 272 815C272 840 252 860 227 860C202 860 182 840 182 815C182 790 202 770 227 770Z" glyph-name="Ydieresis" horiz-adv-x="630" unicode="&#376;" /><glyph d="M532 700 315 381 97 700H40L291 333V0H339V333L590 700ZM187 781H267V862H187ZM364 781H444V862H364Z" glyph-name="Ydieresis.ss03" horiz-adv-x="630" /><glyph d="M532 700 315 381 97 700H40L291 333V0H339V333L590 700ZM360 770 269 873H191L305 770Z" glyph-name="Ygrave" horiz-adv-x="630" unicode="&#7922;" /><glyph d="M52 700V652H480L50 50V0H533V48H105L536 650V700Z" glyph-name="Z" horiz-adv-x="586" unicode="Z" /><glyph d="M50 0H585V48H144L610 700H76V652H516Z" glyph-name="Z.ss02" horiz-adv-x="660" /><glyph d="M52 700V652H480L50 50V0H533V48H105L536 650V700ZM301 769 415 872H337L246 769Z" glyph-name="Zacute" horiz-adv-x="586" unicode="&#377;" /><glyph d="M50 0H585V48H144L610 700H76V652H516ZM354 769 468 872H390L299 769Z" glyph-name="Zacute.ss02" horiz-adv-x="660" /><glyph d="M52 700V652H480L50 50V0H533V48H105L536 650V700ZM427 872H365L291 804L215 872H154L257 769H323Z" glyph-name="Zcaron" horiz-adv-x="586" unicode="&#381;" /><glyph d="M50 0H585V48H144L610 700H76V652H516ZM480 872H418L344 804L268 872H207L310 769H376Z" glyph-name="Zcaron.ss02" horiz-adv-x="660" /><glyph d="M52 700V652H480L50 50V0H533V48H105L536 650V700ZM290 775C315 775 335 795 335 820C335 845 315 865 290 865C265 865 245 845 245 820C245 795 265 775 290 775Z" glyph-name="Zdotaccent" horiz-adv-x="586" unicode="&#379;" /><glyph d="M50 0H585V48H144L610 700H76V652H516ZM343 775C368 775 388 795 388 820C388 845 368 865 343 865C318 865 298 845 298 820C298 795 318 775 343 775Z" glyph-name="Zdotaccent.ss02" horiz-adv-x="660" /><glyph d="M52 700V652H480L50 50V0H533V48H105L536 650V700ZM250 780H330V861H250Z" glyph-name="Zdotaccent.ss03" horiz-adv-x="586" /><glyph d="M243 231C292 231 347 217 395 202V141C361 91 299 37 226 37C161 37 108 68 108 130C108 187 152 231 243 231ZM397 80V0H443V314C443 436 365 502 251 502C181 502 119 471 80 413L116 379C142 421 186 454 250 454C333 454 395 404 395 312V248C343 263 287 279 236 279C134 279 60 226 60 131C60 38 133 -11 219 -11C306 -11 358 33 397 80Z" glyph-name="a" horiz-adv-x="513" unicode="a" /><glyph d="M170 334C223 334 267 354 296 385V342H336V575C336 671 278 712 191 712C123 712 82 673 69 657L97 626C96 625 130 671 190 671C252 671 293 641 293 580V535C291 535 239 553 184 553C102 553 50 511 50 443C50 372 105 334 170 334ZM293 430C262 395 222 377 179 377C130 377 95 400 95 442C95 481 125 512 189 512C236 512 272 503 293 497Z" glyph-name="a.ordn" horiz-adv-x="391" /><glyph d="M92 663H287V564H178C107 564 50 515 50 454C50 392 103 342 178 342H330V703H92ZM287 524V382H177C127 382 95 415 95 453C95 489 127 524 177 524Z" glyph-name="a.ordn.ss01" horiz-adv-x="390" /><glyph d="M45 522C45 420 121 334 231 334C285 334 327 355 359 391V342H402V703H359V655C327 691 284 711 231 711C121 711 45 626 45 522ZM91 522C91 603 151 671 228 671C305 671 360 611 360 523C360 435 309 375 228 375C147 375 91 440 91 522Z" glyph-name="a.ordn.ss02" horiz-adv-x="462" /><glyph d="M172 334C225 334 274 357 298 391C301 356 328 340 358 340C376 340 386 342 386 342V381C386 381 379 380 375 380C351 380 336 385 336 421V586C336 663 287 711 201 711C117 711 67 655 63 597H109C114 639 149 671 202 671C256 671 293 647 293 588V562L182 548C97 537 50 503 50 439C50 380 93 334 172 334ZM95 439C95 473 124 498 175 506L293 524V492C293 420 247 377 172 377C127 377 95 404 95 439Z" glyph-name="a.ordn.ss03" horiz-adv-x="391" /><glyph d="M112 442H382V297H219C121 297 55 233 55 147C55 66 123 0 219 0H430V490H112ZM222 48C148 48 103 91 103 149C103 206 148 249 222 249H382V48Z" glyph-name="a.ss01" horiz-adv-x="506" /><glyph d="M299 454C405 454 486 357 486 245C486 131 405 37 299 37C181 37 111 128 111 245C111 356 185 454 299 454ZM291 -11C379 -11 450 29 488 98V0H534V490H488V394C451 461 379 502 291 502C156 502 60 386 60 245C60 103 151 -11 291 -11Z" glyph-name="a.ss02" horiz-adv-x="610" /><glyph d="M404 249V219C404 107 333 34 236 34C166 34 121 71 121 122C121 177 162 211 237 223ZM405 85C405 33 434 -3 481 -3C488 -3 507 -2 507 -2V43C464 43 452 63 452 113V328C452 440 378 502 272 502C170 502 103 443 89 367H141C157 420 199 453 272 453C350 453 404 412 404 329V295L239 270C132 254 71 204 71 122C71 45 130 -11 230 -11C315 -11 383 34 405 85Z" glyph-name="a.ss03" horiz-adv-x="566" /><glyph d="M243 231C292 231 347 217 395 202V141C361 91 299 37 226 37C161 37 108 68 108 130C108 187 152 231 243 231ZM397 80V0H443V314C443 436 365 502 251 502C181 502 119 471 80 413L116 379C142 421 186 454 250 454C333 454 395 404 395 312V248C343 263 287 279 236 279C134 279 60 226 60 131C60 38 133 -11 219 -11C306 -11 358 33 397 80ZM274 569 388 700H318L222 569Z" glyph-name="aacute" horiz-adv-x="513" unicode="&#225;" /><glyph d="M112 442H382V297H219C121 297 55 233 55 147C55 66 123 0 219 0H430V490H112ZM222 48C148 48 103 91 103 149C103 206 148 249 222 249H382V48ZM300 569 414 700H344L248 569Z" glyph-name="aacute.ss01" horiz-adv-x="506" /><glyph d="M299 454C405 454 486 357 486 245C486 131 405 37 299 37C181 37 111 128 111 245C111 356 185 454 299 454ZM291 -11C379 -11 450 29 488 98V0H534V490H488V394C451 461 379 502 291 502C156 502 60 386 60 245C60 103 151 -11 291 -11ZM319 569 433 700H363L267 569Z" glyph-name="aacute.ss02" horiz-adv-x="610" /><glyph d="M404 249V219C404 107 333 34 236 34C166 34 121 71 121 122C121 177 162 211 237 223ZM405 85C405 33 434 -3 481 -3C488 -3 507 -2 507 -2V43C464 43 452 63 452 113V328C452 440 378 502 272 502C170 502 103 443 89 367H141C157 420 199 453 272 453C350 453 404 412 404 329V295L239 270C132 254 71 204 71 122C71 45 130 -11 230 -11C315 -11 383 34 405 85ZM291 569 405 700H335L239 569Z" glyph-name="aacute.ss03" horiz-adv-x="566" /><glyph d="M243 231C292 231 347 217 395 202V141C361 91 299 37 226 37C161 37 108 68 108 130C108 187 152 231 243 231ZM397 80V0H443V314C443 436 365 502 251 502C181 502 119 471 80 413L116 379C142 421 186 454 250 454C333 454 395 404 395 312V248C343 263 287 279 236 279C134 279 60 226 60 131C60 38 133 -11 219 -11C306 -11 358 33 397 80ZM397 701H350C345 654 319 614 265 614C212 614 183 653 180 701H133C139 624 185 567 266 567C347 567 391 629 397 701Z" glyph-name="abreve" horiz-adv-x="513" unicode="&#259;" /><glyph d="M112 442H382V297H219C121 297 55 233 55 147C55 66 123 0 219 0H430V490H112ZM222 48C148 48 103 91 103 149C103 206 148 249 222 249H382V48ZM403 701H356C351 654 325 614 271 614C218 614 189 653 186 701H139C145 624 191 567 272 567C353 567 397 629 403 701Z" glyph-name="abreve.ss01" horiz-adv-x="506" /><glyph d="M299 454C405 454 486 357 486 245C486 131 405 37 299 37C181 37 111 128 111 245C111 356 185 454 299 454ZM291 -11C379 -11 450 29 488 98V0H534V490H488V394C451 461 379 502 291 502C156 502 60 386 60 245C60 103 151 -11 291 -11ZM442 701H395C390 654 364 614 310 614C257 614 228 653 225 701H178C184 624 230 567 311 567C392 567 436 629 442 701Z" glyph-name="abreve.ss02" horiz-adv-x="610" /><glyph d="M404 249V219C404 107 333 34 236 34C166 34 121 71 121 122C121 177 162 211 237 223ZM405 85C405 33 434 -3 481 -3C488 -3 507 -2 507 -2V43C464 43 452 63 452 113V328C452 440 378 502 272 502C170 502 103 443 89 367H141C157 420 199 453 272 453C350 453 404 412 404 329V295L239 270C132 254 71 204 71 122C71 45 130 -11 230 -11C315 -11 383 34 405 85ZM397 701H350C345 654 319 614 265 614C212 614 183 653 180 701H133C139 624 185 567 266 567C347 567 391 629 397 701Z" glyph-name="abreve.ss03" horiz-adv-x="566" /><glyph d="M243 231C292 231 347 217 395 202V141C361 91 299 37 226 37C161 37 108 68 108 130C108 187 152 231 243 231ZM397 80V0H443V314C443 436 365 502 251 502C181 502 119 471 80 413L116 379C142 421 186 454 250 454C333 454 395 404 395 312V248C343 263 287 279 236 279C134 279 60 226 60 131C60 38 133 -11 219 -11C306 -11 358 33 397 80ZM233 700 136 569H185L266 661L348 569H397L300 700Z" glyph-name="acircumflex" horiz-adv-x="513" unicode="&#226;" /><glyph d="M112 442H382V297H219C121 297 55 233 55 147C55 66 123 0 219 0H430V490H112ZM222 48C148 48 103 91 103 149C103 206 148 249 222 249H382V48ZM239 700 142 569H191L272 661L354 569H403L306 700Z" glyph-name="acircumflex.ss01" horiz-adv-x="506" /><glyph d="M299 454C405 454 486 357 486 245C486 131 405 37 299 37C181 37 111 128 111 245C111 356 185 454 299 454ZM291 -11C379 -11 450 29 488 98V0H534V490H488V394C451 461 379 502 291 502C156 502 60 386 60 245C60 103 151 -11 291 -11ZM278 700 181 569H230L311 661L393 569H442L345 700Z" glyph-name="acircumflex.ss02" horiz-adv-x="610" /><glyph d="M404 249V219C404 107 333 34 236 34C166 34 121 71 121 122C121 177 162 211 237 223ZM405 85C405 33 434 -3 481 -3C488 -3 507 -2 507 -2V43C464 43 452 63 452 113V328C452 440 378 502 272 502C170 502 103 443 89 367H141C157 420 199 453 272 453C350 453 404 412 404 329V295L239 270C132 254 71 204 71 122C71 45 130 -11 230 -11C315 -11 383 34 405 85ZM233 700 136 569H185L266 661L348 569H397L300 700Z" glyph-name="acircumflex.ss03" horiz-adv-x="566" /><glyph d="M219 569 333 700H263L167 569Z" glyph-name="acute" horiz-adv-x="500" unicode="&#180;" /><glyph d="M221 769 335 872H257L166 769Z" glyph-name="acute.cap" horiz-adv-x="501" /><glyph d="M243 231C292 231 347 217 395 202V141C361 91 299 37 226 37C161 37 108 68 108 130C108 187 152 231 243 231ZM397 80V0H443V314C443 436 365 502 251 502C181 502 119 471 80 413L116 379C142 421 186 454 250 454C333 454 395 404 395 312V248C343 263 287 279 236 279C134 279 60 226 60 131C60 38 133 -11 219 -11C306 -11 358 33 397 80ZM177 610C202 610 222 630 222 655C222 680 202 700 177 700C152 700 132 680 132 655C132 630 152 610 177 610ZM353 610C378 610 398 630 398 655C398 680 378 700 353 700C328 700 308 680 308 655C308 630 328 610 353 610Z" glyph-name="adieresis" horiz-adv-x="513" unicode="&#228;" /><glyph d="M112 442H382V297H219C121 297 55 233 55 147C55 66 123 0 219 0H430V490H112ZM222 48C148 48 103 91 103 149C103 206 148 249 222 249H382V48ZM183 610C208 610 228 630 228 655C228 680 208 700 183 700C158 700 138 680 138 655C138 630 158 610 183 610ZM359 610C384 610 404 630 404 655C404 680 384 700 359 700C334 700 314 680 314 655C314 630 334 610 359 610Z" glyph-name="adieresis.ss01" horiz-adv-x="506" /><glyph d="M299 454C405 454 486 357 486 245C486 131 405 37 299 37C181 37 111 128 111 245C111 356 185 454 299 454ZM291 -11C379 -11 450 29 488 98V0H534V490H488V394C451 461 379 502 291 502C156 502 60 386 60 245C60 103 151 -11 291 -11ZM222 610C247 610 267 630 267 655C267 680 247 700 222 700C197 700 177 680 177 655C177 630 197 610 222 610ZM398 610C423 610 443 630 443 655C443 680 423 700 398 700C373 700 353 680 353 655C353 630 373 610 398 610Z" glyph-name="adieresis.ss02" horiz-adv-x="610" /><glyph d="M404 249V219C404 107 333 34 236 34C166 34 121 71 121 122C121 177 162 211 237 223ZM405 85C405 33 434 -3 481 -3C488 -3 507 -2 507 -2V43C464 43 452 63 452 113V328C452 440 378 502 272 502C170 502 103 443 89 367H141C157 420 199 453 272 453C350 453 404 412 404 329V295L239 270C132 254 71 204 71 122C71 45 130 -11 230 -11C315 -11 383 34 405 85ZM137 612H217V693H137ZM314 612H394V693H314Z" glyph-name="adieresis.ss03" horiz-adv-x="566" /><glyph d="M781 107C742 64 697 37 626 37C521 37 449 119 445 234H829V245C829 386 762 502 623 502C530 502 465 460 429 394C402 464 337 502 251 502C181 502 119 471 80 413L116 379C142 421 186 454 250 454C333 454 395 404 395 312V282H236C134 282 60 226 60 131C60 38 133 -11 219 -11C303 -11 379 32 433 98C473 32 540 -11 627 -11C722 -11 776 25 817 71ZM775 282H446C457 385 516 453 622 453C713 453 768 378 775 282ZM243 234H395C396 202 400 173 409 145C371 81 312 37 226 37C161 37 108 68 108 130C108 187 152 234 243 234Z" glyph-name="ae" horiz-adv-x="889" unicode="&#230;" /><glyph d="M216 48C142 48 103 84 103 134C103 182 142 220 216 220H382V48ZM596 442C670 442 709 406 709 356C709 308 670 270 596 270H430V442ZM430 222H599C702 222 757 281 757 358C757 432 700 490 599 490H112V442H382V268H213C111 268 55 209 55 132C55 58 113 0 213 0H720V48H430Z" glyph-name="ae.ss01" horiz-adv-x="812" /><glyph d="M868 107C829 65 784 37 717 37C611 37 543 111 534 217V234H916V245C916 386 849 502 708 502C629 502 571 472 534 422V490H488V394C451 461 379 502 291 502C156 502 60 386 60 245C60 103 151 -11 291 -11C379 -11 450 29 488 98V0H534V77C574 23 636 -11 716 -11C808 -11 862 28 904 74ZM299 454C405 454 486 357 486 245C486 131 405 37 299 37C181 37 111 128 111 245C111 356 185 454 299 454ZM861 282H534C544 385 603 453 708 453C800 453 855 378 861 282Z" glyph-name="ae.ss02" horiz-adv-x="976" /><glyph d="M794 107C755 64 710 37 639 37C534 37 460 119 456 234H842V245C842 386 775 502 636 502C543 502 478 460 442 393C417 463 350 502 265 502C165 502 103 443 89 367H141C155 420 193 454 266 454C345 454 404 406 404 325V282H244C136 282 71 219 71 132C71 47 131 -11 236 -11C326 -11 405 42 437 115C474 39 546 -11 640 -11C735 -11 789 25 830 71ZM790 282H457C468 385 529 453 635 453C726 453 783 378 790 282ZM242 234H404V207C404 107 338 37 228 37C166 37 118 69 118 130C118 192 168 234 242 234Z" glyph-name="ae.ss03" horiz-adv-x="902" /><glyph d="M781 107C742 64 697 37 626 37C521 37 449 119 445 234H829V245C829 386 762 502 623 502C530 502 465 460 429 394C402 464 337 502 251 502C181 502 119 471 80 413L116 379C142 421 186 454 250 454C333 454 395 404 395 312V282H236C134 282 60 226 60 131C60 38 133 -11 219 -11C303 -11 379 32 433 98C473 32 540 -11 627 -11C722 -11 776 25 817 71ZM775 282H446C457 385 516 453 622 453C713 453 768 378 775 282ZM243 234H395C396 202 400 173 409 145C371 81 312 37 226 37C161 37 108 68 108 130C108 187 152 234 243 234ZM469 569 583 700H513L417 569Z" glyph-name="aeacute" horiz-adv-x="889" unicode="&#509;" /><glyph d="M216 48C142 48 103 84 103 134C103 182 142 220 216 220H382V48ZM596 442C670 442 709 406 709 356C709 308 670 270 596 270H430V442ZM430 222H599C702 222 757 281 757 358C757 432 700 490 599 490H112V442H382V268H213C111 268 55 209 55 132C55 58 113 0 213 0H720V48H430ZM424 569 538 700H468L372 569Z" glyph-name="aeacute.ss01" horiz-adv-x="812" /><glyph d="M868 107C829 65 784 37 717 37C611 37 543 111 534 217V234H916V245C916 386 849 502 708 502C629 502 571 472 534 422V490H488V394C451 461 379 502 291 502C156 502 60 386 60 245C60 103 151 -11 291 -11C379 -11 450 29 488 98V0H534V77C574 23 636 -11 716 -11C808 -11 862 28 904 74ZM299 454C405 454 486 357 486 245C486 131 405 37 299 37C181 37 111 128 111 245C111 356 185 454 299 454ZM861 282H534C544 385 603 453 708 453C800 453 855 378 861 282ZM532 569 646 700H576L480 569Z" glyph-name="aeacute.ss02" horiz-adv-x="976" /><glyph d="M794 107C755 64 710 37 639 37C534 37 460 119 456 234H842V245C842 386 775 502 636 502C543 502 478 460 442 393C417 463 350 502 265 502C165 502 103 443 89 367H141C155 420 193 454 266 454C345 454 404 406 404 325V282H244C136 282 71 219 71 132C71 47 131 -11 236 -11C326 -11 405 42 437 115C474 39 546 -11 640 -11C735 -11 789 25 830 71ZM790 282H457C468 385 529 453 635 453C726 453 783 378 790 282ZM242 234H404V207C404 107 338 37 228 37C166 37 118 69 118 130C118 192 168 234 242 234ZM428 569 542 700H472L376 569Z" glyph-name="aeacute.ss03" horiz-adv-x="902" /><glyph d="M243 231C292 231 347 217 395 202V141C361 91 299 37 226 37C161 37 108 68 108 130C108 187 152 231 243 231ZM397 80V0H443V314C443 436 365 502 251 502C181 502 119 471 80 413L116 379C142 421 186 454 250 454C333 454 395 404 395 312V248C343 263 287 279 236 279C134 279 60 226 60 131C60 38 133 -11 219 -11C306 -11 358 33 397 80ZM318 569 222 700H152L266 569Z" glyph-name="agrave" horiz-adv-x="513" unicode="&#224;" /><glyph d="M112 442H382V297H219C121 297 55 233 55 147C55 66 123 0 219 0H430V490H112ZM222 48C148 48 103 91 103 149C103 206 148 249 222 249H382V48ZM354 569 258 700H188L302 569Z" glyph-name="agrave.ss01" horiz-adv-x="506" /><glyph d="M299 454C405 454 486 357 486 245C486 131 405 37 299 37C181 37 111 128 111 245C111 356 185 454 299 454ZM291 -11C379 -11 450 29 488 98V0H534V490H488V394C451 461 379 502 291 502C156 502 60 386 60 245C60 103 151 -11 291 -11ZM393 569 297 700H227L341 569Z" glyph-name="agrave.ss02" horiz-adv-x="610" /><glyph d="M404 249V219C404 107 333 34 236 34C166 34 121 71 121 122C121 177 162 211 237 223ZM405 85C405 33 434 -3 481 -3C488 -3 507 -2 507 -2V43C464 43 452 63 452 113V328C452 440 378 502 272 502C170 502 103 443 89 367H141C157 420 199 453 272 453C350 453 404 412 404 329V295L239 270C132 254 71 204 71 122C71 45 130 -11 230 -11C315 -11 383 34 405 85ZM348 569 252 700H182L296 569Z" glyph-name="agrave.ss03" horiz-adv-x="566" /><glyph d="M243 231C292 231 347 217 395 202V141C361 91 299 37 226 37C161 37 108 68 108 130C108 187 152 231 243 231ZM397 80V0H443V314C443 436 365 502 251 502C181 502 119 471 80 413L116 379C142 421 186 454 250 454C333 454 395 404 395 312V248C343 263 287 279 236 279C134 279 60 226 60 131C60 38 133 -11 219 -11C306 -11 358 33 397 80ZM379 643V690H151V643Z" glyph-name="amacron" horiz-adv-x="513" unicode="&#257;" /><glyph d="M112 442H382V297H219C121 297 55 233 55 147C55 66 123 0 219 0H430V490H112ZM222 48C148 48 103 91 103 149C103 206 148 249 222 249H382V48ZM385 643V690H157V643Z" glyph-name="amacron.ss01" horiz-adv-x="506" /><glyph d="M299 454C405 454 486 357 486 245C486 131 405 37 299 37C181 37 111 128 111 245C111 356 185 454 299 454ZM291 -11C379 -11 450 29 488 98V0H534V490H488V394C451 461 379 502 291 502C156 502 60 386 60 245C60 103 151 -11 291 -11ZM424 643V690H196V643Z" glyph-name="amacron.ss02" horiz-adv-x="610" /><glyph d="M404 249V219C404 107 333 34 236 34C166 34 121 71 121 122C121 177 162 211 237 223ZM405 85C405 33 434 -3 481 -3C488 -3 507 -2 507 -2V43C464 43 452 63 452 113V328C452 440 378 502 272 502C170 502 103 443 89 367H141C157 420 199 453 272 453C350 453 404 412 404 329V295L239 270C132 254 71 204 71 122C71 45 130 -11 230 -11C315 -11 383 34 405 85ZM379 643V690H151V643Z" glyph-name="amacron.ss03" horiz-adv-x="566" /><glyph d="M314 665C380 665 426 621 426 561C426 504 378 468 336 444L286 415L259 451C231 484 205 526 205 568C205 625 247 665 314 665ZM116 185C116 247 147 291 204 321L273 358L457 122C399 56 335 34 288 34C176 34 116 114 116 185ZM552 0H611L520 118C573 192 605 260 625 337H573C559 283 532 221 489 156L317 380L381 418C431 448 476 499 476 564C476 647 418 712 318 712C217 712 157 653 157 572C157 515 181 475 245 395L191 367C107 324 70 258 70 182C70 102 126 -11 287 -11C357 -11 430 23 486 83Z" glyph-name="ampersand" horiz-adv-x="685" unicode="&amp;" /><glyph d="M530 0V340H676V388H530V701H482V388H294C216 388 173 454 173 521C173 593 222 653 312 653H355V701H312C203 700 123 624 123 520C123 461 154 402 206 370C142 341 93 270 93 203C93 80 181 0 300 0ZM294 340H482V48H300C205 48 140 115 140 191C140 273 198 340 294 340Z" glyph-name="ampersand.ss01" horiz-adv-x="716" /><glyph d="M323 664C384 664 419 619 419 564C419 515 380 478 336 450L286 418L261 451C235 486 218 526 218 568C218 627 263 664 323 664ZM118 167C118 229 153 277 207 312L276 357L449 138C386 84 312 35 257 35C165 35 118 94 118 167ZM557 0H619L516 132L610 212L579 252L485 170L318 382L382 425C426 455 469 507 469 567C469 643 417 712 320 712C234 712 170 648 170 572C170 515 185 476 247 395L193 359C120 311 70 255 70 165C70 77 129 -11 256 -11C344 -11 420 50 478 99Z" glyph-name="ampersand.ss02" horiz-adv-x="679" /><glyph d="M406 0C358 -28 334 -66 334 -101C334 -144 362 -172 414 -172C437 -172 452 -166 452 -166V-134H445C402 -134 383 -116 383 -91C383 -60 401 -39 452 0H443V314C443 436 365 502 251 502C181 502 119 471 80 413L116 379C142 421 186 454 250 454C333 454 395 404 395 312V248C343 263 287 279 236 279C134 279 60 226 60 131C60 38 133 -11 219 -11C306 -11 358 33 397 80V0ZM243 231C292 231 347 217 395 202V141C361 91 299 37 226 37C161 37 108 68 108 130C108 187 152 231 243 231Z" glyph-name="aogonek" horiz-adv-x="513" unicode="&#261;" /><glyph d="M382 0C334 -28 310 -66 310 -101C310 -144 338 -172 390 -172C413 -172 428 -166 428 -166V-134H421C378 -134 359 -116 359 -91C359 -60 377 -39 428 0H430V490H112V442H382V297H219C121 297 55 233 55 147C55 66 123 0 219 0ZM222 48C148 48 103 91 103 149C103 206 148 249 222 249H382V48Z" glyph-name="aogonek.ss01" horiz-adv-x="506" /><glyph d="M487 0C439 -28 415 -66 415 -101C415 -144 443 -172 495 -172C518 -172 533 -166 533 -166V-134H526C483 -134 464 -116 464 -91C464 -60 482 -39 533 0H534V490H488V394C451 461 379 502 291 502C156 502 60 386 60 245C60 103 151 -11 291 -11C379 -11 450 29 488 98V0ZM299 454C405 454 486 357 486 245C486 131 405 37 299 37C181 37 111 128 111 245C111 356 185 454 299 454Z" glyph-name="aogonek.ss02" horiz-adv-x="610" /><glyph d="M405 85C405 41 425 8 460 0C412 -28 389 -66 389 -101C389 -144 417 -172 469 -172C492 -172 507 -166 507 -166V-134H500C457 -134 438 -116 438 -91C438 -60 455 -40 504 -2H507V43C464 43 452 63 452 113V328C452 440 378 502 272 502C170 502 103 443 89 367H141C157 420 199 453 272 453C350 453 404 412 404 329V295L239 270C132 254 71 204 71 122C71 45 130 -11 230 -11C315 -11 383 34 405 85ZM404 249V219C404 107 333 34 236 34C166 34 121 71 121 122C121 177 162 211 237 223Z" glyph-name="aogonek.ss03" horiz-adv-x="566" /><glyph d="M532 422C532 376 517 340 475 340C456 340 429 348 413 353L265 409C237 418 210 427 189 427C131 427 84 378 91 292H134C134 339 150 374 191 374C211 374 238 367 254 359L402 304C429 295 455 286 478 286C536 286 583 336 575 422ZM532 236C532 189 517 154 475 154C456 154 429 161 413 169L265 224C237 233 210 242 189 242C131 242 84 192 91 106H134C134 152 150 188 191 188C211 188 238 180 254 173L402 119C429 108 455 100 478 100C536 100 583 150 575 236Z" glyph-name="approxequal" horiz-adv-x="670" unicode="&#8776;" /><glyph d="M243 231C292 231 347 217 395 202V141C361 91 299 37 226 37C161 37 108 68 108 130C108 187 152 231 243 231ZM397 80V0H443V314C443 436 365 502 251 502C181 502 119 471 80 413L116 379C142 421 186 454 250 454C333 454 395 404 395 312V248C343 263 287 279 236 279C134 279 60 226 60 131C60 38 133 -11 219 -11C306 -11 358 33 397 80ZM265 563C307 563 340 597 340 637C340 679 307 712 265 712C225 712 190 679 190 637C190 597 225 563 265 563ZM265 674C286 674 302 658 302 637C302 617 286 601 265 601C245 601 228 617 228 637C228 658 245 674 265 674Z" glyph-name="aring" horiz-adv-x="513" unicode="&#229;" /><glyph d="M112 442H382V297H219C121 297 55 233 55 147C55 66 123 0 219 0H430V490H112ZM222 48C148 48 103 91 103 149C103 206 148 249 222 249H382V48ZM271 563C313 563 346 597 346 637C346 679 313 712 271 712C231 712 196 679 196 637C196 597 231 563 271 563ZM271 674C292 674 308 658 308 637C308 617 292 601 271 601C251 601 234 617 234 637C234 658 251 674 271 674Z" glyph-name="aring.ss01" horiz-adv-x="506" /><glyph d="M299 454C405 454 486 357 486 245C486 131 405 37 299 37C181 37 111 128 111 245C111 356 185 454 299 454ZM291 -11C379 -11 450 29 488 98V0H534V490H488V394C451 461 379 502 291 502C156 502 60 386 60 245C60 103 151 -11 291 -11ZM310 563C352 563 385 597 385 637C385 679 352 712 310 712C270 712 235 679 235 637C235 597 270 563 310 563ZM310 674C331 674 347 658 347 637C347 617 331 601 310 601C290 601 273 617 273 637C273 658 290 674 310 674Z" glyph-name="aring.ss02" horiz-adv-x="610" /><glyph d="M404 249V219C404 107 333 34 236 34C166 34 121 71 121 122C121 177 162 211 237 223ZM405 85C405 33 434 -3 481 -3C488 -3 507 -2 507 -2V43C464 43 452 63 452 113V328C452 440 378 502 272 502C170 502 103 443 89 367H141C157 420 199 453 272 453C350 453 404 412 404 329V295L239 270C132 254 71 204 71 122C71 45 130 -11 230 -11C315 -11 383 34 405 85ZM285 563C327 563 360 597 360 637C360 679 327 712 285 712C245 712 210 679 210 637C210 597 245 563 285 563ZM285 674C306 674 322 658 322 637C322 617 306 601 285 601C265 601 248 617 248 637C248 658 265 674 285 674Z" glyph-name="aring.ss03" horiz-adv-x="566" /><glyph d="M243 231C292 231 347 217 395 202V141C361 91 299 37 226 37C161 37 108 68 108 130C108 187 152 231 243 231ZM397 80V0H443V314C443 436 365 502 251 502C181 502 119 471 80 413L116 379C142 421 186 454 250 454C333 454 395 404 395 312V248C343 263 287 279 236 279C134 279 60 226 60 131C60 38 133 -11 219 -11C306 -11 358 33 397 80ZM273 563C315 563 348 597 348 637C348 679 315 712 273 712C233 712 198 679 198 637C198 597 233 563 273 563ZM273 674C294 674 310 658 310 637C310 617 294 601 273 601C253 601 236 617 236 637C236 658 253 674 273 674ZM295 769 409 872H331L240 769Z" glyph-name="aringacute" horiz-adv-x="513" unicode="&#507;" /><glyph d="M112 442H382V297H219C121 297 55 233 55 147C55 66 123 0 219 0H430V490H112ZM222 48C148 48 103 91 103 149C103 206 148 249 222 249H382V48ZM281 563C323 563 356 597 356 637C356 679 323 712 281 712C241 712 206 679 206 637C206 597 241 563 281 563ZM281 674C302 674 318 658 318 637C318 617 302 601 281 601C261 601 244 617 244 637C244 658 261 674 281 674ZM311 769 425 872H347L256 769Z" glyph-name="aringacute.ss01" horiz-adv-x="506" /><glyph d="M299 454C405 454 486 357 486 245C486 131 405 37 299 37C181 37 111 128 111 245C111 356 185 454 299 454ZM291 -11C379 -11 450 29 488 98V0H534V490H488V394C451 461 379 502 291 502C156 502 60 386 60 245C60 103 151 -11 291 -11ZM310 563C352 563 385 597 385 637C385 679 352 712 310 712C270 712 235 679 235 637C235 597 270 563 310 563ZM310 674C331 674 347 658 347 637C347 617 331 601 310 601C290 601 273 617 273 637C273 658 290 674 310 674ZM331 769 445 872H367L276 769Z" glyph-name="aringacute.ss02" horiz-adv-x="610" /><glyph d="M404 249V219C404 107 333 34 236 34C166 34 121 71 121 122C121 177 162 211 237 223ZM405 85C405 33 434 -3 481 -3C488 -3 507 -2 507 -2V43C464 43 452 63 452 113V328C452 440 378 502 272 502C170 502 103 443 89 367H141C157 420 199 453 272 453C350 453 404 412 404 329V295L239 270C132 254 71 204 71 122C71 45 130 -11 230 -11C315 -11 383 34 405 85ZM285 563C327 563 360 597 360 637C360 679 327 712 285 712C245 712 210 679 210 637C210 597 245 563 285 563ZM285 674C306 674 322 658 322 637C322 617 306 601 285 601C265 601 248 617 248 637C248 658 265 674 285 674ZM306 769 420 872H342L251 769Z" glyph-name="aringacute.ss03" horiz-adv-x="566" /><glyph d="M283 417 72 74H124L309 376L492 74H546L335 417Z" glyph-name="asciicircum" horiz-adv-x="618" unicode="^" /><glyph d="M374 315C374 283 364 259 334 259C318 259 304 265 288 272L217 305C210 308 183 320 161 320C108 320 76 282 84 209H130C130 242 140 265 169 265C185 265 200 259 216 252L286 219C294 215 321 204 343 204C395 204 427 243 419 315Z" glyph-name="asciitilde" horiz-adv-x="495" unicode="~" /><glyph d="M313 491 236 596 361 630 348 673 223 638V769H177V638L52 673L40 630L164 596L87 490L123 463L200 570L277 464Z" glyph-name="asterisk" horiz-adv-x="401" unicode="*" /><glyph d="M1011 263C1011 508 853 712 563 712C284 712 100 505 100 249C100 -7 291 -205 582 -205C658 -205 721 -192 767 -175V-127C717 -145 655 -157 582 -157C324 -157 148 11 148 249C148 481 312 664 563 664C832 664 963 489 963 263C963 159 921 36 832 36C790 36 768 72 768 115V490H720V394C683 461 622 502 534 502C399 502 307 386 307 245C307 103 394 -11 534 -11C622 -11 685 29 723 98C726 32 765 -11 826 -11C926 -11 1011 103 1011 263ZM545 456C654 456 722 359 722 244C722 128 654 37 545 37C426 37 355 125 355 244C355 358 430 456 545 456Z" glyph-name="at" horiz-adv-x="1111" unicode="@" /><glyph d="M243 231C292 231 347 217 395 202V141C361 91 299 37 226 37C161 37 108 68 108 130C108 187 152 231 243 231ZM397 80V0H443V314C443 436 365 502 251 502C181 502 119 471 80 413L116 379C142 421 186 454 250 454C333 454 395 404 395 312V248C343 263 287 279 236 279C134 279 60 226 60 131C60 38 133 -11 219 -11C306 -11 358 33 397 80ZM360 692C354 674 346 658 321 658C303 658 284 666 265 674C243 683 226 692 201 692C164 692 135 660 131 610H169C174 629 183 644 208 644C225 644 241 636 257 630C280 621 304 610 329 610C366 610 395 642 399 692Z" glyph-name="atilde" horiz-adv-x="513" unicode="&#227;" /><glyph d="M112 442H382V297H219C121 297 55 233 55 147C55 66 123 0 219 0H430V490H112ZM222 48C148 48 103 91 103 149C103 206 148 249 222 249H382V48ZM366 692C360 674 352 658 327 658C309 658 290 666 271 674C249 683 232 692 207 692C170 692 141 660 137 610H175C180 629 189 644 214 644C231 644 247 636 263 630C286 621 310 610 335 610C372 610 401 642 405 692Z" glyph-name="atilde.ss01" horiz-adv-x="506" /><glyph d="M299 454C405 454 486 357 486 245C486 131 405 37 299 37C181 37 111 128 111 245C111 356 185 454 299 454ZM291 -11C379 -11 450 29 488 98V0H534V490H488V394C451 461 379 502 291 502C156 502 60 386 60 245C60 103 151 -11 291 -11ZM405 692C399 674 391 658 366 658C348 658 329 666 310 674C288 683 271 692 246 692C209 692 180 660 176 610H214C219 629 228 644 253 644C270 644 286 636 302 630C325 621 349 610 374 610C411 610 440 642 444 692Z" glyph-name="atilde.ss02" horiz-adv-x="610" /><glyph d="M404 249V219C404 107 333 34 236 34C166 34 121 71 121 122C121 177 162 211 237 223ZM405 85C405 33 434 -3 481 -3C488 -3 507 -2 507 -2V43C464 43 452 63 452 113V328C452 440 378 502 272 502C170 502 103 443 89 367H141C157 420 199 453 272 453C350 453 404 412 404 329V295L239 270C132 254 71 204 71 122C71 45 130 -11 230 -11C315 -11 383 34 405 85ZM360 692C354 674 346 658 321 658C303 658 284 666 265 674C243 683 226 692 201 692C164 692 135 660 131 610H169C174 629 183 644 208 644C225 644 241 636 257 630C280 621 304 610 329 610C366 610 395 642 399 692Z" glyph-name="atilde.ss03" horiz-adv-x="566" /><glyph d="M316 502C233 502 161 461 124 394V700H76V0H124V98C162 29 233 -11 316 -11C451 -11 541 103 541 245C541 386 451 502 316 502ZM310 38C202 38 124 131 124 245C124 358 202 454 310 454C420 454 492 357 492 245C492 128 424 38 310 38Z" glyph-name="b" horiz-adv-x="601" unicode="b" /><glyph d="M30 750 385 -93H431L76 750Z" glyph-name="backslash" horiz-adv-x="461" unicode="\" /><glyph d="M76 701H30L326 0H372Z" glyph-name="backslash.cap" horiz-adv-x="402" /><glyph d="M236 700H190V-194H236Z" glyph-name="bar" horiz-adv-x="426" unicode="|" /><glyph d="M267 546C267 612 292 653 353 653H432V701H361C256 701 219 630 219 550V276H100V232H219V-40C219 -121 256 -194 361 -194H432V-146H353C297 -146 267 -109 267 -36Z" glyph-name="braceleft" horiz-adv-x="482" unicode="{" /><glyph d="M267 643C267 709 292 750 353 750H432V798H361C256 798 219 727 219 647V373H100V329H219V57C219 -24 256 -97 361 -97H432V-49H353C297 -49 267 -12 267 61Z" glyph-name="braceleft.cap" horiz-adv-x="482" /><glyph d="M215 -36C215 -109 185 -146 129 -146H50V-194H121C226 -194 263 -121 263 -40V232H382V276H263V550C263 630 226 701 121 701H50V653H129C190 653 215 612 215 546Z" glyph-name="braceright" horiz-adv-x="482" unicode="}" /><glyph d="M215 61C215 -12 185 -49 129 -49H50V-97H121C226 -97 263 -24 263 57V329H382V373H263V647C263 727 226 798 121 798H50V750H129C190 750 215 709 215 643Z" glyph-name="braceright.cap" horiz-adv-x="482" /><glyph d="M362 701H150V-194H362V-146H196V653H362Z" glyph-name="bracketleft" horiz-adv-x="412" unicode="[" /><glyph d="M362 798H150V-97H362V-49H196V750H362Z" glyph-name="bracketleft.cap" horiz-adv-x="412" /><glyph d="M50 653H216V-146H50V-194H262V701H50Z" glyph-name="bracketright" horiz-adv-x="412" unicode="]" /><glyph d="M50 750H216V-49H50V-97H262V798H50Z" glyph-name="bracketright.cap" horiz-adv-x="412" /><glyph d="M382 701H335C330 654 304 614 250 614C197 614 168 653 165 701H118C124 624 170 567 251 567C332 567 376 629 382 701Z" glyph-name="breve" horiz-adv-x="500" unicode="&#728;" /><glyph d="M372 872H325C319 829 298 806 250 806C203 806 179 830 175 872H128C135 798 176 759 251 759C327 759 366 802 372 872Z" glyph-name="breve.cap" horiz-adv-x="500" /><glyph d="M190 335H236V700H190ZM236 171H190V-194H236Z" glyph-name="brokenbar" horiz-adv-x="426" unicode="&#166;" /><glyph d="M204 149C266 149 318 200 318 262C318 325 266 376 204 376C142 376 90 325 90 262C90 200 142 149 204 149Z" glyph-name="bullet" horiz-adv-x="408" unicode="&#8226;" /><glyph d="M456 105C419 62 366 37 307 37C198 37 111 130 111 245C111 360 199 453 307 453C362 453 412 429 447 387L483 422C440 474 376 502 306 502C165 502 60 386 60 245C60 103 166 -11 307 -11C382 -11 447 21 491 72Z" glyph-name="c" horiz-adv-x="536" unicode="c" /><glyph d="M456 105C419 62 366 37 307 37C198 37 111 130 111 245C111 360 199 453 307 453C362 453 412 429 447 387L483 422C440 474 376 502 306 502C165 502 60 386 60 245C60 103 166 -11 307 -11C382 -11 447 21 491 72ZM319 569 433 700H363L267 569Z" glyph-name="cacute" horiz-adv-x="536" unicode="&#263;" /><glyph d="M284 569 381 700H332L251 608L169 700H120L217 569Z" glyph-name="caron" horiz-adv-x="501" unicode="&#711;" /><glyph d="M249 511 291 700H236L209 511Z" glyph-name="caron.alt" horiz-adv-x="500" /><glyph d="M387 872H325L251 804L175 872H114L217 769H283Z" glyph-name="caron.cap" horiz-adv-x="501" /><glyph d="M456 105C419 62 366 37 307 37C198 37 111 130 111 245C111 360 199 453 307 453C362 453 412 429 447 387L483 422C440 474 376 502 306 502C165 502 60 386 60 245C60 103 166 -11 307 -11C382 -11 447 21 491 72ZM325 569 422 700H373L292 608L210 700H161L258 569Z" glyph-name="ccaron" horiz-adv-x="536" unicode="&#269;" /><glyph d="M456 105C419 62 366 37 307 37C198 37 111 130 111 245C111 360 199 453 307 453C362 453 412 429 447 387L483 422C440 474 376 502 306 502C165 502 60 386 60 245C60 107 159 -3 293 -10L233 -137H289L344 -8C403 0 454 29 491 72Z" glyph-name="ccedilla" horiz-adv-x="536" unicode="&#231;" /><glyph d="M456 105C419 62 366 37 307 37C198 37 111 130 111 245C111 360 199 453 307 453C362 453 412 429 447 387L483 422C440 474 376 502 306 502C165 502 60 386 60 245C60 116 147 10 269 -8V-137H314V-11C386 -9 448 22 491 72Z" glyph-name="ccedilla.ss01" horiz-adv-x="536" /><glyph d="M456 105C419 62 366 37 307 37C198 37 111 130 111 245C111 360 199 453 307 453C362 453 412 429 447 387L483 422C440 474 376 502 306 502C165 502 60 386 60 245C60 103 166 -11 307 -11C382 -11 447 21 491 72ZM258 700 161 569H210L291 661L373 569H422L325 700Z" glyph-name="ccircumflex" horiz-adv-x="536" unicode="&#265;" /><glyph d="M456 105C419 62 366 37 307 37C198 37 111 130 111 245C111 360 199 453 307 453C362 453 412 429 447 387L483 422C440 474 376 502 306 502C165 502 60 386 60 245C60 103 166 -11 307 -11C382 -11 447 21 491 72ZM290 610C315 610 335 630 335 655C335 680 315 700 290 700C265 700 245 680 245 655C245 630 265 610 290 610Z" glyph-name="cdotaccent" horiz-adv-x="536" unicode="&#267;" /><glyph d="M456 105C419 62 366 37 307 37C198 37 111 130 111 245C111 360 199 453 307 453C362 453 412 429 447 387L483 422C440 474 376 502 306 502C165 502 60 386 60 245C60 103 166 -11 307 -11C382 -11 447 21 491 72ZM250 612H330V693H250Z" glyph-name="cdotaccent.ss03" horiz-adv-x="536" /><glyph d="M259 4 192 -137H248L309 4Z" glyph-name="cedilla" horiz-adv-x="501" unicode="&#184;" /><glyph d="M259 4 192 -137H248L309 4Z" glyph-name="cedilla.cap" horiz-adv-x="501" /><glyph d="M228 0V-137H273V0Z" glyph-name="cedilla.ss01" horiz-adv-x="500" /><glyph d="M228 0V-137H273V0Z" glyph-name="cedilla.ss01.cap" horiz-adv-x="500" /><glyph d="M491 72 456 105C423 67 378 43 327 38V452C374 447 416 424 447 387L483 422C444 469 389 496 327 501V606H281V501C153 488 60 378 60 245C60 112 153 3 281 -10V-115H327V-10C394 -5 451 26 491 72ZM111 245C111 351 185 438 281 451V39C184 52 111 139 111 245Z" glyph-name="cent" horiz-adv-x="531" unicode="&#162;" /><glyph d="M491 72 456 105C423 67 378 43 327 38V452C374 447 416 424 447 387L483 422C444 469 389 496 327 501V606H281V501C153 488 60 378 60 245C60 112 153 3 281 -10V-115H327V-10C394 -5 451 26 491 72ZM111 245C111 351 185 438 281 451V39C184 52 111 139 111 245Z" glyph-name="cent.osf" horiz-adv-x="531" /><glyph d="M515 72 480 105C447 67 402 43 351 38V452C398 447 440 424 471 387L507 422C468 469 413 496 351 501V606H305V501C177 488 84 378 84 245C84 112 177 3 305 -10V-115H351V-10C418 -5 475 26 515 72ZM135 245C135 351 209 438 305 451V39C208 52 135 139 135 245Z" glyph-name="cent.tf" horiz-adv-x="600" /><glyph d="M515 72 480 105C447 67 402 43 351 38V452C398 447 440 424 471 387L507 422C468 469 413 496 351 501V606H305V501C177 488 84 378 84 245C84 112 177 3 305 -10V-115H351V-10C418 -5 475 26 515 72ZM135 245C135 351 209 438 305 451V39C208 52 135 139 135 245Z" glyph-name="cent.to" horiz-adv-x="600" /><glyph d="M217 700 120 569H169L250 661L332 569H381L284 700Z" glyph-name="circumflex" horiz-adv-x="501" unicode="&#710;" /><glyph d="M114 769H175L251 837L325 769H387L283 872H217Z" glyph-name="circumflex.cap" horiz-adv-x="501" /><glyph d="M144 392C173 392 198 415 198 443C198 472 173 496 144 496C116 496 92 472 92 443C92 415 116 392 144 392ZM144 -11C173 -11 198 12 198 40C198 69 173 93 144 93C116 93 92 69 92 40C92 12 116 -11 144 -11Z" glyph-name="colon" horiz-adv-x="290" unicode=":" /><glyph d="M143 384C178 384 205 409 205 441C205 476 178 502 143 502C111 502 85 476 85 441C85 409 111 384 143 384ZM143 -11C178 -11 205 14 205 46C205 81 178 107 143 107C111 107 85 81 85 46C85 14 111 -11 143 -11Z" glyph-name="colon.ss01" horiz-adv-x="290" /><glyph d="M100 396H190V490H100ZM100 0H190V94H100Z" glyph-name="colon.ss03" horiz-adv-x="290" /><glyph d="M103 -125 212 114H142L44 -125Z" glyph-name="comma" horiz-adv-x="290" unicode="," /><glyph d="M44 -120 98 -144 201 89 146 114Z" glyph-name="comma.ss01" horiz-adv-x="290" /><glyph d="M100 0H144V-23C144 -51 138 -75 111 -85V-131C169 -118 190 -78 190 -28V94H100Z" glyph-name="comma.ss03" horiz-adv-x="290" /><glyph d="M243 -194 306 -57H241L194 -194Z" glyph-name="commaaccent" horiz-adv-x="500" unicode="&#806;" /><glyph d="M243 -194 306 -57H241L194 -194Z" glyph-name="commaaccent.cap" horiz-adv-x="500" /><glyph d="M435 -11C631 -11 785 149 785 350C785 550 631 712 435 712C242 712 85 551 85 350C85 148 241 -11 435 -11ZM438 664C611 664 737 530 737 350C737 174 612 37 438 37C264 37 133 174 133 350C133 530 264 664 438 664ZM556 249C532 220 495 197 446 197C361 197 307 264 307 349C307 433 364 504 446 504C491 504 528 483 549 454L583 491C548 532 504 550 450 550C336 550 256 463 256 349C256 238 326 150 447 150C515 150 558 178 592 215Z" glyph-name="copyright" horiz-adv-x="870" unicode="&#169;" /><glyph d="M98 246C98 203 112 164 135 133L73 71L105 39L168 101C200 77 238 64 281 64C322 64 362 77 394 101L457 39L488 71L425 133C449 164 463 204 463 246C463 287 449 326 426 357L487 418L455 450L394 390C362 414 322 428 281 428C238 428 198 414 166 390L105 451L74 419L135 358C112 326 98 287 98 246ZM138 246C138 321 195 389 281 389C363 389 423 321 423 246C423 171 364 104 281 104C198 104 138 171 138 246Z" glyph-name="currency" horiz-adv-x="561" unicode="&#164;" /><glyph d="M291 454C399 454 477 358 477 245C477 131 399 38 291 38C177 38 109 128 109 245C109 357 181 454 291 454ZM285 -11C368 -11 439 29 477 98V0H525V700H477V394C440 461 368 502 285 502C150 502 60 386 60 245C60 103 150 -11 285 -11Z" glyph-name="d" horiz-adv-x="601" unicode="d" /><glyph d="M45 522C45 418 111 334 221 334C274 334 319 355 353 393V342H393V857H350V652C319 689 274 712 222 712C114 712 45 626 45 522ZM352 522C352 429 306 373 224 373C142 373 91 439 91 522C91 606 142 671 224 671C306 671 352 615 352 522Z" glyph-name="d.ordn" horiz-adv-x="453" /><glyph d="M486 432V478H281V700H235V478H30V432H235V-194H281V432Z" glyph-name="dagger" horiz-adv-x="516" unicode="&#8224;" /><glyph d="M488 124V170H282V432H488V478H282V700H236V478H30V432H236V170H30V124H236V-194H282V124Z" glyph-name="daggerdbl" horiz-adv-x="518" unicode="&#8225;" /><glyph d="M291 454C399 454 477 358 477 245C477 131 399 38 291 38C177 38 109 128 109 245C109 357 181 454 291 454ZM285 -11C368 -11 439 29 477 98V0H525V700H477V394C440 461 368 502 285 502C150 502 60 386 60 245C60 103 150 -11 285 -11ZM627 511 669 700H614L587 511Z" glyph-name="dcaron" horiz-adv-x="601" unicode="&#271;" /><glyph d="M285 -11C368 -11 439 29 477 98V0H525V580H591V624H525V700H477V624H282V580H477V394C440 461 368 502 285 502C150 502 60 386 60 245C60 103 150 -11 285 -11ZM291 454C399 454 477 358 477 245C477 131 399 38 291 38C177 38 109 128 109 245C109 357 181 454 291 454Z" glyph-name="dcroat" horiz-adv-x="601" unicode="&#273;" /><glyph d="M176 422C257 422 321 486 321 567C321 648 257 712 176 712C95 712 30 648 30 567C30 486 95 422 176 422ZM176 668C228 668 272 625 272 567C272 510 228 468 176 468C121 468 80 510 80 567C80 625 121 668 176 668Z" glyph-name="degree" horiz-adv-x="351" unicode="&#176;" /><glyph d="M162 610C187 610 207 630 207 655C207 680 187 700 162 700C137 700 117 680 117 655C117 630 137 610 162 610ZM338 610C363 610 383 630 383 655C383 680 363 700 338 700C313 700 293 680 293 655C293 630 313 610 338 610Z" glyph-name="dieresis" horiz-adv-x="500" unicode="&#168;" /><glyph d="M338 769C363 769 383 789 383 814C383 839 363 859 338 859C313 859 293 839 293 814C293 789 313 769 338 769ZM162 769C187 769 207 789 207 814C207 839 187 859 162 859C137 859 117 839 117 814C117 789 137 769 162 769Z" glyph-name="dieresis.cap" horiz-adv-x="500" /><glyph d="M122 612H202V693H122ZM299 612H379V693H299Z" glyph-name="dieresis.ss03" horiz-adv-x="501" /><glyph d="M122 780H202V861H122ZM299 780H379V861H299Z" glyph-name="dieresis.ss03.cap" horiz-adv-x="501" /><glyph d="M570 228V272H86V228ZM277 50C277 20 300 -3 330 -3C362 -3 385 20 385 50C385 81 362 104 330 104C300 104 277 81 277 50ZM277 439C277 409 300 386 330 386C362 386 385 409 385 439C385 470 362 493 330 493C300 493 277 470 277 439Z" glyph-name="divide" horiz-adv-x="656" unicode="&#247;" /><glyph d="M283 384C188 400 117 447 117 527C117 604 184 660 287 664V383ZM350 324C443 307 511 264 511 184C511 104 444 43 333 37V327ZM333 -114V-10C484 -3 561 84 561 183C561 287 485 350 354 372L333 376V662C410 652 461 613 498 572L532 609C483 658 420 702 333 711V815H287V712C170 706 67 639 67 525C67 415 158 358 260 340L287 335V38C194 46 129 89 85 138L51 102C103 39 185 -4 287 -10V-114Z" glyph-name="dollar" horiz-adv-x="592" unicode="$" /><glyph d="M283 384C188 400 117 447 117 527C117 604 184 660 287 664V383ZM350 324C443 307 511 264 511 184C511 104 444 43 333 37V327ZM333 -114V-10C484 -3 561 84 561 183C561 287 485 350 354 372L333 376V662C410 652 461 613 498 572L532 609C483 658 420 702 333 711V815H287V712C170 706 67 639 67 525C67 415 158 358 260 340L287 335V38C194 46 129 89 85 138L51 102C103 39 185 -4 287 -10V-114Z" glyph-name="dollar.osf" horiz-adv-x="592" /><glyph d="M319 -114V-11C472 -4 550 83 550 183C550 287 474 350 343 372L272 384C177 400 106 447 106 527C106 606 177 664 286 664C384 664 444 619 487 572L521 609C472 659 408 703 319 711V815H275V712C158 706 56 639 56 525C56 415 147 358 249 340L339 324C432 307 500 264 500 184C500 100 426 37 305 37C196 37 122 84 74 138L40 102C92 39 173 -4 275 -10V-114Z" glyph-name="dollar.ss01" horiz-adv-x="592" /><glyph d="M285 -113V-11C419 -11 502 70 502 168C502 273 437 324 328 364L266 387C186 417 114 454 114 536C114 612 179 664 276 664C365 664 407 622 440 575L476 610C439 664 375 710 285 712V815H241V710C145 697 63 633 63 531C63 432 142 381 237 345L314 316C388 288 451 249 451 168C451 92 390 37 282 37C188 37 124 76 75 148L40 112C84 48 153 2 241 -9V-113Z" glyph-name="dollar.ss02" horiz-adv-x="542" /><glyph d="M286 -114H332V-10C477 1 528 100 528 180C528 291 459 353 345 374L332 376V662C411 652 446 606 469 574L502 607C475 650 420 701 332 710V815H286V711C153 704 91 619 91 525C91 421 169 356 259 340L286 335V37C191 44 139 103 106 148L71 112C109 56 178 -4 286 -10ZM342 325C426 310 477 261 477 181C477 110 431 48 332 38V327ZM141 526C141 594 177 658 286 663V384L278 386C192 401 141 452 141 526Z" glyph-name="dollar.tf" horiz-adv-x="600" /><glyph d="M522 187C522 291 458 352 339 374L272 386C186 401 135 452 135 526C135 597 178 664 295 664C397 664 438 610 463 574L496 607C468 651 412 703 326 711V815H280V711C149 702 85 617 85 525C85 421 163 356 253 340L336 325C420 310 471 261 471 181C471 109 416 37 297 37C191 37 135 101 100 148L65 112C102 56 174 -2 280 -10V-114H326V-10C460 0 522 99 522 187Z" glyph-name="dollar.tf.ss01" horiz-adv-x="600" /><glyph d="M343 316C417 288 480 249 480 168C480 92 419 37 311 37C217 37 153 76 104 148L69 112C115 44 189 -3 284 -10V-114H330V-10C456 -2 531 75 531 168C531 273 466 324 357 364L295 387C215 417 143 454 143 536C143 612 208 664 305 664C394 664 436 622 469 575L505 610C470 660 412 704 330 711V815H284V711C182 702 92 638 92 531C92 432 171 381 266 345Z" glyph-name="dollar.tf.ss02" horiz-adv-x="600" /><glyph d="M286 -114H332V-10C477 1 528 100 528 180C528 291 459 353 345 374L332 376V662C411 652 446 606 469 574L502 607C475 650 420 701 332 710V815H286V711C153 704 91 619 91 525C91 421 169 356 259 340L286 335V37C191 44 139 103 106 148L71 112C109 56 178 -4 286 -10ZM342 325C426 310 477 261 477 181C477 110 431 48 332 38V327ZM141 526C141 594 177 658 286 663V384L278 386C192 401 141 452 141 526Z" glyph-name="dollar.to" horiz-adv-x="600" /><glyph d="M250 610C275 610 295 630 295 655C295 680 275 700 250 700C225 700 205 680 205 655C205 630 225 610 250 610Z" glyph-name="dotaccent" horiz-adv-x="500" unicode="&#729;" /><glyph d="M250 775C275 775 295 795 295 820C295 845 275 865 250 865C225 865 205 845 205 820C205 795 225 775 250 775Z" glyph-name="dotaccent.cap" horiz-adv-x="500" /><glyph d="M210 612H290V693H210Z" glyph-name="dotaccent.ss03" horiz-adv-x="500" /><glyph d="M210 780H290V861H210Z" glyph-name="dotaccent.ss03.cap" horiz-adv-x="500" /><glyph d="M76 0H124V490H76Z" glyph-name="dotlessi" horiz-adv-x="200" unicode="&#305;" /><glyph d="M76 0H124V490H76Z" glyph-name="dotlessi.ss03" horiz-adv-x="200" /><glyph d="M83 -48C83 -123 65 -157 -14 -157H-45V-204C-35 -205 -24 -205 -7 -205C83 -205 131 -168 131 -65V490H83Z" glyph-name="dotlessj" horiz-adv-x="207" unicode="&#567;" /><glyph d="M-53 -194H128V490H80V-146H-53Z" glyph-name="dotlessj.ss01" horiz-adv-x="204" /><glyph d="M80 -48C80 -123 62 -157 -17 -157H-48V-204C-38 -205 -27 -205 -10 -205C80 -205 128 -168 128 -65V490H80Z" glyph-name="dotlessj.ss03" horiz-adv-x="203" /><glyph d="M446 107C407 65 362 37 295 37C184 37 114 119 111 234H494V245C494 386 427 502 286 502C137 502 60 392 60 245C60 103 148 -11 294 -11C386 -11 440 28 482 74ZM439 282H112C122 385 181 453 286 453C378 453 433 378 439 282Z" glyph-name="e" horiz-adv-x="554" unicode="e" /><glyph d="M380 509C382 517 382 525 382 531C382 619 336 712 219 712C108 712 45 623 45 524C45 412 115 334 222 334C295 334 339 362 372 399L341 426C311 392 275 373 229 373C150 373 95 427 89 509ZM218 671C289 671 331 620 336 548H91C100 616 143 671 218 671Z" glyph-name="e.ordn" horiz-adv-x="427" /><glyph d="M185 513C132 513 98 550 98 592C98 635 132 669 185 669C236 669 273 635 273 592C273 550 236 513 185 513ZM98 503C121 485 150 472 185 472C267 472 317 529 317 592C317 656 264 711 185 711C102 711 55 656 55 578V342H306V382H98Z" glyph-name="e.ordn.ss01" horiz-adv-x="367" /><glyph d="M131 334C131 396 180 454 259 454C333 454 384 396 384 334C384 271 333 215 259 215C181 215 131 271 131 334ZM432 334C432 435 357 502 256 502C159 502 76 435 76 319V0H412V48H124V224C157 188 202 167 256 167C357 167 432 238 432 334Z" glyph-name="e.ss01" horiz-adv-x="482" /><glyph d="M446 107C407 65 362 37 295 37C184 37 114 119 111 234H494V245C494 386 427 502 286 502C137 502 60 392 60 245C60 103 148 -11 294 -11C386 -11 440 28 482 74ZM439 282H112C122 385 181 453 286 453C378 453 433 378 439 282ZM283 569 397 700H327L231 569Z" glyph-name="eacute" horiz-adv-x="554" unicode="&#233;" /><glyph d="M131 334C131 396 180 454 259 454C333 454 384 396 384 334C384 271 333 215 259 215C181 215 131 271 131 334ZM432 334C432 435 357 502 256 502C159 502 76 435 76 319V0H412V48H124V224C157 188 202 167 256 167C357 167 432 238 432 334ZM220 569 334 700H264L168 569Z" glyph-name="eacute.ss01" horiz-adv-x="482" /><glyph d="M446 107C407 65 362 37 295 37C184 37 114 119 111 234H494V245C494 386 427 502 286 502C137 502 60 392 60 245C60 103 148 -11 294 -11C386 -11 440 28 482 74ZM439 282H112C122 385 181 453 286 453C378 453 433 378 439 282ZM406 701H359C354 654 328 614 274 614C221 614 192 653 189 701H142C148 624 194 567 275 567C356 567 400 629 406 701Z" glyph-name="ebreve" horiz-adv-x="554" unicode="&#277;" /><glyph d="M131 334C131 396 180 454 259 454C333 454 384 396 384 334C384 271 333 215 259 215C181 215 131 271 131 334ZM432 334C432 435 357 502 256 502C159 502 76 435 76 319V0H412V48H124V224C157 188 202 167 256 167C357 167 432 238 432 334ZM383 701H336C331 654 305 614 251 614C198 614 169 653 166 701H119C125 624 171 567 252 567C333 567 377 629 383 701Z" glyph-name="ebreve.ss01" horiz-adv-x="482" /><glyph d="M446 107C407 65 362 37 295 37C184 37 114 119 111 234H494V245C494 386 427 502 286 502C137 502 60 392 60 245C60 103 148 -11 294 -11C386 -11 440 28 482 74ZM439 282H112C122 385 181 453 286 453C378 453 433 378 439 282ZM309 569 406 700H357L276 608L194 700H145L242 569Z" glyph-name="ecaron" horiz-adv-x="554" unicode="&#283;" /><glyph d="M131 334C131 396 180 454 259 454C333 454 384 396 384 334C384 271 333 215 259 215C181 215 131 271 131 334ZM432 334C432 435 357 502 256 502C159 502 76 435 76 319V0H412V48H124V224C157 188 202 167 256 167C357 167 432 238 432 334ZM286 569 383 700H334L253 608L171 700H122L219 569Z" glyph-name="ecaron.ss01" horiz-adv-x="482" /><glyph d="M446 107C407 65 362 37 295 37C184 37 114 119 111 234H494V245C494 386 427 502 286 502C137 502 60 392 60 245C60 103 148 -11 294 -11C386 -11 440 28 482 74ZM439 282H112C122 385 181 453 286 453C378 453 433 378 439 282ZM242 700 145 569H194L275 661L357 569H406L309 700Z" glyph-name="ecircumflex" horiz-adv-x="554" unicode="&#234;" /><glyph d="M131 334C131 396 180 454 259 454C333 454 384 396 384 334C384 271 333 215 259 215C181 215 131 271 131 334ZM432 334C432 435 357 502 256 502C159 502 76 435 76 319V0H412V48H124V224C157 188 202 167 256 167C357 167 432 238 432 334ZM219 700 122 569H171L252 661L334 569H383L286 700Z" glyph-name="ecircumflex.ss01" horiz-adv-x="482" /><glyph d="M446 107C407 65 362 37 295 37C184 37 114 119 111 234H494V245C494 386 427 502 286 502C137 502 60 392 60 245C60 103 148 -11 294 -11C386 -11 440 28 482 74ZM439 282H112C122 385 181 453 286 453C378 453 433 378 439 282ZM186 610C211 610 231 630 231 655C231 680 211 700 186 700C161 700 141 680 141 655C141 630 161 610 186 610ZM362 610C387 610 407 630 407 655C407 680 387 700 362 700C337 700 317 680 317 655C317 630 337 610 362 610Z" glyph-name="edieresis" horiz-adv-x="554" unicode="&#235;" /><glyph d="M131 334C131 396 180 454 259 454C333 454 384 396 384 334C384 271 333 215 259 215C181 215 131 271 131 334ZM432 334C432 435 357 502 256 502C159 502 76 435 76 319V0H412V48H124V224C157 188 202 167 256 167C357 167 432 238 432 334ZM163 610C188 610 208 630 208 655C208 680 188 700 163 700C138 700 118 680 118 655C118 630 138 610 163 610ZM339 610C364 610 384 630 384 655C384 680 364 700 339 700C314 700 294 680 294 655C294 630 314 610 339 610Z" glyph-name="edieresis.ss01" horiz-adv-x="482" /><glyph d="M446 107C407 65 362 37 295 37C184 37 114 119 111 234H494V245C494 386 427 502 286 502C137 502 60 392 60 245C60 103 148 -11 294 -11C386 -11 440 28 482 74ZM439 282H112C122 385 181 453 286 453C378 453 433 378 439 282ZM146 612H226V693H146ZM323 612H403V693H323Z" glyph-name="edieresis.ss03" horiz-adv-x="554" /><glyph d="M446 107C407 65 362 37 295 37C184 37 114 119 111 234H494V245C494 386 427 502 286 502C137 502 60 392 60 245C60 103 148 -11 294 -11C386 -11 440 28 482 74ZM439 282H112C122 385 181 453 286 453C378 453 433 378 439 282ZM274 610C299 610 319 630 319 655C319 680 299 700 274 700C249 700 229 680 229 655C229 630 249 610 274 610Z" glyph-name="edotaccent" horiz-adv-x="554" unicode="&#279;" /><glyph d="M131 334C131 396 180 454 259 454C333 454 384 396 384 334C384 271 333 215 259 215C181 215 131 271 131 334ZM432 334C432 435 357 502 256 502C159 502 76 435 76 319V0H412V48H124V224C157 188 202 167 256 167C357 167 432 238 432 334ZM251 610C276 610 296 630 296 655C296 680 276 700 251 700C226 700 206 680 206 655C206 630 226 610 251 610Z" glyph-name="edotaccent.ss01" horiz-adv-x="482" /><glyph d="M446 107C407 65 362 37 295 37C184 37 114 119 111 234H494V245C494 386 427 502 286 502C137 502 60 392 60 245C60 103 148 -11 294 -11C386 -11 440 28 482 74ZM439 282H112C122 385 181 453 286 453C378 453 433 378 439 282ZM234 612H314V693H234Z" glyph-name="edotaccent.ss03" horiz-adv-x="554" /><glyph d="M446 107C407 65 362 37 295 37C184 37 114 119 111 234H494V245C494 386 427 502 286 502C137 502 60 392 60 245C60 103 148 -11 294 -11C386 -11 440 28 482 74ZM439 282H112C122 385 181 453 286 453C378 453 433 378 439 282ZM357 569 261 700H191L305 569Z" glyph-name="egrave" horiz-adv-x="554" unicode="&#232;" /><glyph d="M131 334C131 396 180 454 259 454C333 454 384 396 384 334C384 271 333 215 259 215C181 215 131 271 131 334ZM432 334C432 435 357 502 256 502C159 502 76 435 76 319V0H412V48H124V224C157 188 202 167 256 167C357 167 432 238 432 334ZM334 569 238 700H168L282 569Z" glyph-name="egrave.ss01" horiz-adv-x="482" /><glyph d="M273 -11C390 -11 491 65 491 187C491 284 405 352 361 361C397 374 473 425 473 520C473 642 372 712 273 712C175 712 73 642 73 520C73 425 150 374 186 361C141 352 55 284 55 187C55 65 156 -11 273 -11ZM273 334C364 334 441 279 441 185C441 88 361 37 273 37C186 37 105 88 105 185C105 280 180 334 273 334ZM273 664C333 664 423 627 423 522C423 431 354 383 273 383C191 383 123 431 123 522C123 627 213 664 273 664Z" glyph-name="eight" horiz-adv-x="546" unicode="8" /><glyph d="M273 -11C390 -11 491 65 491 187C491 284 405 352 361 361C397 374 473 425 473 520C473 642 372 712 273 712C175 712 73 642 73 520C73 425 150 374 186 361C141 352 55 284 55 187C55 65 156 -11 273 -11ZM273 334C364 334 441 279 441 185C441 88 361 37 273 37C186 37 105 88 105 185C105 280 180 334 273 334ZM273 664C333 664 423 627 423 522C423 431 354 383 273 383C191 383 123 431 123 522C123 627 213 664 273 664Z" glyph-name="eight.osf" horiz-adv-x="546" /><glyph d="M293 -11C408 -11 502 70 502 184C502 266 453 333 384 365C448 395 486 457 486 533C486 643 395 712 293 712C192 712 101 643 101 533C101 457 138 395 202 365C133 333 85 266 85 184C85 70 179 -11 293 -11ZM435 526C435 449 379 386 293 386C206 386 151 449 151 526C151 609 217 664 293 664C368 664 435 609 435 526ZM447 187C447 102 383 39 291 39C197 39 135 102 135 187C135 272 198 337 291 337C383 337 447 272 447 187Z" glyph-name="eight.osf.ss01" horiz-adv-x="586" /><glyph d="M278 -11C399 -11 497 80 497 206C497 306 438 375 361 401C415 427 449 483 449 541C449 635 373 712 278 712C183 712 107 635 107 541C107 483 140 427 194 401C118 375 60 306 60 206C60 80 157 -11 278 -11ZM401 543C401 471 340 426 278 426C215 426 155 471 155 543C155 616 212 664 278 664C344 664 401 616 401 543ZM448 204C448 106 373 37 279 37C185 37 109 106 109 204C109 300 184 372 279 372C367 372 448 301 448 204Z" glyph-name="eight.osf.ss02" horiz-adv-x="557" /><glyph d="M293 -11C408 -11 507 70 507 184C507 266 453 333 384 365C448 395 491 457 491 533C491 643 395 712 293 712C192 712 96 643 96 533C96 457 138 395 202 365C133 333 80 266 80 184C80 70 179 -11 293 -11ZM440 526C440 449 379 386 293 386C206 386 146 449 146 526C146 609 217 664 293 664C368 664 440 609 440 526ZM452 187C452 102 383 39 291 39C197 39 130 102 130 187C130 272 198 337 291 337C383 337 452 272 452 187Z" glyph-name="eight.osf.ss03" horiz-adv-x="587" /><glyph d="M293 -11C408 -11 502 70 502 184C502 266 453 333 384 365C448 395 486 457 486 533C486 643 395 712 293 712C192 712 101 643 101 533C101 457 138 395 202 365C133 333 85 266 85 184C85 70 179 -11 293 -11ZM435 526C435 449 379 386 293 386C206 386 151 449 151 526C151 609 217 664 293 664C368 664 435 609 435 526ZM447 187C447 102 383 39 291 39C197 39 135 102 135 187C135 272 198 337 291 337C383 337 447 272 447 187Z" glyph-name="eight.ss01" horiz-adv-x="586" /><glyph d="M278 -11C399 -11 497 80 497 206C497 306 438 375 361 401C415 427 449 483 449 541C449 635 373 712 278 712C183 712 107 635 107 541C107 483 140 427 194 401C118 375 60 306 60 206C60 80 157 -11 278 -11ZM401 543C401 471 340 426 278 426C215 426 155 471 155 543C155 616 212 664 278 664C344 664 401 616 401 543ZM448 204C448 106 373 37 279 37C185 37 109 106 109 204C109 300 184 372 279 372C367 372 448 301 448 204Z" glyph-name="eight.ss02" horiz-adv-x="557" /><glyph d="M293 -11C408 -11 507 70 507 184C507 266 453 333 384 365C448 395 491 457 491 533C491 643 395 712 293 712C192 712 96 643 96 533C96 457 138 395 202 365C133 333 80 266 80 184C80 70 179 -11 293 -11ZM440 526C440 449 379 386 293 386C206 386 146 449 146 526C146 609 217 664 293 664C368 664 440 609 440 526ZM452 187C452 102 383 39 291 39C197 39 130 102 130 187C130 272 198 337 291 337C383 337 452 272 452 187Z" glyph-name="eight.ss03" horiz-adv-x="587" /><glyph d="M306 -11C423 -11 524 65 524 187C524 284 438 352 394 361C430 374 506 425 506 520C506 642 405 712 306 712C208 712 106 642 106 520C106 425 183 374 219 361C174 352 88 284 88 187C88 65 189 -11 306 -11ZM306 334C397 334 474 279 474 185C474 88 394 37 306 37C219 37 138 88 138 185C138 280 213 334 306 334ZM306 664C366 664 456 627 456 522C456 431 387 383 306 383C224 383 156 431 156 522C156 627 246 664 306 664Z" glyph-name="eight.tf" horiz-adv-x="600" /><glyph d="M299 -11C414 -11 508 70 508 184C508 266 459 333 390 365C454 395 492 457 492 533C492 643 401 712 299 712C198 712 107 643 107 533C107 457 144 395 208 365C139 333 91 266 91 184C91 70 185 -11 299 -11ZM441 526C441 449 385 386 299 386C212 386 157 449 157 526C157 609 223 664 299 664C374 664 441 609 441 526ZM453 187C453 102 389 39 297 39C203 39 141 102 141 187C141 272 204 337 297 337C389 337 453 272 453 187Z" glyph-name="eight.tf.ss01" horiz-adv-x="600" /><glyph d="M299 -11C420 -11 518 80 518 206C518 306 459 375 382 401C436 427 470 483 470 541C470 635 394 712 299 712C204 712 128 635 128 541C128 483 161 427 215 401C139 375 81 306 81 206C81 80 178 -11 299 -11ZM422 543C422 471 361 426 299 426C236 426 176 471 176 543C176 616 233 664 299 664C365 664 422 616 422 543ZM469 204C469 106 394 37 300 37C206 37 130 106 130 204C130 300 205 372 300 372C388 372 469 301 469 204Z" glyph-name="eight.tf.ss02" horiz-adv-x="600" /><glyph d="M299 -11C414 -11 513 70 513 184C513 266 459 333 390 365C454 395 497 457 497 533C497 643 401 712 299 712C198 712 102 643 102 533C102 457 144 395 208 365C139 333 86 266 86 184C86 70 185 -11 299 -11ZM446 526C446 449 385 386 299 386C212 386 152 449 152 526C152 609 223 664 299 664C374 664 446 609 446 526ZM458 187C458 102 389 39 297 39C203 39 136 102 136 187C136 272 204 337 297 337C389 337 458 272 458 187Z" glyph-name="eight.tf.ss03" horiz-adv-x="600" /><glyph d="M300 -11C417 -11 518 65 518 187C518 284 432 352 388 361C424 374 500 425 500 520C500 642 399 712 300 712C202 712 100 642 100 520C100 425 177 374 213 361C168 352 82 284 82 187C82 65 183 -11 300 -11ZM300 334C391 334 468 279 468 185C468 88 388 37 300 37C213 37 132 88 132 185C132 280 207 334 300 334ZM300 664C360 664 450 627 450 522C450 431 381 383 300 383C218 383 150 431 150 522C150 627 240 664 300 664Z" glyph-name="eight.to" horiz-adv-x="600" /><glyph d="M299 -11C414 -11 508 70 508 184C508 266 459 333 390 365C454 395 492 457 492 533C492 643 401 712 299 712C198 712 107 643 107 533C107 457 144 395 208 365C139 333 91 266 91 184C91 70 185 -11 299 -11ZM441 526C441 449 385 386 299 386C212 386 157 449 157 526C157 609 223 664 299 664C374 664 441 609 441 526ZM453 187C453 102 389 39 297 39C203 39 141 102 141 187C141 272 204 337 297 337C389 337 453 272 453 187Z" glyph-name="eight.to.ss01" horiz-adv-x="600" /><glyph d="M299 -11C420 -11 518 80 518 206C518 306 459 375 382 401C436 427 470 483 470 541C470 635 394 712 299 712C204 712 128 635 128 541C128 483 161 427 215 401C139 375 81 306 81 206C81 80 178 -11 299 -11ZM422 543C422 471 361 426 299 426C236 426 176 471 176 543C176 616 233 664 299 664C365 664 422 616 422 543ZM469 204C469 106 394 37 300 37C206 37 130 106 130 204C130 300 205 372 300 372C388 372 469 301 469 204Z" glyph-name="eight.to.ss02" horiz-adv-x="600" /><glyph d="M299 -11C414 -11 513 70 513 184C513 266 459 333 390 365C454 395 497 457 497 533C497 643 401 712 299 712C198 712 102 643 102 533C102 457 144 395 208 365C139 333 86 266 86 184C86 70 185 -11 299 -11ZM446 526C446 449 385 386 299 386C212 386 152 449 152 526C152 609 223 664 299 664C374 664 446 609 446 526ZM458 187C458 102 389 39 297 39C203 39 136 102 136 187C136 272 204 337 297 337C389 337 458 272 458 187Z" glyph-name="eight.to.ss03" horiz-adv-x="600" /><glyph d="M660 -11C691 -11 716 12 716 42C716 73 691 97 660 97C630 97 606 73 606 42C606 12 630 -11 660 -11ZM403 -11C434 -11 459 12 459 42C459 73 434 97 403 97C373 97 349 73 349 42C349 12 373 -11 403 -11ZM146 -11C177 -11 202 12 202 42C202 73 177 97 146 97C116 97 92 73 92 42C92 12 116 -11 146 -11Z" glyph-name="ellipsis" horiz-adv-x="808" unicode="&#8230;" /><glyph d="M654 -11C689 -11 716 14 716 46C716 81 689 107 654 107C622 107 596 81 596 46C596 14 622 -11 654 -11ZM398 -11C433 -11 460 14 460 46C460 81 433 107 398 107C366 107 340 81 340 46C340 14 366 -11 398 -11ZM143 -11C178 -11 205 14 205 46C205 81 178 107 143 107C111 107 85 81 85 46C85 14 111 -11 143 -11Z" glyph-name="ellipsis.ss01" horiz-adv-x="801" /><glyph d="M568 0H658V94H568ZM334 0H424V94H334ZM100 0H190V94H100Z" glyph-name="ellipsis.ss03" horiz-adv-x="758" /><glyph d="M446 107C407 65 362 37 295 37C184 37 114 119 111 234H494V245C494 386 427 502 286 502C137 502 60 392 60 245C60 103 148 -11 294 -11C386 -11 440 28 482 74ZM439 282H112C122 385 181 453 286 453C378 453 433 378 439 282ZM388 643V690H160V643Z" glyph-name="emacron" horiz-adv-x="554" unicode="&#275;" /><glyph d="M131 334C131 396 180 454 259 454C333 454 384 396 384 334C384 271 333 215 259 215C181 215 131 271 131 334ZM432 334C432 435 357 502 256 502C159 502 76 435 76 319V0H412V48H124V224C157 188 202 167 256 167C357 167 432 238 432 334ZM365 643V690H137V643Z" glyph-name="emacron.ss01" horiz-adv-x="482" /><glyph d="M980 240V286H20V240Z" glyph-name="emdash" horiz-adv-x="1000" unicode="&#8212;" /><glyph d="M980 328V374H20V328Z" glyph-name="emdash.cap" horiz-adv-x="1000" /><glyph d="M480 239V285H20V239Z" glyph-name="endash" horiz-adv-x="500" unicode="&#8211;" /><glyph d="M480 328V374H20V328Z" glyph-name="endash.cap" horiz-adv-x="500" /><glyph d="M494 -65V245C494 388 451 502 300 502C218 502 160 472 123 405V490H76V0H124V239C124 361 184 454 295 454C415 454 446 366 446 239V-48C446 -123 428 -157 349 -157H318V-204C328 -205 339 -205 356 -205C446 -205 494 -168 494 -65Z" glyph-name="eng" horiz-adv-x="564" unicode="&#331;" /><glyph d="M456 -194V490H76V0H124V442H408V-146H275V-194Z" glyph-name="eng.ss01" horiz-adv-x="532" /><glyph d="M294 -11C319 -11 343 -7 364 -2C337 -25 318 -65 318 -94C318 -144 353 -172 414 -172C432 -172 444 -169 453 -166V-134H446C392 -134 363 -113 363 -77C363 -31 402 0 433 27C448 41 467 58 482 74L446 107C407 65 362 37 295 37C184 37 114 119 111 234H494V245C494 386 427 502 286 502C137 502 60 392 60 245C60 103 148 -11 294 -11ZM112 282C122 385 181 453 286 453C378 453 433 378 439 282Z" glyph-name="eogonek" horiz-adv-x="554" unicode="&#281;" /><glyph d="M366 0C318 -28 294 -66 294 -101C294 -144 322 -172 374 -172C397 -172 412 -166 412 -166V-134H405C362 -134 343 -116 343 -91C343 -60 361 -39 412 0V48H124V224C157 188 202 167 256 167C357 167 432 238 432 334C432 435 357 502 256 502C159 502 76 435 76 319V0ZM131 334C131 396 180 454 259 454C333 454 384 396 384 334C384 271 333 215 259 215C181 215 131 271 131 334Z" glyph-name="eogonek.ss01" horiz-adv-x="482" /><glyph d="M573 331V374H83V331ZM573 152V195H83V152Z" glyph-name="equal" horiz-adv-x="658" unicode="=" /><glyph d="M508 94C466 51 418 27 321 27C231 27 157 67 116 132V244H602V271C602 435 476 552 321 552C156 552 40 435 40 271C40 106 156 -11 321 -11C438 -11 507 28 559 94ZM321 514C407 514 483 472 526 405V282H116V409C157 474 231 514 321 514Z" glyph-name="estimated" horiz-adv-x="650" unicode="&#8494;" /><glyph d="M179 529 299 593 421 420C387 437 353 454 296 454C178 454 60 364 60 220C60 73 178 -11 301 -11C443 -11 545 88 545 227C545 299 508 378 440 475L341 616L416 655V708L315 653L283 700H224L273 627L179 580ZM301 37C204 37 108 110 108 219C108 332 206 406 300 406C415 406 495 322 495 219C495 110 409 37 301 37Z" glyph-name="eth" horiz-adv-x="605" unicode="&#240;" /><glyph d="M121 210H169V701H121ZM146 -11C173 -11 196 12 196 40C196 66 173 89 146 89C117 89 95 66 95 40C95 12 117 -11 146 -11Z" glyph-name="exclam" horiz-adv-x="290" unicode="!" /><glyph d="M121 210H169V701H121ZM146 -11C173 -11 196 12 196 40C196 66 173 89 146 89C117 89 95 66 95 40C95 12 117 -11 146 -11Z" glyph-name="exclam.ss01" horiz-adv-x="291" /><glyph d="M122 211H170V701H122ZM100 0H190V94H100Z" glyph-name="exclam.ss03" horiz-adv-x="290" /><glyph d="M145 502C118 502 95 479 95 451C95 425 118 402 145 402C174 402 196 425 196 451C196 479 174 502 145 502ZM170 279H122V-194H170Z" glyph-name="exclamdown" horiz-adv-x="290" unicode="&#161;" /><glyph d="M170 492H122V1H170ZM145 713C118 713 95 690 95 662C95 636 118 613 145 613C174 613 196 636 196 662C196 690 174 713 145 713Z" glyph-name="exclamdown.cap" horiz-adv-x="290" /><glyph d="M170 491H122V0H170ZM145 712C118 712 95 689 95 661C95 635 118 612 145 612C174 612 196 635 196 661C196 689 174 712 145 712Z" glyph-name="exclamdown.cap.ss01" horiz-adv-x="291" /><glyph d="M168 490H120V0H168ZM190 701H100V607H190Z" glyph-name="exclamdown.cap.ss03" horiz-adv-x="290" /><glyph d="M145 502C118 502 95 479 95 451C95 425 118 402 145 402C174 402 196 425 196 451C196 479 174 502 145 502ZM170 262H122V-194H170Z" glyph-name="exclamdown.ss01" horiz-adv-x="291" /><glyph d="M100 396H190V490H100ZM122 -194H170V279H122Z" glyph-name="exclamdown.ss03" horiz-adv-x="290" /><glyph d="M36 490V444H119V0H167V444H288V490H167V532C167 614 202 655 289 655H300V701H288C181 701 119 652 119 532V490Z" glyph-name="f" horiz-adv-x="310" unicode="f" /><glyph d="M121 490H36V444H121V0H169V444H405V490H169V563C169 631 208 665 263 665C318 665 356 627 356 572H406C406 646 350 712 263 712C176 712 121 649 121 564Z" glyph-name="f.ss01" horiz-adv-x="421" /><glyph d="M36 490V444H119V0H167V444H288V490H167V531C167 613 202 654 289 654H410V0H458V98C496 29 567 -11 650 -11C785 -11 875 103 875 245C875 386 785 502 650 502C567 502 495 461 458 394V700H288C181 700 119 651 119 531V490ZM644 38C536 38 458 131 458 245C458 358 536 454 644 454C754 454 826 357 826 245C826 128 758 38 644 38Z" glyph-name="f_b" horiz-adv-x="935" /><glyph d="M638 502C555 502 483 461 446 394V700H398V620C379 672 330 712 263 712C176 712 121 649 121 564V490H36V444H121V0H169V444H398V0H446V98C484 29 555 -11 638 -11C773 -11 863 103 863 245C863 386 773 502 638 502ZM632 38C524 38 446 131 446 245C446 358 524 454 632 454C742 454 814 357 814 245C814 128 746 38 632 38ZM169 563C169 631 208 665 263 665C318 665 356 627 356 572H398V490H169Z" glyph-name="f_b.ss01" horiz-adv-x="923" /><glyph d="M36 490V444H119V0H167V444H410V0H458V444H579V490H458V531C458 613 493 654 580 654H590V700H579C472 700 410 651 410 531V490H167V531C167 613 202 654 289 654H300V700H288C181 700 119 651 119 531V490Z" glyph-name="f_f" horiz-adv-x="600" unicode="&#64256;" /><glyph d="M391 490H169V563C169 631 208 665 263 665C318 665 356 627 356 572H391ZM169 0V444H391V0H439V444H675V490H439V563C439 631 478 665 533 665C588 665 626 627 626 572H676C676 646 620 712 533 712C465 712 417 674 399 617C381 671 332 712 263 712C176 712 121 649 121 564V490H36V444H121V0Z" glyph-name="f_f.ss01" horiz-adv-x="691" /><glyph d="M941 502C858 502 786 461 749 394V700H579C472 700 410 651 410 531V490H167V531C167 613 202 654 289 654H300V700H288C181 700 119 651 119 531V490H36V444H119V0H167V444H410V0H458V444H579V490H458V531C458 613 493 654 580 654H701V0H749V98C787 29 858 -11 941 -11C1076 -11 1166 103 1166 245C1166 386 1076 502 941 502ZM935 38C827 38 749 131 749 245C749 358 827 454 935 454C1045 454 1117 357 1117 245C1117 128 1049 38 935 38Z" glyph-name="f_f_b" horiz-adv-x="1226" /><glyph d="M914 -11C1049 -11 1139 103 1139 245C1139 386 1049 502 914 502C831 502 759 461 722 394V700H674V619C656 672 607 712 539 712C467 712 417 669 402 606C388 665 336 712 263 712C176 712 121 649 121 564V490H36V444H121V0H169V444H397V0H445V444H674V0H722V98C760 29 831 -11 914 -11ZM445 490V563C445 631 484 665 539 665C594 665 632 627 632 572H674V490ZM397 490H169V563C169 631 208 665 263 665C318 665 356 627 356 572H397ZM908 38C800 38 722 131 722 245C722 358 800 454 908 454C1018 454 1090 357 1090 245C1090 128 1022 38 908 38Z" glyph-name="f_f_b.ss01" horiz-adv-x="1199" /><glyph d="M749 700H579C472 700 410 651 410 531V490H167V531C167 613 202 654 289 654H300V700H288C181 700 119 651 119 531V490H36V444H119V0H167V444H410V0H458V444H579V490H458V531C458 613 493 654 580 654H701V0H749V239C749 361 810 454 920 454C1040 454 1071 366 1071 239V0H1119V245C1119 388 1076 502 925 502C845 502 786 472 749 405Z" glyph-name="f_f_h" horiz-adv-x="1189" /><glyph d="M445 490V563C445 631 484 665 539 665C594 665 632 627 632 572H674V490ZM397 490H169V563C169 631 208 665 263 665C318 665 356 627 356 572H397ZM169 0V444H397V0H445V444H674V0H722V444H1008V0H1056V490H722V700H674V619C656 672 607 712 539 712C467 712 417 669 402 606C388 665 336 712 263 712C176 712 121 649 121 564V490H36V444H121V0Z" glyph-name="f_f_h.ss01" horiz-adv-x="1132" /><glyph d="M725 611C750 611 770 631 770 656C770 681 750 701 725 701C700 701 680 681 680 656C680 631 700 611 725 611ZM167 444H410V0H458V444H701V0H749V490H458V531C458 613 493 654 580 654H591V700H579C472 700 410 651 410 531V490H167V531C167 613 202 654 289 654H300V700H288C181 700 119 651 119 531V490H36V444H119V0H167Z" glyph-name="f_f_i" horiz-adv-x="825" unicode="&#64259;" /><glyph d="M396 490H169V563C169 631 208 665 263 665C318 665 356 627 356 572H396ZM169 0V444H396V0H444V444H659V0H707V490H444V563C444 631 483 665 538 665C593 665 631 627 631 572H681C681 646 625 712 538 712C467 712 417 670 401 608C386 666 335 712 263 712C176 712 121 649 121 564V490H36V444H121V0Z" glyph-name="f_f_i.ss01" horiz-adv-x="783" /><glyph d="M701 0H749V490H458V532C458 614 493 655 580 655H591V701H579C472 701 410 652 410 532V490H167V532C167 614 202 655 289 655H300V701H288C181 701 119 652 119 532V490H36V444H119V0H167V444H410V0H458V444H701ZM685 619H765V700H685Z" glyph-name="f_f_i.ss03" horiz-adv-x="825" /><glyph d="M725 611C750 611 770 631 770 656C770 681 750 701 725 701C700 701 680 681 680 656C680 631 700 611 725 611ZM701 444V-48C701 -123 683 -157 604 -157H573V-204C583 -205 594 -205 611 -205C701 -205 749 -168 749 -65V490H458V531C458 613 493 654 580 654H591V700H579C472 700 410 651 410 531V490H167V531C167 613 202 654 289 654H300V700H288C181 700 119 651 119 531V490H36V444H119V0H167V444H410V0H458V444Z" glyph-name="f_f_j" horiz-adv-x="825" /><glyph d="M396 490H169V563C169 631 208 665 263 665C318 665 356 627 356 572H396ZM700 490H444V563C444 631 483 665 538 665C593 665 631 627 631 572H681C681 646 625 712 538 712C467 712 417 670 401 608C386 666 335 712 263 712C176 712 121 649 121 564V490H36V444H121V0H169V444H396V0H444V444H652V-146H519V-194H700Z" glyph-name="f_f_j.ss01" horiz-adv-x="776" /><glyph d="M701 -48C701 -123 683 -157 604 -157H573V-204C583 -205 594 -205 611 -205C701 -205 749 -168 749 -65V490H458V532C458 614 493 655 580 655H591V701H579C472 701 410 652 410 532V490H167V532C167 614 202 655 289 655H300V701H288C181 701 119 652 119 532V490H36V444H119V0H167V444H410V0H458V444H701ZM685 619H765V700H685Z" glyph-name="f_f_j.ss03" horiz-adv-x="824" /><glyph d="M701 0H749V137L851 249L1028 0H1087L886 284L1076 490H1012L749 209V700H579C472 700 410 651 410 531V490H167V531C167 613 202 654 289 654H300V700H288C181 700 119 651 119 531V490H36V444H119V0H167V444H410V0H458V444H579V490H458V531C458 613 493 654 580 654H701Z" glyph-name="f_f_k" horiz-adv-x="1107" /><glyph d="M445 490V563C445 631 484 665 539 665C594 665 632 627 632 572H673V490ZM397 490H169V563C169 631 208 665 263 665C318 665 356 627 356 572H397ZM169 0V444H397V0H445V444H673V0H721V223H870L996 0H1050L910 249L1037 490H983L868 271H721V700H673V622C654 673 606 712 539 712C467 712 417 669 402 606C388 665 336 712 263 712C176 712 121 649 121 564V490H36V444H121V0Z" glyph-name="f_f_k.ss01" horiz-adv-x="1090" /><glyph d="M997 0H1064L816 253L1054 490H987L749 252V700H579C472 700 410 651 410 531V490H167V532C167 614 202 655 289 655H300V701H288C181 701 119 652 119 532V490H36V444H119V0H167V444H410V0H458V444H579V490H458V531C458 613 493 654 580 654H701V0H749V252Z" glyph-name="f_f_k.ss02" horiz-adv-x="1090" /><glyph d="M701 0H749V700H579C472 700 410 651 410 531V490H167V531C167 613 202 654 289 654H300V700H288C181 700 119 651 119 531V490H36V444H119V0H167V444H410V0H458V444H579V490H458V531C458 613 493 654 580 654H701Z" glyph-name="f_f_l" horiz-adv-x="825" unicode="&#64260;" /><glyph d="M444 490V563C444 631 483 665 538 665C593 665 631 627 631 572H672V490ZM396 490H169V563C169 631 208 665 263 665C318 665 356 627 356 572H396ZM169 0V444H396V0H444V444H672V0H720V700H672V622C653 673 605 712 538 712C467 712 417 670 401 608C386 666 335 712 263 712C176 712 121 649 121 564V490H36V444H121V0Z" glyph-name="f_f_l.ss01" horiz-adv-x="796" /><glyph d="M701 444V137C701 34 749 -2 838 -2C853 -2 873 -1 873 -1V45H845C766 45 749 81 749 156V444H871V490H749V627H701V490H458V531C458 613 493 654 580 654H590V700H579C472 700 410 651 410 531V490H167V531C167 613 202 654 289 654H300V700H288C181 700 119 651 119 531V490H36V444H119V0H167V444H410V0H458V444Z" glyph-name="f_f_t" horiz-adv-x="918" /><glyph d="M445 0V444H673V0H864V48H721V444H864V490H721V627H673V622C654 673 606 712 539 712C467 712 417 669 402 606C387 665 336 712 263 712C176 712 121 649 121 564V490H36V444H121V0H169V444H397V0ZM673 490H445V563C445 631 484 665 539 665C594 665 632 627 632 572H673ZM169 563C169 631 208 665 263 665C318 665 356 627 356 572H397V564V490H169Z" glyph-name="f_f_t.ss01" horiz-adv-x="909" /><glyph d="M288 700C181 700 119 652 119 532V490H36V444H119V0H167V444H288V490H167V532C167 614 202 654 289 654H410V0H458V239C458 361 519 454 629 454C749 454 780 366 780 239V0H828V245C828 388 785 502 634 502C554 502 495 472 458 405V700Z" glyph-name="f_h" horiz-adv-x="898" /><glyph d="M169 490V563C169 631 208 665 263 665C318 665 356 627 356 572H397V490ZM169 0V444H397V0H445V444H731V0H779V490H445V700H397V622C378 673 330 712 263 712C176 712 121 649 121 564V490H36V444H121V0Z" glyph-name="f_h.ss01" horiz-adv-x="855" /><glyph d="M434 611C459 611 479 631 479 656C479 681 459 701 434 701C409 701 389 681 389 656C389 631 409 611 434 611ZM320 -200C410 -200 458 -163 458 -60V490H167V531C167 613 202 654 289 654H300V700H288C181 700 119 651 119 531V490H36V444H119V0H167V444H410V-43C410 -118 392 -152 313 -152H282V-199C292 -200 303 -200 320 -200Z" glyph-name="f_j" horiz-adv-x="534" /><glyph d="M425 490H169V563C169 631 208 665 263 665C318 665 356 627 356 572H406C406 646 350 712 263 712C176 712 121 649 121 564V490H36V444H121V0H169V444H377V-146H244V-194H425Z" glyph-name="f_j.ss01" horiz-adv-x="501" /><glyph d="M410 -48C410 -123 392 -157 313 -157H282V-204C292 -205 303 -205 320 -205C410 -205 458 -168 458 -65V490H167V532C167 614 202 655 289 655H300V701H288C181 701 119 652 119 532V490H36V444H119V0H167V444H410ZM394 619H474V700H394Z" glyph-name="f_j.ss03" horiz-adv-x="533" /><glyph d="M410 0H458V137L560 249L737 0H796L595 284L785 490H721L458 209V700H288C181 700 119 651 119 531V490H36V444H119V0H167V444H288V490H167V531C167 613 202 654 289 654H410Z" glyph-name="f_k" horiz-adv-x="816" /><glyph d="M169 490V563C169 631 208 665 263 665C318 665 356 627 356 572H397V490ZM169 0V444H397V0H445V223H594L720 0H774L634 249L761 490H707L592 271H445V700H397V622C378 673 330 712 263 712C176 712 121 649 121 564V490H36V444H121V0Z" glyph-name="f_k.ss01" horiz-adv-x="814" /><glyph d="M706 0H773L525 253L763 490H696L458 252V700H288C181 700 119 651 119 531V490H36V444H119V0H167V444H288V490H167V531C167 613 202 654 289 654H410V0H458V252Z" glyph-name="f_k.ss02" horiz-adv-x="799" /><glyph d="M410 444V137C410 34 458 -2 547 -2C562 -2 582 -1 582 -1V45H554C475 45 458 81 458 156V444H580V490H458V627H410V490H167V531C167 613 202 654 289 654H300V700H288C181 700 119 651 119 531V490H36V444H119V0H167V444Z" glyph-name="f_t" horiz-adv-x="627" unicode="&#64261;" /><glyph d="M397 490H169V563C169 631 208 665 263 665C318 665 356 627 356 572H397ZM169 0V444H397V0H588V48H445V444H588V490H445V627H397V622C378 673 330 712 263 712C176 712 121 649 121 564V490H36V444H121V0Z" glyph-name="f_t.ss01" horiz-adv-x="633" /><glyph d="M434 611C459 611 479 631 479 656C479 681 459 701 434 701C409 701 389 681 389 656C389 631 409 611 434 611ZM167 0V444H410V0H458V490H167V531C167 613 202 654 289 654H300V700H288C181 700 119 651 119 531V490H36V444H119V0Z" glyph-name="fi" horiz-adv-x="534" unicode="&#64257;" /><glyph d="M169 0V444H384V0H432V490H169V563C169 631 208 665 263 665C318 665 356 627 356 572H406C406 646 350 712 263 712C176 712 121 649 121 564V490H36V444H121V0Z" glyph-name="fi.ss01" horiz-adv-x="508" /><glyph d="M36 490V444H119V0H167V444H410V0H458V490H167V532C167 614 202 655 289 655H300V701H288C181 701 119 652 119 532V490ZM394 619H474V700H394Z" glyph-name="fi.ss03" horiz-adv-x="534" /><glyph d="M272 39C198 39 143 73 99 122L62 84C115 25 186 -11 271 -11C422 -11 510 96 510 214C510 359 406 436 292 436C229 436 170 417 128 366L142 651H457V701H93L76 306H132C160 348 218 386 281 386C382 386 460 327 460 213C460 107 375 39 272 39Z" glyph-name="five" horiz-adv-x="544" unicode="5" /><glyph d="M272 -115C198 -115 143 -81 99 -32L62 -70C115 -129 186 -165 271 -165C422 -165 510 -58 510 60C510 205 406 282 292 282C229 282 170 263 128 212L142 497H457V547H93L76 152H132C160 194 218 232 281 232C382 232 460 173 460 59C460 -47 375 -115 272 -115Z" glyph-name="five.osf" horiz-adv-x="544" /><glyph d="M306 -115C232 -115 182 -78 138 -29L101 -67C154 -126 218 -165 302 -165C455 -165 544 -58 544 60C544 205 440 282 326 282C263 282 204 263 162 212V497H503V547H110V152H166C194 194 252 232 315 232C416 232 494 172 494 57C494 -48 409 -115 306 -115Z" glyph-name="five.osf.ss01" horiz-adv-x="614" /><glyph d="M123 147C123 147 159 235 276 235C378 235 454 167 454 57C454 -48 371 -115 270 -115C196 -115 141 -81 97 -32L60 -70C113 -129 182 -165 266 -165C419 -165 508 -58 508 60C508 205 394 285 280 285C190 285 146 235 146 235L212 497H459V547H173L78 162Z" glyph-name="five.osf.ss02" horiz-adv-x="543" /><glyph d="M100 5C115 -97 205 -165 302 -165C455 -165 541 -58 541 60C541 205 437 282 323 282C260 282 201 263 159 212L173 497H488V547H125L107 152H163C191 194 249 232 312 232C413 232 491 172 491 57C491 -48 409 -115 306 -115C226 -115 164 -60 151 5Z" glyph-name="five.osf.ss03" horiz-adv-x="631" /><glyph d="M306 39C232 39 182 76 138 125L101 87C154 28 218 -11 302 -11C455 -11 544 96 544 214C544 359 440 436 326 436C263 436 204 417 162 366V651H503V701H110V306H166C194 348 252 386 315 386C416 386 494 326 494 211C494 106 409 39 306 39Z" glyph-name="five.ss01" horiz-adv-x="633" /><glyph d="M123 301C123 301 159 389 276 389C378 389 454 321 454 211C454 106 371 39 270 39C196 39 141 73 97 122L60 84C113 25 182 -11 266 -11C419 -11 508 96 508 214C508 359 394 439 280 439C190 439 146 389 146 389L212 651H459V701H173L78 316Z" glyph-name="five.ss02" horiz-adv-x="543" /><glyph d="M100 159C115 57 205 -11 302 -11C455 -11 541 96 541 214C541 359 437 436 323 436C260 436 201 417 159 366L173 651H488V701H125L107 306H163C191 348 249 386 312 386C413 386 491 326 491 211C491 106 409 39 306 39C226 39 164 94 151 159Z" glyph-name="five.ss03" horiz-adv-x="616" /><glyph d="M286 39C212 39 157 73 113 122L76 84C129 25 200 -11 285 -11C436 -11 524 96 524 214C524 359 420 436 306 436C243 436 184 417 142 366L156 651H471V701H107L90 306H146C174 348 232 386 295 386C396 386 474 327 474 213C474 107 389 39 286 39Z" glyph-name="five.tf" horiz-adv-x="600" /><glyph d="M283 39C209 39 159 76 115 125L78 87C131 28 195 -11 279 -11C432 -11 521 96 521 214C521 359 417 436 303 436C240 436 181 417 139 366V651H480V701H87V306H143C171 348 229 386 292 386C393 386 471 326 471 211C471 106 386 39 283 39Z" glyph-name="five.tf.ss01" horiz-adv-x="600" /><glyph d="M139 301C139 301 175 389 292 389C394 389 470 321 470 211C470 106 387 39 286 39C212 39 157 73 113 122L76 84C129 25 198 -11 282 -11C435 -11 524 96 524 214C524 359 410 439 296 439C206 439 162 389 162 389L228 651H475V701H189L94 316Z" glyph-name="five.tf.ss02" horiz-adv-x="600" /><glyph d="M79 159C94 57 184 -11 281 -11C434 -11 520 96 520 214C520 359 416 436 302 436C239 436 180 417 138 366L152 651H467V701H104L86 306H142C170 348 228 386 291 386C392 386 470 326 470 211C470 106 388 39 285 39C205 39 143 94 130 159Z" glyph-name="five.tf.ss03" horiz-adv-x="600" /><glyph d="M286 -114C212 -114 157 -80 113 -31L76 -69C129 -128 200 -164 285 -164C436 -164 524 -57 524 61C524 206 420 283 306 283C243 283 184 264 142 213L156 498H471V548H107L90 153H146C174 195 232 233 295 233C396 233 474 174 474 60C474 -46 389 -114 286 -114Z" glyph-name="five.to" horiz-adv-x="600" /><glyph d="M283 -115C209 -115 159 -78 115 -29L78 -67C131 -126 195 -165 279 -165C432 -165 521 -58 521 60C521 205 417 282 303 282C240 282 181 263 139 212V497H480V547H87V152H143C171 194 229 232 292 232C393 232 471 172 471 57C471 -48 386 -115 283 -115Z" glyph-name="five.to.ss01" horiz-adv-x="600" /><glyph d="M139 147C139 147 175 235 292 235C394 235 470 167 470 57C470 -48 387 -115 286 -115C212 -115 157 -81 113 -32L76 -70C129 -129 198 -165 282 -165C435 -165 524 -58 524 60C524 205 410 285 296 285C206 285 162 235 162 235L228 497H475V547H189L94 162Z" glyph-name="five.to.ss02" horiz-adv-x="600" /><glyph d="M79 5C94 -97 184 -165 281 -165C434 -165 520 -58 520 60C520 205 416 282 302 282C239 282 180 263 138 212L152 497H467V547H104L86 152H142C170 194 228 232 291 232C392 232 470 172 470 57C470 -48 388 -115 285 -115C205 -115 143 -60 130 5Z" glyph-name="five.to.ss03" horiz-adv-x="600" /><glyph d="M410 0H458V700H288C181 700 119 651 119 531V490H36V444H119V0H167V444H288V490H167V531C167 613 202 654 289 654H410Z" glyph-name="fl" horiz-adv-x="534" unicode="&#64258;" /><glyph d="M169 490V563C169 631 208 665 263 665C318 665 356 627 356 572H397V490ZM169 0V444H397V0H445V700H397V622C378 673 330 712 263 712C176 712 121 649 121 564V490H36V444H121V0Z" glyph-name="fl.ss01" horiz-adv-x="521" /><glyph d="M238 447H359V490H238V532C238 619 268 658 360 658H371V701H359C252 701 192 652 192 532V490H107V447H192V-26C192 -113 162 -152 70 -152H36V-195H71C178 -195 238 -146 238 -26Z" glyph-name="florin" horiz-adv-x="407" unicode="&#402;" /><glyph d="M238 447H359V490H238V532C238 619 268 658 360 658H371V701H359C252 701 192 652 192 532V490H107V447H192V-26C192 -113 162 -152 70 -152H36V-195H71C178 -195 238 -146 238 -26Z" glyph-name="florin.osf" horiz-adv-x="407" /><glyph d="M334 447H455V490H334V532C334 619 364 658 456 658H467V701H455C348 701 288 652 288 532V490H203V447H288V-26C288 -113 258 -152 166 -152H132V-195H167C274 -195 334 -146 334 -26Z" glyph-name="florin.tf" horiz-adv-x="600" /><glyph d="M334 447H455V490H334V532C334 619 364 658 456 658H467V701H455C348 701 288 652 288 532V490H203V447H288V-26C288 -113 258 -152 166 -152H132V-195H167C274 -195 334 -146 334 -26Z" glyph-name="florin.to" horiz-adv-x="600" /><glyph d="M55 185H398V0H448V185H547V235H448V701H398L55 225ZM119 235 398 619V235Z" glyph-name="four" horiz-adv-x="588" unicode="4" /><glyph d="M55 0H398V-153H448V0H547V50H448V547H396L55 40ZM119 50 398 465V50Z" glyph-name="four.osf" horiz-adv-x="588" /><glyph d="M80 0H370V-185H420V0H540V50H420V228H370V50H134V105L433 547H371L80 115Z" glyph-name="four.osf.ss01" horiz-adv-x="606" /><glyph d="M25 0H377V-185H428V0H536V50H428V556ZM124 50 377 399V50Z" glyph-name="four.osf.ss02" horiz-adv-x="576" /><glyph d="M55 0H398V-153H448V0H547V50H448V547H396L55 40ZM119 50 398 465V50Z" glyph-name="four.osf.ss03" horiz-adv-x="588" /><glyph d="M80 185H370V0H420V185H540V235H420V413H370V235H134V294L431 701H371L80 300Z" glyph-name="four.ss01" horiz-adv-x="606" /><glyph d="M25 185H377V0H428V185H536V235H428V711ZM124 235 377 565V235Z" glyph-name="four.ss02" horiz-adv-x="576" /><glyph d="M55 185H398V0H448V185H547V235H448V701H398L55 225ZM119 235 398 619V235Z" glyph-name="four.ss03" horiz-adv-x="588" /><glyph d="M71 185H414V0H464V185H563V235H464V701H414L71 225ZM135 235 414 619V235Z" glyph-name="four.tf" horiz-adv-x="600" /><glyph d="M70 185H360V0H410V185H530V235H410V413H360V235H124V294L421 701H361L70 300Z" glyph-name="four.tf.ss01" horiz-adv-x="600" /><glyph d="M44 185H396V0H447V185H555V235H447V711ZM143 235 396 565V235Z" glyph-name="four.tf.ss02" horiz-adv-x="600" /><glyph d="M54 185H397V0H447V185H546V235H447V701H397L54 225ZM118 235 397 619V235Z" glyph-name="four.tf.ss03" horiz-adv-x="600" /><glyph d="M54 0H397V-153H447V0H546V50H447V547H395L54 40ZM118 50 397 465V50Z" glyph-name="four.to" horiz-adv-x="600" /><glyph d="M70 0H360V-185H410V0H530V50H410V228H360V50H124V105L423 547H361L70 115Z" glyph-name="four.to.ss01" horiz-adv-x="600" /><glyph d="M44 0H396V-185H447V0H555V50H447V556ZM143 50 396 399V50Z" glyph-name="four.to.ss02" horiz-adv-x="600" /><glyph d="M54 0H397V-153H447V0H546V50H447V547H395L54 40ZM118 50 397 465V50Z" glyph-name="four.to.ss03" horiz-adv-x="600" /><glyph d="M329 101V142H269V392H227L30 135V101H223V0H269V101ZM87 142 223 319V142Z" glyph-name="fourinferior" horiz-adv-x="364" unicode="&#8324;" /><glyph d="M231 231H185V140H78V180L239 392H184L30 190V98H185V0H231V98H312V140H231Z" glyph-name="fourinferior.ss01" horiz-adv-x="347" /><glyph d="M10 105V96H213V0H259V96H321V140H259V404H255ZM96 140 213 282V140Z" glyph-name="fourinferior.ss02" horiz-adv-x="356" /><glyph d="M329 101V142H269V392H227L30 135V101H223V0H269V101ZM87 142 223 319V142Z" glyph-name="fourinferior.ss03" horiz-adv-x="364" /><glyph d="M329 409V450H269V700H227L30 443V409H223V308H269V409ZM87 450 223 627V450Z" glyph-name="foursuperior" horiz-adv-x="364" unicode="&#8308;" /><glyph d="M231 539H185V448H78V488L239 700H184L30 498V406H185V308H231V406H312V448H231Z" glyph-name="foursuperior.ss01" horiz-adv-x="347" /><glyph d="M10 413V404H213V308H259V404H321V448H259V712H255ZM96 448 213 590V448Z" glyph-name="foursuperior.ss02" horiz-adv-x="356" /><glyph d="M329 409V450H269V700H227L30 443V409H223V308H269V409ZM87 450 223 627V450Z" glyph-name="foursuperior.ss03" horiz-adv-x="364" /><glyph d="M50 0H101L529 700H478Z" glyph-name="fraction" horiz-adv-x="579" unicode="&#8260;" /><glyph d="M287 453C396 453 469 370 469 256C469 142 396 60 287 60C179 60 108 143 108 256C108 368 183 453 287 453ZM515 490H467V397C433 462 370 502 280 502C152 502 60 397 60 255C60 114 155 12 280 12C358 12 430 44 467 111V50C467 -70 419 -155 283 -155C204 -155 152 -115 119 -72L80 -108C122 -158 180 -205 285 -205C451 -205 515 -96 515 50Z" glyph-name="g" horiz-adv-x="591" unicode="g" /><glyph d="M352 531C352 445 306 389 224 389C142 389 91 456 91 531C91 606 142 673 224 673C306 673 352 617 352 531ZM350 365C350 291 302 230 215 230C147 230 107 279 91 300L59 271C77 242 130 191 216 191C324 191 393 261 393 369V703H353V652C319 690 274 712 221 712C111 712 45 627 45 531C45 435 111 350 221 350C273 350 316 370 350 406Z" glyph-name="g.ordn" horiz-adv-x="453" /><glyph d="M395 700H232C124 700 50 632 50 545C50 482 79 435 151 378L327 239H57V199H396V235L199 390C314 381 388 462 388 545C388 598 355 641 328 660H395ZM344 545C344 479 290 429 220 429C150 429 94 479 94 545C94 612 150 658 219 658C292 658 344 609 344 545Z" glyph-name="g.ordn.ss01" horiz-adv-x="441" /><glyph d="M485 -194V-122L265 63C379 63 467 158 467 276C467 343 437 404 390 444H489V490H261C144 490 58 393 58 276C58 208 86 149 132 110L434 -143H49V-194ZM268 442C354 442 419 362 419 277C419 181 350 111 263 111C178 111 107 182 107 277C107 366 178 442 268 442Z" glyph-name="g.ss01" horiz-adv-x="544" /><glyph d="M287 453C396 453 469 370 469 256C469 142 396 60 287 60C179 60 108 143 108 256C108 368 183 453 287 453ZM515 490H467V397C433 462 370 502 280 502C152 502 60 397 60 255C60 114 155 12 280 12C358 12 430 44 467 111V50C467 -70 419 -155 283 -155C204 -155 152 -115 119 -72L80 -108C122 -158 180 -205 285 -205C451 -205 515 -96 515 50ZM421 701H374C369 654 343 614 289 614C236 614 207 653 204 701H157C163 624 209 567 290 567C371 567 415 629 421 701Z" glyph-name="gbreve" horiz-adv-x="591" unicode="&#287;" /><glyph d="M485 -194V-122L265 63C379 63 467 158 467 276C467 343 437 404 390 444H489V490H261C144 490 58 393 58 276C58 208 86 149 132 110L434 -143H49V-194ZM268 442C354 442 419 362 419 277C419 181 350 111 263 111C178 111 107 182 107 277C107 366 178 442 268 442ZM407 701H360C355 654 329 614 275 614C222 614 193 653 190 701H143C149 624 195 567 276 567C357 567 401 629 407 701Z" glyph-name="gbreve.ss01" horiz-adv-x="544" /><glyph d="M287 453C396 453 469 370 469 256C469 142 396 60 287 60C179 60 108 143 108 256C108 368 183 453 287 453ZM515 490H467V397C433 462 370 502 280 502C152 502 60 397 60 255C60 114 155 12 280 12C358 12 430 44 467 111V50C467 -70 419 -155 283 -155C204 -155 152 -115 119 -72L80 -108C122 -158 180 -205 285 -205C451 -205 515 -96 515 50ZM257 700 160 569H209L290 661L372 569H421L324 700Z" glyph-name="gcircumflex" horiz-adv-x="591" unicode="&#285;" /><glyph d="M485 -194V-122L265 63C379 63 467 158 467 276C467 343 437 404 390 444H489V490H261C144 490 58 393 58 276C58 208 86 149 132 110L434 -143H49V-194ZM268 442C354 442 419 362 419 277C419 181 350 111 263 111C178 111 107 182 107 277C107 366 178 442 268 442ZM243 700 146 569H195L276 661L358 569H407L310 700Z" glyph-name="gcircumflex.ss01" horiz-adv-x="544" /><glyph d="M287 453C396 453 469 370 469 256C469 142 396 60 287 60C179 60 108 143 108 256C108 368 183 453 287 453ZM515 490H467V397C433 462 370 502 280 502C152 502 60 397 60 255C60 114 155 12 280 12C358 12 430 44 467 111V50C467 -70 419 -155 283 -155C204 -155 152 -115 119 -72L80 -108C122 -158 180 -205 285 -205C451 -205 515 -96 515 50ZM327 700 264 563H329L376 700Z" glyph-name="gcommaaccent" horiz-adv-x="591" unicode="&#291;" /><glyph d="M485 -194V-122L265 63C379 63 467 158 467 276C467 343 437 404 390 444H489V490H261C144 490 58 393 58 276C58 208 86 149 132 110L434 -143H49V-194ZM268 442C354 442 419 362 419 277C419 181 350 111 263 111C178 111 107 182 107 277C107 366 178 442 268 442ZM282 700 219 563H284L331 700Z" glyph-name="gcommaaccent.ss01" horiz-adv-x="544" /><glyph d="M287 453C396 453 469 370 469 256C469 142 396 60 287 60C179 60 108 143 108 256C108 368 183 453 287 453ZM515 490H467V397C433 462 370 502 280 502C152 502 60 397 60 255C60 114 155 12 280 12C358 12 430 44 467 111V50C467 -70 419 -155 283 -155C204 -155 152 -115 119 -72L80 -108C122 -158 180 -205 285 -205C451 -205 515 -96 515 50ZM289 610C314 610 334 630 334 655C334 680 314 700 289 700C264 700 244 680 244 655C244 630 264 610 289 610Z" glyph-name="gdotaccent" horiz-adv-x="591" unicode="&#289;" /><glyph d="M485 -194V-122L265 63C379 63 467 158 467 276C467 343 437 404 390 444H489V490H261C144 490 58 393 58 276C58 208 86 149 132 110L434 -143H49V-194ZM268 442C354 442 419 362 419 277C419 181 350 111 263 111C178 111 107 182 107 277C107 366 178 442 268 442ZM275 610C300 610 320 630 320 655C320 680 300 700 275 700C250 700 230 680 230 655C230 630 250 610 275 610Z" glyph-name="gdotaccent.ss01" horiz-adv-x="544" /><glyph d="M287 453C396 453 469 370 469 256C469 142 396 60 287 60C179 60 108 143 108 256C108 368 183 453 287 453ZM515 490H467V397C433 462 370 502 280 502C152 502 60 397 60 255C60 114 155 12 280 12C358 12 430 44 467 111V50C467 -70 419 -155 283 -155C204 -155 152 -115 119 -72L80 -108C122 -158 180 -205 285 -205C451 -205 515 -96 515 50ZM250 612H330V693H250Z" glyph-name="gdotaccent.ss03" horiz-adv-x="591" /><glyph d="M80 0H128V441C128 593 204 666 318 666C423 666 481 597 481 519C481 423 386 381 300 381H256V333H329C432 333 514 285 514 187C514 85 442 48 326 48H256V0H342C475 0 562 57 562 186C562 268 518 333 430 365C496 396 529 456 529 520C529 637 437 712 318 712C170 712 80 613 80 441Z" glyph-name="germandbls" horiz-adv-x="612" unicode="&#223;" /><glyph d="M271 48V0H337C455 0 549 78 549 193C549 307 459 385 313 386L501 646V700H90V0H138V652H444L271 408V336H316C431 336 501 281 501 192C501 102 431 48 331 48Z" glyph-name="germandbls.ss01" horiz-adv-x="599" /><glyph d="M253 0H287C445 0 523 76 523 195C523 261 490 338 407 369C469 399 502 456 502 524C502 619 425 712 294 712C164 712 80 620 80 502V0H128V479C128 585 182 664 299 664C392 664 454 598 454 521C454 431 378 386 283 386H256V337H302C396 337 475 290 475 195C475 100 406 48 298 48H253Z" glyph-name="germandbls.ss02" horiz-adv-x="573" /><glyph d="M333 569 237 700H167L281 569Z" glyph-name="grave" horiz-adv-x="500" unicode="`" /><glyph d="M335 769 244 872H166L280 769Z" glyph-name="grave.cap" horiz-adv-x="501" /><glyph d="M68 502V449L531 245L68 41V-11L559 210V280Z" glyph-name="greater" horiz-adv-x="599" unicode="&gt;" /><glyph d="M68 502V449L495 295L68 140V88L560 266V323ZM559 -43V0H69V-43Z" glyph-name="greaterequal" horiz-adv-x="599" unicode="&#8805;" /><glyph d="M60 244 197 0H251L113 243L252 490H198ZM283 244 420 0H474L336 243L475 490H421Z" glyph-name="guillemotleft" horiz-adv-x="545" unicode="&#171;" /><glyph d="M60 349 197 105H251L113 348L252 595H198ZM283 349 420 105H474L336 348L475 595H421Z" glyph-name="guillemotleft.cap" horiz-adv-x="545" /><glyph d="M347 490H293L432 243L294 0H348L485 244ZM124 490H70L209 243L71 0H125L262 244Z" glyph-name="guillemotright" horiz-adv-x="545" unicode="&#187;" /><glyph d="M347 595H293L432 348L294 105H348L485 349ZM124 595H70L209 348L71 105H125L262 349Z" glyph-name="guillemotright.cap" horiz-adv-x="545" /><glyph d="M60 244 197 0H251L113 244L252 490H198Z" glyph-name="guilsinglleft" horiz-adv-x="322" unicode="&#8249;" /><glyph d="M60 349 197 105H251L113 349L252 595H198Z" glyph-name="guilsinglleft.cap" horiz-adv-x="322" /><glyph d="M262 244 125 488H71L209 244L70 -2H124Z" glyph-name="guilsinglright" horiz-adv-x="322" unicode="&#8250;" /><glyph d="M262 349 125 593H71L209 349L70 103H124Z" glyph-name="guilsinglright.cap" horiz-adv-x="322" /><glyph d="M494 0V245C494 388 451 502 300 502C220 502 161 472 124 405V700H76V0H124V239C124 361 185 454 295 454C415 454 446 366 446 239V0Z" glyph-name="h" horiz-adv-x="564" unicode="h" /><glyph d="M76 0H124V444H410V0H458V490H124V700H76Z" glyph-name="h.ss01" horiz-adv-x="534" /><glyph d="M494 0V245C494 388 451 502 300 502C220 502 161 472 124 405V580H319V624H124V700H76V624H10V580H76V0H124V239C124 361 185 454 295 454C415 454 446 366 446 239V0Z" glyph-name="hbar" horiz-adv-x="564" unicode="&#295;" /><glyph d="M76 0H124V442H410V0H458V490H124V580H319V624H124V700H76V624H10V580H76Z" glyph-name="hbar.ss01" horiz-adv-x="534" /><glyph d="M494 0V245C494 388 451 502 300 502C220 502 161 472 124 405V700H76V0H124V239C124 361 185 454 295 454C415 454 446 366 446 239V0ZM-35 769H26L102 837L176 769H238L134 872H68Z" glyph-name="hcircumflex" horiz-adv-x="564" unicode="&#293;" /><glyph d="M76 0H124V444H410V0H458V490H124V700H76ZM-35 769H26L102 837L176 769H238L134 872H68Z" glyph-name="hcircumflex.ss01" horiz-adv-x="534" /><glyph d="M149 569 245 700H179L103 569ZM302 569 398 700H332L256 569Z" glyph-name="hungarumlaut" horiz-adv-x="501" unicode="&#733;" /><glyph d="M156 769 237 872H171L111 769ZM309 769 390 872H324L264 769Z" glyph-name="hungarumlaut.cap" horiz-adv-x="501" /><glyph d="M270 233V292H20V233Z" glyph-name="hyphen" horiz-adv-x="290" unicode="-" /><glyph d="M270 321V380H20V321Z" glyph-name="hyphen.cap" horiz-adv-x="290" /><glyph d="M100 622C125 622 145 642 145 667C145 692 125 712 100 712C75 712 55 692 55 667C55 642 75 622 100 622ZM76 0H124V490H76Z" glyph-name="i" horiz-adv-x="200" unicode="i" /><glyph d="M100 622C125 622 145 642 145 667C145 692 125 712 100 712C75 712 55 692 55 667C55 642 75 622 100 622ZM76 0H124V490H76Z" glyph-name="i.TRK" horiz-adv-x="200" /><glyph d="M60 619H140V700H60ZM76 0H124V490H76Z" glyph-name="i.TRK.ss03" horiz-adv-x="200" /><glyph d="M60 619H140V700H60ZM76 0H124V490H76Z" glyph-name="i.ss03" horiz-adv-x="200" /><glyph d="M76 0H124V490H76ZM69 569 183 700H113L17 569Z" glyph-name="iacute" horiz-adv-x="200" unicode="&#237;" /><glyph d="M76 0H124V490H76ZM69 569 183 700H113L17 569Z" glyph-name="iacute.ss03" horiz-adv-x="200" /><glyph d="M76 0H124V490H76ZM232 701H185C180 654 154 614 100 614C47 614 18 653 15 701H-32C-26 624 20 567 101 567C182 567 226 629 232 701Z" glyph-name="ibreve" horiz-adv-x="200" unicode="&#301;" /><glyph d="M76 0H124V490H76ZM232 701H185C180 654 154 614 100 614C47 614 18 653 15 701H-32C-26 624 20 567 101 567C182 567 226 629 232 701Z" glyph-name="ibreve.ss03" horiz-adv-x="200" /><glyph d="M76 0H124V490H76ZM68 700 -29 569H20L101 661L183 569H232L135 700Z" glyph-name="icircumflex" horiz-adv-x="200" unicode="&#238;" /><glyph d="M76 0H124V490H76ZM68 700 -29 569H20L101 661L183 569H232L135 700Z" glyph-name="icircumflex.ss03" horiz-adv-x="200" /><glyph d="M76 0H124V490H76ZM12 610C37 610 57 630 57 655C57 680 37 700 12 700C-13 700 -33 680 -33 655C-33 630 -13 610 12 610ZM188 610C213 610 233 630 233 655C233 680 213 700 188 700C163 700 143 680 143 655C143 630 163 610 188 610Z" glyph-name="idieresis" horiz-adv-x="200" unicode="&#239;" /><glyph d="M76 0H124V490H76ZM-28 612H52V693H-28ZM149 612H229V693H149Z" glyph-name="idieresis.ss03" horiz-adv-x="200" /><glyph d="M76 0H124V490H76ZM183 569 87 700H17L131 569Z" glyph-name="igrave" horiz-adv-x="200" unicode="&#236;" /><glyph d="M76 0H124V490H76ZM183 569 87 700H17L131 569Z" glyph-name="igrave.ss03" horiz-adv-x="200" /><glyph d="M100 622C125 622 145 642 145 667C145 692 125 712 100 712C75 712 55 692 55 667C55 642 75 622 100 622ZM76 0H124V490H76ZM307 622C332 622 352 642 352 667C352 692 332 712 307 712C282 712 262 692 262 667C262 642 282 622 307 622ZM283 -48C283 -123 265 -157 186 -157H155V-204C165 -205 176 -205 193 -205C283 -205 331 -168 331 -65V490H283Z" glyph-name="ij" horiz-adv-x="407" unicode="&#307;" /><glyph d="M100 622C125 622 145 642 145 667C145 692 125 712 100 712C75 712 55 692 55 667C55 642 75 622 100 622ZM76 0H124V490H76ZM304 622C329 622 349 642 349 667C349 692 329 712 304 712C279 712 259 692 259 667C259 642 279 622 304 622ZM147 -194H328V490H280V-146H147Z" glyph-name="ij.ss01" horiz-adv-x="404" /><glyph d="M60 619H140V700H60ZM76 0H124V490H76ZM264 619H344V700H264ZM280 -43C280 -118 262 -152 183 -152H152V-199C162 -200 173 -200 190 -200C280 -200 328 -163 328 -60V490H280Z" glyph-name="ij.ss03" horiz-adv-x="403" /><glyph d="M76 0H124V490H76ZM214 643V690H-14V643Z" glyph-name="imacron" horiz-adv-x="200" unicode="&#299;" /><glyph d="M76 0H124V490H76ZM214 643V690H-14V643Z" glyph-name="imacron.ss03" horiz-adv-x="200" /><glyph d="M370 490C244 490 130 386 130 244C130 103 238 0 367 0C478 0 535 58 636 200C723 78 795 0 899 0C1025 0 1138 103 1138 244C1138 386 1029 490 898 490C794 490 727 429 633 288C532 432 469 490 370 490ZM900 441C1005 441 1086 360 1086 244C1086 135 1000 49 900 49C803 49 750 140 669 247C753 369 804 441 900 441ZM598 244C521 128 465 49 367 49C262 49 182 128 182 244C182 360 268 441 370 441C472 441 518 342 598 244Z" glyph-name="infinity" horiz-adv-x="1268" unicode="&#8734;" /><glyph d="M222 542C222 629 252 668 344 668H369V711H343C236 711 176 662 176 542V-26C176 -113 146 -152 54 -152H21V-195H55C162 -195 222 -146 222 -26Z" glyph-name="integral" horiz-adv-x="390" unicode="&#8747;" /><glyph d="M76 0H77C29 -28 5 -66 5 -101C5 -144 33 -172 85 -172C108 -172 123 -166 123 -166V-134H116C73 -134 54 -116 54 -91C54 -60 72 -39 123 0H124V490H76ZM100 622C125 622 145 642 145 667C145 692 125 712 100 712C75 712 55 692 55 667C55 642 75 622 100 622Z" glyph-name="iogonek" horiz-adv-x="200" unicode="&#303;" /><glyph d="M60 619H140V700H60ZM76 0H124V490H76ZM76 0C28 -28 4 -66 4 -101C4 -144 32 -172 84 -172C107 -172 122 -166 122 -166V-134H115C72 -134 53 -116 53 -91C53 -60 71 -39 122 0Z" glyph-name="iogonek.ss03" horiz-adv-x="200" /><glyph d="M76 0H124V490H76ZM195 692C189 674 181 658 156 658C138 658 119 666 100 674C78 683 61 692 36 692C-1 692 -30 660 -34 610H4C9 629 18 644 43 644C60 644 76 636 92 630C115 621 139 610 164 610C201 610 230 642 234 692Z" glyph-name="itilde" horiz-adv-x="200" unicode="&#297;" /><glyph d="M76 0H124V490H76ZM195 692C189 674 181 658 156 658C138 658 119 666 100 674C78 683 61 692 36 692C-1 692 -30 660 -34 610H4C9 629 18 644 43 644C60 644 76 636 92 630C115 621 139 610 164 610C201 610 230 642 234 692Z" glyph-name="itilde.ss03" horiz-adv-x="200" /><glyph d="M107 622C132 622 152 642 152 667C152 692 132 712 107 712C82 712 62 692 62 667C62 642 82 622 107 622ZM83 -48C83 -123 65 -157 -14 -157H-45V-204C-35 -205 -24 -205 -7 -205C83 -205 131 -168 131 -65V490H83Z" glyph-name="j" horiz-adv-x="207" unicode="j" /><glyph d="M104 622C129 622 149 642 149 667C149 692 129 712 104 712C79 712 59 692 59 667C59 642 79 622 104 622ZM-53 -194H128V490H80V-146H-53Z" glyph-name="j.ss01" horiz-adv-x="204" /><glyph d="M64 619H144V700H64ZM80 -43C80 -118 62 -152 -17 -152H-48V-199C-38 -200 -27 -200 -10 -200C80 -200 128 -163 128 -60V490H80Z" glyph-name="j.ss03" horiz-adv-x="203" /><glyph d="M83 -48C83 -123 65 -157 -14 -157H-45V-204C-35 -205 -24 -205 -7 -205C83 -205 131 -168 131 -65V490H83ZM76 700 -21 569H28L109 661L191 569H240L143 700Z" glyph-name="jcircumflex" horiz-adv-x="207" unicode="&#309;" /><glyph d="M-53 -194H128V490H80V-146H-53ZM74 700 -23 569H26L107 661L189 569H238L141 700Z" glyph-name="jcircumflex.ss01" horiz-adv-x="204" /><glyph d="M80 -48C80 -123 62 -157 -17 -157H-48V-204C-38 -205 -27 -205 -10 -205C80 -205 128 -168 128 -65V490H80ZM73 700 -24 569H25L106 661L188 569H237L140 700Z" glyph-name="jcircumflex.ss03" horiz-adv-x="203" /><glyph d="M76 0H124V137L226 249L403 0H462L261 284L451 490H386L124 208V700H76Z" glyph-name="k" horiz-adv-x="482" unicode="k" /><glyph d="M124 700H76V0H124V223H273L399 0H453L313 249L440 490H386L271 271H124Z" glyph-name="k.ss01" horiz-adv-x="493" /><glyph d="M372 0H439L191 253L429 490H362L124 252V700H76V0H124V252Z" glyph-name="k.ss02" horiz-adv-x="459" /><glyph d="M76 0H124V137L226 249L403 0H462L261 284L451 490H386L124 208V700H76ZM194 -194 241 -57H306L243 -194Z" glyph-name="kcommaaccent" horiz-adv-x="482" unicode="&#311;" /><glyph d="M124 700H76V0H124V223H273L399 0H453L313 249L440 490H386L271 271H124ZM196 -194 243 -57H308L245 -194Z" glyph-name="kcommaaccent.ss01" horiz-adv-x="493" /><glyph d="M372 0H439L191 253L429 490H362L124 252V700H76V0H124V252ZM189 -194 236 -57H301L238 -194Z" glyph-name="kcommaaccent.ss02" horiz-adv-x="459" /><glyph d="M76 0H124V137L226 249L403 0H462L261 284L451 490H386L124 208V490H76Z" glyph-name="kgreenlandic" horiz-adv-x="482" unicode="&#312;" /><glyph d="M124 490H76V0H124V223H273L399 0H453L313 249L440 490H386L271 271H124Z" glyph-name="kgreenlandic.ss01" horiz-adv-x="493" /><glyph d="M372 0H439L191 253L429 490H362L124 252V490H76V0H124V252Z" glyph-name="kgreenlandic.ss02" horiz-adv-x="459" /><glyph d="M76 0H124V700H76Z" glyph-name="l" horiz-adv-x="200" unicode="l" /><glyph d="M65 342H108V857H65Z" glyph-name="l.ordn" horiz-adv-x="173" /><glyph d="M76 0H124V700H76Z" glyph-name="l.ss01" horiz-adv-x="200" /><glyph d="M76 0H124V700H76ZM120 769 234 872H156L65 769Z" glyph-name="lacute" horiz-adv-x="200" unicode="&#314;" /><glyph d="M76 0H124V700H76ZM120 769 234 872H156L65 769Z" glyph-name="lacute.ss01" horiz-adv-x="200" /><glyph d="M76 0H124V700H76ZM226 511 268 700H213L186 511Z" glyph-name="lcaron" horiz-adv-x="200" unicode="&#318;" /><glyph d="M76 0H124V700H76ZM226 511 268 700H213L186 511Z" glyph-name="lcaron.ss01" horiz-adv-x="200" /><glyph d="M76 0H124V700H76ZM14 -194 61 -57H126L63 -194Z" glyph-name="lcommaaccent" horiz-adv-x="200" unicode="&#316;" /><glyph d="M76 0H124V700H76ZM20 -194 67 -57H132L69 -194Z" glyph-name="lcommaaccent.ss01" horiz-adv-x="200" /><glyph d="M76 0H124V700H76ZM233 304C258 304 278 324 278 349C278 374 258 394 233 394C208 394 188 374 188 349C188 324 208 304 233 304Z" glyph-name="ldot" horiz-adv-x="269" unicode="&#320;" /><glyph d="M76 0H124V700H76ZM233 304C258 304 278 324 278 349C278 374 258 394 233 394C208 394 188 374 188 349C188 324 208 304 233 304Z" glyph-name="ldot.ss01" horiz-adv-x="269" /><glyph d="M76 0H124V700H76ZM193 309H273V390H193Z" glyph-name="ldot.ss03" horiz-adv-x="263" /><glyph d="M531 -11V41L68 245L531 449V502L40 280V210Z" glyph-name="less" horiz-adv-x="599" unicode="&lt;" /><glyph d="M531 88V140L104 295L531 449V502L40 323V266ZM531 -43V0H41V-43Z" glyph-name="lessequal" horiz-adv-x="599" unicode="&#8804;" /><glyph d="M45 121C71 121 98 125 121 133C132 59 154 -11 222 -11C286 -11 321 47 323 130H289C284 67 269 27 224 27C179 27 163 94 158 149C236 187 297 289 297 418C297 495 278 552 219 552C141 552 112 466 112 281C112 234 113 202 116 175C93 166 69 162 43 162ZM150 293C150 410 167 514 216 514C251 514 259 462 259 410C259 319 215 224 153 192C151 221 150 255 150 293Z" glyph-name="litre" horiz-adv-x="400" unicode="&#8467;" /><glyph d="M507 245V94H547V288H68V245Z" glyph-name="logicalnot" horiz-adv-x="636" unicode="&#172;" /><glyph d="M322 701 96 251 322 -205H370L597 251L370 701ZM152 251 346 641 542 251 346 -144Z" glyph-name="lozenge" horiz-adv-x="692" unicode="&#9674;" /><glyph d="M-10 279 76 322V0H124V346L210 390V441L124 397V700H76V373L-10 330Z" glyph-name="lslash" horiz-adv-x="200" unicode="&#322;" /><glyph d="M-10 279 76 322V0H124V346L210 390V441L124 397V700H76V373L-10 330Z" glyph-name="lslash.ss01" horiz-adv-x="200" /><glyph d="M123 490H76V0H125V262C125 376 176 454 278 454C370 454 411 381 411 279V0H459V262C459 391 527 454 608 454C716 454 745 379 745 285V0H793V287C793 424 740 502 607 502C528 502 476 466 443 402C408 465 360 502 284 502C205 502 152 469 123 409Z" glyph-name="m" horiz-adv-x="863" unicode="m" /><glyph d="M103 550C103 632 150 674 208 674C263 674 301 644 301 561V342H344V551C344 633 387 674 449 674C509 674 541 631 541 565V342H584V553C584 658 541 712 444 712C394 712 351 691 327 653C303 691 268 712 210 712C162 712 123 688 102 663V700H60V342H103Z" glyph-name="m.ordn" horiz-adv-x="639" /><glyph d="M556 703H60V342H103V663H286V342H329V663H513V342H556Z" glyph-name="m.ordn.ss01" horiz-adv-x="616" /><glyph d="M76 0H124V444H384V0H432V444H692V0H740V490H76Z" glyph-name="m.ss01" horiz-adv-x="816" /><glyph d="M364 643V690H136V643Z" glyph-name="macron" horiz-adv-x="500" unicode="&#175;" /><glyph d="M364 797V844H136V797Z" glyph-name="macron.cap" horiz-adv-x="500" /><glyph d="M73 268V225H557V268Z" glyph-name="minus" horiz-adv-x="631" unicode="&#8722;" /><glyph d="M76 -194H123V62C154 17 202 -11 269 -11C352 -11 411 18 448 85V0H492V490H445V246C445 124 384 32 274 32C154 32 123 119 123 246V490H76Z" glyph-name="mu" horiz-adv-x="568" unicode="&#181;" /><glyph d="M76 -194H123V62C154 17 202 -11 269 -11C352 -11 411 18 448 85V0H492V490H445V246C445 124 384 32 274 32C154 32 123 119 123 246V490H76Z" glyph-name="mugreek" horiz-adv-x="568" unicode="&#956;" /><glyph d="M84 412 250 246 83 80 115 49 280 214 447 49 477 80 312 246 476 410 444 440 280 277 115 442Z" glyph-name="multiply" horiz-adv-x="560" unicode="&#215;" /><glyph d="M494 0V245C494 388 451 502 300 502C218 502 160 472 123 405V490H76V0H124V239C124 361 184 454 295 454C415 454 446 366 446 239V0Z" glyph-name="n" horiz-adv-x="564" unicode="n" /><glyph d="M76 0H124V444H408V0H456V490H76Z" glyph-name="n.ss01" horiz-adv-x="532" /><glyph d="M494 0V245C494 388 451 502 300 502C218 502 160 472 123 405V490H76V0H124V239C124 361 184 454 295 454C415 454 446 366 446 239V0ZM254 569 368 700H298L202 569Z" glyph-name="nacute" horiz-adv-x="564" unicode="&#324;" /><glyph d="M76 0H124V444H408V0H456V490H76ZM235 569 349 700H279L183 569Z" glyph-name="nacute.ss01" horiz-adv-x="532" /><glyph glyph-name="nbspace" horiz-adv-x="290" unicode="&#160;" /><glyph d="M494 0V245C494 388 451 502 300 502C218 502 160 472 123 405V490H76V0H124V239C124 361 184 454 295 454C415 454 446 366 446 239V0ZM320 569 417 700H368L287 608L205 700H156L253 569Z" glyph-name="ncaron" horiz-adv-x="564" unicode="&#328;" /><glyph d="M76 0H124V444H408V0H456V490H76ZM301 569 398 700H349L268 608L186 700H137L234 569Z" glyph-name="ncaron.ss01" horiz-adv-x="532" /><glyph d="M494 0V245C494 388 451 502 300 502C218 502 160 472 123 405V490H76V0H124V239C124 361 184 454 295 454C415 454 446 366 446 239V0ZM209 -194 256 -57H321L258 -194Z" glyph-name="ncommaaccent" horiz-adv-x="564" unicode="&#326;" /><glyph d="M76 0H124V444H408V0H456V490H76ZM210 -194 257 -57H322L259 -194Z" glyph-name="ncommaaccent.ss01" horiz-adv-x="532" /><glyph d="M122 484C122 591 194 662 289 662C383 662 464 582 464 477C464 380 385 306 292 306C209 306 122 371 122 484ZM72 485C72 344 181 258 295 258C396 258 471 315 494 420C496 396 498 342 498 318C495 170 430 39 288 39C229 39 178 71 144 107L108 67C148 23 208 -11 288 -11C458 -11 549 135 549 344C549 567 445 712 295 712C175 712 72 630 72 485Z" glyph-name="nine" horiz-adv-x="618" unicode="9" /><glyph d="M122 331C122 438 194 509 289 509C383 509 464 429 464 324C464 227 385 153 292 153C209 153 122 218 122 331ZM72 332C72 191 181 105 295 105C396 105 471 162 494 267C496 243 498 189 498 165C495 17 430 -114 288 -114C229 -114 178 -82 144 -46L108 -86C148 -130 208 -164 288 -164C458 -164 549 -18 549 191C549 414 445 559 295 559C175 559 72 477 72 332Z" glyph-name="nine.osf" horiz-adv-x="618" /><glyph d="M95 331C95 191 207 105 326 105C371 105 418 116 451 138L244 -153H305L486 108C529 170 570 244 570 324C570 460 472 559 332 559C207 559 95 477 95 331ZM335 157C235 157 153 225 153 334C153 441 235 510 335 510C433 510 515 441 515 334C515 225 434 157 335 157Z" glyph-name="nine.osf.ss01" horiz-adv-x="653" /><glyph d="M55 331C55 191 165 105 284 105C338 105 380 123 410 145L205 -153H265L446 108C489 170 530 244 530 324C530 460 432 559 292 559C167 559 55 477 55 331ZM293 153C192 153 109 222 109 332C109 441 192 511 293 511C393 511 476 441 476 332C476 222 394 153 293 153Z" glyph-name="nine.osf.ss02" horiz-adv-x="600" /><glyph d="M110 331C110 438 183 511 278 511C372 511 447 429 447 324C447 227 371 153 278 153C195 153 110 218 110 331ZM94 -2C105 -107 204 -164 286 -164C456 -164 535 -18 535 191C535 414 434 559 284 559C164 559 60 477 60 332C60 191 167 105 281 105C388 105 459 170 482 257C484 233 484 189 484 165C481 17 426 -114 284 -114C217 -114 154 -75 139 -2Z" glyph-name="nine.osf.ss03" horiz-adv-x="595" /><glyph d="M95 484C95 344 207 258 326 258C371 258 418 269 451 291L244 0H305L486 261C529 323 570 397 570 477C570 613 472 712 332 712C207 712 95 630 95 484ZM335 310C235 310 153 378 153 487C153 594 235 663 335 663C433 663 515 594 515 487C515 378 434 310 335 310Z" glyph-name="nine.ss01" horiz-adv-x="653" /><glyph d="M55 484C55 344 165 258 284 258C338 258 380 276 410 298L205 0H265L446 261C489 323 530 397 530 477C530 613 432 712 292 712C167 712 55 630 55 484ZM293 306C192 306 109 375 109 485C109 594 192 664 293 664C393 664 476 594 476 485C476 375 394 306 293 306Z" glyph-name="nine.ss02" horiz-adv-x="600" /><glyph d="M110 484C110 591 183 664 278 664C372 664 447 582 447 477C447 380 371 306 278 306C195 306 110 371 110 484ZM94 151C105 46 204 -11 286 -11C456 -11 535 135 535 344C535 567 434 712 284 712C164 712 60 630 60 485C60 344 167 258 281 258C388 258 459 323 482 410C484 386 484 342 484 318C481 170 426 39 284 39C217 39 154 78 139 151Z" glyph-name="nine.ss03" horiz-adv-x="595" /><glyph d="M126 484C126 591 198 662 293 662C387 662 468 582 468 477C468 380 389 306 296 306C213 306 126 371 126 484ZM76 485C76 344 185 258 299 258C400 258 475 315 498 420C500 396 502 342 502 318C499 170 434 39 292 39C233 39 182 71 148 107L112 67C152 23 212 -11 292 -11C462 -11 553 135 553 344C553 567 449 712 299 712C179 712 76 630 76 485Z" glyph-name="nine.tf" horiz-adv-x="600" /><glyph d="M62 484C62 344 174 258 293 258C338 258 385 269 418 291L211 0H272L453 261C496 323 537 397 537 477C537 613 439 712 299 712C174 712 62 630 62 484ZM302 310C202 310 120 378 120 487C120 594 202 663 302 663C400 663 482 594 482 487C482 378 401 310 302 310Z" glyph-name="nine.tf.ss01" horiz-adv-x="600" /><glyph d="M62 484C62 344 172 258 291 258C345 258 387 276 417 298L212 0H272L453 261C496 323 537 397 537 477C537 613 439 712 299 712C174 712 62 630 62 484ZM300 306C199 306 116 375 116 485C116 594 199 664 300 664C400 664 483 594 483 485C483 375 401 306 300 306Z" glyph-name="nine.tf.ss02" horiz-adv-x="600" /><glyph d="M112 484C112 591 185 664 280 664C374 664 449 582 449 477C449 380 373 306 280 306C197 306 112 371 112 484ZM96 151C107 46 206 -11 288 -11C458 -11 537 135 537 344C537 567 436 712 286 712C166 712 62 630 62 485C62 344 169 258 283 258C390 258 461 323 484 410C486 386 486 342 486 318C483 170 428 39 286 39C219 39 156 78 141 151Z" glyph-name="nine.tf.ss03" horiz-adv-x="600" /><glyph d="M111 331C111 438 183 509 278 509C372 509 453 429 453 324C453 227 374 153 281 153C198 153 111 218 111 331ZM61 332C61 191 170 105 284 105C385 105 460 162 483 267C485 243 487 189 487 165C484 17 419 -114 277 -114C218 -114 167 -82 133 -46L97 -86C137 -130 197 -164 277 -164C447 -164 538 -18 538 191C538 414 434 559 284 559C164 559 61 477 61 332Z" glyph-name="nine.to" horiz-adv-x="600" /><glyph d="M62 331C62 191 174 105 293 105C338 105 385 116 418 138L211 -153H272L453 108C496 170 537 244 537 324C537 460 439 559 299 559C174 559 62 477 62 331ZM302 157C202 157 120 225 120 334C120 441 202 510 302 510C400 510 482 441 482 334C482 225 401 157 302 157Z" glyph-name="nine.to.ss01" horiz-adv-x="600" /><glyph d="M62 331C62 191 172 105 291 105C345 105 387 123 417 145L212 -153H272L453 108C496 170 537 244 537 324C537 460 439 559 299 559C174 559 62 477 62 331ZM300 153C199 153 116 222 116 332C116 441 199 511 300 511C400 511 483 441 483 332C483 222 401 153 300 153Z" glyph-name="nine.to.ss02" horiz-adv-x="600" /><glyph d="M112 331C112 438 185 511 280 511C374 511 449 429 449 324C449 227 373 153 280 153C197 153 112 218 112 331ZM96 -2C107 -107 206 -164 288 -164C458 -164 537 -18 537 191C537 414 436 559 286 559C166 559 62 477 62 332C62 191 169 105 283 105C390 105 461 170 484 257C486 233 486 189 486 165C483 17 428 -114 286 -114C219 -114 156 -75 141 -2Z" glyph-name="nine.to.ss03" horiz-adv-x="600" /><glyph d="M207 17 289 152H573V195H315L398 331H573V374H424L502 501H450L372 374H83V331H346L263 195H83V152H236L154 17Z" glyph-name="notequal" horiz-adv-x="655" unicode="&#8800;" /><glyph d="M494 0V245C494 388 451 502 300 502C218 502 160 472 123 405V490H76V0H124V239C124 361 184 454 295 454C415 454 446 366 446 239V0ZM380 692C374 674 366 658 341 658C323 658 304 666 285 674C263 683 246 692 221 692C184 692 155 660 151 610H189C194 629 203 644 228 644C245 644 261 636 277 630C300 621 324 610 349 610C386 610 415 642 419 692Z" glyph-name="ntilde" horiz-adv-x="564" unicode="&#241;" /><glyph d="M76 0H124V444H408V0H456V490H76ZM361 692C355 674 347 658 322 658C304 658 285 666 266 674C244 683 227 692 202 692C165 692 136 660 132 610H170C175 629 184 644 209 644C226 644 242 636 258 630C281 621 305 610 330 610C367 610 396 642 400 692Z" glyph-name="ntilde.ss01" horiz-adv-x="532" /><glyph d="M290 438H483L432 262H240ZM671 438V484H542L604 701H558L496 484H303L365 701H319L257 484H103V438H244L193 262H50V216H180L119 0H165L227 216H419L358 0H404L466 216H618V262H479L529 438Z" glyph-name="numbersign" horiz-adv-x="721" unicode="#" /><glyph d="M90 0H138V634L575 0H636V700H588V65L151 700H90ZM766 522C766 420 846 334 955 334C1065 334 1145 420 1145 522C1145 625 1065 712 955 712C846 712 766 625 766 522ZM812 522C812 606 871 671 955 671C1039 671 1098 606 1098 522C1098 439 1039 375 955 375C871 375 812 439 812 522Z" glyph-name="numero" horiz-adv-x="1190" unicode="&#8470;" /><glyph d="M638 0V700H590V132L90 701V0H138V567ZM768 522C768 420 848 334 957 334C1067 334 1147 420 1147 522C1147 625 1067 712 957 712C848 712 768 625 768 522ZM814 522C814 606 873 671 957 671C1041 671 1100 606 1100 522C1100 439 1041 375 957 375C873 375 814 439 814 522Z" glyph-name="numero.ss02" horiz-adv-x="1192" /><glyph d="M494 0V245C494 388 451 502 300 502C218 502 160 472 123 405V490H76V0H124V239C124 361 184 454 295 454C415 454 446 366 446 239V0ZM554 522C554 420 634 334 743 334C853 334 933 420 933 522C933 625 853 712 743 712C634 712 554 625 554 522ZM600 522C600 606 659 671 743 671C827 671 886 606 886 522C886 439 827 375 743 375C659 375 600 439 600 522Z" glyph-name="numeroLC" horiz-adv-x="978" /><glyph d="M76 0H124V444H408V0H456V490H76ZM554 522C554 420 634 334 743 334C853 334 933 420 933 522C933 625 853 712 743 712C634 712 554 625 554 522ZM600 522C600 606 659 671 743 671C827 671 886 606 886 522C886 439 827 375 743 375C659 375 600 439 600 522Z" glyph-name="numeroLC.ss01" horiz-adv-x="978" /><glyph d="M494 0V245C494 388 451 502 300 502C218 502 160 472 123 405V490H76V0H124V239C124 361 184 454 295 454C415 454 446 366 446 239V0ZM554 522C554 420 634 334 743 334C853 334 933 420 933 522C933 625 853 712 743 712C634 712 554 625 554 522ZM600 522C600 606 659 671 743 671C827 671 886 606 886 522C886 439 827 375 743 375C659 375 600 439 600 522ZM1201 496C1249 485 1266 463 1266 438C1266 402 1230 375 1174 375C1128 375 1085 399 1055 434L1023 403C1050 369 1106 334 1174 334C1260 334 1313 381 1313 441C1313 494 1272 522 1205 538L1148 551C1102 561 1085 589 1085 616C1085 647 1118 671 1161 671C1217 671 1249 640 1268 621L1301 653C1263 689 1219 712 1167 712C1101 712 1039 675 1039 612C1039 557 1072 526 1145 509Z" glyph-name="numeroLC_s" horiz-adv-x="1358" /><glyph d="M76 0H124V444H408V0H456V490H76ZM554 522C554 420 634 334 743 334C853 334 933 420 933 522C933 625 853 712 743 712C634 712 554 625 554 522ZM600 522C600 606 659 671 743 671C827 671 886 606 886 522C886 439 827 375 743 375C659 375 600 439 600 522ZM1170 712C1108 712 1046 675 1046 617C1046 575 1078 546 1116 524L1263 437C1255 406 1219 375 1169 375C1121 375 1078 406 1056 436L1023 406C1043 375 1101 334 1167 334C1253 334 1316 402 1317 455L1145 556C1109 577 1092 593 1092 617C1092 646 1123 671 1168 671C1217 671 1252 646 1271 625L1300 656C1272 687 1227 712 1170 712Z" glyph-name="numeroLC_s.ss01" horiz-adv-x="1362" /><glyph d="M90 0H138V634L575 0H636V700H588V65L151 700H90ZM766 522C766 420 846 334 955 334C1065 334 1145 420 1145 522C1145 625 1065 712 955 712C846 712 766 625 766 522ZM812 522C812 606 871 671 955 671C1039 671 1098 606 1098 522C1098 439 1039 375 955 375C871 375 812 439 812 522ZM1413 496C1461 485 1478 463 1478 438C1478 402 1442 375 1386 375C1340 375 1297 399 1267 434L1235 403C1262 369 1318 334 1386 334C1472 334 1525 381 1525 441C1525 494 1484 522 1417 538L1360 551C1314 561 1297 589 1297 616C1297 647 1330 671 1373 671C1429 671 1461 640 1480 621L1513 653C1475 689 1431 712 1379 712C1313 712 1251 675 1251 612C1251 557 1284 526 1357 509Z" glyph-name="numero_s" horiz-adv-x="1570" /><glyph d="M638 0V700H590V132L90 701V0H138V567ZM768 522C768 420 848 334 957 334C1067 334 1147 420 1147 522C1147 625 1067 712 957 712C848 712 768 625 768 522ZM814 522C814 606 873 671 957 671C1041 671 1100 606 1100 522C1100 439 1041 375 957 375C873 375 814 439 814 522ZM1415 496C1463 485 1480 463 1480 438C1480 402 1444 375 1388 375C1342 375 1299 399 1269 434L1237 403C1264 369 1320 334 1388 334C1474 334 1527 381 1527 441C1527 494 1486 522 1419 538L1362 551C1316 561 1299 589 1299 616C1299 647 1332 671 1375 671C1431 671 1463 640 1482 621L1515 653C1477 689 1433 712 1381 712C1315 712 1253 675 1253 612C1253 557 1286 526 1359 509Z" glyph-name="numero_s.ss02" horiz-adv-x="1572" /><glyph d="M307 -11C448 -11 554 103 554 245C554 386 448 502 307 502C166 502 60 386 60 245C60 103 166 -11 307 -11ZM307 454C416 454 503 362 503 245C503 128 415 37 307 37C201 37 111 127 111 245C111 363 201 454 307 454Z" glyph-name="o" horiz-adv-x="614" unicode="o" /><glyph d="M45 522C45 420 125 334 234 334C344 334 424 420 424 522C424 625 344 712 234 712C125 712 45 625 45 522ZM91 522C91 606 150 671 234 671C318 671 377 606 377 522C377 439 318 375 234 375C150 375 91 439 91 522Z" glyph-name="o.ordn" horiz-adv-x="469" /><glyph d="M307 -11C448 -11 554 103 554 245C554 386 448 502 307 502C166 502 60 386 60 245C60 103 166 -11 307 -11ZM307 454C416 454 503 362 503 245C503 128 415 37 307 37C201 37 111 127 111 245C111 363 201 454 307 454ZM315 569 429 700H359L263 569Z" glyph-name="oacute" horiz-adv-x="614" unicode="&#243;" /><glyph d="M307 -11C448 -11 554 103 554 245C554 386 448 502 307 502C166 502 60 386 60 245C60 103 166 -11 307 -11ZM307 454C416 454 503 362 503 245C503 128 415 37 307 37C201 37 111 127 111 245C111 363 201 454 307 454ZM439 701H392C387 654 361 614 307 614C254 614 225 653 222 701H175C181 624 227 567 308 567C389 567 433 629 439 701Z" glyph-name="obreve" horiz-adv-x="614" unicode="&#335;" /><glyph d="M307 -11C448 -11 554 103 554 245C554 386 448 502 307 502C166 502 60 386 60 245C60 103 166 -11 307 -11ZM307 454C416 454 503 362 503 245C503 128 415 37 307 37C201 37 111 127 111 245C111 363 201 454 307 454ZM275 700 178 569H227L308 661L390 569H439L342 700Z" glyph-name="ocircumflex" horiz-adv-x="614" unicode="&#244;" /><glyph d="M307 -11C448 -11 554 103 554 245C554 386 448 502 307 502C166 502 60 386 60 245C60 103 166 -11 307 -11ZM307 454C416 454 503 362 503 245C503 128 415 37 307 37C201 37 111 127 111 245C111 363 201 454 307 454ZM219 610C244 610 264 630 264 655C264 680 244 700 219 700C194 700 174 680 174 655C174 630 194 610 219 610ZM395 610C420 610 440 630 440 655C440 680 420 700 395 700C370 700 350 680 350 655C350 630 370 610 395 610Z" glyph-name="odieresis" horiz-adv-x="614" unicode="&#246;" /><glyph d="M307 -11C448 -11 554 103 554 245C554 386 448 502 307 502C166 502 60 386 60 245C60 103 166 -11 307 -11ZM307 454C416 454 503 362 503 245C503 128 415 37 307 37C201 37 111 127 111 245C111 363 201 454 307 454ZM179 612H259V693H179ZM356 612H436V693H356Z" glyph-name="odieresis.ss03" horiz-adv-x="614" /><glyph d="M894 107C855 64 810 37 739 37C634 37 560 119 556 234H942V245C942 386 875 502 736 502C629 502 559 447 527 362C487 445 405 502 307 502C166 502 60 386 60 245C60 103 166 -11 307 -11C407 -11 490 47 529 132C564 47 639 -11 740 -11C835 -11 889 25 930 71ZM307 454C416 454 503 362 503 245C503 128 415 37 307 37C201 37 111 127 111 245C111 363 201 454 307 454ZM890 282H557C568 385 629 453 735 453C826 453 883 378 890 282Z" glyph-name="oe" horiz-adv-x="1002" unicode="&#339;" /><glyph d="M550 334C550 396 599 454 678 454C752 454 803 396 803 334C803 271 752 215 678 215C600 215 550 271 550 334ZM300 454C409 454 496 361 496 251C496 132 408 47 300 47C195 47 107 133 107 251C107 362 195 454 300 454ZM300 0H831V48H445C499 89 535 152 542 225L543 224C576 188 621 167 675 167C776 167 851 238 851 334C851 435 776 502 675 502C598 502 531 460 506 386C464 455 389 502 301 502C163 502 60 388 60 251C60 112 162 0 300 0Z" glyph-name="oe.ss01" horiz-adv-x="901" /><glyph d="M263 0C215 -28 191 -66 191 -101C191 -144 219 -172 271 -172C294 -172 309 -166 309 -166V-134H302C259 -134 240 -116 240 -91C240 -60 258 -39 309 0Z" glyph-name="ogonek" horiz-adv-x="500" unicode="&#731;" /><glyph d="M263 0C215 -28 191 -66 191 -101C191 -144 219 -172 271 -172C294 -172 309 -166 309 -166V-134H302C259 -134 240 -116 240 -91C240 -60 258 -39 309 0Z" glyph-name="ogonek.cap" horiz-adv-x="500" /><glyph d="M307 -11C448 -11 554 103 554 245C554 386 448 502 307 502C166 502 60 386 60 245C60 103 166 -11 307 -11ZM307 454C416 454 503 362 503 245C503 128 415 37 307 37C201 37 111 127 111 245C111 363 201 454 307 454ZM355 569 259 700H189L303 569Z" glyph-name="ograve" horiz-adv-x="614" unicode="&#242;" /><glyph d="M307 -11C448 -11 554 103 554 245C554 386 448 502 307 502C166 502 60 386 60 245C60 103 166 -11 307 -11ZM307 454C416 454 503 362 503 245C503 128 415 37 307 37C201 37 111 127 111 245C111 363 201 454 307 454ZM236 569 332 700H266L190 569ZM389 569 485 700H419L343 569Z" glyph-name="ohungarumlaut" horiz-adv-x="614" unicode="&#337;" /><glyph d="M307 -11C448 -11 554 103 554 245C554 386 448 502 307 502C166 502 60 386 60 245C60 103 166 -11 307 -11ZM307 454C416 454 503 362 503 245C503 128 415 37 307 37C201 37 111 127 111 245C111 363 201 454 307 454ZM421 643V690H193V643Z" glyph-name="omacron" horiz-adv-x="614" unicode="&#333;" /><glyph d="M60 50V0H472V50H296V701H247C214 637 141 608 60 602V552C146 558 203 581 246 614V50Z" glyph-name="one" horiz-adv-x="502" unicode="1" /><glyph d="M60 50V0H472V50H296V547H247C214 483 141 454 60 448V398C146 404 203 427 246 460V50Z" glyph-name="one.osf" horiz-adv-x="502" /><glyph d="M84 50V0H496V50H320V547H84V497H270V50Z" glyph-name="one.osf.ss01" horiz-adv-x="546" /><glyph d="M197 0V564H188L36 424V360L147 458V0Z" glyph-name="one.osf.ss02" horiz-adv-x="317" /><glyph d="M20 385H183V0H234V547H194C178 474 140 425 20 425Z" glyph-name="one.osf.ss03" horiz-adv-x="354" /><glyph d="M101 50V0H513V50H337V701H101V651H287V50Z" glyph-name="one.ss01" horiz-adv-x="580" /><glyph d="M15 495 147 604V0H197V712L15 555Z" glyph-name="one.ss02" horiz-adv-x="317" /><glyph d="M20 539H183V0H234V701H194C178 628 140 579 20 579Z" glyph-name="one.ss03" horiz-adv-x="354" /><glyph d="M85 50V0H497V50H321V701H272C239 637 166 608 85 602V552C171 558 228 581 271 614V50Z" glyph-name="one.tf" horiz-adv-x="600" /><glyph d="M94 50V0H506V50H330V701H94V651H280V50Z" glyph-name="one.tf.ss01" horiz-adv-x="600" /><glyph d="M91 0H509V50H332V718H326L109 530V472L282 617V50H91Z" glyph-name="one.tf.ss02" horiz-adv-x="600" /><glyph d="M112 539H275V49H86V0H514V49H326V701H286C270 628 232 579 112 579Z" glyph-name="one.tf.ss03" horiz-adv-x="600" /><glyph d="M94 50V0H506V50H330V547H281C248 483 175 454 94 448V398C180 404 237 427 280 460V50Z" glyph-name="one.to" horiz-adv-x="600" /><glyph d="M94 50V0H506V50H330V547H94V497H280V50Z" glyph-name="one.to.ss01" horiz-adv-x="600" /><glyph d="M91 0H509V50H332V564H322L109 351V281L282 454V50H91Z" glyph-name="one.to.ss02" horiz-adv-x="600" /><glyph d="M493 0V50H325V547H285C269 474 231 425 111 425V385H274V50H106V0Z" glyph-name="one.to.ss03" horiz-adv-x="600" /><glyph d="M289 308V352H191V700H149C128 665 84 650 45 647V606C84 608 120 620 145 639V352H47V308ZM220 0H271L699 700H648ZM668 44C668 85 692 120 749 147L770 157C840 189 878 232 878 291C878 367 820 404 750 404C684 404 642 362 618 329L650 301C669 328 700 359 751 359C793 359 831 333 831 289C831 241 795 217 727 184C644 144 618 92 618 16V0H878V44Z" glyph-name="onehalf" horiz-adv-x="926" unicode="&#189;" /><glyph d="M605 40V0H866V44H671L787 157C833 201 865 237 865 288C865 354 809 404 736 404C661 404 603 347 603 282C603 219 651 165 724 156ZM218 0H269L697 700H646ZM287 308V352H184V700H41V656H138V352H35V308ZM733 360C784 360 818 326 818 283C818 238 781 200 736 200C687 200 650 236 650 281C650 327 688 360 733 360ZM731 163 730 162C730 162 730 163 731 163Z" glyph-name="onehalf.ss01" horiz-adv-x="906" /><glyph d="M93 308H139V704H133L25 612V556L93 609ZM70 0H121L549 700H498ZM442 5V0H712V44H540L618 128C662 176 700 223 700 284C700 361 646 404 573 404C513 404 464 363 440 325L470 296C498 334 531 359 577 359C618 359 652 332 652 280C652 242 634 210 573 145Z" glyph-name="onehalf.ss02" horiz-adv-x="767" /><glyph d="M75 0H126L554 700H503ZM114 308H160V700H123C108 655 91 642 25 638V607H114ZM723 292C723 362 673 404 609 404C545 404 486 357 481 285H529C534 328 562 360 607 360C650 360 676 329 676 289C676 250 644 228 599 201L579 189C500 142 473 93 473 20V0H726V44H524C524 85 542 113 600 149L639 173C689 204 723 241 723 292Z" glyph-name="onehalf.ss03" horiz-adv-x="781" /><glyph d="M279 0V44H181V392H139C118 357 74 342 35 339V298C74 300 110 312 135 331V44H37V0Z" glyph-name="oneinferior" horiz-adv-x="309" unicode="&#8321;" /><glyph d="M287 0V44H184V392H41V348H138V44H35V0Z" glyph-name="oneinferior.ss01" horiz-adv-x="317" /><glyph d="M93 0H139V396H133L25 304V248L93 301Z" glyph-name="oneinferior.ss02" horiz-adv-x="229" /><glyph d="M114 0H160V392H123C108 347 91 334 25 330V299H114Z" glyph-name="oneinferior.ss03" horiz-adv-x="250" /><glyph d="M289 308V352H191V700H149C128 665 84 650 45 647V606C84 608 120 620 145 639V352H47V308ZM220 0H271L699 700H648ZM839 101V142H779V392H737L540 135V101H733V0H779V101ZM597 142 733 319V142Z" glyph-name="onequarter" horiz-adv-x="874" unicode="&#188;" /><glyph d="M287 308V352H184V700H41V656H138V352H35V308ZM218 0H269L697 700H646ZM761 231H715V140H608V180L769 392H714L560 190V98H715V0H761V98H842V140H761Z" glyph-name="onequarter.ss01" horiz-adv-x="877" /><glyph d="M93 308H139V704H133L25 612V556L93 609ZM70 0H121L549 700H498ZM340 105V96H543V0H589V96H651V140H589V404H585ZM426 140 543 282V140Z" glyph-name="onequarter.ss02" horiz-adv-x="686" /><glyph d="M75 0H126L554 700H503ZM114 308H160V700H123C108 655 91 642 25 638V607H114ZM694 101V142H634V392H592L395 135V101H588V0H634V101ZM452 142 588 319V142Z" glyph-name="onequarter.ss03" horiz-adv-x="729" /><glyph d="M279 308V352H181V700H139C118 665 74 650 35 647V606C74 608 110 620 135 639V352H37V308Z" glyph-name="onesuperior" horiz-adv-x="309" unicode="&#185;" /><glyph d="M287 308V352H184V700H41V656H138V352H35V308Z" glyph-name="onesuperior.ss01" horiz-adv-x="317" /><glyph d="M93 308H139V704H133L25 612V556L93 609Z" glyph-name="onesuperior.ss02" horiz-adv-x="229" /><glyph d="M114 308H160V700H123C108 655 91 642 25 638V607H114Z" glyph-name="onesuperior.ss03" horiz-adv-x="250" /><glyph d="M170 334C223 334 267 354 296 385V342H336V575C336 671 278 712 191 712C123 712 82 673 69 657L97 626C96 625 130 671 190 671C252 671 293 641 293 580V535C291 535 239 553 184 553C102 553 50 511 50 443C50 372 105 334 170 334ZM293 430C262 395 222 377 179 377C130 377 95 400 95 442C95 481 125 512 189 512C236 512 272 503 293 497Z" glyph-name="ordfeminine" horiz-adv-x="391" unicode="&#170;" /><glyph d="M92 663H287V564H178C107 564 50 515 50 454C50 392 103 342 178 342H330V703H92ZM287 524V382H177C127 382 95 415 95 453C95 489 127 524 177 524Z" glyph-name="ordfeminine.ss01" horiz-adv-x="390" /><glyph d="M45 522C45 420 121 334 231 334C285 334 327 355 359 391V342H402V703H359V655C327 691 284 711 231 711C121 711 45 626 45 522ZM91 522C91 603 151 671 228 671C305 671 360 611 360 523C360 435 309 375 228 375C147 375 91 440 91 522Z" glyph-name="ordfeminine.ss02" horiz-adv-x="462" /><glyph d="M172 334C225 334 274 357 298 391C301 356 328 340 358 340C376 340 386 342 386 342V381C386 381 379 380 375 380C351 380 336 385 336 421V586C336 663 287 711 201 711C117 711 67 655 63 597H109C114 639 149 671 202 671C256 671 293 647 293 588V562L182 548C97 537 50 503 50 439C50 380 93 334 172 334ZM95 439C95 473 124 498 175 506L293 524V492C293 420 247 377 172 377C127 377 95 404 95 439Z" glyph-name="ordfeminine.ss03" horiz-adv-x="391" /><glyph d="M45 522C45 420 125 334 234 334C344 334 424 420 424 522C424 625 344 712 234 712C125 712 45 625 45 522ZM91 522C91 606 150 671 234 671C318 671 377 606 377 522C377 439 318 375 234 375C150 375 91 439 91 522Z" glyph-name="ordmasculine" horiz-adv-x="469" unicode="&#186;" /><glyph d="M307 -11C448 -11 554 103 554 245C554 318 525 385 478 432L516 483L476 511L440 463C402 488 357 502 307 502C166 502 60 386 60 245C60 171 89 104 136 58L98 6L139 -22L175 27C213 3 258 -11 307 -11ZM307 454C345 454 380 442 410 423L167 99C133 136 111 187 111 245C111 363 201 454 307 454ZM503 245C503 128 415 37 307 37C270 37 235 48 205 67L447 391C482 354 503 302 503 245Z" glyph-name="oslash" horiz-adv-x="614" unicode="&#248;" /><glyph d="M307 -11C448 -11 554 103 554 245C554 318 525 385 478 432L516 483L476 511L440 463C402 488 357 502 307 502C166 502 60 386 60 245C60 171 89 104 136 58L98 6L139 -22L175 27C213 3 258 -11 307 -11ZM307 454C345 454 380 442 410 423L167 99C133 136 111 187 111 245C111 363 201 454 307 454ZM503 245C503 128 415 37 307 37C270 37 235 48 205 67L447 391C482 354 503 302 503 245ZM315 569 429 700H359L263 569Z" glyph-name="oslashacute" horiz-adv-x="614" unicode="&#511;" /><glyph d="M307 -11C448 -11 554 103 554 245C554 386 448 502 307 502C166 502 60 386 60 245C60 103 166 -11 307 -11ZM307 454C416 454 503 362 503 245C503 128 415 37 307 37C201 37 111 127 111 245C111 363 201 454 307 454ZM402 692C396 674 388 658 363 658C345 658 326 666 307 674C285 683 268 692 243 692C206 692 177 660 173 610H211C216 629 225 644 250 644C267 644 283 636 299 630C322 621 346 610 371 610C408 610 437 642 441 692Z" glyph-name="otilde" horiz-adv-x="614" unicode="&#245;" /><glyph d="M310 37C202 37 124 133 124 246C124 360 202 453 310 453C424 453 492 363 492 246C492 134 420 37 310 37ZM316 502C233 502 162 462 124 393V490H76V-194H124V97C161 30 233 -11 316 -11C451 -11 541 105 541 246C541 388 451 502 316 502Z" glyph-name="p" horiz-adv-x="601" unicode="p" /><glyph d="M425 270V-193H475V654H579V-193H627V701H323C168 701 70 615 70 485C70 353 168 270 323 270Z" glyph-name="paragraph" horiz-adv-x="717" unicode="&#182;" /><glyph d="M347 695 314 725C209 619 110 471 110 259C110 46 209 -101 313 -205L346 -175C220 -44 158 91 158 259C158 426 223 564 347 695Z" glyph-name="parenleft" horiz-adv-x="397" unicode="(" /><glyph d="M347 786 314 816C209 710 110 562 110 350C110 137 209 -10 313 -114L346 -84C220 47 158 182 158 350C158 517 223 655 347 786Z" glyph-name="parenleft.cap" horiz-adv-x="397" /><glyph d="M51 -175 84 -205C188 -101 287 46 287 259C287 471 188 619 83 725L50 695C174 564 239 426 239 259C239 91 177 -44 51 -175Z" glyph-name="parenright" horiz-adv-x="397" unicode=")" /><glyph d="M51 -85 84 -115C188 -11 287 136 287 349C287 561 188 709 83 815L50 785C174 654 239 516 239 349C239 181 177 46 51 -85Z" glyph-name="parenright.cap" horiz-adv-x="397" /><glyph d="M537 357C537 566 446 712 276 712C196 712 136 678 96 634L132 594C166 630 217 662 276 662C418 662 483 531 486 383C486 359 486 335 484 311C451 398 370 443 283 443C169 443 60 357 60 216C60 71 163 -11 283 -11C433 -11 537 134 537 357ZM449 224C449 119 371 39 277 39C182 39 110 110 110 217C110 330 197 395 280 395C373 395 449 321 449 224Z" glyph-name="partialdiff" horiz-adv-x="597" unicode="&#8706;" /><glyph d="M210 475C276 475 329 528 329 593C329 659 276 712 210 712C143 712 90 659 90 593C90 528 143 475 210 475ZM131 0H182L610 701H559ZM209 672C249 672 285 642 285 593C285 545 249 515 209 515C169 515 134 545 134 593C134 642 169 672 209 672ZM533 -10C599 -10 652 43 652 108C652 174 599 227 533 227C466 227 413 174 413 108C413 43 466 -10 533 -10ZM532 187C572 187 608 157 608 108C608 60 572 30 532 30C492 30 457 60 457 108C457 157 492 187 532 187Z" glyph-name="percent" horiz-adv-x="742" unicode="%" /><glyph d="M144 -11C173 -11 198 12 198 40C198 69 173 93 144 93C116 93 92 69 92 40C92 12 116 -11 144 -11Z" glyph-name="period" horiz-adv-x="290" unicode="." /></font>
</defs>
</svg>
